<svg id="Dada" xmlns="http://www.w3.org/2000/svg" width="3000" height="3000" viewBox="0 0 3000 3000"> 
  <defs> 
    <style> 
      .cls-1, .cls-2 { 
        fill: #31323d; 
      } 
 
      .cls-1 { 
        fill-opacity: 0.2; 
      } 
 
      .cls-2, .cls-3 { 
        fill-rule: evenodd; 
      } 
 
      .cls-3 { 
        fill: #575861; 
      } 
    </style> 
  </defs> 
  <g id="Easel"> 
    <ellipse class="cls-1" cx="568" cy="2728" rx="568" ry="131"/> 
    <path id="Color_Fill_4" data-name="Color Fill 4" class="cls-2" d="M899.293,2039.21c96.614,397.95,180.187,747.51,177.937,747.51-5.21,0-62,5.69-62,5.69s-83.451-361.95-174.839-752.75l-549.673,4.22c-67.651,394.01-132.466,759.91-140.256,759.91-16.82,0-53.462,2.85-53.462,2.85s60.912-357.39,131.147-762.28L145,2045l3-77s36.458-.42,93.568-0.93C329.612,1460.58,426.923,911.433,436,905.383c16.881-11.251,168.843-10.568,180-2.383,6.057,4.443,143.022,559.29,266.133,1065.59,25.159,1.11,40.357,2.56,41.867,4.41,11.2,13.76,3,66,3,66ZM608,1083c-14.313-5.28-152.01-7.56-155,3.54-1.516,5.62-74.855,446.46-149.029,880.01,154.785-1.2,387.438-2.32,519.38.31C721.33,1531.33,615.308,1085.69,608,1083Z"/> 
    <path id="Color_Fill_6" data-name="Color Fill 6" class="cls-2" d="M566.517,1090.61c-3.305.07-12.278,0.47-23.575,0.85L540,2638.86l-50.846,5.69c-13.326,0-6.716-1358.89-3.7-1552.98-7.637-.47-13.678-1.28-16.775-2.57-13.881-5.79-3-25-3-25l23.033-2.91c6.832-9.72,24.767-7.9,38.167-4.83l33.642-4.26S577.456,1090.4,566.517,1090.61Z"/> 
    <path class="cls-3" d="M5.119,1162.12H1084.88v813.76H5.119V1162.12Z"/> 
  </g> 
</svg> 
