<?xml version="1.0" encoding="utf-8"?>
<!-- Generator: Adobe Illustrator 16.0.0, SVG Export Plug-In . SVG Version: 6.00 Build 0)  -->
<!DOCTYPE svg PUBLIC "-//W3C//DTD SVG 1.1//EN" "http://www.w3.org/Graphics/SVG/1.1/DTD/svg11.dtd">
<svg version="1.1" xmlns="http://www.w3.org/2000/svg" xmlns:xlink="http://www.w3.org/1999/xlink" x="0px" y="0px" width="2250px"
	 height="2250px" viewBox="0 0 2250 2250" enable-background="new 0 0 2250 2250" xml:space="preserve">
<g id="Layer_2">
</g>
<g id="Layer_1">
	<g>
		<g>
			<defs>
				<path id="SVGID_1_" d="M1516.546,1590.363c0,0,15.246-78.621,4.215-117.074l-66.488-215.625l-720.972,5.625l-45.127,236.625
					c-3.984,29.707-0.733,59.934,9.476,88.125c0,0,16.906,56.113,78.897,96.301c3.408,2.102,6.867,4.074,10.376,5.926l0.153,2.551
					l-3.435-79.307l0.021-33.307l18.537-13.676l26.292-1l24.803,8l24.243,26.951l11.428,18.049l10.954,19.201l-14.995,74.213
					h401.252l-13.007-74.213l31.368-49.053l12-20.148l34-7.113l20.176,4.453l16.699,12.668l8.668,21.943l-5.816,16.1l-1.801,89.137
					c17.33-4.617,33.9-11.715,49.188-21.074C1437.651,1684.641,1491.554,1649.199,1516.546,1590.363z"/>
			</defs>
			<use xlink:href="#SVGID_1_"  overflow="visible" fill="#E484A9"/>
			<clipPath id="SVGID_2_">
				<use xlink:href="#SVGID_1_"  overflow="visible"/>
			</clipPath>
			<g clip-path="url(#SVGID_2_)">
				<defs>
					<rect id="SVGID_3_" x="1.406" y="17" width="2250" height="2250"/>
				</defs>
				<clipPath id="SVGID_4_">
					<use xlink:href="#SVGID_3_"  overflow="visible"/>
				</clipPath>
			</g>
			<use xlink:href="#SVGID_1_"  overflow="visible" fill="none" stroke="#21254E" stroke-width="8" stroke-miterlimit="10"/>
		</g>
		<g>
			<path fill="none" stroke="#21254E" stroke-width="20" stroke-linecap="round" stroke-miterlimit="10" d="M1648.941,835.963
				c0,244.641-253.168,442.964-565.476,442.964c-494.649,0-565.468-286.718-565.468-442.964
				C517.998,591.319,771.164,393,1083.466,393C1395.773,393,1648.941,591.319,1648.941,835.963z"/>
			<path fill="#E65C88" stroke="#21254E" stroke-width="8" stroke-miterlimit="10" d="M740.392,1216.963
				c0,0,271.764,40.673,695.919-21.908l24.532,83.87c0,0-349.619,116.447-729.812,0L740.392,1216.963z"/>
			<polygon fill="#9390BB" stroke="#21254E" stroke-width="5" stroke-miterlimit="10" points="858.585,1304.009 832.144,1298.84 
				846.001,1228.992 872.445,1229.381 			"/>
			<polygon fill="#9390BB" stroke="#21254E" stroke-width="5" stroke-miterlimit="10" points="910.362,1314.014 853.295,1302.861 
				868.038,1229.381 924.636,1229.381 			"/>
		</g>
		<path opacity="0.2" d="M596.302,937.803h20.059c0,0,4.012,26.747,14.712,38.783C641.77,988.622,604.325,969.898,596.302,937.803z"
			/>
		<rect x="590.952" y="877.627" opacity="0.2" width="18.721" height="42.793"/>
		<path opacity="0.2" d="M587.608,853.553h27.033c0,0-24.357-143.087,186.932-289.52
			C801.573,564.034,619.702,592.786,587.608,853.553z"/>
		<circle opacity="0.2" cx="808.927" cy="606.16" r="10.698"/>
		<circle opacity="0.2" cx="827.316" cy="559.689" r="13.708"/>
		<circle opacity="0.2" cx="855.733" cy="597.465" r="18.723"/>
		<g>
			<path fill="#E65C88" stroke="#21254E" stroke-width="8" stroke-miterlimit="10" d="M897.739,1656.662l7.797-12.236
				c0,0,8.578-21.77-27.021-69.029c-35.601-47.258-122.529-45.092-107.91,37.375l11.749,15.68c0,0,5.381-57.492,47.778-53.031
				C872.527,1579.883,897.739,1656.662,897.739,1656.662z"/>
			<polygon fill="#9390BB" stroke="#21254E" stroke-width="5" stroke-miterlimit="10" points="802.2,1547.547 802.2,1578.535 
				817.694,1576.002 818.054,1544.293 			"/>
		</g>
		<g>
			<path fill="#E65C88" stroke="#21254E" stroke-width="8" stroke-miterlimit="10" d="M1275.175,1656.662l-7.797-12.236
				c0,0-8.578-21.77,27.021-69.029c35.602-47.258,122.529-45.092,107.91,37.375l-11.749,15.68c0,0-5.381-57.492-47.777-53.031
				C1300.387,1579.883,1275.175,1656.662,1275.175,1656.662z"/>
			<polygon fill="#9390BB" stroke="#21254E" stroke-width="5" stroke-miterlimit="10" points="1370.714,1547.547 1370.714,1578.535 
				1355.221,1576.002 1354.86,1544.293 			"/>
		</g>
		<g>
			<polygon fill="#A09ECE" stroke="#21254E" stroke-width="8" stroke-miterlimit="10" points="1085.428,1521.656 1085.428,1710.834 
				1129.396,1712.893 1136.283,1521.656 			"/>
			
				<line fill="none" stroke="#21254E" stroke-width="8" stroke-miterlimit="10" x1="1085.428" y1="1558.24" x2="1134.965" y2="1558.24"/>
			
				<line fill="none" stroke="#21254E" stroke-width="8" stroke-miterlimit="10" x1="1085.428" y1="1595.146" x2="1133.636" y2="1595.146"/>
			
				<line fill="none" stroke="#21254E" stroke-width="8" stroke-miterlimit="10" x1="1085.428" y1="1630.025" x2="1132.38" y2="1630.025"/>
			
				<line fill="none" stroke="#21254E" stroke-width="8" stroke-miterlimit="10" x1="1085.428" y1="1669.189" x2="1136.283" y2="1669.189"/>
		</g>
		<g>
			<polygon fill="#A09ECE" stroke="#21254E" stroke-width="8" stroke-miterlimit="10" points="1085.769,1521.918 1085.769,1332.738 
				1129.735,1330.68 1136.623,1521.918 			"/>
			
				<line fill="none" stroke="#21254E" stroke-width="8" stroke-miterlimit="10" x1="1085.769" y1="1485.332" x2="1135.305" y2="1485.332"/>
			
				<line fill="none" stroke="#21254E" stroke-width="8" stroke-miterlimit="10" x1="1085.769" y1="1448.426" x2="1133.976" y2="1448.426"/>
			
				<line fill="none" stroke="#21254E" stroke-width="8" stroke-miterlimit="10" x1="1085.769" y1="1413.549" x2="1132.722" y2="1413.549"/>
			
				<line fill="none" stroke="#21254E" stroke-width="8" stroke-miterlimit="10" x1="1085.769" y1="1374.383" x2="1136.623" y2="1374.383"/>
		</g>
		<path opacity="0.2" fill="#31323D" d="M794.208,1230.912c0,0-19.781,298.643,7.992,316.635c0,0-48.023,63.977-17.843,82.479
			l2.566,60.24c0,0-100.395-51.084-100.401-154.738s48.059-276.982,55.72-317.266L794.208,1230.912z"/>
		<path opacity="0.2" fill="#31323D" d="M1281.074,1595.146c0,0-47.28,95.619-124.536,87.957s-191.902,25.182-249.565-53.078
			c0,0-0.157,19.92-9.233,26.637l-10.162,56.23l398.599-0.951l-11.002-55.279C1275.175,1656.662,1253.61,1643.766,1281.074,1595.146
			z"/>
		<linearGradient id="SVGID_5_" gradientUnits="userSpaceOnUse" x1="1456.6914" y1="1700.3457" x2="1456.6914" y2="1206.25">
			<stop  offset="0" style="stop-color:#FFFFFF"/>
			<stop  offset="0.72" style="stop-color:#FFFFFF"/>
			<stop  offset="1" style="stop-color:#FFFFFF"/>
		</linearGradient>
		<path opacity="0.2" fill="url(#SVGID_5_)" d="M1402.34,1211.123c0,0,196.987,372.496-9.677,442.896l-0.097,46.326
			c0,0,71.138-12.82,120.264-109.418c0,0,13.708-87.4,5.208-111.9s-84.5-272.777-84.5-272.777L1402.34,1211.123z"/>
		<g>
			
				<text transform="matrix(0.9847 -0.174 0.174 0.9847 1302.7031 1417.8574)" fill="#E65C88" stroke="#21254E" stroke-width="5" stroke-miterlimit="10" font-family="'AgencyFB-Reg'" font-size="102.9922">KH</text>
		</g>
	</g>
	<rect x="1" fill="none" stroke="#AFD0F7" stroke-miterlimit="10" width="2250" height="2250"/>
</g>
</svg>
