<?xml version="1.0" encoding="utf-8"?>
<!-- Generator: Adobe Illustrator 16.0.0, SVG Export Plug-In . SVG Version: 6.00 Build 0)  -->
<!DOCTYPE svg PUBLIC "-//W3C//DTD SVG 1.1//EN" "http://www.w3.org/Graphics/SVG/1.1/DTD/svg11.dtd">
<svg version="1.1" id="Layer_1" xmlns="http://www.w3.org/2000/svg" xmlns:xlink="http://www.w3.org/1999/xlink" x="0px" y="0px"
	 width="3000px" height="3000px" viewBox="0 0 3000 3000" enable-background="new 0 0 3000 3000" xml:space="preserve">
<g display="none">
	<path display="inline" fill="#FFCCFD" d="M1401.637,270.407"/>
	<path display="inline" fill="#31323D" d="M1393.96,203.087c0,0,5.871-14.45,15.354,0c9.481,14.45,131.858,208.627,131.858,208.627
		s7.226,13.547,0,21.901c-7.225,8.354-133.215,156.02-133.215,156.02s-5.871,9.483-13.999,0
		c-8.128-9.481-132.313-158.955-132.313-158.955s-8.578-9.03-0.45-19.87C1269.325,399.974,1393.96,203.087,1393.96,203.087z"/>
	<polygon display="inline" fill="#4EB757" points="1396.218,365.203 1275.646,410.813 1396.218,222.957 	"/>
	<polygon display="inline" fill="#7EC68E" points="1275.646,422.553 1396.218,375.589 1396.218,469.517 	"/>
	<polygon display="inline" fill="#4EB757" points="1406.582,365.203 1527.152,410.813 1406.582,222.957 	"/>
	<polygon display="inline" fill="#7EC68E" points="1527.152,422.553 1406.582,375.589 1406.582,469.517 	"/>
	<polygon display="inline" fill="#4EB757" points="1527.152,431.132 1405.678,479.451 1405.678,576.991 	"/>
	<g display="inline">
		<polygon fill="#4EB757" points="1275.646,431.132 1397.121,479.451 1397.121,576.991 		"/>
		<polygon fill="#5A7F54" points="1275.195,431.132 1356.307,463.395 1396.669,576.991 		"/>
		<polygon fill="none" stroke="#31323D" stroke-miterlimit="10" points="1275.195,431.133 1396.669,479.45 1396.669,576.99 		"/>
	</g>
	<path display="inline" fill="#4EB757" d="M1275.195,422.354l66.833-25.739c0,0-10.839,13.458-0.452,32.018
		c10.386,18.562,9.935,23.074,9.935,23.074L1275.195,422.354z"/>
	<polygon display="inline" fill="none" stroke="#31323D" stroke-miterlimit="10" points="1275.195,422.354 1396.766,375.589 
		1396.766,469.517 	"/>
	<polygon display="inline" fill="#5A7F54" points="1343.327,385.21 1275.646,410.811 1396.218,222.957 	"/>
	<polygon display="inline" fill="none" stroke="#31323D" stroke-miterlimit="10" points="1396.218,365.203 1275.646,410.811 
		1396.218,222.957 	"/>
	<path display="inline" fill="#36B258" d="M1552.895,298.83c2.957,3.615,8.123,4.375,11.543,1.698l28.826-22.591
		c3.416-2.68,3.791-7.782,0.834-11.396l0,0c-2.957-3.615-8.121-4.375-11.539-1.697l-28.826,22.591
		C1550.314,290.113,1549.939,295.214,1552.895,298.83L1552.895,298.83z"/>
	<path display="inline" fill="#36B258" d="M1264.724,298.83c-2.956,3.615-8.123,4.375-11.541,1.698l-28.824-22.591
		c-3.418-2.68-3.793-7.782-0.837-11.396l0,0c2.957-3.615,8.123-4.375,11.541-1.697l28.826,22.591
		C1267.305,290.113,1267.68,295.214,1264.724,298.83L1264.724,298.83z"/>
	<path display="inline" fill="#36B258" d="M1552.895,536.131c2.957-3.614,8.123-4.375,11.543-1.699l28.824,22.593
		c3.418,2.68,3.791,7.779,0.836,11.396l0,0c-2.955,3.616-8.123,4.375-11.539,1.699l-28.826-22.591
		C1550.314,544.847,1549.939,539.745,1552.895,536.131L1552.895,536.131z"/>
	<path display="inline" fill="#36B258" d="M1264.724,536.131c-2.956-3.614-8.123-4.375-11.541-1.699l-28.824,22.593
		c-3.418,2.68-3.793,7.779-0.837,11.396l0,0c2.957,3.616,8.123,4.375,11.541,1.699l28.826-22.591
		C1267.305,544.847,1267.68,539.745,1264.724,536.131L1264.724,536.131z"/>
</g>
<g display="none">
	<g display="inline">
		<polygon fill="#5A7F54" points="1275.879,422.304 1406.874,360.391 1537.87,422.304 1406.874,512.242 		"/>
		<polygon fill="#4EB757" points="1406.875,360.391 1406.875,460.756 1537.87,422.304 		"/>
		<polyline fill="#7AC373" points="1275.879,422.304 1406.875,360.391 1406.875,460.756 		"/>
	</g>
	<g display="inline">
		
			<line fill="none" stroke="#36B258" stroke-width="5" stroke-miterlimit="10" x1="1267.42" y1="422.578" x2="1405.814" y2="640.578"/>
		
			<line fill="none" stroke="#7EC68E" stroke-width="3" stroke-miterlimit="10" x1="1264.454" y1="419.321" x2="1405.814" y2="557.476"/>
		
			<line fill="none" stroke="#7EC68E" stroke-width="3" stroke-miterlimit="10" x1="1288.328" y1="455.511" x2="1376.489" y2="507.946"/>
		
			<line fill="none" stroke="#7EC68E" stroke-width="3" stroke-miterlimit="10" x1="1305.932" y1="483.243" x2="1379.125" y2="507.946"/>
		
			<line fill="none" stroke="#7EC68E" stroke-width="3" stroke-miterlimit="10" x1="1336.618" y1="531.578" x2="1388.021" y2="578.982"/>
		<path fill="none" stroke="#7EC68E" stroke-width="3" stroke-miterlimit="10" d="M1388.021,580.287l-10.216-72.341
			c3.493,0-15.486,64.118-15.486,64.118"/>
		
			<line fill="none" stroke="#7EC68E" stroke-width="3" stroke-miterlimit="10" x1="1387.837" y1="578.982" x2="1405.814" y2="642.991"/>
		<ellipse fill="#7EC68E" cx="1377.313" cy="508.158" rx="5.437" ry="5.377"/>
		<ellipse fill="#7EC68E" cx="1387.692" cy="578.379" rx="5.437" ry="5.376"/>
		<line fill="none" stroke="#36B258" stroke-width="5" stroke-miterlimit="10" x1="1544.128" y1="423" x2="1405.732" y2="641"/>
		
			<line fill="none" stroke="#7EC68E" stroke-width="3" stroke-miterlimit="10" x1="1547.093" y1="419.743" x2="1405.732" y2="557.898"/>
		
			<line fill="none" stroke="#7EC68E" stroke-width="3" stroke-miterlimit="10" x1="1523.22" y1="455.933" x2="1435.058" y2="508.368"/>
		
			<line fill="none" stroke="#7EC68E" stroke-width="3" stroke-miterlimit="10" x1="1505.615" y1="483.665" x2="1432.423" y2="508.368"/>
		<line fill="none" stroke="#7EC68E" stroke-width="3" stroke-miterlimit="10" x1="1474.93" y1="532" x2="1423.525" y2="579.405"/>
		<path fill="none" stroke="#7EC68E" stroke-width="3" stroke-miterlimit="10" d="M1423.525,580.709l10.214-72.341
			c-3.491,0,15.487,64.118,15.487,64.118"/>
		
			<line fill="none" stroke="#7EC68E" stroke-width="3" stroke-miterlimit="10" x1="1423.711" y1="579.405" x2="1405.732" y2="643.413"/>
		<ellipse fill="#7EC68E" cx="1423.854" cy="578.379" rx="5.438" ry="5.376"/>
		<ellipse fill="#7EC68E" cx="1435.058" cy="508.158" rx="5.438" ry="5.377"/>
		<path fill="#36B258" d="M1414.712,642.993c0,4.856-3.985,8.798-8.896,8.798l0,0c-4.916,0-8.897-3.941-8.897-8.798l0,0
			c0-4.861,3.981-8.798,8.897-8.798l0,0C1410.727,634.195,1414.712,638.132,1414.712,642.993L1414.712,642.993z"/>
		<path fill="#36B258" d="M1273.351,419.321c0,4.858-3.984,8.798-8.896,8.798l0,0c-4.916,0-8.897-3.938-8.897-8.798l0,0
			c0-4.859,3.981-8.798,8.897-8.798l0,0C1269.366,410.523,1273.351,414.462,1273.351,419.321L1273.351,419.321z"/>
		<ellipse fill="#36B258" cx="1288.344" cy="457.485" rx="5.438" ry="5.376"/>
		<ellipse fill="#36B258" cx="1305.932" cy="483.995" rx="5.438" ry="5.377"/>
		<ellipse fill="#36B258" cx="1335.794" cy="532.548" rx="5.437" ry="5.376"/>
		<ellipse fill="#36B258" cx="1361.002" cy="571.162" rx="5.438" ry="5.377"/>
		<ellipse fill="#36B258" cx="1523.202" cy="457.485" rx="5.437" ry="5.376"/>
		<ellipse fill="#36B258" cx="1505.615" cy="484.417" rx="5.437" ry="5.377"/>
		<ellipse fill="#36B258" cx="1475.754" cy="532.97" rx="5.438" ry="5.376"/>
		<ellipse fill="#36B258" cx="1450.544" cy="571.584" rx="5.437" ry="5.377"/>
		<ellipse fill="#36B258" cx="1405.814" cy="557.476" rx="5.438" ry="5.376"/>
		<path fill="#36B258" d="M1557.967,417.496c0,4.859-3.984,8.798-8.896,8.798l0,0c-4.916,0-8.897-3.938-8.897-8.798l0,0
			c0-4.859,3.981-8.798,8.897-8.798l0,0C1553.98,408.698,1557.967,412.637,1557.967,417.496L1557.967,417.496z"/>
	</g>
	<polyline display="inline" fill="none" stroke="#7EC68E" stroke-width="3" stroke-miterlimit="10" points="1378.887,327.229 
		1361.505,264.92 1343.724,381.578 	"/>
	
		<line display="inline" fill="none" stroke="#7EC68E" stroke-width="3" stroke-miterlimit="10" x1="1338.358" y1="303.484" x2="1371.365" y2="367.377"/>
	
		<line display="inline" fill="none" stroke="#7EC68E" stroke-width="3" stroke-miterlimit="10" x1="1307.803" y1="353.035" x2="1378.298" y2="328.635"/>
	
		<line display="inline" fill="none" stroke="#7EC68E" stroke-width="3" stroke-miterlimit="10" x1="1268.649" y1="415.304" x2="1405.957" y2="280.408"/>
	
		<line display="inline" fill="none" stroke="#7EC68E" stroke-width="3" stroke-miterlimit="10" x1="1290.711" y1="380.274" x2="1378.298" y2="328.635"/>
	<path display="inline" fill="#36B258" d="M1273.835,418.044c0,4.859-3.982,8.798-8.891,8.798l0,0c-4.91,0-8.892-3.938-8.892-8.798
		l0,0c0-4.859,3.98-8.798,8.892-8.798l0,0C1269.854,409.246,1273.835,413.185,1273.835,418.044L1273.835,418.044z"/>
	<path display="inline" fill="#36B258" d="M1416.823,193.689c0,4.859-3.982,8.798-8.892,8.798l0,0c-4.912,0-8.891-3.939-8.891-8.798
		l0,0c0-4.859,3.979-8.798,8.891-8.798l0,0C1412.841,184.891,1416.823,188.83,1416.823,193.689L1416.823,193.689z"/>
	
		<line display="inline" fill="none" stroke="#36B258" stroke-width="5" stroke-miterlimit="10" x1="1264.945" y1="418.044" x2="1406.945" y2="191.602"/>
	<ellipse display="inline" fill="#36B258" cx="1288.571" cy="380.274" rx="5.433" ry="5.377"/>
	<ellipse display="inline" fill="#36B258" cx="1305.79" cy="353.035" rx="5.433" ry="5.376"/>
	<ellipse display="inline" fill="#36B258" cx="1361.505" cy="264.92" rx="5.433" ry="5.377"/>
	<ellipse display="inline" fill="#36B258" cx="1343.333" cy="380.274" rx="4.971" ry="4.919"/>
	<ellipse display="inline" fill="#36B258" cx="1370.358" cy="366.039" rx="3.42" ry="3.384"/>
	<ellipse display="inline" fill="#36B258" cx="1311.223" cy="396.313" rx="3.42" ry="3.384"/>
	
		<line display="inline" fill="none" stroke="#36B258" stroke-width="3" stroke-miterlimit="10" x1="1271.849" y1="415.304" x2="1404.875" y2="347.851"/>
	<path display="inline" fill="none" stroke="#36B258" stroke-miterlimit="10" d="M1402.665,344.928"/>
	
		<line display="inline" fill="none" stroke="#36B258" stroke-width="3" stroke-miterlimit="10" x1="1343.724" y1="378.166" x2="1339.278" y2="306.802"/>
	<polyline display="inline" fill="none" stroke="#7EC68E" stroke-width="3" stroke-miterlimit="10" points="1339.278,302.24 
		1387.848,259.543 1380.125,323.077 	"/>
	
		<line display="inline" fill="none" stroke="#36B258" stroke-width="3" stroke-miterlimit="10" x1="1389.093" y1="259.543" x2="1405.957" y2="341.67"/>
	
		<line display="inline" fill="none" stroke="#36B258" stroke-width="3" stroke-miterlimit="10" x1="1389.093" y1="256.62" x2="1405.957" y2="197.313"/>
	
		<line display="inline" fill="none" stroke="#36B258" stroke-width="3" stroke-miterlimit="10" x1="1307.803" y1="356.457" x2="1311.222" y2="396.313"/>
	
		<line display="inline" fill="none" stroke="#7EC68E" stroke-width="3" stroke-miterlimit="10" x1="1381.262" y1="328.635" x2="1404.64" y2="345.245"/>
	<ellipse display="inline" fill="#7EC68E" cx="1378.886" cy="327.229" rx="4.375" ry="4.328"/>
	<ellipse display="inline" fill="#36B258" cx="1337.303" cy="303.534" rx="5.434" ry="5.377"/>
	<polyline display="inline" fill="none" stroke="#7EC68E" stroke-width="3" stroke-miterlimit="10" points="1436.287,329.208 
		1453.668,266.899 1471.449,383.557 	"/>
	
		<line display="inline" fill="none" stroke="#7EC68E" stroke-width="3" stroke-miterlimit="10" x1="1476.814" y1="305.463" x2="1443.811" y2="369.356"/>
	
		<line display="inline" fill="none" stroke="#7EC68E" stroke-width="3" stroke-miterlimit="10" x1="1507.37" y1="355.014" x2="1436.875" y2="330.614"/>
	
		<line display="inline" fill="none" stroke="#7EC68E" stroke-width="3" stroke-miterlimit="10" x1="1546.524" y1="417.282" x2="1409.216" y2="282.387"/>
	
		<line display="inline" fill="none" stroke="#7EC68E" stroke-width="3" stroke-miterlimit="10" x1="1524.463" y1="382.253" x2="1436.875" y2="330.614"/>
	
		<line display="inline" fill="none" stroke="#36B258" stroke-width="5" stroke-miterlimit="10" x1="1550.229" y1="420.024" x2="1408.229" y2="193.581"/>
	<path display="inline" fill="#36B258" d="M1503.951,355.014c0,2.969,2.432,5.376,5.434,5.376c2.997,0,5.434-2.408,5.434-5.376
		c0-2.969-2.437-5.377-5.434-5.377C1506.383,349.637,1503.951,352.045,1503.951,355.014z"/>
	<ellipse display="inline" fill="#36B258" cx="1455.645" cy="264.944" rx="5.433" ry="5.376"/>
	<ellipse display="inline" fill="#36B258" cx="1446.79" cy="366.063" rx="3.421" ry="3.384"/>
	
		<line display="inline" fill="none" stroke="#36B258" stroke-width="3" stroke-miterlimit="10" x1="1543.325" y1="417.282" x2="1410.299" y2="349.83"/>
	
		<line display="inline" fill="none" stroke="#36B258" stroke-width="3" stroke-miterlimit="10" x1="1471.449" y1="380.145" x2="1475.895" y2="308.781"/>
	<polyline display="inline" fill="none" stroke="#7EC68E" stroke-width="3" stroke-miterlimit="10" points="1475.895,304.219 
		1427.325,261.522 1435.048,325.056 	"/>
	
		<line display="inline" fill="none" stroke="#36B258" stroke-width="3" stroke-miterlimit="10" x1="1426.081" y1="261.522" x2="1409.216" y2="343.648"/>
	
		<line display="inline" fill="none" stroke="#36B258" stroke-width="3" stroke-miterlimit="10" x1="1426.081" y1="258.599" x2="1409.216" y2="199.292"/>
	
		<line display="inline" fill="none" stroke="#36B258" stroke-width="3" stroke-miterlimit="10" x1="1507.37" y1="358.436" x2="1503.951" y2="398.292"/>
	
		<line display="inline" fill="none" stroke="#7EC68E" stroke-width="3" stroke-miterlimit="10" x1="1433.912" y1="330.614" x2="1410.532" y2="347.224"/>
	<ellipse display="inline" fill="#7EC68E" cx="1436.287" cy="329.208" rx="4.374" ry="4.329"/>
	<ellipse display="inline" fill="#36B258" cx="1477.87" cy="305.514" rx="5.433" ry="5.376"/>
	<path display="inline" fill="#36B258" d="M1558.083,418.044c0,4.859-3.982,8.798-8.89,8.798l0,0c-4.913,0-8.893-3.938-8.893-8.798
		l0,0c0-4.859,3.979-8.798,8.893-8.798l0,0C1554.101,409.246,1558.083,413.185,1558.083,418.044L1558.083,418.044z"/>
	<path display="inline" fill="#36B258" d="M1416.823,347.658c0,4.859-3.982,8.798-8.892,8.798l0,0c-4.912,0-8.891-3.939-8.891-8.798
		l0,0c0-4.859,3.979-8.798,8.891-8.798l0,0C1412.841,338.86,1416.823,342.799,1416.823,347.658L1416.823,347.658z"/>
	<ellipse display="inline" fill="#36B258" cx="1473.816" cy="380.274" rx="4.971" ry="4.919"/>
	<ellipse display="inline" fill="#36B258" cx="1505.926" cy="396.313" rx="3.419" ry="3.384"/>
	<ellipse display="inline" fill="#36B258" cx="1389.093" cy="258.799" rx="4.375" ry="4.328"/>
	<ellipse display="inline" fill="#36B258" cx="1426.08" cy="260.778" rx="4.374" ry="4.329"/>
	<ellipse display="inline" fill="#36B258" cx="1406.945" cy="278.118" rx="5.197" ry="5.144"/>
</g>
<g>
	<path fill="#FFCCFD" d="M1408.263,207.997"/>
	<polygon opacity="0.16" fill="#5A7F54" enable-background="new    " points="1232.264,431.715 1345.584,476.623 1401.975,634.743 	
		"/>
	<path opacity="0.16" fill="#4EB757" enable-background="new    " d="M1232.264,419.495l93.027-35.827
		c0,0-15.087,18.732-0.629,44.566c14.456,25.835,13.828,32.117,13.828,32.117L1232.264,419.495z"/>
	<polygon opacity="0.16" fill="#5A7F54" enable-background="new    " points="1327.099,367.795 1232.892,403.429 1400.72,141.949 	
		"/>
	<path fill="#36B258" d="M1618.803,247.559c4.116,5.032,11.308,6.09,16.067,2.364l40.124-31.445
		c4.756-3.731,5.277-10.833,1.162-15.863l0,0c-4.116-5.032-11.306-6.089-16.063-2.362l-40.123,31.446
		C1615.212,235.425,1614.689,242.526,1618.803,247.559L1618.803,247.559z"/>
	<path fill="#36B258" d="M1217.688,247.559c-4.114,5.032-11.307,6.09-16.063,2.364l-40.123-31.445
		c-4.758-3.731-5.28-10.833-1.164-15.863l0,0c4.116-5.032,11.308-6.089,16.064-2.362l40.125,31.446
		C1221.281,235.425,1221.803,242.526,1217.688,247.559L1217.688,247.559z"/>
	<path fill="#36B258" d="M1618.803,577.868c4.116-5.031,11.308-6.09,16.067-2.365l40.122,31.446
		c4.758,3.729,5.275,10.83,1.164,15.86l0,0c-4.114,5.034-11.309,6.091-16.063,2.366l-40.123-31.444
		C1615.212,590,1614.689,582.898,1618.803,577.868L1618.803,577.868z"/>
	<path fill="#36B258" d="M1217.688,577.868c-4.114-5.031-11.307-6.09-16.063-2.365l-40.123,31.446
		c-4.758,3.729-5.28,10.83-1.164,15.86l0,0c4.116,5.034,11.308,6.091,16.064,2.366l40.125-31.444
		C1221.281,590,1221.803,582.898,1217.688,577.868L1217.688,577.868z"/>
</g>
<line fill="none" stroke="#7EC68E" stroke-width="4" stroke-miterlimit="10" x1="1217.27" y1="416.741" x2="1409.684" y2="574.148"/>
<line fill="none" stroke="#7EC68E" stroke-width="4" stroke-miterlimit="10" x1="1265.226" y1="480.41" x2="1378.921" y2="522.335"/>
<path fill="#7EC68E" d="M1415.001,572.164c0,4.13-3.388,7.484-7.567,7.484c-4.179,0-7.566-3.354-7.566-7.484
	c0-4.136,3.388-7.484,7.566-7.484C1411.613,564.68,1415.001,568.028,1415.001,572.164z"/>
<path fill="#7EC68E" d="M1412.568,653.472c0,4.13-3.39,7.483-7.567,7.483c-4.18,0-7.569-3.354-7.569-7.483
	c0-4.136,3.39-7.483,7.569-7.483C1409.18,645.988,1412.568,649.336,1412.568,653.472z"/>
<ellipse fill="#36B258" stroke="#36B258" stroke-width="6" stroke-miterlimit="10" cx="1265.322" cy="481.482" rx="7.566" ry="7.483"/>
<line fill="none" stroke="#7EC68E" stroke-width="4" stroke-miterlimit="10" x1="1378.449" y1="515.005" x2="1384.121" y2="592.13"/>
<line fill="none" stroke="#7EC68E" stroke-width="4" stroke-miterlimit="10" x1="1298.515" y1="521.569" x2="1379.36" y2="522.335"/>
<ellipse fill="#36B258" stroke="#36B258" stroke-width="6" stroke-miterlimit="10" cx="1298.515" cy="521.569" rx="7.568" ry="7.484"/>
<polyline fill="none" stroke="#7EC68E" stroke-width="4" stroke-miterlimit="10" points="1330.316,560.181 1383.806,587.857 
	1407.433,645.988 "/>
<ellipse fill="#36B258" stroke="#36B258" stroke-width="6" stroke-miterlimit="10" cx="1330.317" cy="560.181" rx="7.568" ry="7.484"/>
<line fill="none" stroke="#7EC68E" stroke-width="4" stroke-miterlimit="10" x1="1362.117" y1="597.161" x2="1378.921" y2="521.428"/>
<ellipse fill="#36B258" stroke="#36B258" stroke-width="6" stroke-miterlimit="10" cx="1362.116" cy="597.161" rx="7.566" ry="7.484"/>
<line fill="none" stroke="#7EC68E" stroke-width="4" stroke-miterlimit="10" x1="1600.382" y1="416.508" x2="1404.806" y2="573.916"/>
<line fill="none" stroke="#7EC68E" stroke-width="4" stroke-miterlimit="10" x1="1551.639" y1="480.177" x2="1436.075" y2="522.104"/>
<path fill="#7EC68E" stroke="#36B258" stroke-width="6" stroke-miterlimit="10" d="M1399.401,571.93c0,4.13,3.443,7.484,7.69,7.484
	c4.249,0,7.692-3.354,7.692-7.484c0-4.135-3.444-7.483-7.692-7.483C1402.845,564.446,1399.401,567.795,1399.401,571.93z"/>
<ellipse fill="#36B258" stroke="#36B258" stroke-width="6" stroke-miterlimit="10" cx="1552.932" cy="481.249" rx="7.692" ry="7.483"/>
<line fill="none" stroke="#7EC68E" stroke-width="4" stroke-miterlimit="10" x1="1436.555" y1="514.771" x2="1430.789" y2="591.896"/>
<line fill="none" stroke="#7EC68E" stroke-width="4" stroke-miterlimit="10" x1="1517.803" y1="521.336" x2="1435.628" y2="522.104"/>
<ellipse fill="#36B258" stroke="#36B258" stroke-width="6" stroke-miterlimit="10" cx="1519.193" cy="521.336" rx="7.691" ry="7.484"/>
<polyline fill="none" stroke="#7EC68E" stroke-width="4" stroke-miterlimit="10" points="1486.869,559.948 1432.501,587.624 
	1408.486,645.755 "/>
<ellipse fill="#36B258" stroke="#36B258" stroke-width="6" stroke-miterlimit="10" cx="1485.477" cy="559.949" rx="7.693" ry="7.483"/>
<line fill="none" stroke="#7EC68E" stroke-width="4" stroke-miterlimit="10" x1="1453.154" y1="596.928" x2="1436.075" y2="521.195"/>
<ellipse fill="#36B258" stroke="#36B258" stroke-width="6" stroke-miterlimit="10" cx="1453.155" cy="598.32" rx="7.69" ry="7.484"/>
<path fill="#36B258" stroke="#36B258" stroke-width="3" stroke-miterlimit="10" d="M1423.172,644.414
	c0,8.39-6.877,15.189-15.35,15.189l0,0c-8.479,0-15.351-6.801-15.351-15.189l0,0c0-8.39,6.873-15.189,15.351-15.189l0,0
	C1416.295,629.225,1423.172,636.024,1423.172,644.414L1423.172,644.414z"/>
<path fill="#7EC68E" stroke="#7EC68E" stroke-miterlimit="10" d="M1445.958,521.952c0,5.638-4.624,10.216-10.33,10.216
	s-10.329-4.578-10.329-10.216c0-5.646,4.624-10.215,10.329-10.215S1445.958,516.308,1445.958,521.952z"/>
<path fill="#7EC68E" stroke="#7EC68E" stroke-miterlimit="10" d="M1423.416,586.311c0,4.131,3.443,7.484,7.691,7.484
	s7.691-3.354,7.691-7.484c0-4.135-3.443-7.482-7.691-7.482S1423.416,582.176,1423.416,586.311z"/>
<path fill="#7EC68E" stroke="#7EC68E" stroke-miterlimit="10" d="M1391.375,586.544c0,4.13-3.388,7.484-7.567,7.484
	s-7.566-3.354-7.566-7.484c0-4.135,3.387-7.484,7.566-7.484S1391.375,582.409,1391.375,586.544z"/>
<path fill="#7EC68E" stroke="#7EC68E" stroke-miterlimit="10" d="M1388.778,522.335c0,5.638-4.624,10.216-10.329,10.216
	s-10.33-4.578-10.33-10.216c0-5.645,4.624-10.215,10.33-10.215S1388.778,516.691,1388.778,522.335z"/>
<line fill="none" stroke="#7EC68E" stroke-width="4" stroke-miterlimit="10" x1="1218.306" y1="419.774" x2="1407.092" y2="289.405"/>
<polyline fill="none" stroke="#7EC68E" stroke-width="4" stroke-miterlimit="10" points="1363.026,416.741 1370.52,238.521 
	1274.676,322.632 1362.118,419.774 1250.408,360.676 1250.408,363.367 1354.549,473.766 "/>
<polyline fill="none" stroke="#7EC68E" stroke-width="4" stroke-miterlimit="10" points="1348.448,209.188 1362.118,419.774 
	1324.3,246.083 "/>
<line fill="none" stroke="#7EC68E" stroke-width="4" stroke-miterlimit="10" x1="1362.118" y1="419.774" x2="1407.434" y2="493.539"/>
<line fill="none" stroke="#36B258" stroke-width="4" stroke-miterlimit="10" x1="1326.645" y1="244.948" x2="1316.806" y2="457.705"/>
<line fill="none" stroke="#36B258" stroke-width="4" stroke-miterlimit="10" x1="1274.675" y1="441.164" x2="1274.676" y2="322.632"/>
<polyline fill="none" stroke="#36B258" stroke-width="4" stroke-miterlimit="10" points="1407.71,122.381 1372.447,238.521 
	1407.433,495.445 "/>
<path fill="#36B258" stroke="#36B258" stroke-width="3" stroke-miterlimit="10" d="M1237.768,421.217
	c0,8.391-6.877,15.19-15.35,15.19l0,0c-8.477,0-15.35-6.801-15.35-15.19l0,0c0-8.39,6.873-15.188,15.35-15.188l0,0
	C1230.891,406.027,1237.768,412.827,1237.768,421.217L1237.768,421.217z"/>
<ellipse transform="matrix(0.9534 -0.3018 0.3018 0.9534 -0.2693 416.7014)" fill="#36B258" stroke="#36B258" stroke-width="6" stroke-miterlimit="10" cx="1348.47" cy="209.222" rx="7.483" ry="7.567"/>
<ellipse transform="matrix(0.9534 -0.3018 0.3018 0.9534 -12.5248 411.168)" fill="#36B258" stroke="#36B258" stroke-width="6" stroke-miterlimit="10" cx="1324.333" cy="246.116" rx="7.484" ry="7.568"/>
<ellipse transform="matrix(0.9534 -0.3018 0.3018 0.9534 -37.9424 399.7593)" fill="#36B258" stroke="#36B258" stroke-width="6" stroke-miterlimit="10" cx="1274.705" cy="322.667" rx="7.484" ry="7.568"/>
<ellipse transform="matrix(0.9534 -0.3017 0.3017 0.9534 -50.5531 394.0095)" fill="#36B258" stroke="#36B258" stroke-width="6" stroke-miterlimit="10" cx="1250.353" cy="360.674" rx="7.485" ry="7.568"/>
<ellipse transform="matrix(0.9534 -0.3018 0.3018 0.9534 -8.0903 424.7379)" fill="#36B258" stroke="#36B258" stroke-width="6" stroke-miterlimit="10" cx="1370.569" cy="238.552" rx="7.483" ry="7.567"/>
<path fill="#7EC68E" stroke="#7EC68E" stroke-miterlimit="10" d="M1375.208,425.932c0,5.64-4.623,10.218-10.328,10.218
	c-5.706,0-10.331-4.578-10.331-10.218c0-5.644,4.625-10.215,10.331-10.215C1370.585,415.717,1375.208,420.289,1375.208,425.932z"/>
<ellipse transform="matrix(0.9534 -0.3018 0.3018 0.9534 -73.7202 405.2609)" fill="#36B258" stroke="#36B258" stroke-width="6" stroke-miterlimit="10" cx="1274.62" cy="441.199" rx="7.484" ry="7.57"/>
<ellipse transform="matrix(0.9534 -0.3017 0.3017 0.9534 -76.7316 418.5915)" fill="#36B258" stroke="#36B258" stroke-width="6" stroke-miterlimit="10" cx="1316.742" cy="457.699" rx="9.827" ry="9.938"/>
<ellipse transform="matrix(0.9534 -0.3018 0.3018 0.9534 -79.8364 430.882)" fill="#36B258" stroke="#36B258" stroke-width="6" stroke-miterlimit="10" cx="1354.475" cy="473.803" rx="7.484" ry="7.568"/>
<line fill="none" stroke="#7EC68E" stroke-width="4" stroke-miterlimit="10" x1="1599.088" y1="421.997" x2="1410.301" y2="291.627"/>
<polyline fill="none" stroke="#7EC68E" stroke-width="4" stroke-miterlimit="10" points="1454.368,418.963 1446.875,240.743 
	1542.718,324.854 1455.277,421.997 1566.985,362.898 1566.985,365.589 1462.846,475.988 "/>
<polyline fill="none" stroke="#7EC68E" stroke-width="4" stroke-miterlimit="10" points="1468.947,211.41 1455.277,421.997 
	1493.094,248.304 "/>
<line fill="none" stroke="#7EC68E" stroke-width="4" stroke-miterlimit="10" x1="1455.277" y1="421.997" x2="1409.96" y2="495.761"/>
<line fill="none" stroke="#36B258" stroke-width="4" stroke-miterlimit="10" x1="1490.751" y1="247.17" x2="1500.588" y2="459.927"/>
<line fill="none" stroke="#36B258" stroke-width="4" stroke-miterlimit="10" x1="1542.72" y1="443.386" x2="1542.718" y2="324.854"/>
<polyline fill="none" stroke="#36B258" stroke-width="4" stroke-miterlimit="10" points="1409.684,124.603 1444.948,240.743 
	1409.962,497.667 "/>
<ellipse transform="matrix(0.9534 0.3018 -0.3018 0.9534 132.2948 -433.4363)" fill="#36B258" stroke="#36B258" stroke-width="6" stroke-miterlimit="10" cx="1468.913" cy="211.438" rx="7.483" ry="7.567"/>
<ellipse transform="matrix(0.9534 0.3018 -0.3018 0.9534 144.5488 -438.9887)" fill="#36B258" stroke="#36B258" stroke-width="6" stroke-miterlimit="10" cx="1493.087" cy="248.347" rx="7.485" ry="7.568"/>
<ellipse transform="matrix(0.9534 0.3018 -0.3018 0.9534 169.9697 -450.4059)" fill="#36B258" stroke="#36B258" stroke-width="6" stroke-miterlimit="10" cx="1542.71" cy="324.899" rx="7.484" ry="7.568"/>
<ellipse transform="matrix(0.9534 0.3018 -0.3018 0.9534 182.5654 -455.9318)" fill="#36B258" stroke="#36B258" stroke-width="6" stroke-miterlimit="10" cx="1566.933" cy="362.918" rx="7.485" ry="7.568"/>
<ellipse transform="matrix(0.9534 0.3018 -0.3018 0.9534 140.1174 -425.4083)" fill="#36B258" stroke="#36B258" stroke-width="6" stroke-miterlimit="10" cx="1446.842" cy="240.77" rx="7.483" ry="7.568"/>
<path fill="#36B258" stroke="#36B258" stroke-width="6" stroke-miterlimit="10" d="M1422.784,493.539
	c0,8.39-6.876,15.191-15.351,15.191l0,0c-8.478,0-15.35-6.802-15.35-15.191l0,0c0-8.39,6.873-15.189,15.35-15.189l0,0
	C1415.908,478.35,1422.784,485.149,1422.784,493.539L1422.784,493.539z"/>
<ellipse transform="matrix(0.9534 0.3018 -0.3018 0.9534 204.96 -445.6656)" fill="#36B258" stroke="#36B258" stroke-width="6" stroke-miterlimit="10" cx="1544.621" cy="440.402" rx="7.484" ry="7.568"/>
<path fill="#36B258" stroke="#36B258" stroke-width="6" stroke-miterlimit="10" d="M1499.5,466.372
	c5.173,1.637,10.712-1.279,12.37-6.51c1.655-5.23-1.198-10.802-6.372-12.438c-5.173-1.638-10.711,1.278-12.364,6.508
	C1491.479,459.162,1494.329,464.734,1499.5,466.372z"/>
<ellipse transform="matrix(0.9534 0.3019 -0.3019 0.9534 211.108 -420.0659)" fill="#36B258" stroke="#36B258" stroke-width="6" stroke-miterlimit="10" cx="1464.665" cy="473" rx="7.484" ry="7.57"/>
<ellipse transform="matrix(0.9534 -0.3018 0.3018 0.9534 -21.7407 438.1796)" fill="#36B258" stroke="#36B258" stroke-width="6" stroke-miterlimit="10" cx="1407.1" cy="289.444" rx="7.483" ry="7.567"/>
<path fill="#36B258" stroke="#36B258" stroke-width="3" stroke-miterlimit="10" d="M1423.172,123.824
	c0,8.39-6.877,15.19-15.35,15.19l0,0c-8.479,0-15.351-6.801-15.351-15.19l0,0c0-8.39,6.873-15.189,15.351-15.189l0,0
	C1416.295,108.634,1423.172,115.434,1423.172,123.824L1423.172,123.824z"/>
<path fill="#7EC68E" stroke="#7EC68E" stroke-miterlimit="10" d="M1460.791,425.932c0,5.64-4.625,10.218-10.328,10.218
	c-5.707,0-10.331-4.578-10.331-10.218c0-5.644,4.625-10.215,10.331-10.215C1456.166,415.717,1460.791,420.289,1460.791,425.932z"/>
<path fill="#36B258" stroke="#36B258" stroke-width="3" stroke-miterlimit="10" d="M1609.671,419.774
	c0,8.39-6.875,15.189-15.349,15.189l0,0c-8.479,0-15.353-6.801-15.353-15.189l0,0c0-8.391,6.874-15.189,15.353-15.189l0,0
	C1602.796,404.584,1609.671,411.384,1609.671,419.774L1609.671,419.774z"/>
<g id="Layer_2_2_">
	<g>
		<path fill="none" stroke="#36B258" stroke-width="24" stroke-miterlimit="10" d="M1221.64,408.69l181.02-289.073
			c0,0,6.226-10.305,13.457,1.708s181.562,289.291,181.562,289.291s14.666,17.129,0,29.897s-181.354,212.428-181.354,212.428
			s-6.988,9.286-14.427,0s-178.302-217.119-178.302-217.119S1206.27,423.439,1221.64,408.69z"/>
		<rect x="1402.66" y="119.618" fill="#36B258" width="15.417" height="542.214"/>
		
			<rect x="1309.012" y="278.183" transform="matrix(0.3478 0.9376 -0.9376 0.3478 1218.291 -984.4478)" fill="#36B258" width="15.417" height="210.488"/>
		
			<rect x="1503.384" y="281.043" transform="matrix(-0.3478 0.9376 -0.9376 -0.3478 2398.8259 -896.1139)" fill="#36B258" width="15.418" height="210.488"/>
		
			<rect x="1310.468" y="355.15" transform="matrix(0.3478 -0.9376 0.9376 0.3478 428.0924 1536.1737)" fill="#36B258" width="15.417" height="210.488"/>
		
			<rect x="1504.841" y="352.291" transform="matrix(-0.3477 -0.9376 0.9376 -0.3477 1609.556 2034.7905)" fill="#36B258" width="15.417" height="210.488"/>
	</g>
</g>
</svg>
