<?xml version="1.0" encoding="utf-8"?>
<!-- Generator: Adobe Illustrator 16.0.0, SVG Export Plug-In . SVG Version: 6.00 Build 0)  -->
<!DOCTYPE svg PUBLIC "-//W3C//DTD SVG 1.1//EN" "http://www.w3.org/Graphics/SVG/1.1/DTD/svg11.dtd">
<svg version="1.1" id="Layer_1" xmlns="http://www.w3.org/2000/svg" xmlns:xlink="http://www.w3.org/1999/xlink" x="0px" y="0px"
	 width="3000px" height="3000px" viewBox="0 0 3000 3000" enable-background="new 0 0 3000 3000" xml:space="preserve">
<g>
	<g>
		<path fill="#FFCCFD" d="M1445.891,262.36"/>
		<polygon opacity="0.16" fill="#5A7F54" enable-background="new    " points="1333.327,405.446 1405.804,434.168 1441.87,535.299 
					"/>
		<path opacity="0.16" fill="#4EB757" enable-background="new    " d="M1333.327,397.63l59.498-22.914
			c0,0-9.649,11.981-0.402,28.504c9.246,16.523,8.844,20.541,8.844,20.541L1333.327,397.63z"/>
		<polygon opacity="0.16" fill="#5A7F54" enable-background="new    " points="1393.98,364.563 1333.728,387.354 1441.067,220.117 
					"/>
		<path fill="#36B258" d="M1580.549,287.663c2.633,3.219,7.232,3.895,10.277,1.512l25.662-20.112
			c3.041-2.386,3.375-6.928,0.742-10.146l0,0c-2.633-3.218-7.23-3.895-10.273-1.511l-25.662,20.112
			C1578.252,279.902,1577.918,284.444,1580.549,287.663L1580.549,287.663z"/>
		<path fill="#36B258" d="M1324.004,287.663c-2.631,3.219-7.231,3.895-10.272,1.512l-25.662-20.112
			c-3.043-2.386-3.377-6.928-0.745-10.146l0,0c2.633-3.218,7.232-3.895,10.273-1.511l25.663,20.112
			C1326.302,279.902,1326.636,284.444,1324.004,287.663L1324.004,287.663z"/>
		<path fill="#36B258" d="M1580.549,498.922c2.633-3.218,7.232-3.895,10.277-1.513l25.66,20.112
			c3.043,2.385,3.375,6.927,0.744,10.144l0,0c-2.631,3.22-7.232,3.896-10.273,1.513l-25.662-20.11
			C1578.252,506.682,1577.918,502.14,1580.549,498.922L1580.549,498.922z"/>
		<path fill="#36B258" d="M1324.004,498.922c-2.631-3.218-7.231-3.895-10.272-1.513l-25.662,20.112
			c-3.043,2.385-3.377,6.927-0.745,10.144l0,0c2.633,3.22,7.232,3.896,10.273,1.513l25.663-20.11
			C1326.302,506.682,1326.636,502.14,1324.004,498.922L1324.004,498.922z"/>
	</g>
	
		<line fill="none" stroke="#7EC68E" stroke-width="4" stroke-miterlimit="10" x1="1323.737" y1="395.869" x2="1446.801" y2="496.543"/>
	
		<line fill="none" stroke="#7EC68E" stroke-width="4" stroke-miterlimit="10" x1="1354.408" y1="436.59" x2="1427.126" y2="463.404"/>
	<path fill="#7EC68E" d="M1450.202,495.274c0,2.641-2.166,4.787-4.84,4.787s-4.84-2.146-4.84-4.787c0-2.646,2.168-4.787,4.84-4.787
		C1448.036,490.487,1450.202,492.629,1450.202,495.274z"/>
	<path fill="#7EC68E" d="M1448.645,547.277c0,2.641-2.168,4.786-4.84,4.786s-4.84-2.146-4.84-4.786c0-2.646,2.168-4.786,4.84-4.786
		C1446.479,542.491,1448.645,544.632,1448.645,547.277z"/>
	
		<ellipse fill="#36B258" stroke="#36B258" stroke-width="6" stroke-miterlimit="10" cx="1354.47" cy="437.276" rx="4.839" ry="4.786"/>
	
		<line fill="none" stroke="#7EC68E" stroke-width="4" stroke-miterlimit="10" x1="1426.824" y1="458.716" x2="1430.452" y2="508.044"/>
	
		<line fill="none" stroke="#7EC68E" stroke-width="4" stroke-miterlimit="10" x1="1375.699" y1="462.915" x2="1427.407" y2="463.404"/>
	
		<ellipse fill="#36B258" stroke="#36B258" stroke-width="6" stroke-miterlimit="10" cx="1375.699" cy="462.914" rx="4.841" ry="4.787"/>
	<polyline fill="none" stroke="#7EC68E" stroke-width="4" stroke-miterlimit="10" points="1396.039,487.61 1430.25,505.312 
		1445.36,542.491 	"/>
	
		<ellipse fill="#36B258" stroke="#36B258" stroke-width="6" stroke-miterlimit="10" cx="1396.04" cy="487.61" rx="4.84" ry="4.786"/>
	
		<line fill="none" stroke="#7EC68E" stroke-width="4" stroke-miterlimit="10" x1="1416.379" y1="511.262" x2="1427.126" y2="462.824"/>
	
		<ellipse fill="#36B258" stroke="#36B258" stroke-width="6" stroke-miterlimit="10" cx="1416.378" cy="511.261" rx="4.839" ry="4.787"/>
	
		<line fill="none" stroke="#7EC68E" stroke-width="4" stroke-miterlimit="10" x1="1568.768" y1="395.72" x2="1443.68" y2="496.394"/>
	
		<line fill="none" stroke="#7EC68E" stroke-width="4" stroke-miterlimit="10" x1="1537.592" y1="436.441" x2="1463.68" y2="463.256"/>
	<path fill="#7EC68E" stroke="#36B258" stroke-width="6" stroke-miterlimit="10" d="M1440.225,495.124
		c0,2.642,2.202,4.787,4.918,4.787s4.92-2.146,4.92-4.787c0-2.645-2.203-4.785-4.92-4.785
		C1442.426,490.338,1440.225,492.479,1440.225,495.124z"/>
	
		<ellipse fill="#36B258" stroke="#36B258" stroke-width="6" stroke-miterlimit="10" cx="1538.42" cy="437.127" rx="4.92" ry="4.786"/>
	
		<line fill="none" stroke="#7EC68E" stroke-width="4" stroke-miterlimit="10" x1="1463.987" y1="458.567" x2="1460.299" y2="507.894"/>
	
		<line fill="none" stroke="#7EC68E" stroke-width="4" stroke-miterlimit="10" x1="1515.953" y1="462.766" x2="1463.393" y2="463.256"/>
	
		<ellipse fill="#36B258" stroke="#36B258" stroke-width="6" stroke-miterlimit="10" cx="1516.842" cy="462.765" rx="4.918" ry="4.787"/>
	<polyline fill="none" stroke="#7EC68E" stroke-width="4" stroke-miterlimit="10" points="1496.167,487.461 1461.393,505.162 
		1446.036,542.341 	"/>
	
		<ellipse fill="#36B258" stroke="#36B258" stroke-width="6" stroke-miterlimit="10" cx="1495.276" cy="487.462" rx="4.921" ry="4.786"/>
	
		<line fill="none" stroke="#7EC68E" stroke-width="4" stroke-miterlimit="10" x1="1474.604" y1="511.112" x2="1463.68" y2="462.676"/>
	
		<ellipse fill="#36B258" stroke="#36B258" stroke-width="6" stroke-miterlimit="10" cx="1474.604" cy="512.003" rx="4.918" ry="4.787"/>
	<path fill="#36B258" stroke="#36B258" stroke-width="3" stroke-miterlimit="10" d="M1455.428,541.484
		c0,5.366-4.398,9.715-9.818,9.715l0,0c-5.422,0-9.818-4.351-9.818-9.715l0,0c0-5.366,4.396-9.716,9.818-9.716l0,0
		C1451.028,531.769,1455.428,536.118,1455.428,541.484L1455.428,541.484z"/>
	<path fill="#7EC68E" stroke="#7EC68E" stroke-miterlimit="10" d="M1470,463.16c0,3.605-2.957,6.534-6.607,6.534
		c-3.648,0-6.605-2.929-6.605-6.534c0-3.611,2.959-6.533,6.605-6.533C1467.043,456.626,1470,459.55,1470,463.16z"/>
	<path fill="#7EC68E" stroke="#7EC68E" stroke-miterlimit="10" d="M1455.584,504.322c0,2.643,2.203,4.787,4.918,4.787
		c2.717,0,4.918-2.146,4.918-4.787c0-2.646-2.201-4.785-4.918-4.785S1455.584,501.678,1455.584,504.322z"/>
	<path fill="#7EC68E" stroke="#7EC68E" stroke-miterlimit="10" d="M1435.091,504.471c0,2.643-2.167,4.787-4.84,4.787
		c-2.672,0-4.839-2.145-4.839-4.787c0-2.645,2.167-4.786,4.839-4.786C1432.924,499.685,1435.091,501.827,1435.091,504.471z"/>
	<path fill="#7EC68E" stroke="#7EC68E" stroke-miterlimit="10" d="M1433.43,463.404c0,3.605-2.958,6.534-6.605,6.534
		c-3.648,0-6.607-2.929-6.607-6.534c0-3.61,2.958-6.533,6.607-6.533C1430.473,456.871,1433.43,459.795,1433.43,463.404z"/>
	
		<line fill="none" stroke="#7EC68E" stroke-width="4" stroke-miterlimit="10" x1="1324.399" y1="397.809" x2="1445.143" y2="314.427"/>
	<polyline fill="none" stroke="#7EC68E" stroke-width="4" stroke-miterlimit="10" points="1416.96,395.869 1421.753,281.883 
		1360.453,335.678 1416.379,397.809 1344.931,360.011 1344.931,361.732 1411.538,432.341 	"/>
	<polyline fill="none" stroke="#7EC68E" stroke-width="4" stroke-miterlimit="10" points="1407.636,263.122 1416.379,397.809 
		1392.19,286.719 	"/>
	
		<line fill="none" stroke="#7EC68E" stroke-width="4" stroke-miterlimit="10" x1="1416.379" y1="397.809" x2="1445.362" y2="444.987"/>
	
		<line fill="none" stroke="#36B258" stroke-width="4" stroke-miterlimit="10" x1="1393.69" y1="285.994" x2="1387.397" y2="422.068"/>
	
		<line fill="none" stroke="#36B258" stroke-width="4" stroke-miterlimit="10" x1="1360.452" y1="411.489" x2="1360.453" y2="335.678"/>
	<polyline fill="none" stroke="#36B258" stroke-width="4" stroke-miterlimit="10" points="1445.54,207.602 1422.985,281.883 
		1445.36,446.206 	"/>
	<path fill="#36B258" stroke="#36B258" stroke-width="3" stroke-miterlimit="10" d="M1336.847,398.731
		c0,5.366-4.397,9.715-9.816,9.715l0,0c-5.422,0-9.817-4.351-9.817-9.715l0,0c0-5.366,4.396-9.715,9.817-9.715l0,0
		C1332.448,389.017,1336.847,393.365,1336.847,398.731L1336.847,398.731z"/>
	
		<ellipse transform="matrix(-0.9534 0.3018 -0.3018 -0.9534 2829.0417 89.1411)" fill="#36B258" stroke="#36B258" stroke-width="6" stroke-miterlimit="10" cx="1407.635" cy="263.099" rx="4.786" ry="4.84"/>
	
		<ellipse transform="matrix(-0.9534 0.3018 -0.3018 -0.9534 2806.1084 139.8593)" fill="#36B258" stroke="#36B258" stroke-width="6" stroke-miterlimit="10" cx="1392.25" cy="286.712" rx="4.787" ry="4.841"/>
	
		<ellipse transform="matrix(-0.9534 0.3018 -0.3018 -0.9534 2758.9263 245.1226)" fill="#36B258" stroke="#36B258" stroke-width="6" stroke-miterlimit="10" cx="1360.529" cy="335.673" rx="4.786" ry="4.84"/>
	
		<ellipse transform="matrix(-0.9534 0.3017 -0.3017 -0.9534 2735.6714 297.4645)" fill="#36B258" stroke="#36B258" stroke-width="6" stroke-miterlimit="10" cx="1344.864" cy="359.996" rx="4.788" ry="4.84"/>
	
		<ellipse transform="matrix(-0.9534 0.3018 -0.3018 -0.9534 2862.3997 121.4955)" fill="#36B258" stroke="#36B258" stroke-width="6" stroke-miterlimit="10" cx="1421.815" cy="281.853" rx="4.786" ry="4.84"/>
	<path fill="#7EC68E" stroke="#7EC68E" stroke-miterlimit="10" d="M1424.751,401.747c0,3.607-2.957,6.535-6.606,6.535
		c-3.648,0-6.606-2.928-6.606-6.535c0-3.61,2.958-6.533,6.606-6.533C1421.794,395.214,1424.751,398.138,1424.751,401.747z"/>
	
		<ellipse transform="matrix(-0.9534 0.3018 -0.3018 -0.9534 2781.6692 393.1871)" fill="#36B258" stroke="#36B258" stroke-width="6" stroke-miterlimit="10" cx="1360.459" cy="411.488" rx="4.787" ry="4.842"/>
	
		<ellipse transform="matrix(-0.9534 0.3017 -0.3017 -0.9534 2837.3193 405.9651)" fill="#36B258" stroke="#36B258" stroke-width="6" stroke-miterlimit="10" cx="1387.313" cy="422.07" rx="6.285" ry="6.356"/>
	
		<ellipse transform="matrix(-0.9534 0.3018 -0.3018 -0.9534 2887.7676 418.4992)" fill="#36B258" stroke="#36B258" stroke-width="6" stroke-miterlimit="10" cx="1411.553" cy="432.34" rx="4.787" ry="4.84"/>
	
		<line fill="none" stroke="#7EC68E" stroke-width="4" stroke-miterlimit="10" x1="1567.939" y1="399.23" x2="1447.194" y2="315.848"/>
	<polyline fill="none" stroke="#7EC68E" stroke-width="4" stroke-miterlimit="10" points="1475.379,397.29 1470.588,283.304 
		1531.887,337.1 1475.961,399.23 1547.408,361.432 1547.408,363.153 1480.801,433.762 	"/>
	<polyline fill="none" stroke="#7EC68E" stroke-width="4" stroke-miterlimit="10" points="1484.706,264.543 1475.961,399.23 
		1500.148,288.14 	"/>
	
		<line fill="none" stroke="#7EC68E" stroke-width="4" stroke-miterlimit="10" x1="1475.961" y1="399.23" x2="1446.977" y2="446.408"/>
	
		<line fill="none" stroke="#36B258" stroke-width="4" stroke-miterlimit="10" x1="1498.648" y1="287.414" x2="1504.943" y2="423.489"/>
	<line fill="none" stroke="#36B258" stroke-width="4" stroke-miterlimit="10" x1="1531.889" y1="412.91" x2="1531.887" y2="337.1"/>
	<polyline fill="none" stroke="#36B258" stroke-width="4" stroke-miterlimit="10" points="1446.801,209.023 1469.356,283.304 
		1446.979,447.627 	"/>
	
		<ellipse transform="matrix(-0.9534 -0.3018 0.3018 -0.9534 2820.4246 964.8914)" fill="#36B258" stroke="#36B258" stroke-width="6" stroke-miterlimit="10" cx="1484.752" cy="264.561" rx="4.786" ry="4.84"/>
	
		<ellipse transform="matrix(-0.9534 -0.3017 0.3017 -0.9534 2843.5242 1015.613)" fill="#36B258" stroke="#36B258" stroke-width="6" stroke-miterlimit="10" cx="1500.205" cy="288.18" rx="4.787" ry="4.84"/>
	
		<ellipse transform="matrix(-0.9534 -0.3018 0.3018 -0.9534 2890.7563 1120.9152)" fill="#36B258" stroke="#36B258" stroke-width="6" stroke-miterlimit="10" cx="1531.968" cy="337.149" rx="4.787" ry="4.841"/>
	
		<ellipse transform="matrix(-0.9534 -0.3018 0.3018 -0.9534 2913.5955 1173.1418)" fill="#36B258" stroke="#36B258" stroke-width="6" stroke-miterlimit="10" cx="1547.437" cy="361.462" rx="4.787" ry="4.84"/>
	
		<ellipse transform="matrix(-0.9534 -0.3017 0.3017 -0.9534 2787.1169 997.1075)" fill="#36B258" stroke="#36B258" stroke-width="6" stroke-miterlimit="10" cx="1470.572" cy="283.286" rx="4.787" ry="4.84"/>
	<path fill="#36B258" stroke="#36B258" stroke-width="6" stroke-miterlimit="10" d="M1455.18,444.987
		c0,5.366-4.398,9.716-9.818,9.716l0,0c-5.423,0-9.818-4.351-9.818-9.716l0,0c0-5.366,4.396-9.715,9.818-9.715l0,0
		C1450.782,435.272,1455.18,439.621,1455.18,444.987L1455.18,444.987z"/>
	
		<ellipse transform="matrix(-0.9534 -0.3018 0.3018 -0.9534 2870.7334 1265.4551)" fill="#36B258" stroke="#36B258" stroke-width="6" stroke-miterlimit="10" cx="1533.138" cy="410.93" rx="4.787" ry="4.84"/>
	<path fill="#36B258" stroke="#36B258" stroke-width="6" stroke-miterlimit="10" d="M1504.246,427.612
		c3.309,1.047,6.852-0.818,7.912-4.164c1.059-3.345-0.768-6.909-4.076-7.956s-6.85,0.817-7.908,4.163
		C1499.115,423,1500.939,426.564,1504.246,427.612z"/>
	
		<ellipse transform="matrix(-0.9534 -0.3017 0.3017 -0.9534 2764.5576 1290.7009)" fill="#36B258" stroke="#36B258" stroke-width="6" stroke-miterlimit="10" cx="1481.968" cy="431.825" rx="4.787" ry="4.842"/>
	
		<ellipse transform="matrix(-0.9534 0.3017 -0.3017 -0.9534 2917.7954 178.1465)" fill="#36B258" stroke="#36B258" stroke-width="6" stroke-miterlimit="10" cx="1445.138" cy="314.434" rx="4.787" ry="4.84"/>
	<path fill="#36B258" stroke="#36B258" stroke-width="3" stroke-miterlimit="10" d="M1455.428,208.525
		c0,5.366-4.398,9.715-9.818,9.715l0,0c-5.422,0-9.818-4.35-9.818-9.715l0,0c0-5.366,4.396-9.715,9.818-9.715l0,0
		C1451.028,198.81,1455.428,203.159,1455.428,208.525L1455.428,208.525z"/>
	<path fill="#7EC68E" stroke="#7EC68E" stroke-miterlimit="10" d="M1479.487,401.747c0,3.607-2.957,6.535-6.604,6.535
		c-3.65,0-6.607-2.928-6.607-6.535c0-3.61,2.957-6.533,6.607-6.533C1476.53,395.214,1479.487,398.138,1479.487,401.747z"/>
	<path fill="#36B258" stroke="#36B258" stroke-width="3" stroke-miterlimit="10" d="M1574.709,397.809
		c0,5.366-4.396,9.715-9.816,9.715l0,0c-5.424,0-9.818-4.351-9.818-9.715l0,0c0-5.366,4.395-9.715,9.818-9.715l0,0
		C1570.313,388.093,1574.709,392.442,1574.709,397.809L1574.709,397.809z"/>
	<g id="Layer_2_2_">
		<g>
			<path fill="none" stroke="#36B258" stroke-width="15" stroke-miterlimit="10" d="M1326.532,390.72l115.777-184.886
				c0,0,3.982-6.591,8.607,1.093c4.625,7.683,116.125,185.024,116.125,185.024s9.379,10.956,0,19.121
				c-9.381,8.167-115.992,135.865-115.992,135.865s-4.469,5.938-9.227,0c-4.759-5.939-114.04-138.864-114.04-138.864
				S1316.701,400.153,1326.532,390.72z"/>
			<rect x="1442.309" y="205.835" fill="#36B258" width="9.859" height="346.789"/>
			
				<rect x="1382.457" y="307.227" transform="matrix(0.3478 0.9376 -0.9376 0.3478 1255.9971 -1056.4918)" fill="#36B258" width="9.861" height="134.632"/>
			
				<rect x="1506.743" y="309.066" transform="matrix(-0.3478 0.9376 -0.9376 -0.3478 2390.2891 -910.0309)" fill="#36B258" width="9.862" height="134.631"/>
			
				<rect x="1383.37" y="356.513" transform="matrix(0.3478 -0.9376 0.9376 0.3478 508.1071 1578.0688)" fill="#36B258" width="9.862" height="134.632"/>
			
				<rect x="1507.746" y="354.64" transform="matrix(-0.3477 -0.9376 0.9376 -0.3477 1642.9573 1986.9631)" fill="#36B258" width="9.859" height="134.624"/>
		</g>
	</g>
</g>
<rect x="6.852" fill="none" stroke="#AFD0F7" stroke-miterlimit="10" width="2993.148" height="3002.265"/>
</svg>
