<?xml version="1.0" encoding="utf-8"?>
<!-- Generator: Adobe Illustrator 16.0.0, SVG Export Plug-In . SVG Version: 6.00 Build 0)  -->
<!DOCTYPE svg PUBLIC "-//W3C//DTD SVG 1.1//EN" "http://www.w3.org/Graphics/SVG/1.1/DTD/svg11.dtd">
<svg version="1.1" id="Layer_1" xmlns="http://www.w3.org/2000/svg" xmlns:xlink="http://www.w3.org/1999/xlink" x="0px" y="0px"
	 width="3000px" height="3000px" viewBox="0 0 3000 3000" enable-background="new 0 0 3000 3000" xml:space="preserve">
<g display="none">
	<path display="inline" fill="#FFCCFD" d="M1401.637,270.407"/>
	<path display="inline" fill="#31323D" d="M1393.96,203.087c0,0,5.871-14.45,15.354,0c9.481,14.45,131.858,208.627,131.858,208.627
		s7.226,13.547,0,21.901c-7.225,8.354-133.215,156.02-133.215,156.02s-5.871,9.483-13.999,0
		c-8.128-9.481-132.313-158.955-132.313-158.955s-8.578-9.03-0.45-19.87C1269.325,399.974,1393.96,203.087,1393.96,203.087z"/>
	<polygon display="inline" fill="#4EB757" points="1396.218,365.203 1275.646,410.813 1396.218,222.957 	"/>
	<polygon display="inline" fill="#7EC68E" points="1275.646,422.553 1396.218,375.589 1396.218,469.517 	"/>
	<polygon display="inline" fill="#4EB757" points="1406.582,365.203 1527.152,410.813 1406.582,222.957 	"/>
	<polygon display="inline" fill="#7EC68E" points="1527.152,422.553 1406.582,375.589 1406.582,469.517 	"/>
	<polygon display="inline" fill="#4EB757" points="1527.152,431.132 1405.678,479.451 1405.678,576.991 	"/>
	<g display="inline">
		<polygon fill="#4EB757" points="1275.646,431.132 1397.121,479.451 1397.121,576.991 		"/>
		<polygon fill="#5A7F54" points="1275.195,431.132 1356.307,463.395 1396.669,576.991 		"/>
		<polygon fill="none" stroke="#31323D" stroke-miterlimit="10" points="1275.195,431.133 1396.669,479.45 1396.669,576.99 		"/>
	</g>
	<path display="inline" fill="#4EB757" d="M1275.195,422.354l66.833-25.739c0,0-10.839,13.458-0.452,32.018
		c10.386,18.562,9.935,23.074,9.935,23.074L1275.195,422.354z"/>
	<polygon display="inline" fill="none" stroke="#31323D" stroke-miterlimit="10" points="1275.195,422.354 1396.766,375.589 
		1396.766,469.517 	"/>
	<polygon display="inline" fill="#5A7F54" points="1343.327,385.21 1275.646,410.811 1396.218,222.957 	"/>
	<polygon display="inline" fill="none" stroke="#31323D" stroke-miterlimit="10" points="1396.218,365.203 1275.646,410.811 
		1396.218,222.957 	"/>
	<path display="inline" fill="#36B258" d="M1552.895,298.83c2.957,3.615,8.123,4.375,11.543,1.698l28.826-22.591
		c3.416-2.68,3.791-7.782,0.834-11.396l0,0c-2.957-3.615-8.121-4.375-11.539-1.697l-28.826,22.591
		C1550.314,290.113,1549.939,295.214,1552.895,298.83L1552.895,298.83z"/>
	<path display="inline" fill="#36B258" d="M1264.724,298.83c-2.956,3.615-8.123,4.375-11.541,1.698l-28.824-22.591
		c-3.418-2.68-3.793-7.782-0.837-11.396l0,0c2.957-3.615,8.123-4.375,11.541-1.697l28.826,22.591
		C1267.305,290.113,1267.68,295.214,1264.724,298.83L1264.724,298.83z"/>
	<path display="inline" fill="#36B258" d="M1552.895,536.131c2.957-3.614,8.123-4.375,11.543-1.699l28.824,22.593
		c3.418,2.68,3.791,7.779,0.836,11.396l0,0c-2.955,3.616-8.123,4.375-11.539,1.699l-28.826-22.591
		C1550.314,544.847,1549.939,539.745,1552.895,536.131L1552.895,536.131z"/>
	<path display="inline" fill="#36B258" d="M1264.724,536.131c-2.956-3.614-8.123-4.375-11.541-1.699l-28.824,22.593
		c-3.418,2.68-3.793,7.779-0.837,11.396l0,0c2.957,3.616,8.123,4.375,11.541,1.699l28.826-22.591
		C1267.305,544.847,1267.68,539.745,1264.724,536.131L1264.724,536.131z"/>
</g>
<g display="none">
	<g display="inline">
		<polygon fill="#5A7F54" points="1275.879,422.304 1406.874,360.391 1537.87,422.304 1406.874,512.242 		"/>
		<polygon fill="#4EB757" points="1406.875,360.391 1406.875,460.756 1537.87,422.304 		"/>
		<polyline fill="#7AC373" points="1275.879,422.304 1406.875,360.391 1406.875,460.756 		"/>
	</g>
	<g display="inline">
		
			<line fill="none" stroke="#36B258" stroke-width="5" stroke-miterlimit="10" x1="1267.42" y1="422.578" x2="1405.814" y2="640.578"/>
		
			<line fill="none" stroke="#7EC68E" stroke-width="3" stroke-miterlimit="10" x1="1264.454" y1="419.321" x2="1405.814" y2="557.476"/>
		
			<line fill="none" stroke="#7EC68E" stroke-width="3" stroke-miterlimit="10" x1="1288.328" y1="455.511" x2="1376.489" y2="507.946"/>
		
			<line fill="none" stroke="#7EC68E" stroke-width="3" stroke-miterlimit="10" x1="1305.932" y1="483.243" x2="1379.125" y2="507.946"/>
		
			<line fill="none" stroke="#7EC68E" stroke-width="3" stroke-miterlimit="10" x1="1336.618" y1="531.578" x2="1388.021" y2="578.982"/>
		<path fill="none" stroke="#7EC68E" stroke-width="3" stroke-miterlimit="10" d="M1388.021,580.287l-10.216-72.341
			c3.493,0-15.486,64.118-15.486,64.118"/>
		
			<line fill="none" stroke="#7EC68E" stroke-width="3" stroke-miterlimit="10" x1="1387.837" y1="578.982" x2="1405.814" y2="642.991"/>
		<ellipse fill="#7EC68E" cx="1377.313" cy="508.158" rx="5.437" ry="5.377"/>
		<ellipse fill="#7EC68E" cx="1387.692" cy="578.379" rx="5.437" ry="5.376"/>
		<line fill="none" stroke="#36B258" stroke-width="5" stroke-miterlimit="10" x1="1544.128" y1="423" x2="1405.732" y2="641"/>
		
			<line fill="none" stroke="#7EC68E" stroke-width="3" stroke-miterlimit="10" x1="1547.093" y1="419.743" x2="1405.732" y2="557.898"/>
		
			<line fill="none" stroke="#7EC68E" stroke-width="3" stroke-miterlimit="10" x1="1523.22" y1="455.933" x2="1435.058" y2="508.368"/>
		
			<line fill="none" stroke="#7EC68E" stroke-width="3" stroke-miterlimit="10" x1="1505.615" y1="483.665" x2="1432.423" y2="508.368"/>
		<line fill="none" stroke="#7EC68E" stroke-width="3" stroke-miterlimit="10" x1="1474.93" y1="532" x2="1423.525" y2="579.405"/>
		<path fill="none" stroke="#7EC68E" stroke-width="3" stroke-miterlimit="10" d="M1423.525,580.709l10.214-72.341
			c-3.491,0,15.487,64.118,15.487,64.118"/>
		
			<line fill="none" stroke="#7EC68E" stroke-width="3" stroke-miterlimit="10" x1="1423.711" y1="579.405" x2="1405.732" y2="643.413"/>
		<ellipse fill="#7EC68E" cx="1423.854" cy="578.379" rx="5.438" ry="5.376"/>
		<ellipse fill="#7EC68E" cx="1435.058" cy="508.158" rx="5.438" ry="5.377"/>
		<path fill="#36B258" d="M1414.712,642.993c0,4.856-3.985,8.798-8.896,8.798l0,0c-4.916,0-8.897-3.941-8.897-8.798l0,0
			c0-4.861,3.981-8.798,8.897-8.798l0,0C1410.727,634.195,1414.712,638.132,1414.712,642.993L1414.712,642.993z"/>
		<path fill="#36B258" d="M1273.351,419.321c0,4.858-3.984,8.798-8.896,8.798l0,0c-4.916,0-8.897-3.938-8.897-8.798l0,0
			c0-4.859,3.981-8.798,8.897-8.798l0,0C1269.366,410.523,1273.351,414.462,1273.351,419.321L1273.351,419.321z"/>
		<ellipse fill="#36B258" cx="1288.344" cy="457.485" rx="5.438" ry="5.376"/>
		<ellipse fill="#36B258" cx="1305.932" cy="483.995" rx="5.438" ry="5.377"/>
		<ellipse fill="#36B258" cx="1335.794" cy="532.548" rx="5.437" ry="5.376"/>
		<ellipse fill="#36B258" cx="1361.002" cy="571.162" rx="5.438" ry="5.377"/>
		<ellipse fill="#36B258" cx="1523.202" cy="457.485" rx="5.437" ry="5.376"/>
		<ellipse fill="#36B258" cx="1505.615" cy="484.417" rx="5.437" ry="5.377"/>
		<ellipse fill="#36B258" cx="1475.754" cy="532.97" rx="5.438" ry="5.376"/>
		<ellipse fill="#36B258" cx="1450.544" cy="571.584" rx="5.437" ry="5.377"/>
		<ellipse fill="#36B258" cx="1405.814" cy="557.476" rx="5.438" ry="5.376"/>
		<path fill="#36B258" d="M1557.967,417.496c0,4.859-3.984,8.798-8.896,8.798l0,0c-4.916,0-8.897-3.938-8.897-8.798l0,0
			c0-4.859,3.981-8.798,8.897-8.798l0,0C1553.98,408.698,1557.967,412.637,1557.967,417.496L1557.967,417.496z"/>
	</g>
	<polyline display="inline" fill="none" stroke="#7EC68E" stroke-width="3" stroke-miterlimit="10" points="1378.887,327.229 
		1361.505,264.92 1343.724,381.578 	"/>
	
		<line display="inline" fill="none" stroke="#7EC68E" stroke-width="3" stroke-miterlimit="10" x1="1338.358" y1="303.484" x2="1371.365" y2="367.377"/>
	
		<line display="inline" fill="none" stroke="#7EC68E" stroke-width="3" stroke-miterlimit="10" x1="1307.803" y1="353.035" x2="1378.298" y2="328.635"/>
	
		<line display="inline" fill="none" stroke="#7EC68E" stroke-width="3" stroke-miterlimit="10" x1="1268.649" y1="415.304" x2="1405.957" y2="280.408"/>
	
		<line display="inline" fill="none" stroke="#7EC68E" stroke-width="3" stroke-miterlimit="10" x1="1290.711" y1="380.274" x2="1378.298" y2="328.635"/>
	<path display="inline" fill="#36B258" d="M1273.835,418.044c0,4.859-3.982,8.798-8.891,8.798l0,0c-4.91,0-8.892-3.938-8.892-8.798
		l0,0c0-4.859,3.98-8.798,8.892-8.798l0,0C1269.854,409.246,1273.835,413.185,1273.835,418.044L1273.835,418.044z"/>
	<path display="inline" fill="#36B258" d="M1416.823,193.689c0,4.859-3.982,8.798-8.892,8.798l0,0c-4.912,0-8.891-3.939-8.891-8.798
		l0,0c0-4.859,3.979-8.798,8.891-8.798l0,0C1412.841,184.891,1416.823,188.83,1416.823,193.689L1416.823,193.689z"/>
	
		<line display="inline" fill="none" stroke="#36B258" stroke-width="5" stroke-miterlimit="10" x1="1264.945" y1="418.044" x2="1406.945" y2="191.602"/>
	<ellipse display="inline" fill="#36B258" cx="1288.571" cy="380.274" rx="5.433" ry="5.377"/>
	<ellipse display="inline" fill="#36B258" cx="1305.79" cy="353.035" rx="5.433" ry="5.376"/>
	<ellipse display="inline" fill="#36B258" cx="1361.505" cy="264.92" rx="5.433" ry="5.377"/>
	<ellipse display="inline" fill="#36B258" cx="1343.333" cy="380.274" rx="4.971" ry="4.919"/>
	<ellipse display="inline" fill="#36B258" cx="1370.358" cy="366.039" rx="3.42" ry="3.384"/>
	<ellipse display="inline" fill="#36B258" cx="1311.223" cy="396.313" rx="3.42" ry="3.384"/>
	
		<line display="inline" fill="none" stroke="#36B258" stroke-width="3" stroke-miterlimit="10" x1="1271.849" y1="415.304" x2="1404.875" y2="347.851"/>
	<path display="inline" fill="none" stroke="#36B258" stroke-miterlimit="10" d="M1402.665,344.928"/>
	
		<line display="inline" fill="none" stroke="#36B258" stroke-width="3" stroke-miterlimit="10" x1="1343.724" y1="378.166" x2="1339.278" y2="306.802"/>
	<polyline display="inline" fill="none" stroke="#7EC68E" stroke-width="3" stroke-miterlimit="10" points="1339.278,302.24 
		1387.848,259.543 1380.125,323.077 	"/>
	
		<line display="inline" fill="none" stroke="#36B258" stroke-width="3" stroke-miterlimit="10" x1="1389.093" y1="259.543" x2="1405.957" y2="341.67"/>
	
		<line display="inline" fill="none" stroke="#36B258" stroke-width="3" stroke-miterlimit="10" x1="1389.093" y1="256.62" x2="1405.957" y2="197.313"/>
	
		<line display="inline" fill="none" stroke="#36B258" stroke-width="3" stroke-miterlimit="10" x1="1307.803" y1="356.457" x2="1311.222" y2="396.313"/>
	
		<line display="inline" fill="none" stroke="#7EC68E" stroke-width="3" stroke-miterlimit="10" x1="1381.262" y1="328.635" x2="1404.64" y2="345.245"/>
	<ellipse display="inline" fill="#7EC68E" cx="1378.886" cy="327.229" rx="4.375" ry="4.328"/>
	<ellipse display="inline" fill="#36B258" cx="1337.303" cy="303.534" rx="5.434" ry="5.377"/>
	<polyline display="inline" fill="none" stroke="#7EC68E" stroke-width="3" stroke-miterlimit="10" points="1436.287,329.208 
		1453.668,266.899 1471.449,383.557 	"/>
	
		<line display="inline" fill="none" stroke="#7EC68E" stroke-width="3" stroke-miterlimit="10" x1="1476.814" y1="305.463" x2="1443.811" y2="369.356"/>
	
		<line display="inline" fill="none" stroke="#7EC68E" stroke-width="3" stroke-miterlimit="10" x1="1507.37" y1="355.014" x2="1436.875" y2="330.614"/>
	
		<line display="inline" fill="none" stroke="#7EC68E" stroke-width="3" stroke-miterlimit="10" x1="1546.524" y1="417.282" x2="1409.216" y2="282.387"/>
	
		<line display="inline" fill="none" stroke="#7EC68E" stroke-width="3" stroke-miterlimit="10" x1="1524.463" y1="382.253" x2="1436.875" y2="330.614"/>
	
		<line display="inline" fill="none" stroke="#36B258" stroke-width="5" stroke-miterlimit="10" x1="1550.229" y1="420.024" x2="1408.229" y2="193.581"/>
	<path display="inline" fill="#36B258" d="M1503.951,355.014c0,2.969,2.432,5.376,5.434,5.376c2.997,0,5.434-2.408,5.434-5.376
		c0-2.969-2.437-5.377-5.434-5.377C1506.383,349.637,1503.951,352.045,1503.951,355.014z"/>
	<ellipse display="inline" fill="#36B258" cx="1455.645" cy="264.944" rx="5.433" ry="5.376"/>
	<ellipse display="inline" fill="#36B258" cx="1446.79" cy="366.063" rx="3.421" ry="3.384"/>
	
		<line display="inline" fill="none" stroke="#36B258" stroke-width="3" stroke-miterlimit="10" x1="1543.325" y1="417.282" x2="1410.299" y2="349.83"/>
	
		<line display="inline" fill="none" stroke="#36B258" stroke-width="3" stroke-miterlimit="10" x1="1471.449" y1="380.145" x2="1475.895" y2="308.781"/>
	<polyline display="inline" fill="none" stroke="#7EC68E" stroke-width="3" stroke-miterlimit="10" points="1475.895,304.219 
		1427.325,261.522 1435.048,325.056 	"/>
	
		<line display="inline" fill="none" stroke="#36B258" stroke-width="3" stroke-miterlimit="10" x1="1426.081" y1="261.522" x2="1409.216" y2="343.648"/>
	
		<line display="inline" fill="none" stroke="#36B258" stroke-width="3" stroke-miterlimit="10" x1="1426.081" y1="258.599" x2="1409.216" y2="199.292"/>
	
		<line display="inline" fill="none" stroke="#36B258" stroke-width="3" stroke-miterlimit="10" x1="1507.37" y1="358.436" x2="1503.951" y2="398.292"/>
	
		<line display="inline" fill="none" stroke="#7EC68E" stroke-width="3" stroke-miterlimit="10" x1="1433.912" y1="330.614" x2="1410.532" y2="347.224"/>
	<ellipse display="inline" fill="#7EC68E" cx="1436.287" cy="329.208" rx="4.374" ry="4.329"/>
	<ellipse display="inline" fill="#36B258" cx="1477.87" cy="305.514" rx="5.433" ry="5.376"/>
	<path display="inline" fill="#36B258" d="M1558.083,418.044c0,4.859-3.982,8.798-8.89,8.798l0,0c-4.913,0-8.893-3.938-8.893-8.798
		l0,0c0-4.859,3.979-8.798,8.893-8.798l0,0C1554.101,409.246,1558.083,413.185,1558.083,418.044L1558.083,418.044z"/>
	<path display="inline" fill="#36B258" d="M1416.823,347.658c0,4.859-3.982,8.798-8.892,8.798l0,0c-4.912,0-8.891-3.939-8.891-8.798
		l0,0c0-4.859,3.979-8.798,8.891-8.798l0,0C1412.841,338.86,1416.823,342.799,1416.823,347.658L1416.823,347.658z"/>
	<ellipse display="inline" fill="#36B258" cx="1473.816" cy="380.274" rx="4.971" ry="4.919"/>
	<ellipse display="inline" fill="#36B258" cx="1505.926" cy="396.313" rx="3.419" ry="3.384"/>
	<ellipse display="inline" fill="#36B258" cx="1389.093" cy="258.799" rx="4.375" ry="4.328"/>
	<ellipse display="inline" fill="#36B258" cx="1426.08" cy="260.778" rx="4.374" ry="4.329"/>
	<ellipse display="inline" fill="#36B258" cx="1406.945" cy="278.118" rx="5.197" ry="5.144"/>
</g>
<g>
	<g>
		<path fill="none" stroke="#36B258" stroke-width="24" stroke-miterlimit="10" d="M1350.598,337.132l139.399-222.608
			c0,0,4.794-7.935,10.362,1.315c5.569,9.25,139.816,222.775,139.816,222.775s11.294,13.191,0,23.023
			c-11.294,9.832-139.656,163.585-139.656,163.585s-5.381,7.151-11.109,0s-137.306-167.198-137.306-167.198
			S1338.761,348.49,1350.598,337.132z"/>
		<rect x="1489.997" y="114.524" fill="#36B258" width="11.872" height="417.545"/>
		
			<rect x="1417.881" y="236.632" transform="matrix(0.3478 0.9376 -0.9376 0.3478 1226.4456 -1127.7352)" fill="#36B258" width="11.873" height="162.092"/>
		
			<rect x="1567.562" y="238.834" transform="matrix(-0.3478 0.9376 -0.9376 -0.3478 2420.6299 -1044.1539)" fill="#36B258" width="11.872" height="162.091"/>
		
			<rect x="1419.002" y="295.902" transform="matrix(0.3478 -0.9376 0.9376 0.3478 575.9657 1581.8481)" fill="#36B258" width="11.872" height="162.091"/>
		
			<rect x="1568.685" y="293.701" transform="matrix(-0.3476 -0.9376 0.9376 -0.3476 1770.6281 1981.4342)" fill="#36B258" width="11.872" height="162.09"/>
	</g>
	<g>
		<path fill="#FFCCFD" d="M1494.311,182.583"/>
		<polygon opacity="0.16" fill="#5A7F54" enable-background="new    " points="1358.779,354.863 1446.044,389.446 1489.469,511.21 
					"/>
		<path opacity="0.16" fill="#4EB757" enable-background="new    " d="M1358.779,345.453l71.638-27.589
			c0,0-11.618,14.425-0.484,34.319c11.132,19.895,10.648,24.733,10.648,24.733L1358.779,345.453z"/>
		<polygon opacity="0.16" fill="#5A7F54" enable-background="new    " points="1431.809,305.64 1359.262,333.081 1488.502,131.722 
					"/>
		<path fill="#36B258" d="M1656.443,213.049c3.17,3.875,8.707,4.689,12.373,1.82l30.898-24.215
			c3.662-2.874,4.064-8.343,0.895-12.216l0,0c-3.17-3.875-8.707-4.689-12.369-1.819l-30.898,24.216
			C1653.678,203.705,1653.275,209.173,1656.443,213.049L1656.443,213.049z"/>
		<path fill="#36B258" d="M1347.554,213.049c-3.168,3.875-8.707,4.689-12.37,1.82l-30.897-24.215
			c-3.664-2.874-4.066-8.343-0.896-12.216l0,0c3.17-3.875,8.708-4.689,12.371-1.819l30.899,24.216
			C1350.321,203.705,1350.723,209.173,1347.554,213.049L1347.554,213.049z"/>
		<path fill="#36B258" d="M1656.443,467.412c3.17-3.875,8.707-4.69,12.373-1.822l30.896,24.216c3.664,2.872,4.063,8.34,0.896,12.213
			l0,0c-3.168,3.877-8.709,4.69-12.369,1.822l-30.898-24.214C1653.678,476.754,1653.275,471.286,1656.443,467.412L1656.443,467.412z
			"/>
		<path fill="#36B258" d="M1347.554,467.412c-3.168-3.875-8.707-4.69-12.37-1.822l-30.897,24.216
			c-3.664,2.872-4.066,8.34-0.896,12.213l0,0c3.17,3.877,8.708,4.69,12.371,1.822l30.899-24.214
			C1350.321,476.754,1350.723,471.286,1347.554,467.412L1347.554,467.412z"/>
	</g>
	
		<line fill="none" stroke="#7EC68E" stroke-width="4" stroke-miterlimit="10" x1="1347.232" y1="343.332" x2="1495.405" y2="464.547"/>
	
		<line fill="none" stroke="#7EC68E" stroke-width="4" stroke-miterlimit="10" x1="1384.162" y1="392.362" x2="1471.716" y2="424.647"/>
	<path fill="#7EC68E" d="M1499.5,463.02c0,3.18-2.609,5.763-5.827,5.763s-5.827-2.583-5.827-5.763c0-3.185,2.608-5.764,5.827-5.764
		S1499.5,459.834,1499.5,463.02z"/>
	<path fill="#7EC68E" d="M1497.627,525.632c0,3.18-2.61,5.763-5.828,5.763c-3.219,0-5.829-2.583-5.829-5.763
		c0-3.185,2.61-5.763,5.829-5.763C1495.017,519.87,1497.627,522.448,1497.627,525.632z"/>
	
		<ellipse fill="#36B258" stroke="#36B258" stroke-width="6" stroke-miterlimit="10" cx="1384.236" cy="393.187" rx="5.827" ry="5.762"/>
	
		<line fill="none" stroke="#7EC68E" stroke-width="4" stroke-miterlimit="10" x1="1471.353" y1="419.002" x2="1475.72" y2="478.395"/>
	
		<line fill="none" stroke="#7EC68E" stroke-width="4" stroke-miterlimit="10" x1="1409.797" y1="424.058" x2="1472.054" y2="424.647"/>
	
		<ellipse fill="#36B258" stroke="#36B258" stroke-width="6" stroke-miterlimit="10" cx="1409.797" cy="424.057" rx="5.828" ry="5.763"/>
	<polyline fill="none" stroke="#7EC68E" stroke-width="4" stroke-miterlimit="10" points="1434.287,453.792 1475.478,475.104 
		1493.672,519.87 	"/>
	
		<ellipse fill="#36B258" stroke="#36B258" stroke-width="6" stroke-miterlimit="10" cx="1434.288" cy="453.792" rx="5.828" ry="5.763"/>
	
		<line fill="none" stroke="#7EC68E" stroke-width="4" stroke-miterlimit="10" x1="1458.776" y1="482.269" x2="1471.716" y2="423.949"/>
	
		<ellipse fill="#36B258" stroke="#36B258" stroke-width="6" stroke-miterlimit="10" cx="1458.775" cy="482.269" rx="5.827" ry="5.763"/>
	
		<line fill="none" stroke="#7EC68E" stroke-width="4" stroke-miterlimit="10" x1="1642.258" y1="343.152" x2="1491.649" y2="464.369"/>
	
		<line fill="none" stroke="#7EC68E" stroke-width="4" stroke-miterlimit="10" x1="1604.721" y1="392.182" x2="1515.729" y2="424.469"/>
	<path fill="#7EC68E" stroke="#36B258" stroke-width="6" stroke-miterlimit="10" d="M1487.487,462.839
		c0,3.18,2.652,5.764,5.922,5.764c3.272,0,5.923-2.583,5.923-5.764c0-3.184-2.652-5.763-5.923-5.763
		C1490.139,457.076,1487.487,459.655,1487.487,462.839z"/>
	
		<ellipse fill="#36B258" stroke="#36B258" stroke-width="6" stroke-miterlimit="10" cx="1605.717" cy="393.008" rx="5.924" ry="5.763"/>
	
		<line fill="none" stroke="#7EC68E" stroke-width="4" stroke-miterlimit="10" x1="1516.098" y1="418.823" x2="1511.658" y2="478.215"/>
	
		<line fill="none" stroke="#7EC68E" stroke-width="4" stroke-miterlimit="10" x1="1578.665" y1="423.878" x2="1515.385" y2="424.469"/>
	
		<ellipse fill="#36B258" stroke="#36B258" stroke-width="6" stroke-miterlimit="10" cx="1579.736" cy="423.878" rx="5.923" ry="5.763"/>
	<polyline fill="none" stroke="#7EC68E" stroke-width="4" stroke-miterlimit="10" points="1554.845,453.612 1512.977,474.925 
		1494.483,519.69 	"/>
	
		<ellipse fill="#36B258" stroke="#36B258" stroke-width="6" stroke-miterlimit="10" cx="1553.771" cy="453.613" rx="5.925" ry="5.762"/>
	
		<line fill="none" stroke="#7EC68E" stroke-width="4" stroke-miterlimit="10" x1="1528.881" y1="482.089" x2="1515.729" y2="423.77"/>
	
		<ellipse fill="#36B258" stroke="#36B258" stroke-width="6" stroke-miterlimit="10" cx="1528.882" cy="483.161" rx="5.923" ry="5.763"/>
	<path fill="#36B258" stroke="#36B258" stroke-width="3" stroke-miterlimit="10" d="M1505.793,518.657
		c0,6.46-5.296,11.697-11.821,11.697l0,0c-6.529,0-11.821-5.237-11.821-11.697l0,0c0-6.46,5.293-11.697,11.821-11.697l0,0
		C1500.497,506.96,1505.793,512.197,1505.793,518.657L1505.793,518.657z"/>
	<path fill="#7EC68E" stroke="#7EC68E" stroke-miterlimit="10" d="M1523.34,424.353c0,4.341-3.562,7.867-7.955,7.867
		c-4.395,0-7.955-3.525-7.955-7.867c0-4.348,3.562-7.866,7.955-7.866C1519.777,416.486,1523.34,420.006,1523.34,424.353z"/>
	<path fill="#7EC68E" stroke="#7EC68E" stroke-miterlimit="10" d="M1505.98,473.913c0,3.181,2.651,5.764,5.923,5.764
		s5.923-2.583,5.923-5.764c0-3.184-2.651-5.762-5.923-5.762S1505.98,470.729,1505.98,473.913z"/>
	<path fill="#7EC68E" stroke="#7EC68E" stroke-miterlimit="10" d="M1481.306,474.093c0,3.181-2.608,5.764-5.827,5.764
		s-5.827-2.583-5.827-5.764c0-3.184,2.608-5.763,5.827-5.763S1481.306,470.909,1481.306,474.093z"/>
	<path fill="#7EC68E" stroke="#7EC68E" stroke-miterlimit="10" d="M1479.307,424.647c0,4.342-3.561,7.867-7.954,7.867
		s-7.955-3.525-7.955-7.867c0-4.347,3.561-7.866,7.955-7.866S1479.307,420.301,1479.307,424.647z"/>
	
		<line fill="none" stroke="#7EC68E" stroke-width="4" stroke-miterlimit="10" x1="1348.03" y1="345.668" x2="1493.41" y2="245.274"/>
	<polyline fill="none" stroke="#7EC68E" stroke-width="4" stroke-miterlimit="10" points="1459.476,343.332 1465.246,206.089 
		1391.439,270.861 1458.776,345.668 1372.751,300.158 1372.751,302.23 1452.947,387.245 	"/>
	<polyline fill="none" stroke="#7EC68E" stroke-width="4" stroke-miterlimit="10" points="1448.25,183.5 1458.776,345.668 
		1429.653,211.913 	"/>
	
		<line fill="none" stroke="#7EC68E" stroke-width="4" stroke-miterlimit="10" x1="1458.776" y1="345.668" x2="1493.673" y2="402.472"/>
	
		<line fill="none" stroke="#36B258" stroke-width="4" stroke-miterlimit="10" x1="1431.459" y1="211.039" x2="1423.882" y2="374.877"/>
	
		<line fill="none" stroke="#36B258" stroke-width="4" stroke-miterlimit="10" x1="1391.438" y1="362.14" x2="1391.439" y2="270.861"/>
	<polyline fill="none" stroke="#36B258" stroke-width="4" stroke-miterlimit="10" points="1493.885,116.652 1466.73,206.089 
		1493.672,403.94 	"/>
	<path fill="#36B258" stroke="#36B258" stroke-width="3" stroke-miterlimit="10" d="M1363.017,346.779
		c0,6.461-5.296,11.697-11.82,11.697l0,0c-6.528,0-11.82-5.237-11.82-11.697l0,0c0-6.461,5.292-11.696,11.82-11.696l0,0
		C1357.721,335.082,1363.017,340.318,1363.017,346.779L1363.017,346.779z"/>
	
		<ellipse transform="matrix(0.9534 -0.3018 0.3018 0.9534 12.147 445.6694)" fill="#36B258" stroke="#36B258" stroke-width="6" stroke-miterlimit="10" cx="1448.266" cy="183.527" rx="5.763" ry="5.827"/>
	
		<ellipse transform="matrix(0.9534 -0.3018 0.3018 0.9534 2.7057 441.3873)" fill="#36B258" stroke="#36B258" stroke-width="6" stroke-miterlimit="10" cx="1429.679" cy="211.938" rx="5.763" ry="5.828"/>
	
		<ellipse transform="matrix(0.9534 -0.3018 0.3018 0.9534 -16.8687 432.6016)" fill="#36B258" stroke="#36B258" stroke-width="6" stroke-miterlimit="10" cx="1391.461" cy="270.887" rx="5.763" ry="5.828"/>
	
		<ellipse transform="matrix(0.9534 -0.3017 0.3017 0.9534 -26.5972 428.0835)" fill="#36B258" stroke="#36B258" stroke-width="6" stroke-miterlimit="10" cx="1372.709" cy="300.156" rx="5.764" ry="5.828"/>
	
		<ellipse transform="matrix(0.9534 -0.3018 0.3018 0.9534 6.1138 451.8)" fill="#36B258" stroke="#36B258" stroke-width="6" stroke-miterlimit="10" cx="1465.284" cy="206.113" rx="5.763" ry="5.827"/>
	<path fill="#7EC68E" stroke="#7EC68E" stroke-miterlimit="10" d="M1468.856,350.41c0,4.343-3.56,7.868-7.953,7.868
		c-4.394,0-7.956-3.525-7.956-7.868c0-4.346,3.562-7.866,7.956-7.866C1465.296,342.543,1468.856,346.064,1468.856,350.41z"/>
	
		<ellipse transform="matrix(0.9534 -0.3018 0.3018 0.9534 -44.4244 436.7806)" fill="#36B258" stroke="#36B258" stroke-width="6" stroke-miterlimit="10" cx="1391.396" cy="362.167" rx="5.763" ry="5.829"/>
	
		<ellipse transform="matrix(0.9534 -0.3017 0.3017 0.9534 -46.7517 447.0568)" fill="#36B258" stroke="#36B258" stroke-width="6" stroke-miterlimit="10" cx="1423.833" cy="374.873" rx="7.567" ry="7.653"/>
	
		<ellipse transform="matrix(0.9534 -0.3018 0.3018 0.9534 -49.1313 456.5697)" fill="#36B258" stroke="#36B258" stroke-width="6" stroke-miterlimit="10" cx="1452.891" cy="387.274" rx="5.763" ry="5.828"/>
	
		<line fill="none" stroke="#7EC68E" stroke-width="4" stroke-miterlimit="10" x1="1641.261" y1="347.379" x2="1495.881" y2="246.985"/>
	<polyline fill="none" stroke="#7EC68E" stroke-width="4" stroke-miterlimit="10" points="1529.816,345.043 1524.045,207.8 
		1597.852,272.572 1530.516,347.379 1616.539,301.869 1616.539,303.941 1536.345,388.957 	"/>
	<polyline fill="none" stroke="#7EC68E" stroke-width="4" stroke-miterlimit="10" points="1541.043,185.211 1530.516,347.379 
		1559.638,213.623 	"/>
	
		<line fill="none" stroke="#7EC68E" stroke-width="4" stroke-miterlimit="10" x1="1530.516" y1="347.379" x2="1495.618" y2="404.183"/>
	
		<line fill="none" stroke="#36B258" stroke-width="4" stroke-miterlimit="10" x1="1557.834" y1="212.75" x2="1565.408" y2="376.588"/>
	
		<line fill="none" stroke="#36B258" stroke-width="4" stroke-miterlimit="10" x1="1597.854" y1="363.85" x2="1597.852" y2="272.572"/>
	<polyline fill="none" stroke="#36B258" stroke-width="4" stroke-miterlimit="10" points="1495.405,118.364 1522.563,207.8 
		1495.62,405.651 	"/>
	
		<ellipse transform="matrix(0.9534 0.3018 -0.3018 0.9534 127.7363 -456.3911)" fill="#36B258" stroke="#36B258" stroke-width="6" stroke-miterlimit="10" cx="1541.017" cy="185.234" rx="5.763" ry="5.827"/>
	
		<ellipse transform="matrix(0.9534 0.3018 -0.3018 0.9534 137.2008 -460.726)" fill="#36B258" stroke="#36B258" stroke-width="6" stroke-miterlimit="10" cx="1559.633" cy="213.656" rx="5.764" ry="5.828"/>
	
		<ellipse transform="matrix(0.9534 0.3018 -0.3018 0.9534 156.7628 -469.4885)" fill="#36B258" stroke="#36B258" stroke-width="6" stroke-miterlimit="10" cx="1597.846" cy="272.607" rx="5.763" ry="5.828"/>
	
		<ellipse transform="matrix(0.9534 0.3018 -0.3018 0.9534 166.4791 -473.774)" fill="#36B258" stroke="#36B258" stroke-width="6" stroke-miterlimit="10" cx="1616.499" cy="301.884" rx="5.764" ry="5.828"/>
	
		<ellipse transform="matrix(0.9534 0.3018 -0.3018 0.9534 133.7767 -450.2447)" fill="#36B258" stroke="#36B258" stroke-width="6" stroke-miterlimit="10" cx="1524.02" cy="207.821" rx="5.762" ry="5.827"/>
	<path fill="#36B258" stroke="#36B258" stroke-width="6" stroke-miterlimit="10" d="M1505.494,402.472
		c0,6.461-5.295,11.698-11.821,11.698l0,0c-6.528,0-11.82-5.237-11.82-11.698l0,0c0-6.461,5.292-11.697,11.82-11.697l0,0
		C1500.199,390.775,1505.494,396.011,1505.494,402.472L1505.494,402.472z"/>
	
		<ellipse transform="matrix(0.9534 0.3018 -0.3018 0.9534 183.728 -465.879)" fill="#36B258" stroke="#36B258" stroke-width="6" stroke-miterlimit="10" cx="1599.317" cy="361.553" rx="5.763" ry="5.828"/>
	<path fill="#36B258" stroke="#36B258" stroke-width="6" stroke-miterlimit="10" d="M1564.57,381.551
		c3.984,1.261,8.25-0.985,9.526-5.013c1.274-4.028-0.923-8.318-4.907-9.579c-3.983-1.261-8.248,0.984-9.521,5.011
		C1558.394,376,1560.589,380.291,1564.57,381.551z"/>
	
		<ellipse transform="matrix(0.9533 0.3019 -0.3019 0.9533 188.458 -446.163)" fill="#36B258" stroke="#36B258" stroke-width="6" stroke-miterlimit="10" cx="1537.745" cy="386.656" rx="5.764" ry="5.829"/>
	
		<ellipse transform="matrix(0.9534 -0.3018 0.3018 0.9534 -4.3928 462.1772)" fill="#36B258" stroke="#36B258" stroke-width="6" stroke-miterlimit="10" cx="1493.416" cy="245.304" rx="5.763" ry="5.827"/>
	<path fill="#36B258" stroke="#36B258" stroke-width="3" stroke-miterlimit="10" d="M1505.793,117.764
		c0,6.46-5.296,11.697-11.821,11.697l0,0c-6.529,0-11.821-5.237-11.821-11.697l0,0c0-6.461,5.293-11.697,11.821-11.697l0,0
		C1500.497,106.066,1505.793,111.303,1505.793,117.764L1505.793,117.764z"/>
	<path fill="#7EC68E" stroke="#7EC68E" stroke-miterlimit="10" d="M1534.762,350.41c0,4.343-3.562,7.868-7.953,7.868
		c-4.395,0-7.955-3.525-7.955-7.868c0-4.346,3.561-7.866,7.955-7.866C1531.2,342.543,1534.762,346.064,1534.762,350.41z"/>
	<path fill="#36B258" stroke="#36B258" stroke-width="3" stroke-miterlimit="10" d="M1649.41,345.668
		c0,6.46-5.294,11.697-11.818,11.697l0,0c-6.529,0-11.823-5.237-11.823-11.697l0,0c0-6.461,5.294-11.697,11.823-11.697l0,0
		C1644.116,333.97,1649.41,339.207,1649.41,345.668L1649.41,345.668z"/>
</g>
<g id="Layer_2_2_">
</g>
</svg>
