<?xml version="1.0" encoding="utf-8"?>
<!-- Generator: Adobe Illustrator 16.0.0, SVG Export Plug-In . SVG Version: 6.00 Build 0)  -->
<!DOCTYPE svg PUBLIC "-//W3C//DTD SVG 1.1//EN" "http://www.w3.org/Graphics/SVG/1.1/DTD/svg11.dtd">
<svg version="1.1" id="Layer_1" xmlns="http://www.w3.org/2000/svg" xmlns:xlink="http://www.w3.org/1999/xlink" x="0px" y="0px"
	 width="3000px" height="3000px" viewBox="0 0 3000 3000" enable-background="new 0 0 3000 3000" xml:space="preserve">
<g display="none">
	<path display="inline" fill="#FFCCFD" d="M1401.637,270.407"/>
	<path display="inline" fill="#31323D" d="M1393.96,203.087c0,0,5.871-14.45,15.354,0c9.479,14.45,131.856,208.627,131.856,208.627
		s7.228,13.547,0,21.901c-7.225,8.354-133.215,156.02-133.215,156.02s-5.871,9.483-13.999,0
		c-8.128-9.479-132.313-158.955-132.313-158.955s-8.577-9.028-0.448-19.87C1269.325,399.974,1393.96,203.087,1393.96,203.087z"/>
	<polygon display="inline" fill="#4EB757" points="1396.218,365.203 1275.646,410.813 1396.218,222.957 	"/>
	<polygon display="inline" fill="#7EC68E" points="1275.646,422.553 1396.218,375.589 1396.218,469.517 	"/>
	<polygon display="inline" fill="#4EB757" points="1406.582,365.203 1527.152,410.813 1406.582,222.957 	"/>
	<polygon display="inline" fill="#7EC68E" points="1527.152,422.553 1406.582,375.589 1406.582,469.517 	"/>
	<polygon display="inline" fill="#4EB757" points="1527.152,431.132 1405.678,479.451 1405.678,576.991 	"/>
	<g display="inline">
		<polygon fill="#4EB757" points="1275.646,431.132 1397.121,479.451 1397.121,576.991 		"/>
		<polygon fill="#5A7F54" points="1275.195,431.132 1356.307,463.395 1396.669,576.991 		"/>
		<polygon fill="none" stroke="#31323D" stroke-miterlimit="10" points="1275.195,431.133 1396.669,479.45 1396.669,576.99 		"/>
	</g>
	<path display="inline" fill="#4EB757" d="M1275.195,422.354l66.833-25.737c0,0-10.839,13.458-0.452,32.018
		c10.386,18.563,9.935,23.074,9.935,23.074L1275.195,422.354z"/>
	<polygon display="inline" fill="none" stroke="#31323D" stroke-miterlimit="10" points="1275.195,422.354 1396.766,375.589 
		1396.766,469.517 	"/>
	<polygon display="inline" fill="#5A7F54" points="1343.327,385.21 1275.646,410.811 1396.218,222.957 	"/>
	<polygon display="inline" fill="none" stroke="#31323D" stroke-miterlimit="10" points="1396.218,365.203 1275.646,410.811 
		1396.218,222.957 	"/>
	<path display="inline" fill="#36B258" d="M1552.895,298.83c2.957,3.615,8.123,4.375,11.543,1.698l28.826-22.591
		c3.416-2.68,3.791-7.782,0.834-11.396l0,0c-2.957-3.615-8.121-4.375-11.539-1.697l-28.824,22.591
		C1550.314,290.113,1549.939,295.214,1552.895,298.83L1552.895,298.83z"/>
	<path display="inline" fill="#36B258" d="M1264.724,298.83c-2.956,3.615-8.123,4.375-11.541,1.698l-28.822-22.591
		c-3.418-2.68-3.793-7.782-0.839-11.396l0,0c2.957-3.615,8.123-4.375,11.541-1.697l28.826,22.591
		C1267.305,290.113,1267.68,295.214,1264.724,298.83L1264.724,298.83z"/>
	<path display="inline" fill="#36B258" d="M1552.895,536.131c2.957-3.614,8.123-4.375,11.543-1.699l28.824,22.595
		c3.418,2.68,3.791,7.777,0.836,11.396l0,0c-2.955,3.616-8.123,4.375-11.539,1.699l-28.824-22.591
		C1550.314,544.847,1549.939,539.745,1552.895,536.131L1552.895,536.131z"/>
	<path display="inline" fill="#36B258" d="M1264.724,536.131c-2.956-3.614-8.123-4.375-11.541-1.699l-28.822,22.595
		c-3.418,2.68-3.793,7.777-0.839,11.396l0,0c2.957,3.616,8.123,4.375,11.541,1.699l28.826-22.591
		C1267.305,544.847,1267.68,539.745,1264.724,536.131L1264.724,536.131z"/>
</g>
<g display="none">
	<g display="inline">
		<polygon fill="#5A7F54" points="1275.879,422.304 1406.874,360.391 1537.87,422.304 1406.874,512.242 		"/>
		<polygon fill="#4EB757" points="1406.875,360.391 1406.875,460.756 1537.87,422.304 		"/>
		<polyline fill="#7AC373" points="1275.879,422.304 1406.875,360.391 1406.875,460.756 		"/>
	</g>
	<g display="inline">
		
			<line fill="none" stroke="#36B258" stroke-width="5" stroke-miterlimit="10" x1="1267.42" y1="422.578" x2="1405.814" y2="640.578"/>
		
			<line fill="none" stroke="#7EC68E" stroke-width="3" stroke-miterlimit="10" x1="1264.454" y1="419.321" x2="1405.814" y2="557.476"/>
		
			<line fill="none" stroke="#7EC68E" stroke-width="3" stroke-miterlimit="10" x1="1288.328" y1="455.511" x2="1376.489" y2="507.946"/>
		
			<line fill="none" stroke="#7EC68E" stroke-width="3" stroke-miterlimit="10" x1="1305.932" y1="483.243" x2="1379.125" y2="507.946"/>
		
			<line fill="none" stroke="#7EC68E" stroke-width="3" stroke-miterlimit="10" x1="1336.618" y1="531.578" x2="1388.021" y2="578.982"/>
		<path fill="none" stroke="#7EC68E" stroke-width="3" stroke-miterlimit="10" d="M1388.021,580.287l-10.218-72.341
			c3.493,0-15.484,64.118-15.484,64.118"/>
		
			<line fill="none" stroke="#7EC68E" stroke-width="3" stroke-miterlimit="10" x1="1387.837" y1="578.982" x2="1405.814" y2="642.991"/>
		<ellipse fill="#7EC68E" cx="1377.313" cy="508.158" rx="5.438" ry="5.377"/>
		<ellipse fill="#7EC68E" cx="1387.692" cy="578.379" rx="5.437" ry="5.376"/>
		<line fill="none" stroke="#36B258" stroke-width="5" stroke-miterlimit="10" x1="1544.128" y1="423" x2="1405.732" y2="641"/>
		
			<line fill="none" stroke="#7EC68E" stroke-width="3" stroke-miterlimit="10" x1="1547.093" y1="419.743" x2="1405.732" y2="557.898"/>
		
			<line fill="none" stroke="#7EC68E" stroke-width="3" stroke-miterlimit="10" x1="1523.22" y1="455.933" x2="1435.058" y2="508.368"/>
		
			<line fill="none" stroke="#7EC68E" stroke-width="3" stroke-miterlimit="10" x1="1505.615" y1="483.665" x2="1432.423" y2="508.368"/>
		<line fill="none" stroke="#7EC68E" stroke-width="3" stroke-miterlimit="10" x1="1474.93" y1="532" x2="1423.525" y2="579.405"/>
		<path fill="none" stroke="#7EC68E" stroke-width="3" stroke-miterlimit="10" d="M1423.525,580.709l10.214-72.341
			c-3.491,0,15.487,64.118,15.487,64.118"/>
		
			<line fill="none" stroke="#7EC68E" stroke-width="3" stroke-miterlimit="10" x1="1423.711" y1="579.405" x2="1405.732" y2="643.413"/>
		<ellipse fill="#7EC68E" cx="1423.854" cy="578.379" rx="5.438" ry="5.376"/>
		<ellipse fill="#7EC68E" cx="1435.058" cy="508.158" rx="5.438" ry="5.377"/>
		<path fill="#36B258" d="M1414.712,642.993c0,4.854-3.985,8.798-8.896,8.798l0,0c-4.916,0-8.897-3.941-8.897-8.798l0,0
			c0-4.861,3.981-8.798,8.897-8.798l0,0C1410.727,634.195,1414.712,638.132,1414.712,642.993L1414.712,642.993z"/>
		<path fill="#36B258" d="M1273.351,419.321c0,4.856-3.982,8.798-8.896,8.798l0,0c-4.916,0-8.897-3.938-8.897-8.798l0,0
			c0-4.859,3.981-8.798,8.897-8.798l0,0C1269.366,410.523,1273.351,414.462,1273.351,419.321L1273.351,419.321z"/>
		<ellipse fill="#36B258" cx="1288.344" cy="457.485" rx="5.438" ry="5.376"/>
		<ellipse fill="#36B258" cx="1305.932" cy="483.995" rx="5.438" ry="5.377"/>
		<ellipse fill="#36B258" cx="1335.794" cy="532.548" rx="5.437" ry="5.376"/>
		<ellipse fill="#36B258" cx="1361.002" cy="571.162" rx="5.438" ry="5.377"/>
		<ellipse fill="#36B258" cx="1523.202" cy="457.485" rx="5.437" ry="5.376"/>
		<ellipse fill="#36B258" cx="1505.615" cy="484.417" rx="5.437" ry="5.377"/>
		<ellipse fill="#36B258" cx="1475.754" cy="532.97" rx="5.438" ry="5.376"/>
		<ellipse fill="#36B258" cx="1450.544" cy="571.584" rx="5.437" ry="5.377"/>
		<ellipse fill="#36B258" cx="1405.814" cy="557.476" rx="5.438" ry="5.376"/>
		<path fill="#36B258" d="M1557.967,417.496c0,4.859-3.982,8.798-8.896,8.798l0,0c-4.916,0-8.897-3.938-8.897-8.798l0,0
			c0-4.859,3.981-8.798,8.897-8.798l0,0C1553.98,408.698,1557.967,412.637,1557.967,417.496L1557.967,417.496z"/>
	</g>
	<polyline display="inline" fill="none" stroke="#7EC68E" stroke-width="3" stroke-miterlimit="10" points="1378.887,327.229 
		1361.505,264.92 1343.724,381.578 	"/>
	
		<line display="inline" fill="none" stroke="#7EC68E" stroke-width="3" stroke-miterlimit="10" x1="1338.358" y1="303.484" x2="1371.365" y2="367.377"/>
	
		<line display="inline" fill="none" stroke="#7EC68E" stroke-width="3" stroke-miterlimit="10" x1="1307.803" y1="353.035" x2="1378.298" y2="328.635"/>
	
		<line display="inline" fill="none" stroke="#7EC68E" stroke-width="3" stroke-miterlimit="10" x1="1268.649" y1="415.304" x2="1405.957" y2="280.408"/>
	
		<line display="inline" fill="none" stroke="#7EC68E" stroke-width="3" stroke-miterlimit="10" x1="1290.711" y1="380.274" x2="1378.298" y2="328.635"/>
	<path display="inline" fill="#36B258" d="M1273.835,418.044c0,4.859-3.982,8.798-8.891,8.798l0,0c-4.91,0-8.894-3.938-8.894-8.798
		l0,0c0-4.859,3.98-8.798,8.894-8.798l0,0C1269.854,409.246,1273.835,413.185,1273.835,418.044L1273.835,418.044z"/>
	<path display="inline" fill="#36B258" d="M1416.823,193.689c0,4.859-3.982,8.798-8.894,8.798l0,0c-4.91,0-8.891-3.939-8.891-8.798
		l0,0c0-4.859,3.979-8.798,8.891-8.798l0,0C1412.841,184.891,1416.823,188.83,1416.823,193.689L1416.823,193.689z"/>
	
		<line display="inline" fill="none" stroke="#36B258" stroke-width="5" stroke-miterlimit="10" x1="1264.945" y1="418.044" x2="1406.945" y2="191.602"/>
	<ellipse display="inline" fill="#36B258" cx="1288.571" cy="380.274" rx="5.433" ry="5.377"/>
	<ellipse display="inline" fill="#36B258" cx="1305.79" cy="353.035" rx="5.433" ry="5.376"/>
	<ellipse display="inline" fill="#36B258" cx="1361.505" cy="264.92" rx="5.433" ry="5.377"/>
	<ellipse display="inline" fill="#36B258" cx="1343.333" cy="380.274" rx="4.971" ry="4.919"/>
	<ellipse display="inline" fill="#36B258" cx="1370.358" cy="366.039" rx="3.42" ry="3.384"/>
	<ellipse display="inline" fill="#36B258" cx="1311.223" cy="396.313" rx="3.42" ry="3.384"/>
	
		<line display="inline" fill="none" stroke="#36B258" stroke-width="3" stroke-miterlimit="10" x1="1271.849" y1="415.304" x2="1404.875" y2="347.851"/>
	<path display="inline" fill="none" stroke="#36B258" stroke-miterlimit="10" d="M1402.665,344.928"/>
	
		<line display="inline" fill="none" stroke="#36B258" stroke-width="3" stroke-miterlimit="10" x1="1343.724" y1="378.166" x2="1339.278" y2="306.802"/>
	<polyline display="inline" fill="none" stroke="#7EC68E" stroke-width="3" stroke-miterlimit="10" points="1339.278,302.24 
		1387.848,259.543 1380.125,323.077 	"/>
	
		<line display="inline" fill="none" stroke="#36B258" stroke-width="3" stroke-miterlimit="10" x1="1389.093" y1="259.543" x2="1405.957" y2="341.67"/>
	
		<line display="inline" fill="none" stroke="#36B258" stroke-width="3" stroke-miterlimit="10" x1="1389.093" y1="256.62" x2="1405.957" y2="197.313"/>
	
		<line display="inline" fill="none" stroke="#36B258" stroke-width="3" stroke-miterlimit="10" x1="1307.803" y1="356.457" x2="1311.222" y2="396.313"/>
	
		<line display="inline" fill="none" stroke="#7EC68E" stroke-width="3" stroke-miterlimit="10" x1="1381.262" y1="328.635" x2="1404.64" y2="345.245"/>
	<ellipse display="inline" fill="#7EC68E" cx="1378.886" cy="327.229" rx="4.375" ry="4.328"/>
	<ellipse display="inline" fill="#36B258" cx="1337.303" cy="303.534" rx="5.436" ry="5.377"/>
	<polyline display="inline" fill="none" stroke="#7EC68E" stroke-width="3" stroke-miterlimit="10" points="1436.287,329.208 
		1453.668,266.899 1471.449,383.557 	"/>
	
		<line display="inline" fill="none" stroke="#7EC68E" stroke-width="3" stroke-miterlimit="10" x1="1476.814" y1="305.463" x2="1443.811" y2="369.356"/>
	
		<line display="inline" fill="none" stroke="#7EC68E" stroke-width="3" stroke-miterlimit="10" x1="1507.37" y1="355.014" x2="1436.875" y2="330.614"/>
	
		<line display="inline" fill="none" stroke="#7EC68E" stroke-width="3" stroke-miterlimit="10" x1="1546.524" y1="417.282" x2="1409.216" y2="282.387"/>
	
		<line display="inline" fill="none" stroke="#7EC68E" stroke-width="3" stroke-miterlimit="10" x1="1524.463" y1="382.253" x2="1436.875" y2="330.614"/>
	
		<line display="inline" fill="none" stroke="#36B258" stroke-width="5" stroke-miterlimit="10" x1="1550.229" y1="420.024" x2="1408.229" y2="193.581"/>
	<path display="inline" fill="#36B258" d="M1503.951,355.014c0,2.969,2.432,5.376,5.434,5.376c2.997,0,5.436-2.408,5.436-5.376
		c0-2.969-2.438-5.377-5.436-5.377C1506.383,349.637,1503.951,352.045,1503.951,355.014z"/>
	<ellipse display="inline" fill="#36B258" cx="1455.645" cy="264.944" rx="5.435" ry="5.376"/>
	<ellipse display="inline" fill="#36B258" cx="1446.79" cy="366.063" rx="3.421" ry="3.384"/>
	
		<line display="inline" fill="none" stroke="#36B258" stroke-width="3" stroke-miterlimit="10" x1="1543.325" y1="417.282" x2="1410.299" y2="349.83"/>
	
		<line display="inline" fill="none" stroke="#36B258" stroke-width="3" stroke-miterlimit="10" x1="1471.449" y1="380.145" x2="1475.895" y2="308.781"/>
	<polyline display="inline" fill="none" stroke="#7EC68E" stroke-width="3" stroke-miterlimit="10" points="1475.895,304.219 
		1427.325,261.522 1435.048,325.056 	"/>
	
		<line display="inline" fill="none" stroke="#36B258" stroke-width="3" stroke-miterlimit="10" x1="1426.081" y1="261.522" x2="1409.216" y2="343.648"/>
	
		<line display="inline" fill="none" stroke="#36B258" stroke-width="3" stroke-miterlimit="10" x1="1426.081" y1="258.599" x2="1409.216" y2="199.292"/>
	
		<line display="inline" fill="none" stroke="#36B258" stroke-width="3" stroke-miterlimit="10" x1="1507.37" y1="358.436" x2="1503.951" y2="398.292"/>
	
		<line display="inline" fill="none" stroke="#7EC68E" stroke-width="3" stroke-miterlimit="10" x1="1433.912" y1="330.614" x2="1410.532" y2="347.224"/>
	<ellipse display="inline" fill="#7EC68E" cx="1436.287" cy="329.208" rx="4.374" ry="4.329"/>
	<ellipse display="inline" fill="#36B258" cx="1477.87" cy="305.514" rx="5.433" ry="5.376"/>
	<path display="inline" fill="#36B258" d="M1558.083,418.044c0,4.859-3.982,8.798-8.89,8.798l0,0c-4.913,0-8.895-3.938-8.895-8.798
		l0,0c0-4.859,3.979-8.798,8.895-8.798l0,0C1554.101,409.246,1558.083,413.185,1558.083,418.044L1558.083,418.044z"/>
	<path display="inline" fill="#36B258" d="M1416.823,347.658c0,4.859-3.982,8.798-8.894,8.798l0,0c-4.91,0-8.891-3.939-8.891-8.798
		l0,0c0-4.859,3.979-8.798,8.891-8.798l0,0C1412.841,338.86,1416.823,342.799,1416.823,347.658L1416.823,347.658z"/>
	<ellipse display="inline" fill="#36B258" cx="1473.816" cy="380.274" rx="4.971" ry="4.919"/>
	<ellipse display="inline" fill="#36B258" cx="1505.926" cy="396.313" rx="3.419" ry="3.384"/>
	<ellipse display="inline" fill="#36B258" cx="1389.093" cy="258.799" rx="4.375" ry="4.328"/>
	<ellipse display="inline" fill="#36B258" cx="1426.08" cy="260.778" rx="4.374" ry="4.329"/>
	<ellipse display="inline" fill="#36B258" cx="1406.945" cy="278.118" rx="5.195" ry="5.144"/>
</g>
<g>
	<g>
		<path fill="#FFCCFD" d="M1419.891,276.36"/>
		<polygon opacity="0.16" fill="#5A7F54" enable-background="new    " points="1307.327,419.446 1379.804,448.168 1415.87,549.299 
					"/>
		<path opacity="0.16" fill="#4EB757" enable-background="new    " d="M1307.327,411.63l59.498-22.914
			c0,0-9.649,11.981-0.402,28.504c9.246,16.523,8.844,20.541,8.844,20.541L1307.327,411.63z"/>
		<polygon opacity="0.16" fill="#5A7F54" enable-background="new    " points="1367.98,378.563 1307.728,401.354 1415.067,234.117 
					"/>
		<path fill="#36B258" d="M1554.549,301.663c2.633,3.219,7.232,3.895,10.277,1.512l25.662-20.112
			c3.041-2.386,3.375-6.928,0.742-10.146l0,0c-2.633-3.218-7.23-3.895-10.273-1.511l-25.662,20.112
			C1552.252,293.902,1551.918,298.444,1554.549,301.663L1554.549,301.663z"/>
		<path fill="#36B258" d="M1298.004,301.663c-2.631,3.219-7.231,3.895-10.272,1.512l-25.662-20.112
			c-3.043-2.386-3.377-6.928-0.745-10.146l0,0c2.633-3.218,7.232-3.895,10.273-1.511l25.663,20.112
			C1300.302,293.902,1300.636,298.444,1298.004,301.663L1298.004,301.663z"/>
		<path fill="#36B258" d="M1554.549,512.922c2.633-3.218,7.232-3.895,10.277-1.513l25.66,20.112
			c3.043,2.385,3.375,6.927,0.744,10.144l0,0c-2.631,3.22-7.232,3.896-10.273,1.513l-25.662-20.11
			C1552.252,520.682,1551.918,516.14,1554.549,512.922L1554.549,512.922z"/>
		<path fill="#36B258" d="M1298.004,512.922c-2.631-3.218-7.231-3.895-10.272-1.513l-25.662,20.112
			c-3.043,2.385-3.377,6.927-0.745,10.144l0,0c2.633,3.22,7.232,3.896,10.273,1.513l25.663-20.11
			C1300.302,520.682,1300.636,516.14,1298.004,512.922L1298.004,512.922z"/>
	</g>
	
		<line fill="none" stroke="#7EC68E" stroke-width="4" stroke-miterlimit="10" x1="1297.737" y1="409.869" x2="1420.801" y2="510.543"/>
	
		<line fill="none" stroke="#7EC68E" stroke-width="4" stroke-miterlimit="10" x1="1328.408" y1="450.59" x2="1401.126" y2="477.404"/>
	<path fill="#7EC68E" d="M1424.202,509.274c0,2.641-2.166,4.787-4.84,4.787s-4.84-2.146-4.84-4.787c0-2.646,2.168-4.787,4.84-4.787
		C1422.036,504.487,1424.202,506.629,1424.202,509.274z"/>
	<path fill="#7EC68E" d="M1422.645,561.277c0,2.641-2.168,4.786-4.84,4.786s-4.84-2.146-4.84-4.786c0-2.646,2.168-4.786,4.84-4.786
		C1420.479,556.491,1422.645,558.632,1422.645,561.277z"/>
	
		<ellipse fill="#36B258" stroke="#36B258" stroke-width="6" stroke-miterlimit="10" cx="1328.47" cy="451.276" rx="4.839" ry="4.786"/>
	
		<line fill="none" stroke="#7EC68E" stroke-width="4" stroke-miterlimit="10" x1="1400.824" y1="472.716" x2="1404.452" y2="522.044"/>
	
		<line fill="none" stroke="#7EC68E" stroke-width="4" stroke-miterlimit="10" x1="1349.699" y1="476.915" x2="1401.407" y2="477.404"/>
	
		<ellipse fill="#36B258" stroke="#36B258" stroke-width="6" stroke-miterlimit="10" cx="1349.699" cy="476.914" rx="4.841" ry="4.787"/>
	<polyline fill="none" stroke="#7EC68E" stroke-width="4" stroke-miterlimit="10" points="1370.039,501.61 1404.25,519.312 
		1419.36,556.491 	"/>
	
		<ellipse fill="#36B258" stroke="#36B258" stroke-width="6" stroke-miterlimit="10" cx="1370.04" cy="501.61" rx="4.84" ry="4.786"/>
	
		<line fill="none" stroke="#7EC68E" stroke-width="4" stroke-miterlimit="10" x1="1390.379" y1="525.262" x2="1401.126" y2="476.824"/>
	
		<ellipse fill="#36B258" stroke="#36B258" stroke-width="6" stroke-miterlimit="10" cx="1390.378" cy="525.261" rx="4.839" ry="4.787"/>
	
		<line fill="none" stroke="#7EC68E" stroke-width="4" stroke-miterlimit="10" x1="1542.768" y1="409.72" x2="1417.68" y2="510.394"/>
	
		<line fill="none" stroke="#7EC68E" stroke-width="4" stroke-miterlimit="10" x1="1511.592" y1="450.441" x2="1437.68" y2="477.256"/>
	<path fill="#7EC68E" stroke="#36B258" stroke-width="6" stroke-miterlimit="10" d="M1414.225,509.124
		c0,2.642,2.202,4.787,4.918,4.787s4.92-2.146,4.92-4.787c0-2.645-2.203-4.785-4.92-4.785
		C1416.426,504.338,1414.225,506.479,1414.225,509.124z"/>
	
		<ellipse fill="#36B258" stroke="#36B258" stroke-width="6" stroke-miterlimit="10" cx="1512.42" cy="451.127" rx="4.92" ry="4.786"/>
	
		<line fill="none" stroke="#7EC68E" stroke-width="4" stroke-miterlimit="10" x1="1437.987" y1="472.567" x2="1434.299" y2="521.894"/>
	
		<line fill="none" stroke="#7EC68E" stroke-width="4" stroke-miterlimit="10" x1="1489.953" y1="476.766" x2="1437.393" y2="477.256"/>
	
		<ellipse fill="#36B258" stroke="#36B258" stroke-width="6" stroke-miterlimit="10" cx="1490.842" cy="476.765" rx="4.918" ry="4.787"/>
	<polyline fill="none" stroke="#7EC68E" stroke-width="4" stroke-miterlimit="10" points="1470.167,501.461 1435.393,519.162 
		1420.036,556.341 	"/>
	
		<ellipse fill="#36B258" stroke="#36B258" stroke-width="6" stroke-miterlimit="10" cx="1469.276" cy="501.462" rx="4.921" ry="4.786"/>
	
		<line fill="none" stroke="#7EC68E" stroke-width="4" stroke-miterlimit="10" x1="1448.604" y1="525.112" x2="1437.68" y2="476.676"/>
	
		<ellipse fill="#36B258" stroke="#36B258" stroke-width="6" stroke-miterlimit="10" cx="1448.604" cy="526.003" rx="4.918" ry="4.787"/>
	<path fill="#36B258" stroke="#36B258" stroke-width="3" stroke-miterlimit="10" d="M1429.428,555.484
		c0,5.366-4.398,9.715-9.818,9.715l0,0c-5.422,0-9.818-4.351-9.818-9.715l0,0c0-5.366,4.396-9.716,9.818-9.716l0,0
		C1425.028,545.769,1429.428,550.118,1429.428,555.484L1429.428,555.484z"/>
	<path fill="#7EC68E" stroke="#7EC68E" stroke-miterlimit="10" d="M1444,477.16c0,3.605-2.957,6.534-6.607,6.534
		c-3.648,0-6.605-2.929-6.605-6.534c0-3.611,2.959-6.533,6.605-6.533C1441.043,470.626,1444,473.55,1444,477.16z"/>
	<path fill="#7EC68E" stroke="#7EC68E" stroke-miterlimit="10" d="M1429.584,518.322c0,2.643,2.203,4.787,4.918,4.787
		c2.717,0,4.918-2.146,4.918-4.787c0-2.646-2.201-4.785-4.918-4.785S1429.584,515.678,1429.584,518.322z"/>
	<path fill="#7EC68E" stroke="#7EC68E" stroke-miterlimit="10" d="M1409.091,518.471c0,2.643-2.167,4.787-4.84,4.787
		c-2.672,0-4.839-2.145-4.839-4.787c0-2.645,2.167-4.786,4.839-4.786C1406.924,513.685,1409.091,515.827,1409.091,518.471z"/>
	<path fill="#7EC68E" stroke="#7EC68E" stroke-miterlimit="10" d="M1407.43,477.404c0,3.605-2.958,6.534-6.605,6.534
		c-3.648,0-6.607-2.929-6.607-6.534c0-3.61,2.958-6.533,6.607-6.533C1404.473,470.871,1407.43,473.795,1407.43,477.404z"/>
	
		<line fill="none" stroke="#7EC68E" stroke-width="4" stroke-miterlimit="10" x1="1298.399" y1="411.809" x2="1419.143" y2="328.427"/>
	<polyline fill="none" stroke="#7EC68E" stroke-width="4" stroke-miterlimit="10" points="1390.96,409.869 1395.753,295.883 
		1334.453,349.678 1390.379,411.809 1318.931,374.011 1318.931,375.732 1385.538,446.341 	"/>
	<polyline fill="none" stroke="#7EC68E" stroke-width="4" stroke-miterlimit="10" points="1381.636,277.122 1390.379,411.809 
		1366.19,300.719 	"/>
	
		<line fill="none" stroke="#7EC68E" stroke-width="4" stroke-miterlimit="10" x1="1390.379" y1="411.809" x2="1419.362" y2="458.987"/>
	
		<line fill="none" stroke="#36B258" stroke-width="4" stroke-miterlimit="10" x1="1367.69" y1="299.994" x2="1361.397" y2="436.068"/>
	
		<line fill="none" stroke="#36B258" stroke-width="4" stroke-miterlimit="10" x1="1334.452" y1="425.489" x2="1334.453" y2="349.678"/>
	<polyline fill="none" stroke="#36B258" stroke-width="4" stroke-miterlimit="10" points="1419.54,221.602 1396.985,295.883 
		1419.36,460.206 	"/>
	<path fill="#36B258" stroke="#36B258" stroke-width="3" stroke-miterlimit="10" d="M1310.847,412.731
		c0,5.366-4.397,9.715-9.816,9.715l0,0c-5.422,0-9.817-4.351-9.817-9.715l0,0c0-5.366,4.396-9.715,9.817-9.715l0,0
		C1306.448,403.017,1310.847,407.365,1310.847,412.731L1310.847,412.731z"/>
	
		<ellipse transform="matrix(-0.9534 0.3018 -0.3018 -0.9534 2782.479 124.3346)" fill="#36B258" stroke="#36B258" stroke-width="6" stroke-miterlimit="10" cx="1381.635" cy="277.099" rx="4.786" ry="4.84"/>
	
		<ellipse transform="matrix(-0.9534 0.3018 -0.3018 -0.9534 2759.5459 175.0535)" fill="#36B258" stroke="#36B258" stroke-width="6" stroke-miterlimit="10" cx="1366.25" cy="300.712" rx="4.787" ry="4.841"/>
	
		<ellipse transform="matrix(-0.9534 0.3018 -0.3018 -0.9534 2712.3633 280.3161)" fill="#36B258" stroke="#36B258" stroke-width="6" stroke-miterlimit="10" cx="1334.529" cy="349.673" rx="4.786" ry="4.84"/>
	
		<ellipse transform="matrix(-0.9534 0.3017 -0.3017 -0.9534 2689.1067 332.6564)" fill="#36B258" stroke="#36B258" stroke-width="6" stroke-miterlimit="10" cx="1318.864" cy="373.996" rx="4.788" ry="4.84"/>
	
		<ellipse transform="matrix(-0.9534 0.3018 -0.3018 -0.9534 2815.8364 156.689)" fill="#36B258" stroke="#36B258" stroke-width="6" stroke-miterlimit="10" cx="1395.815" cy="295.853" rx="4.786" ry="4.84"/>
	<path fill="#7EC68E" stroke="#7EC68E" stroke-miterlimit="10" d="M1398.751,415.747c0,3.607-2.957,6.535-6.606,6.535
		c-3.648,0-6.606-2.928-6.606-6.535c0-3.61,2.958-6.533,6.606-6.533C1395.794,409.214,1398.751,412.138,1398.751,415.747z"/>
	
		<ellipse transform="matrix(-0.9534 0.3018 -0.3018 -0.9534 2735.1069 428.3813)" fill="#36B258" stroke="#36B258" stroke-width="6" stroke-miterlimit="10" cx="1334.459" cy="425.488" rx="4.787" ry="4.842"/>
	
		<ellipse transform="matrix(-0.9534 0.3017 -0.3017 -0.9534 2790.7539 441.1563)" fill="#36B258" stroke="#36B258" stroke-width="6" stroke-miterlimit="10" cx="1361.313" cy="436.07" rx="6.285" ry="6.356"/>
	
		<ellipse transform="matrix(-0.9534 0.3018 -0.3018 -0.9534 2841.2053 453.6934)" fill="#36B258" stroke="#36B258" stroke-width="6" stroke-miterlimit="10" cx="1385.553" cy="446.34" rx="4.787" ry="4.84"/>
	
		<line fill="none" stroke="#7EC68E" stroke-width="4" stroke-miterlimit="10" x1="1541.939" y1="413.23" x2="1421.194" y2="329.848"/>
	<polyline fill="none" stroke="#7EC68E" stroke-width="4" stroke-miterlimit="10" points="1449.379,411.29 1444.588,297.304 
		1505.887,351.1 1449.961,413.23 1521.408,375.432 1521.408,377.153 1454.801,447.762 	"/>
	<polyline fill="none" stroke="#7EC68E" stroke-width="4" stroke-miterlimit="10" points="1458.706,278.543 1449.961,413.23 
		1474.148,302.14 	"/>
	
		<line fill="none" stroke="#7EC68E" stroke-width="4" stroke-miterlimit="10" x1="1449.961" y1="413.23" x2="1420.977" y2="460.408"/>
	
		<line fill="none" stroke="#36B258" stroke-width="4" stroke-miterlimit="10" x1="1472.648" y1="301.414" x2="1478.943" y2="437.489"/>
	<line fill="none" stroke="#36B258" stroke-width="4" stroke-miterlimit="10" x1="1505.889" y1="426.91" x2="1505.887" y2="351.1"/>
	<polyline fill="none" stroke="#36B258" stroke-width="4" stroke-miterlimit="10" points="1420.801,223.023 1443.356,297.304 
		1420.979,461.627 	"/>
	
		<ellipse transform="matrix(-0.9534 -0.3018 0.3018 -0.9534 2765.4116 984.3916)" fill="#36B258" stroke="#36B258" stroke-width="6" stroke-miterlimit="10" cx="1458.752" cy="278.561" rx="4.786" ry="4.84"/>
	
		<ellipse transform="matrix(-0.9534 -0.3017 0.3017 -0.9534 2788.5117 1035.115)" fill="#36B258" stroke="#36B258" stroke-width="6" stroke-miterlimit="10" cx="1474.205" cy="302.18" rx="4.787" ry="4.84"/>
	
		<ellipse transform="matrix(-0.9534 -0.3018 0.3018 -0.9534 2835.7434 1140.4158)" fill="#36B258" stroke="#36B258" stroke-width="6" stroke-miterlimit="10" cx="1505.968" cy="351.149" rx="4.787" ry="4.841"/>
	
		<ellipse transform="matrix(-0.9534 -0.3018 0.3018 -0.9534 2858.5825 1192.641)" fill="#36B258" stroke="#36B258" stroke-width="6" stroke-miterlimit="10" cx="1521.437" cy="375.462" rx="4.787" ry="4.84"/>
	
		<ellipse transform="matrix(-0.9534 -0.3017 0.3017 -0.9534 2732.1045 1016.6096)" fill="#36B258" stroke="#36B258" stroke-width="6" stroke-miterlimit="10" cx="1444.572" cy="297.286" rx="4.787" ry="4.84"/>
	<path fill="#36B258" stroke="#36B258" stroke-width="6" stroke-miterlimit="10" d="M1429.18,458.987
		c0,5.366-4.398,9.716-9.818,9.716l0,0c-5.423,0-9.818-4.351-9.818-9.716l0,0c0-5.366,4.396-9.715,9.818-9.715l0,0
		C1424.782,449.272,1429.18,453.621,1429.18,458.987L1429.18,458.987z"/>
	
		<ellipse transform="matrix(-0.9534 -0.3018 0.3018 -0.9534 2815.7202 1284.9543)" fill="#36B258" stroke="#36B258" stroke-width="6" stroke-miterlimit="10" cx="1507.138" cy="424.93" rx="4.787" ry="4.84"/>
	<path fill="#36B258" stroke="#36B258" stroke-width="6" stroke-miterlimit="10" d="M1478.246,441.612
		c3.309,1.047,6.852-0.818,7.912-4.164c1.059-3.345-0.768-6.909-4.076-7.956s-6.85,0.817-7.908,4.163
		C1473.115,437,1474.939,440.564,1478.246,441.612z"/>
	
		<ellipse transform="matrix(-0.9534 -0.3017 0.3017 -0.9534 2709.5452 1310.2029)" fill="#36B258" stroke="#36B258" stroke-width="6" stroke-miterlimit="10" cx="1455.968" cy="445.825" rx="4.787" ry="4.842"/>
	
		<ellipse transform="matrix(-0.9534 0.3017 -0.3017 -0.9534 2871.2314 213.3394)" fill="#36B258" stroke="#36B258" stroke-width="6" stroke-miterlimit="10" cx="1419.138" cy="328.434" rx="4.787" ry="4.84"/>
	<path fill="#36B258" stroke="#36B258" stroke-width="3" stroke-miterlimit="10" d="M1429.428,222.525
		c0,5.366-4.398,9.715-9.818,9.715l0,0c-5.422,0-9.818-4.35-9.818-9.715l0,0c0-5.366,4.396-9.715,9.818-9.715l0,0
		C1425.028,212.81,1429.428,217.159,1429.428,222.525L1429.428,222.525z"/>
	<path fill="#7EC68E" stroke="#7EC68E" stroke-miterlimit="10" d="M1453.487,415.747c0,3.607-2.957,6.535-6.604,6.535
		c-3.65,0-6.607-2.928-6.607-6.535c0-3.61,2.957-6.533,6.607-6.533C1450.53,409.214,1453.487,412.138,1453.487,415.747z"/>
	<path fill="#36B258" stroke="#36B258" stroke-width="3" stroke-miterlimit="10" d="M1548.709,411.809
		c0,5.366-4.396,9.715-9.816,9.715l0,0c-5.424,0-9.818-4.351-9.818-9.715l0,0c0-5.366,4.395-9.715,9.818-9.715l0,0
		C1544.313,402.093,1548.709,406.442,1548.709,411.809L1548.709,411.809z"/>
	<g id="Layer_2_2_">
		<g>
			<path fill="none" stroke="#36B258" stroke-width="15" stroke-miterlimit="10" d="M1300.532,404.72l115.777-184.886
				c0,0,3.982-6.591,8.607,1.093c4.625,7.683,116.125,185.024,116.125,185.024s9.379,10.956,0,19.121
				c-9.381,8.167-115.992,135.865-115.992,135.865s-4.469,5.938-9.227,0c-4.759-5.939-114.04-138.864-114.04-138.864
				S1290.701,414.153,1300.532,404.72z"/>
			<rect x="1416.309" y="219.835" fill="#36B258" width="9.859" height="346.789"/>
			
				<rect x="1356.457" y="321.227" transform="matrix(0.3478 0.9376 -0.9376 0.3478 1252.166 -1022.9845)" fill="#36B258" width="9.861" height="134.632"/>
			
				<rect x="1480.743" y="323.066" transform="matrix(-0.3478 0.9376 -0.9376 -0.3478 2368.373 -866.785)" fill="#36B258" width="9.862" height="134.631"/>
			
				<rect x="1357.37" y="370.513" transform="matrix(0.3478 -0.9376 0.9376 0.3478 478.0233 1562.823)" fill="#36B258" width="9.862" height="134.632"/>
			
				<rect x="1481.746" y="368.64" transform="matrix(-0.3477 -0.9376 0.9376 -0.3477 1594.7913 1981.4524)" fill="#36B258" width="9.859" height="134.624"/>
		</g>
	</g>
</g>
<rect x="6.852" fill="none" stroke="#AFD0F7" stroke-miterlimit="10" width="2993.148" height="3002.265"/>
</svg>
