<?xml version="1.0" encoding="utf-8"?>
<!-- Generator: Adobe Illustrator 16.0.0, SVG Export Plug-In . SVG Version: 6.00 Build 0)  -->
<!DOCTYPE svg PUBLIC "-//W3C//DTD SVG 1.1//EN" "http://www.w3.org/Graphics/SVG/1.1/DTD/svg11.dtd">
<svg version="1.1" id="Layer_1" xmlns="http://www.w3.org/2000/svg" xmlns:xlink="http://www.w3.org/1999/xlink" x="0px" y="0px"
	 width="2250px" height="2250px" viewBox="0 0 2250 2250" enable-background="new 0 0 2250 2250" xml:space="preserve">
<g>
	<path id="XMLID_3412_" fill="#FFFFFF" d="M1955.289,1746.445c-27.955-4.521-122.124-25.482-178.077-54.415
		c-15.694-8.113-42.44-27.263-59.761-30.707c-2.472-0.489-5.103-0.846-7.8-1.115c7.151-18.984,10.393-39.446,9.074-59.688
		c-1.087-16.705-5.702-34.206-17.968-45.604c-12.261-11.398-31.262-13.068-42.704-0.846c8.333-42.039-17.227-88.231-57.266-103.508
		c-40.046-15.276-88.654,7.509-110.44,44.418c7.696-19.99,13.338-42.089,7.427-62.678c-5.916-20.588-27.07-38.034-47.895-33.003
		c-6.064-11.837-12.926-24.477-24.95-30.157c-12.02-5.68-33.03-1.67-33.618,11.618c-0.599-13.601-10.894-26.208-24.099-29.521
		c-13.205-3.301-24.148,5.62-31.08,17.331c-8.46-25.867-20.907-51.025-40.325-70.087c-19.424-19.072-46.582-31.432-73.664-28.707
		c-27.075,2.729-52.827,22.62-58.123,49.317c-7.878-4.219-18.017-3.84-25.561,0.956c-7.542,4.79-5.823,12.908-5.345,21.835
		c-43.448-7.559-90.347,9.509-118.768,43.231c-28.421,33.728-36.653,83.348-21.844,124.887
		c-14.724-10.541-34.815-13.112-51.721-6.613c-16.9,6.492-30.103,21.862-33.97,39.551c-2.618-10.586-13.593-18.419-24.45-17.458
		c-10.863,0.967-17.018,3.719-17.729,14.602c-40.784-61.815-125.467-90.506-195.425-66.221
		c-69.958,24.291-115.81,99.432-109.515,173.216c-25.367-16.045-57.244-21.45-86.479-14.655
		c-29.235,6.801-55.459,25.708-71.145,51.301c-8.511,13.887-13.829,32.047-5.677,46.153c-18.045-11.991-46.102-8.559-61.046,7.13
		c-37.354-15.155-43.783-5.608-80.546,10.926c-55.113,24.791-108.325,24.791-148.634,24.791h119.658
		c130.668,0,189.489,34.035,271.101,12.887c112.245,31.069,229.949,28.878,341.96-3.026c37.395,19.429,80.964,18.457,119.133,0.593
		c91.222,22.424,187.171,19.979,277.472-5.899c19.721,10.239,44.489,8.092,64.457-1.653c64.577,22.983,135.104,22.89,201.791,7.015
		c36.953,18.407,79.712,16.331,116.741-1.923c61.655,17.996,127.337,17.122,189.492,0.939c27.713,8.245,60.704,7.63,88.335-0.89
		c13.635-4.213,28.428-6.652,44.671-8.042l207.42-6.074C2033.4,1762.058,2069.756,1759.926,1955.289,1746.445z"/>
	<g>
		<defs>
			<path id="XMLID_1_" d="M1772.646,1690.536c55.953,28.933,150.122,49.895,178.077,54.415
				c114.467,13.48,78.111,15.612,193.11,20.205l-207.42,6.074c-16.243,1.39-31.036,3.829-44.671,8.042
				c-27.631,8.52-60.622,9.135-88.335,0.89c-62.155,16.183-127.837,17.057-189.492-0.939c-37.029,18.254-79.788,20.33-116.741,1.923
				c-66.687,15.875-137.214,15.969-201.791-7.015c-19.968,9.745-44.736,11.893-64.457,1.653
				c-90.301,25.878-186.25,28.323-277.472,5.899c-38.169,17.864-81.738,18.836-119.133-0.593
				c-112.011,31.904-229.716,34.096-341.96,3.026c-81.612,21.148-140.433-12.887-271.101-12.887H101.602
				c40.309,0,93.521,0,148.634-24.791c36.763-16.534,43.192-26.081,80.546-10.926c14.944-15.688,43-19.121,61.046-7.13
				c0,0,156.4,16.786,173.564-26.712c0,0,101.253,103.495,194.202,6c0,0,70.74,73.604,168.09,5.304c0,0,78.423,93.691,196.631-2.304
				c0,0,54.119,16.499,95.163-3c0,0,39.013,62.997,153.272,4.5c0,0,56.817,58.555,156.482-7.5c0,0,66.43,90.608,229.099-14.136
				H1772.646z"/>
		</defs>
		<clipPath id="XMLID_4_">
			<use xlink:href="#XMLID_1_"  overflow="visible"/>
		</clipPath>
		<g clip-path="url(#XMLID_4_)">
			<rect x="-32.611" y="1674.569" fill="#FFFFFF" width="2343.234" height="147.657"/>
			<g>
				
					<line fill="none" stroke="#31323D" stroke-width="3" stroke-miterlimit="10" x1="88.837" y1="1674.57" x2="-0.734" y2="1822.227"/>
				
					<line fill="none" stroke="#31323D" stroke-width="3" stroke-miterlimit="10" x1="114.854" y1="1674.57" x2="25.283" y2="1822.227"/>
				
					<line fill="none" stroke="#31323D" stroke-width="3" stroke-miterlimit="10" x1="140.871" y1="1674.57" x2="51.3" y2="1822.227"/>
				
					<line fill="none" stroke="#31323D" stroke-width="3" stroke-miterlimit="10" x1="166.888" y1="1674.57" x2="77.316" y2="1822.227"/>
				
					<line fill="none" stroke="#31323D" stroke-width="3" stroke-miterlimit="10" x1="192.905" y1="1674.57" x2="103.333" y2="1822.227"/>
				
					<line fill="none" stroke="#31323D" stroke-width="3" stroke-miterlimit="10" x1="218.921" y1="1674.57" x2="129.35" y2="1822.227"/>
				
					<line fill="none" stroke="#31323D" stroke-width="3" stroke-miterlimit="10" x1="244.938" y1="1674.57" x2="155.367" y2="1822.227"/>
				
					<line fill="none" stroke="#31323D" stroke-width="3" stroke-miterlimit="10" x1="270.956" y1="1674.57" x2="181.383" y2="1822.227"/>
				
					<line fill="none" stroke="#31323D" stroke-width="3" stroke-miterlimit="10" x1="296.972" y1="1674.57" x2="207.4" y2="1822.227"/>
				
					<line fill="none" stroke="#31323D" stroke-width="3" stroke-miterlimit="10" x1="322.989" y1="1674.57" x2="233.417" y2="1822.227"/>
				
					<line fill="none" stroke="#31323D" stroke-width="3" stroke-miterlimit="10" x1="349.005" y1="1674.57" x2="259.433" y2="1822.227"/>
				
					<line fill="none" stroke="#31323D" stroke-width="3" stroke-miterlimit="10" x1="375.022" y1="1674.57" x2="285.451" y2="1822.227"/>
				
					<line fill="none" stroke="#31323D" stroke-width="3" stroke-miterlimit="10" x1="401.039" y1="1674.57" x2="311.467" y2="1822.227"/>
				
					<line fill="none" stroke="#31323D" stroke-width="3" stroke-miterlimit="10" x1="427.056" y1="1674.57" x2="337.483" y2="1822.227"/>
				
					<line fill="none" stroke="#31323D" stroke-width="3" stroke-miterlimit="10" x1="453.072" y1="1674.57" x2="363.5" y2="1822.227"/>
				
					<line fill="none" stroke="#31323D" stroke-width="3" stroke-miterlimit="10" x1="479.089" y1="1674.57" x2="389.518" y2="1822.227"/>
				
					<line fill="none" stroke="#31323D" stroke-width="3" stroke-miterlimit="10" x1="505.106" y1="1674.57" x2="415.534" y2="1822.227"/>
				
					<line fill="none" stroke="#31323D" stroke-width="3" stroke-miterlimit="10" x1="531.123" y1="1674.57" x2="441.551" y2="1822.227"/>
				
					<line fill="none" stroke="#31323D" stroke-width="3" stroke-miterlimit="10" x1="557.139" y1="1674.569" x2="467.568" y2="1822.227"/>
				
					<line fill="none" stroke="#31323D" stroke-width="3" stroke-miterlimit="10" x1="583.157" y1="1674.57" x2="493.584" y2="1822.227"/>
				
					<line fill="none" stroke="#31323D" stroke-width="3" stroke-miterlimit="10" x1="609.172" y1="1674.57" x2="519.602" y2="1822.227"/>
				
					<line fill="none" stroke="#31323D" stroke-width="3" stroke-miterlimit="10" x1="635.19" y1="1674.57" x2="545.618" y2="1822.227"/>
				
					<line fill="none" stroke="#31323D" stroke-width="3" stroke-miterlimit="10" x1="661.207" y1="1674.57" x2="571.635" y2="1822.227"/>
				
					<line fill="none" stroke="#31323D" stroke-width="3" stroke-miterlimit="10" x1="687.224" y1="1674.57" x2="597.651" y2="1822.227"/>
				
					<line fill="none" stroke="#31323D" stroke-width="3" stroke-miterlimit="10" x1="713.24" y1="1674.57" x2="623.668" y2="1822.227"/>
				
					<line fill="none" stroke="#31323D" stroke-width="3" stroke-miterlimit="10" x1="739.257" y1="1674.57" x2="649.685" y2="1822.227"/>
				
					<line fill="none" stroke="#31323D" stroke-width="3" stroke-miterlimit="10" x1="765.273" y1="1674.57" x2="675.702" y2="1822.227"/>
				
					<line fill="none" stroke="#31323D" stroke-width="3" stroke-miterlimit="10" x1="791.29" y1="1674.57" x2="701.72" y2="1822.227"/>
				
					<line fill="none" stroke="#31323D" stroke-width="3" stroke-miterlimit="10" x1="817.308" y1="1674.57" x2="727.735" y2="1822.227"/>
				
					<line fill="none" stroke="#31323D" stroke-width="3" stroke-miterlimit="10" x1="843.323" y1="1674.57" x2="753.753" y2="1822.227"/>
				
					<line fill="none" stroke="#31323D" stroke-width="3" stroke-miterlimit="10" x1="869.341" y1="1674.57" x2="779.77" y2="1822.227"/>
				
					<line fill="none" stroke="#31323D" stroke-width="3" stroke-miterlimit="10" x1="895.358" y1="1674.57" x2="805.786" y2="1822.227"/>
				
					<line fill="none" stroke="#31323D" stroke-width="3" stroke-miterlimit="10" x1="921.374" y1="1674.57" x2="831.802" y2="1822.227"/>
				
					<line fill="none" stroke="#31323D" stroke-width="3" stroke-miterlimit="10" x1="947.391" y1="1674.569" x2="857.82" y2="1822.227"/>
				
					<line fill="none" stroke="#31323D" stroke-width="3" stroke-miterlimit="10" x1="973.408" y1="1674.57" x2="883.835" y2="1822.227"/>
				
					<line fill="none" stroke="#31323D" stroke-width="3" stroke-miterlimit="10" x1="999.424" y1="1674.57" x2="909.854" y2="1822.227"/>
				
					<line fill="none" stroke="#31323D" stroke-width="3" stroke-miterlimit="10" x1="1025.441" y1="1674.57" x2="935.869" y2="1822.227"/>
				
					<line fill="none" stroke="#31323D" stroke-width="3" stroke-miterlimit="10" x1="1051.458" y1="1674.57" x2="961.886" y2="1822.227"/>
				
					<line fill="none" stroke="#31323D" stroke-width="3" stroke-miterlimit="10" x1="1077.476" y1="1674.57" x2="987.902" y2="1822.227"/>
				
					<line fill="none" stroke="#31323D" stroke-width="3" stroke-miterlimit="10" x1="1103.491" y1="1674.57" x2="1013.92" y2="1822.227"/>
				
					<line fill="none" stroke="#31323D" stroke-width="3" stroke-miterlimit="10" x1="1129.509" y1="1674.57" x2="1039.937" y2="1822.227"/>
				
					<line fill="none" stroke="#31323D" stroke-width="3" stroke-miterlimit="10" x1="1155.524" y1="1674.57" x2="1065.954" y2="1822.227"/>
				
					<line fill="none" stroke="#31323D" stroke-width="3" stroke-miterlimit="10" x1="1181.542" y1="1674.57" x2="1091.972" y2="1822.227"/>
				
					<line fill="none" stroke="#31323D" stroke-width="3" stroke-miterlimit="10" x1="1207.56" y1="1674.57" x2="1117.987" y2="1822.227"/>
				
					<line fill="none" stroke="#31323D" stroke-width="3" stroke-miterlimit="10" x1="1233.576" y1="1674.57" x2="1144.006" y2="1822.227"/>
				
					<line fill="none" stroke="#31323D" stroke-width="3" stroke-miterlimit="10" x1="101.846" y1="1674.57" x2="12.274" y2="1822.227"/>
				
					<line fill="none" stroke="#31323D" stroke-width="3" stroke-miterlimit="10" x1="127.863" y1="1674.57" x2="38.292" y2="1822.227"/>
				
					<line fill="none" stroke="#31323D" stroke-width="3" stroke-miterlimit="10" x1="153.879" y1="1674.57" x2="64.308" y2="1822.227"/>
				
					<line fill="none" stroke="#31323D" stroke-width="3" stroke-miterlimit="10" x1="179.896" y1="1674.57" x2="90.325" y2="1822.227"/>
				
					<line fill="none" stroke="#31323D" stroke-width="3" stroke-miterlimit="10" x1="205.914" y1="1674.57" x2="116.341" y2="1822.227"/>
				
					<line fill="none" stroke="#31323D" stroke-width="3" stroke-miterlimit="10" x1="231.93" y1="1674.57" x2="142.358" y2="1822.227"/>
				
					<line fill="none" stroke="#31323D" stroke-width="3" stroke-miterlimit="10" x1="257.947" y1="1674.57" x2="168.375" y2="1822.227"/>
				
					<line fill="none" stroke="#31323D" stroke-width="3" stroke-miterlimit="10" x1="283.964" y1="1674.57" x2="194.392" y2="1822.227"/>
				
					<line fill="none" stroke="#31323D" stroke-width="3" stroke-miterlimit="10" x1="309.98" y1="1674.57" x2="220.409" y2="1822.227"/>
				
					<line fill="none" stroke="#31323D" stroke-width="3" stroke-miterlimit="10" x1="335.998" y1="1674.57" x2="246.425" y2="1822.227"/>
				
					<line fill="none" stroke="#31323D" stroke-width="3" stroke-miterlimit="10" x1="362.014" y1="1674.57" x2="272.442" y2="1822.227"/>
				
					<line fill="none" stroke="#31323D" stroke-width="3" stroke-miterlimit="10" x1="388.031" y1="1674.57" x2="298.458" y2="1822.227"/>
				
					<line fill="none" stroke="#31323D" stroke-width="3" stroke-miterlimit="10" x1="414.047" y1="1674.57" x2="324.476" y2="1822.227"/>
				
					<line fill="none" stroke="#31323D" stroke-width="3" stroke-miterlimit="10" x1="440.064" y1="1674.57" x2="350.492" y2="1822.227"/>
				
					<line fill="none" stroke="#31323D" stroke-width="3" stroke-miterlimit="10" x1="466.081" y1="1674.57" x2="376.509" y2="1822.227"/>
				
					<line fill="none" stroke="#31323D" stroke-width="3" stroke-miterlimit="10" x1="492.097" y1="1674.57" x2="402.526" y2="1822.227"/>
				
					<line fill="none" stroke="#31323D" stroke-width="3" stroke-miterlimit="10" x1="518.115" y1="1674.57" x2="428.542" y2="1822.227"/>
				
					<line fill="none" stroke="#31323D" stroke-width="3" stroke-miterlimit="10" x1="544.13" y1="1674.57" x2="454.56" y2="1822.227"/>
				
					<line fill="none" stroke="#31323D" stroke-width="3" stroke-miterlimit="10" x1="570.147" y1="1674.569" x2="480.577" y2="1822.227"/>
				
					<line fill="none" stroke="#31323D" stroke-width="3" stroke-miterlimit="10" x1="596.165" y1="1674.57" x2="506.593" y2="1822.227"/>
				
					<line fill="none" stroke="#31323D" stroke-width="3" stroke-miterlimit="10" x1="622.181" y1="1674.57" x2="532.61" y2="1822.227"/>
				
					<line fill="none" stroke="#31323D" stroke-width="3" stroke-miterlimit="10" x1="648.198" y1="1674.57" x2="558.626" y2="1822.227"/>
				
					<line fill="none" stroke="#31323D" stroke-width="3" stroke-miterlimit="10" x1="674.215" y1="1674.57" x2="584.643" y2="1822.227"/>
				
					<line fill="none" stroke="#31323D" stroke-width="3" stroke-miterlimit="10" x1="700.232" y1="1674.57" x2="610.66" y2="1822.227"/>
				
					<line fill="none" stroke="#31323D" stroke-width="3" stroke-miterlimit="10" x1="726.249" y1="1674.57" x2="636.676" y2="1822.227"/>
				
					<line fill="none" stroke="#31323D" stroke-width="3" stroke-miterlimit="10" x1="752.266" y1="1674.57" x2="662.693" y2="1822.227"/>
				
					<line fill="none" stroke="#31323D" stroke-width="3" stroke-miterlimit="10" x1="778.282" y1="1674.57" x2="688.71" y2="1822.227"/>
				
					<line fill="none" stroke="#31323D" stroke-width="3" stroke-miterlimit="10" x1="804.298" y1="1674.57" x2="714.728" y2="1822.227"/>
				
					<line fill="none" stroke="#31323D" stroke-width="3" stroke-miterlimit="10" x1="830.316" y1="1674.57" x2="740.744" y2="1822.227"/>
				
					<line fill="none" stroke="#31323D" stroke-width="3" stroke-miterlimit="10" x1="856.332" y1="1674.57" x2="766.761" y2="1822.227"/>
				
					<line fill="none" stroke="#31323D" stroke-width="3" stroke-miterlimit="10" x1="882.349" y1="1674.57" x2="792.778" y2="1822.227"/>
				
					<line fill="none" stroke="#31323D" stroke-width="3" stroke-miterlimit="10" x1="908.366" y1="1674.57" x2="818.793" y2="1822.227"/>
				
					<line fill="none" stroke="#31323D" stroke-width="3" stroke-miterlimit="10" x1="934.383" y1="1674.57" x2="844.812" y2="1822.227"/>
				
					<line fill="none" stroke="#31323D" stroke-width="3" stroke-miterlimit="10" x1="960.398" y1="1674.569" x2="870.828" y2="1822.227"/>
				
					<line fill="none" stroke="#31323D" stroke-width="3" stroke-miterlimit="10" x1="986.416" y1="1674.57" x2="896.844" y2="1822.227"/>
				
					<line fill="none" stroke="#31323D" stroke-width="3" stroke-miterlimit="10" x1="1012.433" y1="1674.57" x2="922.863" y2="1822.227"/>
				
					<line fill="none" stroke="#31323D" stroke-width="3" stroke-miterlimit="10" x1="1038.45" y1="1674.57" x2="948.877" y2="1822.227"/>
				
					<line fill="none" stroke="#31323D" stroke-width="3" stroke-miterlimit="10" x1="1064.467" y1="1674.57" x2="974.894" y2="1822.227"/>
				
					<line fill="none" stroke="#31323D" stroke-width="3" stroke-miterlimit="10" x1="1090.483" y1="1674.57" x2="1000.911" y2="1822.227"/>
				
					<line fill="none" stroke="#31323D" stroke-width="3" stroke-miterlimit="10" x1="1116.499" y1="1674.57" x2="1026.929" y2="1822.227"/>
				
					<line fill="none" stroke="#31323D" stroke-width="3" stroke-miterlimit="10" x1="1142.518" y1="1674.57" x2="1052.944" y2="1822.227"/>
				
					<line fill="none" stroke="#31323D" stroke-width="3" stroke-miterlimit="10" x1="1168.533" y1="1674.57" x2="1078.962" y2="1822.227"/>
				
					<line fill="none" stroke="#31323D" stroke-width="3" stroke-miterlimit="10" x1="1194.549" y1="1674.57" x2="1104.979" y2="1822.227"/>
				
					<line fill="none" stroke="#31323D" stroke-width="3" stroke-miterlimit="10" x1="1220.566" y1="1674.57" x2="1130.994" y2="1822.227"/>
				
					<line fill="none" stroke="#31323D" stroke-width="3" stroke-miterlimit="10" x1="1246.583" y1="1674.57" x2="1157.012" y2="1822.227"/>
				
					<line fill="none" stroke="#31323D" stroke-width="3" stroke-miterlimit="10" x1="1259.592" y1="1674.57" x2="1170.021" y2="1822.227"/>
				
					<line fill="none" stroke="#31323D" stroke-width="3" stroke-miterlimit="10" x1="1285.609" y1="1674.57" x2="1196.037" y2="1822.227"/>
				
					<line fill="none" stroke="#31323D" stroke-width="3" stroke-miterlimit="10" x1="1311.625" y1="1674.57" x2="1222.055" y2="1822.227"/>
				
					<line fill="none" stroke="#31323D" stroke-width="3" stroke-miterlimit="10" x1="1337.643" y1="1674.57" x2="1248.07" y2="1822.227"/>
				
					<line fill="none" stroke="#31323D" stroke-width="3" stroke-miterlimit="10" x1="1363.658" y1="1674.57" x2="1274.088" y2="1822.227"/>
				
					<line fill="none" stroke="#31323D" stroke-width="3" stroke-miterlimit="10" x1="1389.677" y1="1674.57" x2="1300.104" y2="1822.227"/>
				
					<line fill="none" stroke="#31323D" stroke-width="3" stroke-miterlimit="10" x1="1415.692" y1="1674.57" x2="1326.122" y2="1822.227"/>
				
					<line fill="none" stroke="#31323D" stroke-width="3" stroke-miterlimit="10" x1="1441.71" y1="1674.57" x2="1352.138" y2="1822.227"/>
				
					<line fill="none" stroke="#31323D" stroke-width="3" stroke-miterlimit="10" x1="1467.726" y1="1674.57" x2="1378.155" y2="1822.227"/>
				
					<line fill="none" stroke="#31323D" stroke-width="3" stroke-miterlimit="10" x1="1493.741" y1="1674.57" x2="1404.171" y2="1822.227"/>
				
					<line fill="none" stroke="#31323D" stroke-width="3" stroke-miterlimit="10" x1="1519.76" y1="1674.57" x2="1430.188" y2="1822.227"/>
				
					<line fill="none" stroke="#31323D" stroke-width="3" stroke-miterlimit="10" x1="1545.777" y1="1674.57" x2="1456.205" y2="1822.227"/>
				
					<line fill="none" stroke="#31323D" stroke-width="3" stroke-miterlimit="10" x1="1571.793" y1="1674.57" x2="1482.221" y2="1822.227"/>
				
					<line fill="none" stroke="#31323D" stroke-width="3" stroke-miterlimit="10" x1="1597.811" y1="1674.57" x2="1508.238" y2="1822.227"/>
				
					<line fill="none" stroke="#31323D" stroke-width="3" stroke-miterlimit="10" x1="1623.826" y1="1674.57" x2="1534.254" y2="1822.227"/>
				
					<line fill="none" stroke="#31323D" stroke-width="3" stroke-miterlimit="10" x1="1649.845" y1="1674.57" x2="1560.271" y2="1822.227"/>
				
					<line fill="none" stroke="#31323D" stroke-width="3" stroke-miterlimit="10" x1="1675.86" y1="1674.57" x2="1586.288" y2="1822.227"/>
				
					<line fill="none" stroke="#31323D" stroke-width="3" stroke-miterlimit="10" x1="1701.878" y1="1674.57" x2="1612.306" y2="1822.227"/>
				
					<line fill="none" stroke="#31323D" stroke-width="3" stroke-miterlimit="10" x1="1727.894" y1="1674.569" x2="1638.323" y2="1822.227"/>
				
					<line fill="none" stroke="#31323D" stroke-width="3" stroke-miterlimit="10" x1="1753.911" y1="1674.57" x2="1664.339" y2="1822.227"/>
				
					<line fill="none" stroke="#31323D" stroke-width="3" stroke-miterlimit="10" x1="1779.928" y1="1674.57" x2="1690.357" y2="1822.227"/>
				
					<line fill="none" stroke="#31323D" stroke-width="3" stroke-miterlimit="10" x1="1805.945" y1="1674.57" x2="1716.373" y2="1822.227"/>
				
					<line fill="none" stroke="#31323D" stroke-width="3" stroke-miterlimit="10" x1="1831.961" y1="1674.57" x2="1742.389" y2="1822.227"/>
				
					<line fill="none" stroke="#31323D" stroke-width="3" stroke-miterlimit="10" x1="1857.979" y1="1674.57" x2="1768.406" y2="1822.227"/>
				
					<line fill="none" stroke="#31323D" stroke-width="3" stroke-miterlimit="10" x1="1883.994" y1="1674.57" x2="1794.422" y2="1822.227"/>
				
					<line fill="none" stroke="#31323D" stroke-width="3" stroke-miterlimit="10" x1="1910.012" y1="1674.57" x2="1820.439" y2="1822.227"/>
				
					<line fill="none" stroke="#31323D" stroke-width="3" stroke-miterlimit="10" x1="1936.028" y1="1674.57" x2="1846.455" y2="1822.227"/>
				
					<line fill="none" stroke="#31323D" stroke-width="3" stroke-miterlimit="10" x1="1962.044" y1="1674.57" x2="1872.474" y2="1822.227"/>
				
					<line fill="none" stroke="#31323D" stroke-width="3" stroke-miterlimit="10" x1="1988.062" y1="1674.57" x2="1898.489" y2="1822.227"/>
				
					<line fill="none" stroke="#31323D" stroke-width="3" stroke-miterlimit="10" x1="2014.077" y1="1674.57" x2="1924.507" y2="1822.227"/>
				
					<line fill="none" stroke="#31323D" stroke-width="3" stroke-miterlimit="10" x1="2040.096" y1="1674.57" x2="1950.522" y2="1822.227"/>
				
					<line fill="none" stroke="#31323D" stroke-width="3" stroke-miterlimit="10" x1="2066.113" y1="1674.57" x2="1976.541" y2="1822.227"/>
				
					<line fill="none" stroke="#31323D" stroke-width="3" stroke-miterlimit="10" x1="2092.129" y1="1674.57" x2="2002.557" y2="1822.227"/>
				
					<line fill="none" stroke="#31323D" stroke-width="3" stroke-miterlimit="10" x1="2118.145" y1="1674.569" x2="2028.574" y2="1822.227"/>
				
					<line fill="none" stroke="#31323D" stroke-width="3" stroke-miterlimit="10" x1="2144.162" y1="1674.57" x2="2054.59" y2="1822.227"/>
				
					<line fill="none" stroke="#31323D" stroke-width="3" stroke-miterlimit="10" x1="2170.178" y1="1674.57" x2="2080.607" y2="1822.227"/>
				
					<line fill="none" stroke="#31323D" stroke-width="3" stroke-miterlimit="10" x1="2196.195" y1="1674.57" x2="2106.623" y2="1822.227"/>
				
					<line fill="none" stroke="#31323D" stroke-width="3" stroke-miterlimit="10" x1="2222.214" y1="1674.57" x2="2132.642" y2="1822.227"/>
				
					<line fill="none" stroke="#31323D" stroke-width="3" stroke-miterlimit="10" x1="2248.229" y1="1674.57" x2="2158.657" y2="1822.227"/>
				
					<line fill="none" stroke="#31323D" stroke-width="3" stroke-miterlimit="10" x1="1272.601" y1="1674.57" x2="1183.028" y2="1822.227"/>
				
					<line fill="none" stroke="#31323D" stroke-width="3" stroke-miterlimit="10" x1="1298.616" y1="1674.57" x2="1209.046" y2="1822.227"/>
				
					<line fill="none" stroke="#31323D" stroke-width="3" stroke-miterlimit="10" x1="1324.634" y1="1674.57" x2="1235.063" y2="1822.227"/>
				
					<line fill="none" stroke="#31323D" stroke-width="3" stroke-miterlimit="10" x1="1350.649" y1="1674.57" x2="1261.079" y2="1822.227"/>
				
					<line fill="none" stroke="#31323D" stroke-width="3" stroke-miterlimit="10" x1="1376.668" y1="1674.57" x2="1287.096" y2="1822.227"/>
				
					<line fill="none" stroke="#31323D" stroke-width="3" stroke-miterlimit="10" x1="1402.684" y1="1674.57" x2="1313.113" y2="1822.227"/>
				
					<line fill="none" stroke="#31323D" stroke-width="3" stroke-miterlimit="10" x1="1428.701" y1="1674.57" x2="1339.129" y2="1822.227"/>
				
					<line fill="none" stroke="#31323D" stroke-width="3" stroke-miterlimit="10" x1="1454.719" y1="1674.57" x2="1365.146" y2="1822.227"/>
				
					<line fill="none" stroke="#31323D" stroke-width="3" stroke-miterlimit="10" x1="1480.734" y1="1674.57" x2="1391.164" y2="1822.227"/>
				
					<line fill="none" stroke="#31323D" stroke-width="3" stroke-miterlimit="10" x1="1506.752" y1="1674.57" x2="1417.18" y2="1822.227"/>
				
					<line fill="none" stroke="#31323D" stroke-width="3" stroke-miterlimit="10" x1="1532.769" y1="1674.57" x2="1443.196" y2="1822.227"/>
				
					<line fill="none" stroke="#31323D" stroke-width="3" stroke-miterlimit="10" x1="1558.786" y1="1674.57" x2="1469.214" y2="1822.227"/>
				
					<line fill="none" stroke="#31323D" stroke-width="3" stroke-miterlimit="10" x1="1584.802" y1="1674.57" x2="1495.229" y2="1822.227"/>
				
					<line fill="none" stroke="#31323D" stroke-width="3" stroke-miterlimit="10" x1="1610.819" y1="1674.57" x2="1521.247" y2="1822.227"/>
				
					<line fill="none" stroke="#31323D" stroke-width="3" stroke-miterlimit="10" x1="1636.836" y1="1674.57" x2="1547.263" y2="1822.227"/>
				
					<line fill="none" stroke="#31323D" stroke-width="3" stroke-miterlimit="10" x1="1662.852" y1="1674.57" x2="1573.281" y2="1822.227"/>
				
					<line fill="none" stroke="#31323D" stroke-width="3" stroke-miterlimit="10" x1="1688.869" y1="1674.57" x2="1599.297" y2="1822.227"/>
				
					<line fill="none" stroke="#31323D" stroke-width="3" stroke-miterlimit="10" x1="1714.885" y1="1674.57" x2="1625.314" y2="1822.227"/>
				
					<line fill="none" stroke="#31323D" stroke-width="3" stroke-miterlimit="10" x1="1740.902" y1="1674.569" x2="1651.332" y2="1822.227"/>
				
					<line fill="none" stroke="#31323D" stroke-width="3" stroke-miterlimit="10" x1="1766.92" y1="1674.57" x2="1677.348" y2="1822.227"/>
				
					<line fill="none" stroke="#31323D" stroke-width="3" stroke-miterlimit="10" x1="1792.937" y1="1674.57" x2="1703.365" y2="1822.227"/>
				
					<line fill="none" stroke="#31323D" stroke-width="3" stroke-miterlimit="10" x1="1818.954" y1="1674.57" x2="1729.382" y2="1822.227"/>
				
					<line fill="none" stroke="#31323D" stroke-width="3" stroke-miterlimit="10" x1="1844.97" y1="1674.57" x2="1755.397" y2="1822.227"/>
				
					<line fill="none" stroke="#31323D" stroke-width="3" stroke-miterlimit="10" x1="1870.985" y1="1674.57" x2="1781.413" y2="1822.227"/>
				
					<line fill="none" stroke="#31323D" stroke-width="3" stroke-miterlimit="10" x1="1897.003" y1="1674.57" x2="1807.431" y2="1822.227"/>
				
					<line fill="none" stroke="#31323D" stroke-width="3" stroke-miterlimit="10" x1="1923.02" y1="1674.57" x2="1833.446" y2="1822.227"/>
				
					<line fill="none" stroke="#31323D" stroke-width="3" stroke-miterlimit="10" x1="1949.037" y1="1674.57" x2="1859.465" y2="1822.227"/>
				
					<line fill="none" stroke="#31323D" stroke-width="3" stroke-miterlimit="10" x1="1975.053" y1="1674.57" x2="1885.482" y2="1822.227"/>
				
					<line fill="none" stroke="#31323D" stroke-width="3" stroke-miterlimit="10" x1="2001.07" y1="1674.57" x2="1911.498" y2="1822.227"/>
				
					<line fill="none" stroke="#31323D" stroke-width="3" stroke-miterlimit="10" x1="2027.086" y1="1674.57" x2="1937.516" y2="1822.227"/>
				
					<line fill="none" stroke="#31323D" stroke-width="3" stroke-miterlimit="10" x1="2053.102" y1="1674.57" x2="1963.531" y2="1822.227"/>
				
					<line fill="none" stroke="#31323D" stroke-width="3" stroke-miterlimit="10" x1="2079.12" y1="1674.57" x2="1989.547" y2="1822.227"/>
				
					<line fill="none" stroke="#31323D" stroke-width="3" stroke-miterlimit="10" x1="2105.138" y1="1674.57" x2="2015.565" y2="1822.227"/>
				
					<line fill="none" stroke="#31323D" stroke-width="3" stroke-miterlimit="10" x1="2131.153" y1="1674.569" x2="2041.583" y2="1822.227"/>
				
					<line fill="none" stroke="#31323D" stroke-width="3" stroke-miterlimit="10" x1="2157.171" y1="1674.57" x2="2067.599" y2="1822.227"/>
				
					<line fill="none" stroke="#31323D" stroke-width="3" stroke-miterlimit="10" x1="2183.188" y1="1674.57" x2="2093.617" y2="1822.227"/>
				
					<line fill="none" stroke="#31323D" stroke-width="3" stroke-miterlimit="10" x1="2209.205" y1="1674.57" x2="2119.633" y2="1822.227"/>
				
					<line fill="none" stroke="#31323D" stroke-width="3" stroke-miterlimit="10" x1="2235.221" y1="1674.57" x2="2145.648" y2="1822.227"/>
				
					<line fill="none" stroke="#31323D" stroke-width="3" stroke-miterlimit="10" x1="2261.238" y1="1674.57" x2="2171.666" y2="1822.227"/>
			</g>
		</g>
	</g>
	<path id="XMLID_2_" fill="none" stroke="#31323D" stroke-width="9" stroke-miterlimit="10" d="M1955.289,1746.445
		c-27.955-4.521-122.124-25.482-178.077-54.415c-15.694-8.113-42.44-27.263-59.761-30.707c-2.472-0.489-5.103-0.846-7.8-1.115
		c7.151-18.984,10.393-39.446,9.074-59.688c-1.087-16.705-5.702-34.206-17.968-45.604c-12.261-11.398-31.262-13.068-42.704-0.846
		c8.333-42.039-17.227-88.231-57.266-103.508c-40.046-15.276-88.654,7.509-110.44,44.418c7.696-19.99,13.338-42.089,7.427-62.678
		c-5.916-20.588-27.07-38.034-47.895-33.003c-6.064-11.837-12.926-24.477-24.95-30.157c-12.02-5.68-33.03-1.67-33.618,11.618
		c-0.599-13.601-10.894-26.208-24.099-29.521c-13.205-3.301-24.148,5.62-31.08,17.331c-8.46-25.867-20.907-51.025-40.325-70.087
		c-19.424-19.072-46.582-31.432-73.664-28.707c-27.075,2.729-52.827,22.62-58.123,49.317c-7.878-4.219-18.017-3.84-25.561,0.956
		c-7.542,4.79-5.823,12.908-5.345,21.835c-43.448-7.559-90.347,9.509-118.768,43.231c-28.422,33.728-36.654,83.348-21.844,124.887
		c-14.725-10.541-34.816-13.112-51.721-6.613c-16.9,6.492-30.104,21.862-33.971,39.551c-2.617-10.586-13.592-18.419-24.449-17.458
		c-10.863,0.967-17.018,3.719-17.729,14.602c-40.784-61.815-125.467-90.506-195.425-66.221
		c-69.958,24.291-115.81,99.432-109.515,173.216c-25.367-16.045-57.244-21.45-86.479-14.655
		c-29.235,6.801-55.459,25.708-71.145,51.301c-8.511,13.887-13.829,32.047-5.677,46.153c-18.045-11.991-46.102-8.559-61.046,7.13
		c-37.354-15.155-43.783-5.608-80.546,10.926c-55.113,24.791-108.325,24.791-148.634,24.791h119.658
		c130.668,0,189.489,34.035,271.101,12.887c112.245,31.069,229.949,28.878,341.96-3.026c37.396,19.429,80.965,18.457,119.134,0.593
		c91.222,22.424,187.171,19.979,277.472-5.899c19.721,10.239,44.489,8.092,64.457-1.653c64.577,22.983,135.104,22.89,201.791,7.015
		c36.953,18.407,79.712,16.331,116.741-1.923c61.655,17.996,127.337,17.122,189.492,0.939c27.713,8.245,60.704,7.63,88.335-0.89
		c13.635-4.213,28.428-6.652,44.671-8.042l207.42-6.074C2033.4,1762.058,2069.756,1759.926,1955.289,1746.445z"/>
</g>
</svg>
