<?xml version="1.0" encoding="utf-8"?>
<!-- Generator: Adobe Illustrator 16.0.0, SVG Export Plug-In . SVG Version: 6.00 Build 0)  -->
<!DOCTYPE svg PUBLIC "-//W3C//DTD SVG 1.1//EN" "http://www.w3.org/Graphics/SVG/1.1/DTD/svg11.dtd">
<svg version="1.1" id="Layer_12" xmlns="http://www.w3.org/2000/svg" xmlns:xlink="http://www.w3.org/1999/xlink" x="0px" y="0px"
	 width="3000px" height="3000px" viewBox="0 0 3000 3000" enable-background="new 0 0 3000 3000" xml:space="preserve">
<g>
	<path fill="#FFFFFF" d="M1723.037,2281.866l130.511-7.968c0,0,5.68,18.642,19.798,20.839s38.055,6.288,33.354,40.215
		s-60.286,28.049-85.962,27.497S1715.074,2362.732,1723.037,2281.866z"/>
	<path fill="#FFFFFF" d="M2024.997,2118.027c0,0,180.817,60.455,193.91,90.214S2191,2260.08,2129,2250.54
		s-209.405-4.962-209.405-4.962L2024.997,2118.027z"/>
	<path opacity="0.1" fill="#3D3E49" d="M2039.336,2247.65l54.402-105.96l-64.855-26.292c0,0-27.383,72.602-101.799,128.044
		L2039.336,2247.65z"/>
	<path fill="#FFFFFF" d="M1044.76,2253.162l131.593,29.134c0,0-5.801,52.759-25.94,66.129s-32.755,23.282-92.447,17.166
		s-71.934-1.519-74.949-40.555S1046.494,2326.327,1044.76,2253.162z"/>
	<path fill="#FFFFFF" d="M929.177,2115.662L929.177,2115.662c-0.104,0.033-210.92,67.331-213.021,102.01
		c-2.102,34.687,52.699,36.291,106.908,35.214s229.126,0.22,229.126,0.22L929.177,2115.662z"/>
	<path opacity="0.1" fill="#3D3E49" d="M877.522,2133.288c0,0,12.853,96.792,62.666,116.252l83.438-4.241
		c0,0-81.284-78.975-99.74-129.9L877.522,2133.288z"/>
	<g enable-background="new    ">
		<path fill="#F3C17C" stroke="#3D3E49" stroke-width="9" stroke-miterlimit="10" d="M1183.312,2282.395l-138.659-29.132
			c-90.223-47.64-147.372-147.878-133.012-257.02l96.839-508.483l351.533,183.074h100.803l416.745-211.236l153.805,500.737
			c39.45,139.485-45.718,278.161-177.817,313.463l-137.463,8.498h-539.732"/>
		<path fill="none" stroke="#31333E" stroke-width="9.375" stroke-linecap="round" stroke-miterlimit="10" d="M923.885,2115.398
			c-38.543,9.205-131.901,43.9-186.621,79.198c-26.805,17.301-10.222,56.543,23.464,55.937l283.624-5.563"/>
		<path fill="none" stroke="#31333E" stroke-width="9.375" stroke-linecap="round" stroke-miterlimit="10" d="M2025.802,2118.228
			c48.047,13.961,138.376,46.634,181.869,76.369c26.398,18.006,10.213,56.543-23.464,55.937l-264.612-5.158"/>
		<path fill="#31333E" d="M1224.599,2037.921c-1.718,15.472-3.84,30.744-6.069,46.122l-3.54,22.957l-3.84,22.86
			c-2.635,15.277-5.464,30.45-8.199,45.722l-8.391,45.619l-16.79,91.34c-0.812,4.146-2.023,8.291-3.54,12.237
			c-1.517,3.945-3.341,7.886-5.463,11.532c-4.253,7.381-9.709,14.055-16.184,19.619c-13.049,11.23-29.333,17.806-46.429,19.019
			l-6.374,0.2h-6.169l-11.632-0.707l-23.165-1.316l-46.323-2.829h-4.758l-1.817-0.307c-2.328-0.405-4.552-1.011-6.781-1.716
			c-4.65-1.619-8.797-4.147-12.438-7.386c-3.639-3.335-6.474-7.382-8.397-11.833c-1.817-4.352-2.935-9.005-3.135-13.656
			c-0.199-4.45,0.1-9.003,1.012-13.353l0.199-0.808v-1.723l0.306-1.111c0.406-1.211,0.912-2.43,1.518-3.641
			c1.112-2.223,2.529-4.352,4.146-6.27c3.133-3.645,6.88-6.68,11.125-8.903c4.047-2.123,8.398-3.64,12.851-4.551
			c2.222-0.406,4.445-0.813,6.674-0.913l2.729-0.198l2.123-0.306c1.517-0.302,2.935-0.707,4.352-1.211
			c1.317-0.506,2.629-1.114,3.848-1.925c4.65-3.034,7.785-8.497,9.502-14.973c1.624-6.874,2.229-13.954,1.823-21.034l-0.911-23.165
			l-1.924-46.429c-0.605-15.473-1.311-30.95-1.816-46.429v0.506c-0.606-5.058-1.317-10.011-2.023-15.067
			c-0.405-2.529-0.811-4.958-1.217-7.486c-0.4-2.527-0.905-4.957-1.412-7.386c-0.505-2.429-1.011-4.957-1.624-7.382l-1.817-7.284
			c-1.317-4.853-2.735-9.61-4.452-14.362c-0.812-2.328-1.716-4.65-2.628-6.98c-0.912-2.327-1.823-4.65-2.935-6.88l-1.517-3.435
			l-1.618-3.341l-1.723-3.34l-1.817-3.334l-1.822-3.239l-1.924-3.236l-4.046-6.373c-1.411-2.123-2.829-4.146-4.346-6.27
			l-2.229-3.034l-2.322-3.036c-0.813-0.911-0.712-2.327,0.2-3.232c0.911-0.913,2.329-0.711,3.24,0.199l5.457,5.663
			c1.723,1.923,3.441,3.945,5.164,5.968c1.717,2.023,3.334,4.047,4.852,6.17l2.328,3.241l2.223,3.234
			c1.517,2.222,2.934,4.351,4.252,6.675l2.022,3.439l1.917,3.44c1.318,2.323,2.429,4.651,3.541,7.079
			c1.118,2.43,2.229,4.752,3.24,7.281c2.022,4.858,3.841,9.814,5.464,14.873c1.617,5.057,3.035,10.113,4.246,15.172
			c0.605,2.529,1.21,5.156,1.716,7.687c0.506,2.529,1.119,5.157,1.518,7.687c0.912,5.157,1.723,10.315,2.429,15.479v0.504
			c0.911,15.475,1.616,30.951,2.428,46.322l2.33,46.33l1.11,23.166c0.201,4.145,0.201,8.291-0.1,12.438
			c-0.306,4.252-0.911,8.496-1.923,12.643c-0.506,2.123-1.218,4.252-2.023,6.375c-0.911,2.123-1.923,4.246-3.134,6.27
			c-2.528,4.146-5.869,7.791-9.915,10.52c-4.046,2.631-8.598,4.553-13.349,5.364l-3.54,0.506l-3.035,0.199
			c-1.624,0.101-3.141,0.306-4.758,0.606c-3.134,0.605-6.069,1.722-8.897,3.24c-2.635,1.411-5.058,3.335-6.981,5.563
			c-0.911,1.011-1.616,2.123-2.229,3.334c-0.606,1.217-1.012,2.429-1.211,3.746c-0.705,3.235-0.911,6.471-0.705,9.711
			c0.2,3.033,0.805,5.969,2.023,8.798c1.111,2.628,2.829,5.056,4.951,6.979c2.13,1.923,4.659,3.439,7.387,4.352
			c1.417,0.506,2.935,0.807,4.451,1.111l1.012,0.2h3.946l46.323,2.734l23.165,1.411l11.632,0.713h10.62
			c13.962-0.913,27.311-6.275,38.031-15.378c5.264-4.553,9.709-9.911,13.25-15.88c3.54-6.069,6.068-12.543,7.486-19.418
			l17.601-91.141l8.798-45.616c2.935-15.173,5.869-30.345,8.904-45.519l4.751-22.758l5.058-22.658
			c3.441-15.067,7.08-30.139,11.126-45.11c0.206-1.419,1.417-2.325,2.735-2.225
			C1223.687,2035.085,1224.805,2036.502,1224.599,2037.921z"/>
		<path fill="#31333E" d="M1674.813,2022.136l2.229,9.509c1.418,6.17,3.439,15.273,5.863,26.904
			c1.217,5.77,2.529,12.244,3.946,19.22l4.45,22.759l4.859,25.897l5.058,28.724l23.563,136.855
			c1.113,6.17,2.023,12.951,3.642,18.008c1.722,5.563,4.15,10.92,7.285,15.879c6.369,10.115,15.473,18.306,26.199,23.67l4.146,1.923
			l1.111,0.4l1.011,0.404l2.023,0.712c2.729,0.807,5.662,1.412,8.497,1.718l4.348,0.306h4.655l10.115-0.306l40.56-1.417
			l39.855-1.212l2.528-0.306l1.212-0.201l0.912-0.203l1.921-0.401l1.918-0.612c2.43-0.805,4.553-2.022,6.574-3.54
			c1.823-1.516,3.34-3.334,4.353-5.457c0.202-0.611,0.604-1.117,0.706-1.723l0.611-1.817c0.399-1.317,0.604-2.636,0.806-3.946
			c0.205-1.417,0.307-2.733,0.406-4.146v-2.128c0,0,0-1.412-0.1-2.223l-0.207-2.224v-0.307c0,0.2-0.199,0.307-0.302,0.2
			c-0.204,0-0.304-0.2-0.204-0.301c0-0.203,0.204-0.304,0.307-0.203c0.1,0,0.199,0.104,0.199,0.203v-1.616l-0.199-0.811
			l-0.202-0.912c-0.104-0.604-0.406-1.313-0.609-1.923c-1.718-5.056-4.754-9.404-8.494-11.832c-2.021-1.212-4.149-2.022-6.474-2.329
			l-1.822-0.2l-2.628-0.199h-1.212l-1.519-0.207l-2.935-0.505c-3.846-0.911-7.586-2.322-11.026-4.247
			c-3.539-2.021-6.674-4.756-9.203-8.092c-2.43-3.134-4.146-6.779-5.363-10.52c-1.012-3.539-1.717-7.18-1.923-10.821
			c-0.1-0.911-0.1-1.723-0.1-2.634v-7.28l0.206-9.203l0.805-35.809l0.205-8.698v-4.651l0.302-4.251l0.306-4.246
			c0.1-1.417,0.199-2.734,0.406-4.252l1.01-8.493c1.519-10.726,3.642-21.346,6.471-31.861c2.528-9.608,5.668-19.018,9.207-28.323
			l2.729-6.473c0.911-2.124,1.718-4.252,2.729-6.275l2.835-5.962c0.911-1.925,1.821-3.947,2.834-5.77l2.929-5.464l1.416-2.629
			l1.519-2.528l2.935-4.958c0.91-1.616,1.821-3.233,2.833-4.751l5.664-8.798l5.464-7.792l2.627-3.54l2.529-3.235
			c1.617-2.123,3.137-4.146,4.652-5.868l4.146-4.957l3.542-4.047l6.674-7.18c0.811-0.911,2.229-1.113,3.141-0.301
			c0.905,0.805,1.111,2.224,0.3,3.135l-5.664,7.887c-3.642,5.162-8.904,12.749-15.073,22.758l-4.75,7.893l-4.857,8.902
			c-0.91,1.52-1.719,3.137-2.527,4.752l-2.529,4.959l-1.313,2.527l-1.216,2.629l-2.528,5.463
			c-7.487,16.484-13.557,33.58-17.902,51.18l-0.911,3.643l-0.406,1.821l-0.406,1.818l-1.517,7.486l-0.4,1.923l-0.304,1.922
			l-0.607,3.841l-0.605,3.946l-0.307,1.923l-0.199,1.923l-0.912,7.886c-0.205,1.317-0.205,2.735-0.304,4.153l-0.302,4.244
			l-0.307,4.247v12.644l-0.506,35.809v15.981c0,0,0,1.419,0.101,2.024c0.205,2.528,0.712,5.158,1.419,7.587
			c0.704,2.222,1.821,4.345,3.233,6.269c2.734,3.641,6.98,5.869,12.138,6.979l1.822,0.306l0.911,0.201h1.213l2.229,0.2l3.033,0.306
			c4.146,0.605,8.191,2.021,11.832,4.245c3.541,2.229,6.676,5.163,9.105,8.599c2.327,3.239,4.146,6.88,5.463,10.621
			c0.3,0.91,0.604,1.822,0.806,2.834l0.405,1.418l0.305,1.617v2.934l0.201,2.729c0.099,0.911,0.099,1.821,0.099,2.834
			c0,1.012,0.106,1.817,0,2.829c-0.099,1.923-0.198,3.846-0.505,5.768c-0.301,2.023-0.706,3.947-1.212,5.863l-1.011,2.936
			c-0.307,1.012-0.812,1.922-1.317,2.934c-1.917,3.945-4.653,7.387-7.987,10.216c-3.341,2.628-6.979,4.757-11.026,6.068
			l-2.833,0.911l-3.036,0.707l-1.516,0.305l-1.313,0.201l-2.529,0.306h-5.768l-5.058,0.2l-10.115,0.404l-20.331,0.713l-40.559,1.311
			l-10.115,0.307h-5.464l-5.663-0.406c-3.745-0.405-7.484-1.211-11.125-2.328l-2.735-0.906l-1.411-0.505l-1.219-0.508l-4.956-2.329
			c-13.045-6.574-23.972-16.588-31.756-28.926c-3.846-6.069-6.781-12.545-8.804-19.424l-0.706-2.63l-0.305-1.312
			c-0.102-0.404-0.201-0.912-0.301-1.317l-0.506-2.327l-0.207-1.213v-1.418l-1.516-9.402l-22.253-137.164l-4.552-28.827
			l-3.84-25.993l-3.241-22.958c-1.011-7.081-1.815-13.556-2.528-19.525c-1.517-11.731-2.529-21.041-3.235-27.41l-1.011-9.708
			c0.406-1.117,1.717-1.723,2.829-1.317C1674.209,2021.531,1674.513,2021.836,1674.813,2022.136z"/>
	</g>
	<path fill="#F3C17C" stroke="#3D3E49" stroke-width="9" stroke-miterlimit="10" d="M1141.942,767.971
		c0,0-129.012-109.798-153.716-120.777c-24.705-10.98-82.349-57.644-76.858,21.959c5.489,79.603,24.704,288.218,82.349,348.607
		C1051.359,1078.148,1141.942,767.971,1141.942,767.971z"/>
	<path fill="#D4AFCD" d="M1126.107,795.3c0,0-97.786-83.222-116.511-91.544s-62.417-43.691-58.255,16.645
		c4.16,60.336,18.725,218.458,62.417,264.229C1057.449,1030.402,1126.107,795.3,1126.107,795.3z"/>
	<path opacity="0.1" fill="#3D3E49" d="M984.344,645.328c0,0,53.222,215.668,54.241,221.449s53.743-115.047,62.381-128.998
		S984.344,645.328,984.344,645.328z"/>
	<path fill="#F3C17C" stroke="#3D3E49" stroke-width="9" stroke-miterlimit="10" d="M1710.111,780.041
		c0,0,145.084-87.464,171.241-94.299s90.593-43.552,72.288,34.112c-18.303,77.665-71.037,280.417-137.697,330.677
		C1749.285,1100.792,1710.111,780.041,1710.111,780.041z"/>
	<path fill="#D4AFCD" d="M1722.209,809.72c0,0,109.968-66.293,129.795-71.474c19.824-5.181,68.666-33.011,54.79,25.855
		c-13.872,58.867-53.842,212.545-104.368,250.64C1751.901,1052.836,1722.209,809.72,1722.209,809.72z"/>
	<linearGradient id="SVGID_1_" gradientUnits="userSpaceOnUse" x1="1844.5576" y1="820.9624" x2="1952.8047" y2="820.9624">
		<stop  offset="0" style="stop-color:#FFFFFF"/>
		<stop  offset="0.72" style="stop-color:#FFFFFF"/>
		<stop  offset="1" style="stop-color:#FFFFFF"/>
	</linearGradient>
	<path opacity="0.1" fill="url(#SVGID_1_)" d="M1844.558,888.386l96.999-210.908c0,0,32.443-6.375-12.87,119.521
		c-2.132,5.924-47.187,156.833-58.187,167.5C1870.5,964.5,1849.24,896.624,1844.558,888.386z"/>
	<path fill="#F3C17C" stroke="#3D3E49" stroke-width="9" stroke-miterlimit="10" d="M1508.27,566.308
		c290.703,27.479,362,418,394,524s20,320,20,320c-172,263.998-518,305.998-550,295.998s-406-180-406-311.998c0-132,4-230,70-518
		C1036.27,876.308,1106.27,528.308,1508.27,566.308z M1154.362,911.104c0,0-98.724,115.549-110.009,487.855
		c0,0,256.235,241.32,364.235,247.035c0,0,217.235-81.296,379.235-214.645c0,0,96.385-344.734-219.615-512.377L1308,1062
		c0,0-90,37.832-108.855-26.619C1191.163,1008.095,1154.362,911.104,1154.362,911.104z"/>
	<linearGradient id="SVGID_2_" gradientUnits="userSpaceOnUse" x1="1928.6865" y1="1476.0498" x2="1928.6865" y2="2245.4429">
		<stop  offset="0" style="stop-color:#FFFFFF"/>
		<stop  offset="0.72" style="stop-color:#FFFFFF"/>
		<stop  offset="1" style="stop-color:#FFFFFF"/>
	</linearGradient>
	<path opacity="0.1" fill="url(#SVGID_2_)" d="M1872.179,1476.05l119.716,377.632c0,0,17.685,63.647,36.384,113.259
		s13.935,202.723-115.017,278.502c0,0,104.134-86.286,78.925-222.588s-171.15-495.589-171.15-495.589L1872.179,1476.05z"/>
	<path opacity="0.1" fill="#3D3E49" d="M1923.688,2034.54c0,0-74.709,76.38-64.031,233.089c0,0,177.344-47.357,176.678-246.324
		c0,0-22.388,90.819-88.86,106.26S1923.688,2034.54,1923.688,2034.54z"/>
	<path opacity="0.1" fill="#3D3E49" d="M1008.48,1487.76l-62.903,349.494c0,0-14.402,85.776-31.156,163.097
		s39.403,200.036,123.658,245.012c0,0,7.304-171.261-46.829-217.864l78.016-496.333L1008.48,1487.76z"/>
	<path fill="#FFFFFF" d="M1195.671,2273.947l67.021-268.309c11.913-47.691,55.875-80.315,104.977-77.896l131.614,6.467
		c49.725,2.442,90.582,40.109,97.051,89.471l33.341,255.218L1195.671,2273.947z"/>
	<circle fill="#FFFFFF" cx="1280.363" cy="679.057" r="69.614"/>
	<circle fill="#FFFFFF" cx="1542.434" cy="710.178" r="69.614"/>
	<g>
		<defs>
			<polyline id="SVGID_3_" points="2222.001,824.115 2222.001,2368.879 723.64,2368.879 723.64,824.115 			"/>
		</defs>
		<clipPath id="SVGID_4_">
			<use xlink:href="#SVGID_3_"  overflow="visible"/>
		</clipPath>
	</g>
	<path fill="#FFFFFF" d="M1188.39,995.214L1168,933.5c0,0,18.925-26.088,64.254-46.097s90.392-14.433,148.685-8.025
		c32.678,3.592,103.215,7.97,120.526,72.084l-144.237,78.595C1357.228,1030.057,1331.695,939.176,1188.39,995.214z"/>
	<linearGradient id="SVGID_5_" gradientUnits="userSpaceOnUse" x1="1739.6738" y1="1099.8306" x2="1920.626" y2="1099.8306">
		<stop  offset="0" style="stop-color:#FFFFFF"/>
		<stop  offset="0.72" style="stop-color:#FFFFFF"/>
		<stop  offset="1" style="stop-color:#FFFFFF"/>
	</linearGradient>
	<path opacity="0.1" fill="url(#SVGID_5_)" d="M1773.056,757.069c0,0,66.666,112.666,94.666,227.333s45.633,136.632,50.667,267.333
		s0,158.666,0,158.666l-62.667,77.331c0,0,16.485-570.408-116.048-775.802C1739.674,711.93,1765.402,743.535,1773.056,757.069z"/>
	<path opacity="0.1" fill="#3D3E49" d="M1158.388,668.001c0,0-233.923,583.166-89.123,863.164c0,0-82.623-65.413-102.357-127.292
		c-19.734-61.879,52.059-449.871,52.059-449.871S1050.793,763.234,1158.388,668.001z"/>
	<path fill="#3D3E49" d="M1184.092,998c0,0,129.139-87.104,175.921,39.074c0,0-112.857,80.926-155.733,27.395
		C1183.801,1038.901,1184.092,998,1184.092,998z"/>
	<text transform="matrix(1 0 0 1 76.9961 563.4077)" fill="#6C2D86" font-family="'ComicSansMS'" font-size="125.2934">much tokenz</text>
	<g>
		<text transform="matrix(1 0 0 1 76.9961 1971.9053)" fill="#CF7EB5" font-family="'ComicSansMS'" font-size="125.2934">am doge</text>
	</g>
	<text transform="matrix(1 0 0 1 114.0625 1339.165)" fill="#90C847" font-family="'ComicSansMS'" font-size="125.2934">amaze</text>
	<text transform="matrix(1 0 0 1 1412.6719 1789.6309)" fill="#F1EB4D" font-family="'ComicSansMS'" font-size="125.2934">such con</text>
	<g enable-background="new    ">
		<circle fill="#FFFFFF" cx="1574.121" cy="782.391" r="72.047"/>
		<g>
			<defs>
				<rect id="SVGID_6_" x="1501.465" y="710.178" width="145.166" height="144.426"/>
			</defs>
			<clipPath id="SVGID_7_">
				<use xlink:href="#SVGID_6_"  overflow="visible"/>
			</clipPath>
			<g clip-path="url(#SVGID_7_)">
				<defs>
					<circle id="SVGID_8_" cx="1574.121" cy="782.391" r="72.047"/>
				</defs>
				<clipPath id="SVGID_9_">
					<use xlink:href="#SVGID_8_"  overflow="visible"/>
				</clipPath>
				<g clip-path="url(#SVGID_9_)">
					<defs>
						<rect id="SVGID_10_" x="628.243" y="161.36" width="1666.453" height="1666.45"/>
					</defs>
					<clipPath id="SVGID_11_">
						<use xlink:href="#SVGID_10_"  overflow="visible"/>
					</clipPath>
					<circle clip-path="url(#SVGID_11_)" fill="#838383" cx="1590.563" cy="784.555" r="55.604"/>
					<path clip-path="url(#SVGID_11_)" fill="#31333E" d="M1635.002,785.612c0,25.462-20.643,46.105-46.104,46.105
						c-25.467,0-46.106-20.643-46.106-46.105c0-25.463,20.64-46.105,46.106-46.105
						C1614.359,739.506,1635.002,760.149,1635.002,785.612z"/>
					<path clip-path="url(#SVGID_11_)" fill="#FFFFFF" d="M1636.391,752.948c1.77,13.445-7.695,25.778-21.139,27.546
						c-13.441,1.77-25.775-7.692-27.547-21.137c-1.77-13.445,7.697-25.778,21.137-27.546
						C1622.287,730.041,1634.621,739.504,1636.391,752.948z"/>
				</g>
			</g>
		</g>
		
			<circle fill="none" stroke="#31333E" stroke-width="5" stroke-linecap="round" stroke-miterlimit="10" cx="1574.121" cy="782.391" r="72.047"/>
		<path fill="#FFFFFF" d="M1322.2,751.987c0,39.789-32.255,72.045-72.045,72.045c-39.789,0-72.045-32.256-72.045-72.045
			c0-39.793,32.256-72.048,72.045-72.048C1289.945,679.939,1322.2,712.194,1322.2,751.987z"/>
		<g>
			<defs>
				<rect id="SVGID_12_" x="1177.479" y="679.42" width="145.167" height="145.167"/>
			</defs>
			<clipPath id="SVGID_13_">
				<use xlink:href="#SVGID_12_"  overflow="visible"/>
			</clipPath>
			<g clip-path="url(#SVGID_13_)">
				<defs>
					<path id="SVGID_14_" d="M1322.2,751.987c0,39.789-32.255,72.045-72.045,72.045c-39.789,0-72.045-32.256-72.045-72.045
						c0-39.793,32.256-72.048,72.045-72.048C1289.945,679.939,1322.2,712.194,1322.2,751.987z"/>
				</defs>
				<clipPath id="SVGID_15_">
					<use xlink:href="#SVGID_14_"  overflow="visible"/>
				</clipPath>
				<g clip-path="url(#SVGID_15_)">
					<defs>
						<rect id="SVGID_16_" x="604.96" y="124.677" width="1666.454" height="1666.449"/>
					</defs>
					<clipPath id="SVGID_17_">
						<use xlink:href="#SVGID_16_"  overflow="visible"/>
					</clipPath>
					<circle clip-path="url(#SVGID_17_)" fill="#838383" cx="1267.486" cy="753.153" r="55.605"/>
					<circle clip-path="url(#SVGID_17_)" fill="#31333E" cx="1265.764" cy="754.208" r="46.105"/>
					<path clip-path="url(#SVGID_17_)" fill="#FFFFFF" d="M1311.921,712.136c1.771,13.444-7.693,25.778-21.137,27.549
						c-13.443,1.768-25.778-7.695-27.548-21.138c-1.769-13.444,7.696-25.778,21.14-27.548
						C1297.818,689.229,1310.151,698.694,1311.921,712.136z"/>
				</g>
			</g>
		</g>
		<path fill="none" stroke="#31333E" stroke-width="5" stroke-linecap="round" stroke-miterlimit="10" d="M1322.2,751.987
			c0,39.789-32.255,72.045-72.045,72.045c-39.789,0-72.045-32.256-72.045-72.045c0-39.793,32.256-72.048,72.045-72.048
			C1289.945,679.939,1322.2,712.194,1322.2,751.987z"/>
	</g>
	<text transform="matrix(1 0 0 1 2408.9961 1579.165)" fill="#BC9C6A" font-family="'ComicSansMS'" font-size="125.2934">wow 2018</text>
	<g>
		<text transform="matrix(1 0 0 1 2228.748 799.9053)" fill="#97D2B1" font-family="'ComicSansMS'" font-size="125.2934">no lambow</text>
	</g>
	<text transform="matrix(1 0 0 1 2178.9961 1135.5156)" fill="#E72E2B" font-family="'ComicSansMS'" font-size="125.2934">only wocket</text>
	<path opacity="0.1" fill="#3D3E49" d="M1182.954,2277.795h525.176l-31.382-199.507c0,0-1.293,76.042-34.354,110.161
		s-60.51,37.496-79.73,39.426s-284.428,28.465-324.445-16.271s-31.971-60.869-31.971-60.869L1182.954,2277.795z"/>
</g>
</svg>
