<?xml version="1.0" encoding="utf-8"?>
<!-- Generator: Adobe Illustrator 16.0.0, SVG Export Plug-In . SVG Version: 6.00 Build 0)  -->
<!DOCTYPE svg PUBLIC "-//W3C//DTD SVG 1.1//EN" "http://www.w3.org/Graphics/SVG/1.1/DTD/svg11.dtd">
<svg version="1.1" id="Layer_12" xmlns="http://www.w3.org/2000/svg" xmlns:xlink="http://www.w3.org/1999/xlink" x="0px" y="0px"
	 width="3000px" height="3000px" viewBox="0 0 3000 3000" enable-background="new 0 0 3000 3000" xml:space="preserve">
<g>
	<path fill="#FFFFFF" d="M1723.037,2281.866l130.511-7.968c0,0,5.68,18.642,19.798,20.839s38.055,6.288,33.354,40.215
		s-60.286,28.049-85.962,27.497S1715.074,2362.732,1723.037,2281.866z"/>
	<path fill="#FFFFFF" d="M2024.997,2118.027c0,0,180.817,60.455,193.91,90.214S2191,2260.08,2129,2250.54
		s-209.405-4.962-209.405-4.962L2024.997,2118.027z"/>
	<path opacity="0.1" fill="#3D3E49" d="M2039.336,2247.65l54.402-105.96l-64.855-26.292c0,0-27.383,72.602-101.799,128.044
		L2039.336,2247.65z"/>
	<path fill="#FFFFFF" d="M1044.76,2253.162l131.593,29.134c0,0-5.801,52.759-25.94,66.129s-32.755,23.282-92.447,17.166
		s-71.934-1.519-74.949-40.555S1046.494,2326.327,1044.76,2253.162z"/>
	<path fill="#FFFFFF" d="M929.177,2115.662L929.177,2115.662c-0.104,0.033-210.92,67.331-213.021,102.01
		c-2.102,34.687,52.699,36.291,106.908,35.214s229.126,0.22,229.126,0.22L929.177,2115.662z"/>
	<path opacity="0.1" fill="#3D3E49" d="M877.522,2133.288c0,0,12.853,96.792,62.666,116.252l83.438-4.241
		c0,0-81.284-78.975-99.74-129.9L877.522,2133.288z"/>
	<g enable-background="new    ">
		<path fill="#F3C17C" stroke="#3D3E49" stroke-width="9" stroke-miterlimit="10" d="M1183.312,2282.395l-138.659-29.132
			c-90.223-47.64-147.372-147.878-133.012-257.02l96.839-508.483l351.533,183.074h100.803l416.745-211.236l153.805,500.737
			c39.45,139.485-45.718,278.161-177.817,313.463l-137.463,8.498h-539.732"/>
		<path fill="none" stroke="#31333E" stroke-width="9.375" stroke-linecap="round" stroke-miterlimit="10" d="M923.885,2115.398
			c-38.543,9.205-131.901,43.9-186.621,79.198c-26.805,17.301-10.222,56.543,23.464,55.937l283.624-5.563"/>
		<path fill="none" stroke="#31333E" stroke-width="9.375" stroke-linecap="round" stroke-miterlimit="10" d="M2025.802,2118.228
			c48.047,13.961,138.376,46.634,181.869,76.369c26.398,18.006,10.213,56.543-23.464,55.937l-264.612-5.158"/>
		<path fill="#31333E" d="M1224.599,2037.921c-1.718,15.472-3.84,30.744-6.069,46.122l-3.54,22.957l-3.84,22.86
			c-2.635,15.277-5.464,30.45-8.199,45.722l-8.391,45.619l-16.79,91.34c-0.812,4.146-2.023,8.291-3.54,12.237
			c-1.517,3.945-3.341,7.886-5.463,11.532c-4.253,7.381-9.709,14.055-16.184,19.619c-13.049,11.23-29.333,17.806-46.429,19.019
			l-6.374,0.2h-6.169l-11.632-0.707l-23.165-1.316l-46.323-2.829h-4.758l-1.817-0.307c-2.328-0.405-4.552-1.011-6.781-1.716
			c-4.65-1.619-8.797-4.147-12.438-7.386c-3.639-3.335-6.474-7.382-8.397-11.833c-1.817-4.352-2.935-9.005-3.135-13.656
			c-0.199-4.45,0.1-9.003,1.012-13.353l0.199-0.808v-1.723l0.306-1.111c0.406-1.211,0.912-2.43,1.518-3.641
			c1.112-2.223,2.529-4.352,4.146-6.27c3.133-3.645,6.88-6.68,11.125-8.903c4.047-2.123,8.398-3.64,12.851-4.551
			c2.222-0.406,4.445-0.813,6.674-0.913l2.729-0.198l2.123-0.306c1.517-0.302,2.935-0.707,4.352-1.211
			c1.317-0.506,2.629-1.114,3.848-1.925c4.65-3.034,7.785-8.497,9.502-14.973c1.624-6.874,2.229-13.954,1.823-21.034l-0.911-23.165
			l-1.924-46.429c-0.605-15.473-1.311-30.95-1.816-46.429v0.506c-0.606-5.058-1.317-10.011-2.023-15.067
			c-0.405-2.529-0.811-4.958-1.217-7.486c-0.4-2.527-0.905-4.957-1.412-7.386c-0.505-2.429-1.011-4.957-1.624-7.382l-1.817-7.284
			c-1.317-4.853-2.735-9.61-4.452-14.362c-0.812-2.328-1.716-4.65-2.628-6.98c-0.912-2.327-1.823-4.65-2.935-6.88l-1.517-3.435
			l-1.618-3.341l-1.723-3.34l-1.817-3.334l-1.822-3.239l-1.924-3.236l-4.046-6.373c-1.411-2.123-2.829-4.146-4.346-6.27
			l-2.229-3.034l-2.322-3.036c-0.813-0.911-0.712-2.327,0.2-3.232c0.911-0.913,2.329-0.711,3.24,0.199l5.457,5.663
			c1.723,1.923,3.441,3.945,5.164,5.968c1.717,2.023,3.334,4.047,4.852,6.17l2.328,3.241l2.223,3.234
			c1.517,2.222,2.934,4.351,4.252,6.675l2.022,3.439l1.917,3.44c1.318,2.323,2.429,4.651,3.541,7.079
			c1.118,2.43,2.229,4.752,3.24,7.281c2.022,4.858,3.841,9.814,5.464,14.873c1.617,5.057,3.035,10.113,4.246,15.172
			c0.605,2.529,1.21,5.156,1.716,7.687c0.506,2.529,1.119,5.157,1.518,7.687c0.912,5.157,1.723,10.315,2.429,15.479v0.504
			c0.911,15.475,1.616,30.951,2.428,46.322l2.33,46.33l1.11,23.166c0.201,4.145,0.201,8.291-0.1,12.438
			c-0.306,4.252-0.911,8.496-1.923,12.643c-0.506,2.123-1.218,4.252-2.023,6.375c-0.911,2.123-1.923,4.246-3.134,6.27
			c-2.528,4.146-5.869,7.791-9.915,10.52c-4.046,2.631-8.598,4.553-13.349,5.364l-3.54,0.506l-3.035,0.199
			c-1.624,0.101-3.141,0.306-4.758,0.606c-3.134,0.605-6.069,1.722-8.897,3.24c-2.635,1.411-5.058,3.335-6.981,5.563
			c-0.911,1.011-1.616,2.123-2.229,3.334c-0.606,1.217-1.012,2.429-1.211,3.746c-0.705,3.235-0.911,6.471-0.705,9.711
			c0.2,3.033,0.805,5.969,2.023,8.798c1.111,2.628,2.829,5.056,4.951,6.979c2.13,1.923,4.659,3.439,7.387,4.352
			c1.417,0.506,2.935,0.807,4.451,1.111l1.012,0.2h3.946l46.323,2.734l23.165,1.411l11.632,0.713h10.62
			c13.962-0.913,27.311-6.275,38.031-15.378c5.264-4.553,9.709-9.911,13.25-15.88c3.54-6.069,6.068-12.543,7.486-19.418
			l17.601-91.141l8.798-45.616c2.935-15.173,5.869-30.345,8.904-45.519l4.751-22.758l5.058-22.658
			c3.441-15.067,7.08-30.139,11.126-45.11c0.206-1.419,1.417-2.325,2.735-2.225
			C1223.687,2035.085,1224.805,2036.502,1224.599,2037.921z"/>
		<path fill="#31333E" d="M1674.813,2022.136l2.229,9.509c1.418,6.17,3.439,15.273,5.863,26.904
			c1.217,5.77,2.529,12.244,3.946,19.22l4.45,22.759l4.859,25.897l5.058,28.724l23.563,136.855
			c1.113,6.17,2.023,12.951,3.642,18.008c1.722,5.563,4.15,10.92,7.285,15.879c6.369,10.115,15.473,18.306,26.199,23.67l4.146,1.923
			l1.111,0.4l1.011,0.404l2.023,0.712c2.729,0.807,5.662,1.412,8.497,1.718l4.348,0.306h4.655l10.115-0.306l40.56-1.417
			l39.855-1.212l2.528-0.306l1.212-0.201l0.912-0.203l1.921-0.401l1.918-0.612c2.43-0.805,4.553-2.022,6.574-3.54
			c1.823-1.516,3.34-3.334,4.353-5.457c0.202-0.611,0.604-1.117,0.706-1.723l0.611-1.817c0.399-1.317,0.604-2.636,0.806-3.946
			c0.205-1.417,0.307-2.733,0.406-4.146v-2.128c0,0,0-1.412-0.1-2.223l-0.207-2.224v-0.307c0,0.2-0.199,0.307-0.302,0.2
			c-0.204,0-0.304-0.2-0.204-0.301c0-0.203,0.204-0.304,0.307-0.203c0.1,0,0.199,0.104,0.199,0.203v-1.616l-0.199-0.811
			l-0.202-0.912c-0.104-0.604-0.406-1.313-0.609-1.923c-1.718-5.056-4.754-9.404-8.494-11.832c-2.021-1.212-4.149-2.022-6.474-2.329
			l-1.822-0.2l-2.628-0.199h-1.212l-1.519-0.207l-2.935-0.505c-3.846-0.911-7.586-2.322-11.026-4.247
			c-3.539-2.021-6.674-4.756-9.203-8.092c-2.43-3.134-4.146-6.779-5.363-10.52c-1.012-3.539-1.717-7.18-1.923-10.821
			c-0.1-0.911-0.1-1.723-0.1-2.634v-7.28l0.206-9.203l0.805-35.809l0.205-8.698v-4.651l0.302-4.251l0.306-4.246
			c0.1-1.417,0.199-2.734,0.406-4.252l1.01-8.493c1.519-10.726,3.642-21.346,6.471-31.861c2.528-9.608,5.668-19.018,9.207-28.323
			l2.729-6.473c0.911-2.124,1.718-4.252,2.729-6.275l2.835-5.962c0.911-1.925,1.821-3.947,2.834-5.77l2.929-5.464l1.416-2.629
			l1.519-2.528l2.935-4.958c0.91-1.616,1.821-3.233,2.833-4.751l5.664-8.798l5.464-7.792l2.627-3.54l2.529-3.235
			c1.617-2.123,3.137-4.146,4.652-5.868l4.146-4.957l3.542-4.047l6.674-7.18c0.811-0.911,2.229-1.113,3.141-0.301
			c0.905,0.805,1.111,2.224,0.3,3.135l-5.664,7.887c-3.642,5.162-8.904,12.749-15.073,22.758l-4.75,7.893l-4.857,8.902
			c-0.91,1.52-1.719,3.137-2.527,4.752l-2.529,4.959l-1.313,2.527l-1.216,2.629l-2.528,5.463
			c-7.487,16.484-13.557,33.58-17.902,51.18l-0.911,3.643l-0.406,1.821l-0.406,1.818l-1.517,7.486l-0.4,1.923l-0.304,1.922
			l-0.607,3.841l-0.605,3.946l-0.307,1.923l-0.199,1.923l-0.912,7.886c-0.205,1.317-0.205,2.735-0.304,4.153l-0.302,4.244
			l-0.307,4.247v12.644l-0.506,35.809v15.981c0,0,0,1.419,0.101,2.024c0.205,2.528,0.712,5.158,1.419,7.587
			c0.704,2.222,1.821,4.345,3.233,6.269c2.734,3.641,6.98,5.869,12.138,6.979l1.822,0.306l0.911,0.201h1.213l2.229,0.2l3.033,0.306
			c4.146,0.605,8.191,2.021,11.832,4.245c3.541,2.229,6.676,5.163,9.105,8.599c2.327,3.239,4.146,6.88,5.463,10.621
			c0.3,0.91,0.604,1.822,0.806,2.834l0.405,1.418l0.305,1.617v2.934l0.201,2.729c0.099,0.911,0.099,1.821,0.099,2.834
			c0,1.012,0.106,1.817,0,2.829c-0.099,1.923-0.198,3.846-0.505,5.768c-0.301,2.023-0.706,3.947-1.212,5.863l-1.011,2.936
			c-0.307,1.012-0.812,1.922-1.317,2.934c-1.917,3.945-4.653,7.387-7.987,10.216c-3.341,2.628-6.979,4.757-11.026,6.068
			l-2.833,0.911l-3.036,0.707l-1.516,0.305l-1.313,0.201l-2.529,0.306h-5.768l-5.058,0.2l-10.115,0.404l-20.331,0.713l-40.559,1.311
			l-10.115,0.307h-5.464l-5.663-0.406c-3.745-0.405-7.484-1.211-11.125-2.328l-2.735-0.906l-1.411-0.505l-1.219-0.508l-4.956-2.329
			c-13.045-6.574-23.972-16.588-31.756-28.926c-3.846-6.069-6.781-12.545-8.804-19.424l-0.706-2.63l-0.305-1.312
			c-0.102-0.404-0.201-0.912-0.301-1.317l-0.506-2.327l-0.207-1.213v-1.418l-1.516-9.402l-22.253-137.164l-4.552-28.827
			l-3.84-25.993l-3.241-22.958c-1.011-7.081-1.815-13.556-2.528-19.525c-1.517-11.731-2.529-21.041-3.235-27.41l-1.011-9.708
			c0.406-1.117,1.717-1.723,2.829-1.317C1674.209,2021.531,1674.513,2021.836,1674.813,2022.136z"/>
	</g>
	<path fill="#F3C17C" stroke="#3D3E49" stroke-width="9" stroke-miterlimit="10" d="M1141.942,767.971
		c0,0-129.012-109.798-153.716-120.777c-24.705-10.98-82.349-57.644-76.858,21.959c5.489,79.603,24.704,288.218,82.349,348.607
		C1051.359,1078.148,1141.942,767.971,1141.942,767.971z"/>
	<path fill="#D4AFCD" d="M1126.107,795.3c0,0-97.786-83.222-116.511-91.544s-62.417-43.691-58.255,16.645
		c4.16,60.336,18.725,218.458,62.417,264.229C1057.449,1030.402,1126.107,795.3,1126.107,795.3z"/>
	<path opacity="0.1" fill="#3D3E49" d="M984.344,645.328c0,0,53.222,215.668,54.241,221.449s53.743-115.047,62.381-128.998
		S984.344,645.328,984.344,645.328z"/>
	<path fill="#F3C17C" stroke="#3D3E49" stroke-width="9" stroke-miterlimit="10" d="M1710.111,780.041
		c0,0,145.084-87.464,171.241-94.299s90.593-43.552,72.288,34.112c-18.303,77.665-71.037,280.417-137.697,330.677
		C1749.285,1100.792,1710.111,780.041,1710.111,780.041z"/>
	<path fill="#D4AFCD" d="M1722.209,809.72c0,0,109.968-66.293,129.795-71.474c19.824-5.181,68.666-33.011,54.79,25.855
		c-13.872,58.867-53.842,212.545-104.368,250.64C1751.901,1052.836,1722.209,809.72,1722.209,809.72z"/>
	<linearGradient id="SVGID_1_" gradientUnits="userSpaceOnUse" x1="1844.5576" y1="820.9624" x2="1952.8047" y2="820.9624">
		<stop  offset="0" style="stop-color:#FFFFFF"/>
		<stop  offset="0.72" style="stop-color:#FFFFFF"/>
		<stop  offset="1" style="stop-color:#FFFFFF"/>
	</linearGradient>
	<path opacity="0.1" fill="url(#SVGID_1_)" d="M1844.558,888.386l96.999-210.908c0,0,32.443-6.375-12.87,119.521
		c-2.132,5.924-47.187,156.833-58.187,167.5C1870.5,964.5,1849.24,896.624,1844.558,888.386z"/>
	<path fill="#F3C17C" stroke="#3D3E49" stroke-width="9" stroke-miterlimit="10" d="M1508.27,566.308
		c290.703,27.479,362,418,394,524s20,320,20,320c-172,263.998-518,305.998-550,295.998s-406-180-406-311.998c0-132,4-230,70-518
		C1036.27,876.308,1106.27,528.308,1508.27,566.308z M1154.362,911.104c0,0-98.724,115.549-110.009,487.855
		c0,0,256.235,241.32,364.235,247.035c0,0,217.235-81.296,379.235-214.645c0,0,96.385-344.734-219.615-512.377L1308,1062
		c0,0-90,37.832-108.855-26.619C1191.163,1008.095,1154.362,911.104,1154.362,911.104z"/>
	<linearGradient id="SVGID_2_" gradientUnits="userSpaceOnUse" x1="1928.6865" y1="1476.0498" x2="1928.6865" y2="2245.4429">
		<stop  offset="0" style="stop-color:#FFFFFF"/>
		<stop  offset="0.72" style="stop-color:#FFFFFF"/>
		<stop  offset="1" style="stop-color:#FFFFFF"/>
	</linearGradient>
	<path opacity="0.1" fill="url(#SVGID_2_)" d="M1872.179,1476.05l119.716,377.632c0,0,17.685,63.647,36.384,113.259
		s13.935,202.723-115.017,278.502c0,0,104.134-86.286,78.925-222.588s-171.15-495.589-171.15-495.589L1872.179,1476.05z"/>
	<path opacity="0.1" fill="#3D3E49" d="M1923.688,2034.54c0,0-74.709,76.38-64.031,233.089c0,0,177.344-47.357,176.678-246.324
		c0,0-22.388,90.819-88.86,106.26S1923.688,2034.54,1923.688,2034.54z"/>
	<path opacity="0.1" fill="#3D3E49" d="M1008.48,1487.76l-62.903,349.494c0,0-14.402,85.776-31.156,163.097
		s39.403,200.036,123.658,245.012c0,0,7.304-171.261-46.829-217.864l78.016-496.333L1008.48,1487.76z"/>
	<path fill="#FFFFFF" d="M1195.671,2273.947l67.021-268.309c11.913-47.691,55.875-80.315,104.977-77.896l131.614,6.467
		c49.725,2.442,90.582,40.109,97.051,89.471l33.341,255.218L1195.671,2273.947z"/>
	<circle fill="#FFFFFF" cx="1280.363" cy="679.057" r="69.614"/>
	<circle fill="#FFFFFF" cx="1542.434" cy="710.178" r="69.614"/>
	<g>
		<defs>
			<polyline id="SVGID_3_" points="2222.001,824.115 2222.001,2368.879 723.64,2368.879 723.64,824.115 			"/>
		</defs>
		<clipPath id="SVGID_4_">
			<use xlink:href="#SVGID_3_"  overflow="visible"/>
		</clipPath>
	</g>
	<path fill="#FFFFFF" d="M1188.39,995.214L1168,933.5c0,0,18.925-26.088,64.254-46.097s90.392-14.433,148.685-8.025
		c32.678,3.592,103.215,7.97,120.526,72.084l-144.237,78.595C1357.228,1030.057,1331.695,939.176,1188.39,995.214z"/>
	<linearGradient id="SVGID_5_" gradientUnits="userSpaceOnUse" x1="1739.6738" y1="1099.8306" x2="1920.626" y2="1099.8306">
		<stop  offset="0" style="stop-color:#FFFFFF"/>
		<stop  offset="0.72" style="stop-color:#FFFFFF"/>
		<stop  offset="1" style="stop-color:#FFFFFF"/>
	</linearGradient>
	<path opacity="0.1" fill="url(#SVGID_5_)" d="M1773.056,757.069c0,0,66.666,112.666,94.666,227.333s45.633,136.632,50.667,267.333
		s0,158.666,0,158.666l-62.667,77.331c0,0,16.485-570.408-116.048-775.802C1739.674,711.93,1765.402,743.535,1773.056,757.069z"/>
	<path opacity="0.1" fill="#3D3E49" d="M1158.388,668.001c0,0-233.923,583.166-89.123,863.164c0,0-82.623-65.413-102.357-127.292
		c-19.734-61.879,52.059-449.871,52.059-449.871S1050.793,763.234,1158.388,668.001z"/>
	<path fill="#3D3E49" d="M1184.092,998c0,0,129.139-87.104,175.921,39.074c0,0-112.857,80.926-155.733,27.395
		C1183.801,1038.901,1184.092,998,1184.092,998z"/>
	<g>
		<path fill="#6C2D86" d="M163.196,568.485c-3.345,0-5.302-1.774-5.873-5.322c-0.734-4.486-1.468-10.808-2.202-18.965l-2.08-18.965
			c-0.408-2.814-1.102-5.567-2.08-8.259c-1.387-3.67-2.896-5.506-4.527-5.506c-1.509,0-4.324,1.285-8.442,3.854
			c-3.916,2.366-6.485,4.263-7.708,5.69c-0.042,3.834,0.061,7.668,0.306,11.501l1.835,16.334c0.774,6.445,1.162,11.768,1.162,15.968
			c0,1.794-0.561,3.273-1.682,4.436c-1.123,1.162-2.56,1.743-4.313,1.743c-1.754,0-3.192-0.581-4.313-1.743
			c-1.122-1.163-1.682-2.642-1.682-4.436c0-4.935-0.5-12.225-1.499-21.872c-1-9.645-1.499-16.936-1.499-21.871
			c0-4.323-0.612-7.688-1.835-10.094c-2.855,1.306-5.751,3.426-8.688,6.362l-7.219,8.076c-0.653,0.979-1.693,2.264-3.12,3.854
			c0,2.447-0.225,6.057-0.673,10.829c-0.449,4.772-0.673,8.3-0.673,10.584c0,1.224,0.193,2.937,0.581,5.139
			c0.387,2.202,0.582,3.793,0.582,4.772c0,1.672-0.623,3.079-1.866,4.221c-1.245,1.141-2.702,1.713-4.374,1.713
			c-4.609,0-6.913-5.24-6.913-15.723c0-2.447,0.224-6.097,0.673-10.951c0.448-4.853,0.673-8.504,0.673-10.951
			c0-2.162-0.194-5.404-0.581-9.728c-0.388-4.323-0.582-7.586-0.582-9.789c0-9.258,2.08-13.888,6.24-13.888
			c1.591,0,3.048,0.694,4.375,2.08c1.325,1.387,1.988,2.896,1.988,4.527c0,0.775-0.103,1.979-0.306,3.609
			c-0.205,1.632-0.306,2.875-0.306,3.732l0.122,6.424c2.121-4.364,5.241-8.31,9.36-11.838c4.119-3.527,7.626-5.292,10.523-5.292
			c6.403,0,10.808,3.181,13.214,9.544c2.243-2.977,4.915-5.21,8.015-6.699c3.099-1.488,6.647-2.233,10.645-2.233
			c6.811,0,11.46,3.67,13.949,11.012c0.489,1.468,1.325,7.199,2.508,17.191c1.141,7.016,2.609,18.701,4.405,35.055
			c0.122,1.631-0.428,3.018-1.652,4.16C166.439,567.914,164.95,568.485,163.196,568.485z"/>
		<path fill="#6C2D86" d="M232.756,527.68c0,2.937,0.02,7.341,0.061,13.214c0.041,5.873,0.062,10.278,0.062,13.214
			c0,0.898,0.071,2.264,0.214,4.099c0.143,1.835,0.214,3.202,0.214,4.099c0,1.753-0.592,3.191-1.774,4.313
			c-1.183,1.121-2.63,1.682-4.343,1.682c-3.142,0-5.139-1.938-5.996-5.812c-5.099,2.65-10.972,3.977-17.62,3.977
			c-5.343,0-9.769-1.184-13.275-3.548c-3.875-2.61-6.179-6.424-6.914-11.44c-1.59-10.808-2.386-20.434-2.386-28.876
			c0-5.587,0.612-11.95,1.835-19.087c0.571-3.548,2.508-5.323,5.812-5.323c1.753,0,3.221,0.561,4.405,1.683
			c1.182,1.122,1.774,2.56,1.774,4.313c0,1.876-0.296,4.874-0.887,8.993c-0.592,4.12-0.887,7.26-0.887,9.421
			c0,6.812,0.224,12.644,0.673,17.497c0.448,4.854,1.121,8.749,2.019,11.685c1.346,0.734,2.671,1.295,3.977,1.683
			c1.305,0.388,2.589,0.581,3.854,0.581c5.465,0,11.236-0.876,17.313-2.631l-0.061-12.419l-0.123-11.869
			c0-8.81,0.387-16.457,1.163-22.942c0.448-3.752,2.426-5.628,5.934-5.628c1.753,0,3.222,0.572,4.405,1.713
			c1.182,1.143,1.733,2.57,1.651,4.283L232.756,527.68z"/>
		<path fill="#6C2D86" d="M275.642,567.262c-8.361,0-15.335-2.529-20.923-7.586c-5.873-5.301-8.81-12.297-8.81-20.984
			c0-8.279,2.753-16.824,8.259-25.633c6.118-9.789,13.01-14.683,20.679-14.683c3.997,0,8.462,0.939,13.398,2.814
			c6.24,2.407,9.36,5.343,9.36,8.81c0,1.55-0.511,2.927-1.53,4.129c-1.02,1.204-2.285,1.805-3.793,1.805
			c-1.183,0-2.213-0.356-3.089-1.07c-0.877-0.713-1.724-1.417-2.539-2.111c-2.407-1.917-6.342-2.875-11.807-2.875
			c-4.16,0-8.28,3.712-12.358,11.135c-3.711,6.812-5.567,12.705-5.567,17.68c0,5.384,1.835,9.626,5.506,12.725
			c3.426,2.896,7.831,4.344,13.214,4.344c2.447,0,5.057-0.652,7.831-1.958l7.097-3.793c1.224-0.652,2.1-0.979,2.631-0.979
			c1.508,0,2.814,0.602,3.915,1.805c1.102,1.204,1.652,2.58,1.652,4.13c0,2.978-3.141,5.853-9.421,8.626
			C283.84,566.039,279.272,567.262,275.642,567.262z"/>
		<path fill="#6C2D86" d="M363.556,567.201c-2.896,0-4.793-1.55-5.689-4.649c-0.938-3.344-1.795-8.096-2.569-14.254
			c-0.734-5.914-1.102-10.768-1.102-14.561c0-1.06,0.051-2.671,0.153-4.833c0.101-2.162,0.153-3.772,0.153-4.833
			c0-7.667-1.917-11.501-5.751-11.501c-5.18,0-9.81,2.346-13.887,7.036c-2.08,2.407-4.936,6.995-8.565,13.765
			c0,15.539-0.653,24.737-1.958,27.591c-1.142,2.528-2.917,3.793-5.322,3.793c-1.673,0-3.141-0.571-4.405-1.713
			c-1.265-1.141-1.896-2.528-1.896-4.16c0-0.57,0.183-1.468,0.55-2.692c0.326-1.019,0.551-3.997,0.673-8.932l0.184-9.055
			l0.184-44.966c0.285-5.057,0.428-8.462,0.428-10.217c0-2.08-0.194-4.047-0.581-5.903c-0.388-1.855-0.581-3.783-0.581-5.782
			c0-1.713,0.591-3.129,1.774-4.251c1.183-1.122,2.631-1.683,4.344-1.683c3.344,0,5.301,1.795,5.873,5.384
			c0.652,3.957,0.979,7.525,0.979,10.706c0,4.283-0.144,8.749-0.428,13.398c-0.245,4.446-0.347,8.912-0.306,13.398l0.062,5.383
			c3.344-4.486,6.922-7.84,10.737-10.063c3.813-2.223,7.861-3.334,12.144-3.334c6.77,0,11.419,2.203,13.949,6.607
			c1.794,3.1,2.814,8.32,3.059,15.662l0.489,11.685l1.224,12.725c0.571,4.772,1.264,8.973,2.08,12.603
			c0.163,0.694,0.245,1.285,0.245,1.774c0,1.673-0.612,3.068-1.835,4.191C366.737,566.64,365.269,567.201,363.556,567.201z"/>
		<path fill="#6C2D86" d="M463.093,511.284c-0.856,0-1.866-0.04-3.028-0.123c-1.163-0.081-2.172-0.122-3.028-0.122
			c-0.938,0-3.712,0.306-8.32,0.917l1.163,36.157l0.061,2.692l0.061,3.12c0.163,8.932-1.979,13.398-6.424,13.398
			c-1.631,0-3.049-0.531-4.251-1.591c-1.204-1.061-1.805-2.386-1.805-3.977c0-1.549,0.062-3.875,0.184-6.974
			c0.123-3.099,0.184-5.424,0.184-6.975l-1.224-35.728c-2.978-0.123-7.505-0.468-13.582-1.04c-3.63-0.49-5.445-2.508-5.445-6.057
			c0-1.794,0.551-3.283,1.652-4.466c1.101-1.182,2.508-1.774,4.221-1.774l12.848,1.04c0-2.08-0.092-4.864-0.275-8.351
			c-0.184-3.487-0.275-6.005-0.275-7.555c0-1.713,0.591-3.13,1.774-4.252c1.182-1.122,2.63-1.683,4.344-1.683
			c3.67,0,5.812,2.998,6.423,8.993c0.123,1.509,0.184,3.325,0.184,5.445l-0.122,3.548l-0.062,3.793
			c5.057-0.652,7.954-0.979,8.688-0.979c4.241,0,7.015,0.205,8.32,0.612c2.487,0.816,3.732,2.733,3.732,5.75
			c0,1.795-0.561,3.273-1.683,4.436C466.284,510.703,464.847,511.284,463.093,511.284z"/>
		<path fill="#6C2D86" d="M504.144,567.017c-6.852,0-12.746-2.529-17.681-7.586c-5.506-5.628-8.402-13.193-8.688-22.697
			c-0.245-9.217,2.08-17.333,6.975-24.349c5.709-8.279,13.663-12.419,23.859-12.419c8.157,0,14.336,3.732,18.537,11.195
			c3.344,6.037,4.956,13.297,4.833,21.78c-0.122,9.054-2.488,16.784-7.097,23.187C519.662,563.388,512.749,567.017,504.144,567.017z
			 M507.814,512.385c-5.995-0.04-10.666,2.814-14.01,8.565c-2.651,4.609-3.977,9.871-3.977,15.784
			c0,5.914,1.611,10.523,4.833,13.826c2.692,2.733,5.852,4.099,9.483,4.099c4.241,0,7.892-1.549,10.951-4.649
			c3.466-3.426,5.302-8.055,5.506-13.888C521.171,520.338,516.909,512.426,507.814,512.385z"/>
		<path fill="#6C2D86" d="M598.053,565.916c-2.244,0-3.977-1.184-5.2-3.548c-2.121-4.119-5.322-8.993-9.605-14.622l-10.829-14.744
			c-2.366,1.876-6.037,4.507-11.012,7.892c-0.449,6.322-0.673,12.48-0.673,18.476c0,1.835-0.561,3.325-1.682,4.466
			c-1.123,1.142-2.56,1.713-4.313,1.713c-4.12,0-6.179-2.773-6.179-8.32c0-3.385,0.234-8.452,0.704-15.203
			c0.468-6.75,0.704-11.817,0.704-15.203c0-6.199,0.092-13.286,0.275-21.26c0.184-7.973,0.275-15.019,0.275-21.137
			c0-1.835-0.092-3.997-0.275-6.485c-0.183-2.487-0.275-4.649-0.275-6.485s0.56-3.324,1.682-4.466
			c1.122-1.142,2.559-1.713,4.313-1.713c1.753,0,3.191,0.572,4.313,1.713c1.121,1.142,1.682,2.63,1.682,4.466
			c0,1.876,0.102,4.089,0.306,6.638c0.204,2.55,0.306,4.763,0.306,6.638l-0.428,19.699c-0.205,7.097-0.266,14.193-0.184,21.29
			c5.546-4.241,10.89-8.891,16.029-13.949l13.459-13.887c1.346-1.386,2.793-2.08,4.343-2.08c1.591,0,3.028,0.633,4.313,1.896
			c1.285,1.265,1.927,2.733,1.927,4.405c0,1.387-0.592,2.753-1.774,4.099c-5.017,5.873-11.196,12.174-18.537,18.904l13.337,18.17
			c6.24,8.525,9.36,14.071,9.36,16.641c0,1.632-0.643,3.039-1.927,4.222C601.204,565.324,599.725,565.916,598.053,565.916z"/>
		<path fill="#6C2D86" d="M643.325,566.222c-9.218,0-16.682-2.305-22.392-6.913c-6.24-5.098-9.36-12.235-9.36-21.412
			c0-10.604,2.569-19.495,7.708-26.674c5.587-7.831,13.051-11.747,22.392-11.747c6.77,0,12.297,1.143,16.579,3.426
			c5.262,2.814,7.892,7.138,7.892,12.97c0,4.079-2.305,7.791-6.913,11.134c-2.04,1.468-6.362,3.753-12.97,6.852l-23.37,11.073
			c2.284,3.386,5.128,5.935,8.534,7.647c3.405,1.713,7.372,2.569,11.899,2.569c2.814,0,6.118-0.529,9.911-1.59
			c4.812-1.346,7.912-3.11,9.299-5.292c1.386-2.182,2.875-3.273,4.466-3.273c1.427,0,2.702,0.541,3.824,1.621
			c1.122,1.081,1.683,2.335,1.683,3.763c0,4.527-3.651,8.422-10.951,11.685C655.315,564.835,649.238,566.222,643.325,566.222z
			 M641.673,510.488c-4.977,0-9.116,1.927-12.419,5.781c-3.304,3.854-5.771,9.657-7.402,17.405l18.782-8.932
			c7.381-3.589,12.643-6.709,15.784-9.36C652.909,512.12,647.994,510.488,641.673,510.488z"/>
		<path fill="#6C2D86" d="M730.32,567.751c-3.508,0-5.486-1.917-5.935-5.751l-1.713-13.398c-0.572-4.772-0.856-9.238-0.856-13.398
			c0-1.142,0.071-3.079,0.214-5.812c0.142-2.732,0.214-4.67,0.214-5.812c0-8.81-1.632-13.214-4.894-13.214
			c-4.568,0-8.932,2.713-13.092,8.137c-3.753,4.935-6.689,11.175-8.81,18.72c-0.083,1.591-0.266,3.59-0.551,5.996
			c-0.245,2.04-0.367,4.018-0.367,5.935c0,1.224,0.123,3.059,0.367,5.506s0.367,4.283,0.367,5.506c0,1.835-0.561,3.324-1.683,4.466
			c-1.122,1.141-2.56,1.713-4.313,1.713c-1.795,0-3.243-0.572-4.344-1.713c-1.101-1.143-1.652-2.631-1.652-4.466
			c0-1.223-0.133-3.059-0.397-5.506c-0.266-2.447-0.398-4.282-0.398-5.506c0-4.201,0.295-10.023,0.887-17.467
			c0.591-7.442,0.887-13.265,0.887-17.466c0-1.305-0.072-3.242-0.214-5.812c-0.143-2.569-0.214-4.506-0.214-5.812
			c0-1.753,0.581-3.19,1.744-4.313c1.162-1.121,2.6-1.682,4.313-1.682c3.752,0,5.812,2.651,6.179,7.953l0.183,7.158
			c6.852-9.136,13.888-13.704,21.107-13.704c6.525,0,11.073,2.875,13.643,8.626c1.753,3.834,2.712,9.503,2.875,17.007v6.179
			l-0.061,5.689c0,3.386,0.438,7.76,1.315,13.123c0.877,5.363,1.315,9.718,1.315,13.062c0,1.794-0.581,3.252-1.744,4.374
			C733.532,567.19,732.073,567.751,730.32,567.751z"/>
		<path fill="#6C2D86" d="M799.452,513.915c-3.631,4.365-8.28,10.686-13.949,18.965c-6.567,9.626-11.379,16.437-14.438,20.434
			c4.282-0.204,8.014-0.306,11.195-0.306c1.591,0,3.956,0.306,7.097,0.918c3.141,0.611,5.506,0.917,7.097,0.917
			c1.794,0,3.252,0.581,4.375,1.744c1.121,1.162,1.683,2.641,1.683,4.436c0,1.835-0.562,3.324-1.683,4.466
			c-1.122,1.141-2.58,1.713-4.375,1.713c-1.59,0-3.956-0.306-7.097-0.917c-3.141-0.612-5.506-0.918-7.097-0.918
			c-9.177,0-17.885,0.835-26.123,2.508c-0.856,0.163-1.612,0.245-2.264,0.245c-3.957,0-5.934-1.734-5.934-5.2
			c0-2.039,1.019-3.997,3.059-5.874c10.646-9.625,22.228-24.614,34.75-44.966c-5.425,0.327-9.36,0.489-11.808,0.489
			c-6.036,0-12.235-0.468-18.598-1.407c-3.63-0.529-5.445-2.548-5.445-6.057c0-1.794,0.551-3.293,1.652-4.497
			c1.101-1.202,2.487-1.805,4.16-1.805c1.998,0,5.017,0.235,9.054,0.704c4.038,0.469,7.097,0.704,9.177,0.704
			c2.773,0,6.934-0.193,12.48-0.581c5.546-0.387,9.707-0.582,12.48-0.582c3.466,0,5.2,1.428,5.2,4.283
			C804.102,506.634,802.551,510.163,799.452,513.915z"/>
	</g>
	<g>
		<g>
			<path fill="#CF7EB5" d="M133.28,1975.943c-0.775,0-2.183-0.898-4.221-2.692c-1.835-1.672-3.203-3.16-4.099-4.466
				c-3.916,2.121-7.362,3.721-10.339,4.803c-2.978,1.08-5.466,1.621-7.463,1.621c-9.544,0-16.498-2.691-20.862-8.076
				c-4.12-5.057-6.179-12.806-6.179-23.247c0-9.87,3.396-18.313,10.186-25.328c6.791-7.015,14.897-10.522,24.318-10.522
				c3.548,0,7.525,0.918,11.93,2.753c5.546,2.284,8.32,5.038,8.32,8.259c0,1.102-0.408,2.08-1.224,2.938
				c-0.408,1.55-0.725,4.098-0.948,7.646c-0.225,3.549-0.358,8.097-0.398,13.643c-0.041,5.059,0.306,9.055,1.04,11.991
				c0.407,1.796,1.692,5.384,3.854,10.768c0.285,0.733,0.754,1.815,1.407,3.242l0.367,1.04c0,1.631-0.571,2.977-1.713,4.038
				C136.115,1975.412,134.789,1975.943,133.28,1975.943z M120.555,1933.424c0-1.753,0.112-3.66,0.336-5.72
				c0.224-2.06,0.56-4.252,1.009-6.577c-1.509-0.773-2.805-1.346-3.885-1.713c-1.081-0.367-1.948-0.551-2.6-0.551
				c-6.322,0-11.777,2.58-16.365,7.739c-4.588,5.16-6.882,11.104-6.882,17.833c0,6.689,1.182,11.707,3.548,15.051
				c2.365,3.344,5.913,5.016,10.645,5.016c3.916,0,7.239-0.713,9.972-2.141c1.468-0.774,3.527-2.324,6.179-4.649
				C121.207,1946.904,120.555,1938.808,120.555,1933.424z"/>
			<path fill="#CF7EB5" d="M227.312,1976.982c-3.345,0-5.302-1.773-5.873-5.322c-0.734-4.486-1.468-10.807-2.202-18.965
				l-2.08-18.965c-0.408-2.814-1.102-5.568-2.08-8.26c-1.387-3.67-2.896-5.506-4.527-5.506c-1.509,0-4.324,1.285-8.442,3.854
				c-3.916,2.367-6.485,4.264-7.708,5.69c-0.042,3.834,0.061,7.668,0.306,11.501l1.835,16.335
				c0.774,6.444,1.162,11.768,1.162,15.968c0,1.794-0.561,3.273-1.682,4.436c-1.123,1.162-2.56,1.743-4.313,1.743
				c-1.754,0-3.192-0.581-4.313-1.743c-1.122-1.162-1.682-2.642-1.682-4.436c0-4.935-0.5-12.225-1.499-21.871
				c-1-9.646-1.499-16.936-1.499-21.871c0-4.323-0.612-7.688-1.835-10.095c-2.855,1.306-5.751,3.426-8.688,6.362l-7.219,8.076
				c-0.653,0.979-1.693,2.264-3.12,3.854c0,2.447-0.225,6.057-0.673,10.828c-0.449,4.772-0.673,8.301-0.673,10.584
				c0,1.225,0.193,2.938,0.581,5.14c0.387,2.202,0.582,3.793,0.582,4.772c0,1.672-0.623,3.078-1.866,4.221
				c-1.245,1.141-2.702,1.713-4.374,1.713c-4.609,0-6.913-5.24-6.913-15.723c0-2.447,0.224-6.098,0.673-10.951
				c0.448-4.854,0.673-8.504,0.673-10.951c0-2.161-0.194-5.403-0.581-9.727c-0.388-4.323-0.582-7.587-0.582-9.789
				c0-9.258,2.08-13.888,6.24-13.888c1.591,0,3.048,0.694,4.375,2.08c1.325,1.388,1.988,2.896,1.988,4.527
				c0,0.775-0.103,1.979-0.306,3.609c-0.205,1.632-0.306,2.876-0.306,3.731l0.122,6.424c2.121-4.363,5.241-8.309,9.36-11.838
				c4.119-3.527,7.626-5.291,10.523-5.291c6.403,0,10.808,3.181,13.214,9.543c2.243-2.977,4.915-5.209,8.015-6.699
				c3.099-1.488,6.647-2.232,10.645-2.232c6.811,0,11.46,3.67,13.949,11.012c0.489,1.469,1.325,7.199,2.508,17.191
				c1.141,7.016,2.609,18.701,4.405,35.055c0.122,1.631-0.428,3.019-1.652,4.16C230.554,1976.412,229.065,1976.982,227.312,1976.982
				z"/>
			<path fill="#CF7EB5" d="M340.736,1917.885c-0.489,5.996-0.734,11.99-0.734,17.986c0,13.582,0.632,23.84,1.897,30.773
				c0.081,0.57,0.122,1.039,0.122,1.406c0,1.632-0.572,2.979-1.713,4.038c-1.143,1.06-2.468,1.591-3.977,1.591
				c-2.529,0-4.385-1.836-5.567-5.506c-2.937,2.162-5.986,3.793-9.146,4.895c-3.161,1.101-6.455,1.65-9.88,1.65
				c-8.443,0-15.438-2.813-20.984-8.441c-5.71-5.752-8.565-13.133-8.565-22.146c0-10.891,2.885-19.617,8.657-26.186
				c5.771-6.565,13.265-9.85,22.483-9.85c4.73,0,8.381,0.734,10.951,2.203l5.751,4.221c0.57-17.17,1.244-28.732,2.019-34.688
				c0.53-3.63,2.386-5.445,5.567-5.445c3.711,0,5.567,1.979,5.567,5.935C343.184,1885.99,342.367,1898.512,340.736,1917.885z
				 M313.573,1919.476c-6.852,0-11.991,2.029-15.417,6.087c-3.426,4.059-5.139,10.166-5.139,18.323
				c0,5.261,1.866,9.788,5.598,13.581c3.732,3.793,8.106,5.689,13.123,5.689c3.426,0,6.321-0.631,8.688-1.896
				c1.386-0.734,3.649-2.426,6.791-5.077c0.612-0.53,1.203-1.163,1.774-1.896l-0.184-10.584l0.061-7.097l0.123-7.219
				c-1.551-3.305-3.61-5.781-6.179-7.434S317.162,1919.476,313.573,1919.476z"/>
			<path fill="#CF7EB5" d="M380.931,1975.515c-6.852,0-12.746-2.529-17.681-7.586c-5.506-5.628-8.402-13.193-8.688-22.697
				c-0.245-9.217,2.08-17.333,6.975-24.349c5.709-8.279,13.663-12.42,23.859-12.42c8.157,0,14.336,3.732,18.537,11.195
				c3.344,6.037,4.956,13.297,4.833,21.78c-0.122,9.054-2.488,16.784-7.097,23.187
				C396.449,1971.885,389.536,1975.515,380.931,1975.515z M384.601,1920.883c-5.995-0.041-10.666,2.814-14.01,8.564
				c-2.651,4.609-3.977,9.871-3.977,15.784c0,5.914,1.611,10.522,4.833,13.826c2.692,2.733,5.852,4.099,9.483,4.099
				c4.241,0,7.892-1.549,10.951-4.648c3.466-3.427,5.302-8.055,5.506-13.889C397.958,1928.836,393.696,1920.924,384.601,1920.883z"
				/>
			<path fill="#CF7EB5" d="M474.228,1945.537l-1.407,20.557c-0.245,8.156-1.082,14.824-2.509,20.005
				c-1.835,6.607-4.771,11.48-8.81,14.622c-4.894,3.793-11.971,5.689-21.229,5.689c-5.425,0-9.972-0.367-13.643-1.102
				c-5.139-1.02-7.708-3.141-7.708-6.362c0-3.631,1.774-5.444,5.323-5.444c1.468,0,3.915,0.355,7.341,1.07
				c3.426,0.713,7.219,1.029,11.379,0.947c7.831-0.121,13.235-3.915,16.212-11.379c1.958-4.977,2.998-12.623,3.12-22.941
				c-2.203,4.078-4.824,7.138-7.861,9.177c-3.039,2.038-6.516,3.059-10.431,3.059c-7.382,0-13.388-2.518-18.017-7.556
				c-4.629-5.037-6.943-11.572-6.943-19.607c0-11.012,3.16-19.883,9.482-26.613c6.525-6.933,15.417-10.399,26.674-10.399
				c3.793,0,6.974,0.489,9.544,1.468c2.569,0.979,4.527,2.447,5.873,4.405c4.364,0.122,6.546,2.55,6.546,7.28
				c0,2.896-0.428,6.771-1.285,11.623C474.941,1939.664,474.39,1943.498,474.228,1945.537z M454.589,1919.047
				c-7.75,0-13.745,2.672-17.986,8.015c-3.793,4.813-5.689,10.931-5.689,18.354c0,5.914,1.121,10.36,3.365,13.337
				c2.242,2.978,5.607,4.466,10.094,4.466c4.119,0,8.116-2.325,11.991-6.974c3.507-4.283,5.506-8.524,5.995-12.726
				c0.856-4.405,1.774-11.317,2.753-20.739c-1.632-1.264-3.325-2.203-5.078-2.814
				C458.28,1919.354,456.465,1919.047,454.589,1919.047z"/>
			<path fill="#CF7EB5" d="M518.949,1974.719c-9.218,0-16.682-2.305-22.392-6.912c-6.24-5.098-9.36-12.236-9.36-21.412
				c0-10.604,2.569-19.496,7.708-26.674c5.587-7.832,13.051-11.747,22.392-11.747c6.77,0,12.297,1.143,16.579,3.427
				c5.262,2.813,7.892,7.137,7.892,12.969c0,4.08-2.305,7.791-6.913,11.135c-2.04,1.469-6.362,3.753-12.97,6.852l-23.37,11.074
				c2.284,3.386,5.128,5.934,8.534,7.646c3.405,1.713,7.372,2.57,11.899,2.57c2.814,0,6.118-0.529,9.911-1.591
				c4.812-1.347,7.912-3.11,9.299-5.292c1.386-2.182,2.875-3.273,4.466-3.273c1.427,0,2.702,0.541,3.824,1.621
				c1.122,1.082,1.683,2.336,1.683,3.764c0,4.526-3.651,8.422-10.951,11.685C530.94,1973.332,524.862,1974.719,518.949,1974.719z
				 M517.297,1918.986c-4.977,0-9.116,1.927-12.419,5.781c-3.304,3.854-5.771,9.656-7.402,17.404l18.782-8.932
				c7.381-3.588,12.643-6.709,15.784-9.359C528.533,1920.617,523.619,1918.986,517.297,1918.986z"/>
		</g>
	</g>
	<g>
		<path fill="#90C847" d="M170.347,1343.203c-0.775,0-2.183-0.897-4.221-2.692c-1.835-1.672-3.203-3.16-4.099-4.466
			c-3.916,2.121-7.362,3.721-10.339,4.803c-2.978,1.08-5.466,1.621-7.463,1.621c-9.544,0-16.498-2.692-20.862-8.076
			c-4.12-5.057-6.179-12.806-6.179-23.248c0-9.87,3.396-18.313,10.186-25.328c6.791-7.015,14.897-10.522,24.318-10.522
			c3.548,0,7.525,0.917,11.93,2.753c5.546,2.285,8.32,5.038,8.32,8.259c0,1.102-0.408,2.08-1.224,2.937
			c-0.408,1.55-0.725,4.099-0.948,7.647c-0.225,3.548-0.358,8.097-0.398,13.643c-0.041,5.058,0.306,9.054,1.04,11.991
			c0.407,1.795,1.692,5.384,3.854,10.768c0.285,0.734,0.754,1.815,1.407,3.242l0.367,1.04c0,1.631-0.571,2.977-1.713,4.038
			C173.181,1342.672,171.855,1343.203,170.347,1343.203z M157.622,1300.684c0-1.753,0.112-3.66,0.336-5.72
			c0.224-2.059,0.56-4.252,1.009-6.577c-1.509-0.774-2.805-1.346-3.885-1.713c-1.081-0.367-1.948-0.55-2.6-0.55
			c-6.322,0-11.777,2.58-16.365,7.739c-4.588,5.16-6.882,11.104-6.882,17.833c0,6.689,1.182,11.706,3.548,15.05
			c2.365,3.345,5.913,5.017,10.645,5.017c3.916,0,7.239-0.713,9.972-2.141c1.468-0.774,3.527-2.325,6.179-4.649
			C158.273,1314.164,157.622,1306.067,157.622,1300.684z"/>
		<path fill="#90C847" d="M264.378,1344.243c-3.345,0-5.302-1.774-5.873-5.322c-0.734-4.486-1.468-10.808-2.202-18.965l-2.08-18.965
			c-0.408-2.814-1.102-5.567-2.08-8.259c-1.387-3.67-2.896-5.506-4.527-5.506c-1.509,0-4.324,1.285-8.442,3.854
			c-3.916,2.366-6.485,4.263-7.708,5.69c-0.042,3.834,0.061,7.668,0.306,11.501l1.835,16.334c0.774,6.445,1.162,11.768,1.162,15.968
			c0,1.794-0.561,3.273-1.682,4.436c-1.123,1.162-2.56,1.743-4.313,1.743c-1.754,0-3.192-0.581-4.313-1.743
			c-1.122-1.163-1.682-2.642-1.682-4.436c0-4.935-0.5-12.225-1.499-21.872c-1-9.645-1.499-16.936-1.499-21.871
			c0-4.323-0.612-7.688-1.835-10.094c-2.855,1.306-5.751,3.426-8.688,6.362l-7.219,8.076c-0.653,0.979-1.693,2.264-3.12,3.854
			c0,2.447-0.225,6.057-0.673,10.829c-0.449,4.772-0.673,8.3-0.673,10.584c0,1.224,0.193,2.937,0.581,5.139
			c0.387,2.202,0.582,3.793,0.582,4.772c0,1.672-0.623,3.079-1.866,4.221c-1.245,1.141-2.702,1.713-4.374,1.713
			c-4.609,0-6.913-5.24-6.913-15.723c0-2.447,0.224-6.097,0.673-10.951c0.448-4.853,0.673-8.504,0.673-10.951
			c0-2.162-0.194-5.404-0.581-9.728c-0.388-4.323-0.582-7.586-0.582-9.789c0-9.258,2.08-13.888,6.24-13.888
			c1.591,0,3.048,0.694,4.375,2.08c1.325,1.387,1.988,2.896,1.988,4.527c0,0.775-0.103,1.979-0.306,3.609
			c-0.205,1.632-0.306,2.875-0.306,3.732l0.122,6.424c2.121-4.364,5.241-8.31,9.36-11.838c4.119-3.527,7.626-5.292,10.523-5.292
			c6.403,0,10.808,3.181,13.214,9.544c2.243-2.977,4.915-5.21,8.015-6.699c3.099-1.488,6.647-2.233,10.645-2.233
			c6.811,0,11.46,3.67,13.949,11.012c0.489,1.468,1.325,7.199,2.508,17.191c1.141,7.016,2.609,18.701,4.405,35.055
			c0.122,1.631-0.428,3.018-1.652,4.16C267.621,1343.671,266.131,1344.243,264.378,1344.243z"/>
		<path fill="#90C847" d="M331.796,1343.203c-0.775,0-2.183-0.897-4.221-2.692c-1.835-1.672-3.203-3.16-4.099-4.466
			c-3.916,2.121-7.362,3.721-10.339,4.803c-2.978,1.08-5.466,1.621-7.463,1.621c-9.544,0-16.498-2.692-20.862-8.076
			c-4.12-5.057-6.179-12.806-6.179-23.248c0-9.87,3.396-18.313,10.186-25.328c6.791-7.015,14.897-10.522,24.318-10.522
			c3.548,0,7.525,0.917,11.93,2.753c5.546,2.285,8.32,5.038,8.32,8.259c0,1.102-0.408,2.08-1.224,2.937
			c-0.408,1.55-0.725,4.099-0.948,7.647c-0.225,3.548-0.358,8.097-0.398,13.643c-0.041,5.058,0.306,9.054,1.04,11.991
			c0.407,1.795,1.692,5.384,3.854,10.768c0.285,0.734,0.754,1.815,1.407,3.242l0.367,1.04c0,1.631-0.571,2.977-1.713,4.038
			C334.631,1342.672,333.305,1343.203,331.796,1343.203z M319.071,1300.684c0-1.753,0.112-3.66,0.336-5.72
			c0.224-2.059,0.56-4.252,1.009-6.577c-1.509-0.774-2.805-1.346-3.885-1.713c-1.081-0.367-1.948-0.55-2.6-0.55
			c-6.322,0-11.777,2.58-16.365,7.739c-4.588,5.16-6.882,11.104-6.882,17.833c0,6.689,1.182,11.706,3.548,15.05
			c2.365,3.345,5.913,5.017,10.645,5.017c3.916,0,7.239-0.713,9.972-2.141c1.468-0.774,3.527-2.325,6.179-4.649
			C319.723,1314.164,319.071,1306.067,319.071,1300.684z"/>
		<path fill="#90C847" d="M398.604,1289.672c-3.631,4.365-8.28,10.686-13.949,18.965c-6.567,9.626-11.379,16.437-14.438,20.434
			c4.282-0.204,8.014-0.306,11.195-0.306c1.591,0,3.956,0.306,7.097,0.918c3.141,0.611,5.506,0.917,7.097,0.917
			c1.794,0,3.252,0.581,4.375,1.744c1.121,1.162,1.683,2.641,1.683,4.436c0,1.835-0.562,3.324-1.683,4.466
			c-1.122,1.141-2.58,1.713-4.375,1.713c-1.59,0-3.956-0.306-7.097-0.917c-3.141-0.612-5.506-0.918-7.097-0.918
			c-9.177,0-17.885,0.835-26.123,2.508c-0.856,0.163-1.612,0.245-2.264,0.245c-3.957,0-5.934-1.734-5.934-5.2
			c0-2.039,1.019-3.997,3.059-5.874c10.646-9.625,22.228-24.614,34.75-44.966c-5.425,0.327-9.36,0.489-11.808,0.489
			c-6.036,0-12.235-0.468-18.598-1.407c-3.63-0.529-5.445-2.548-5.445-6.057c0-1.794,0.551-3.293,1.652-4.497
			c1.101-1.202,2.487-1.805,4.16-1.805c1.998,0,5.017,0.235,9.054,0.704c4.038,0.469,7.097,0.704,9.177,0.704
			c2.773,0,6.934-0.193,12.48-0.581c5.546-0.387,9.707-0.582,12.48-0.582c3.466,0,5.2,1.428,5.2,4.283
			C403.253,1282.392,401.703,1285.92,398.604,1289.672z"/>
		<path fill="#90C847" d="M444.12,1341.979c-9.218,0-16.682-2.305-22.392-6.913c-6.24-5.098-9.36-12.235-9.36-21.412
			c0-10.604,2.569-19.495,7.708-26.674c5.587-7.831,13.051-11.747,22.392-11.747c6.77,0,12.297,1.143,16.579,3.426
			c5.262,2.814,7.892,7.138,7.892,12.97c0,4.079-2.305,7.791-6.913,11.134c-2.04,1.468-6.362,3.753-12.97,6.852l-23.37,11.073
			c2.284,3.386,5.128,5.935,8.534,7.647c3.405,1.713,7.372,2.569,11.899,2.569c2.814,0,6.118-0.529,9.911-1.59
			c4.812-1.346,7.912-3.11,9.299-5.292c1.386-2.182,2.875-3.273,4.466-3.273c1.427,0,2.702,0.541,3.824,1.621
			c1.122,1.081,1.683,2.335,1.683,3.763c0,4.527-3.651,8.422-10.951,11.685C456.111,1340.592,450.033,1341.979,444.12,1341.979z
			 M442.468,1286.246c-4.977,0-9.116,1.927-12.419,5.781c-3.304,3.854-5.771,9.657-7.402,17.405l18.782-8.932
			c7.381-3.589,12.643-6.709,15.784-9.36C453.704,1287.877,448.79,1286.246,442.468,1286.246z"/>
	</g>
	<g>
		<path fill="#F1EB4D" d="M1462.471,1742.523c-2.244,0-3.814-0.754-4.711-2.264c-0.612-1.06-1.142-3.262-1.59-6.606
			c-3.059,0.774-7.77,2.202-14.132,4.282c-6.567,2.611-9.871,5.833-9.911,9.666c1.224,0.449,2.426,0.775,3.61,0.979
			c9.38,1.674,16.354,3.977,20.923,6.914c6.647,4.282,9.972,10.482,9.972,18.598c0,6.648-2.875,11.665-8.626,15.051
			c-4.771,2.772-10.808,4.16-18.108,4.16c-5.344,0-10.441-0.898-15.295-2.692c-6.281-2.284-9.421-5.466-9.421-9.544
			c0-1.631,0.643-3.059,1.927-4.283c1.285-1.223,2.742-1.834,4.374-1.834c1.264,0,2.896,0.979,4.895,2.936
			c0.979,0.939,3.181,1.713,6.607,2.325c2.732,0.489,5.037,0.733,6.914,0.733c3.426,0,6.443-0.406,9.054-1.223
			c3.793-1.183,5.689-3.059,5.689-5.629c0-5.546-3.875-9.299-11.624-11.257l-6.363-1.407c-5.425-1.182-9.279-2.569-11.563-4.16
			c-3.304-2.283-4.956-5.729-4.956-10.339c0-8.524,4.017-14.601,12.052-18.231c2.447-1.102,6.362-2.416,11.746-3.945
			s9.238-2.824,11.563-3.885c1.672-0.734,3.487-1.102,5.445-1.102c1.753,0,3.191,0.572,4.313,1.713
			c1.121,1.143,1.682,2.631,1.682,4.467c0,1.183,0.254,2.916,0.765,5.199c0.51,2.285,0.765,4.018,0.765,5.2
			c0,1.835-0.562,3.325-1.683,4.466C1465.662,1741.953,1464.224,1742.523,1462.471,1742.523z"/>
		<path fill="#F1EB4D" d="M1532.092,1753.903c0,2.937,0.021,7.341,0.062,13.214c0.04,5.873,0.062,10.278,0.062,13.215
			c0,0.898,0.07,2.264,0.214,4.1c0.143,1.835,0.214,3.201,0.214,4.099c0,1.753-0.592,3.19-1.773,4.313
			c-1.184,1.121-2.631,1.682-4.344,1.682c-3.142,0-5.139-1.938-5.996-5.812c-5.099,2.65-10.972,3.977-17.619,3.977
			c-5.343,0-9.769-1.184-13.275-3.548c-3.875-2.61-6.179-6.424-6.914-11.441c-1.59-10.807-2.386-20.434-2.386-28.876
			c0-5.587,0.612-11.95,1.835-19.087c0.571-3.549,2.508-5.323,5.812-5.323c1.753,0,3.221,0.562,4.405,1.683
			c1.182,1.122,1.774,2.561,1.774,4.313c0,1.877-0.296,4.875-0.887,8.994c-0.592,4.119-0.887,7.26-0.887,9.421
			c0,6.812,0.224,12.644,0.673,17.497c0.448,4.854,1.121,8.748,2.019,11.686c1.346,0.734,2.671,1.295,3.977,1.682
			c1.305,0.389,2.589,0.582,3.854,0.582c5.465,0,11.236-0.877,17.313-2.631l-0.062-12.42l-0.122-11.868
			c0-8.81,0.388-16.457,1.163-22.942c0.447-3.752,2.426-5.628,5.934-5.628c1.754,0,3.222,0.571,4.405,1.713
			c1.183,1.143,1.733,2.569,1.651,4.282L1532.092,1753.903z"/>
		<path fill="#F1EB4D" d="M1574.979,1793.485c-8.361,0-15.336-2.529-20.924-7.586c-5.873-5.302-8.809-12.297-8.809-20.984
			c0-8.278,2.752-16.823,8.258-25.634c6.119-9.788,13.011-14.683,20.68-14.683c3.996,0,8.462,0.938,13.397,2.814
			c6.24,2.407,9.36,5.343,9.36,8.81c0,1.551-0.511,2.927-1.529,4.129c-1.02,1.204-2.285,1.805-3.793,1.805
			c-1.184,0-2.213-0.355-3.09-1.07c-0.877-0.713-1.724-1.416-2.539-2.11c-2.406-1.917-6.342-2.876-11.807-2.876
			c-4.16,0-8.281,3.713-12.359,11.135c-3.711,6.813-5.566,12.705-5.566,17.681c0,5.384,1.835,9.626,5.506,12.726
			c3.426,2.896,7.831,4.344,13.215,4.344c2.447,0,5.057-0.652,7.83-1.958l7.098-3.793c1.223-0.651,2.1-0.979,2.631-0.979
			c1.508,0,2.813,0.603,3.914,1.805c1.102,1.204,1.652,2.58,1.652,4.131c0,2.977-3.141,5.853-9.422,8.625
			C1583.176,1792.262,1578.607,1793.485,1574.979,1793.485z"/>
		<path fill="#F1EB4D" d="M1662.892,1793.424c-2.896,0-4.793-1.55-5.689-4.648c-0.938-3.344-1.795-8.096-2.569-14.255
			c-0.734-5.913-1.102-10.768-1.102-14.561c0-1.06,0.051-2.671,0.153-4.833c0.101-2.162,0.153-3.772,0.153-4.834
			c0-7.666-1.918-11.501-5.752-11.501c-5.18,0-9.809,2.346-13.887,7.036c-2.08,2.406-4.936,6.994-8.564,13.765
			c0,15.539-0.653,24.737-1.959,27.591c-1.142,2.529-2.916,3.793-5.322,3.793c-1.672,0-3.141-0.57-4.404-1.713
			c-1.265-1.141-1.896-2.527-1.896-4.16c0-0.57,0.184-1.468,0.551-2.691c0.326-1.02,0.551-3.996,0.672-8.932l0.184-9.055
			l0.184-44.967c0.285-5.057,0.429-8.462,0.429-10.217c0-2.08-0.194-4.047-0.581-5.902c-0.389-1.855-0.581-3.783-0.581-5.782
			c0-1.713,0.591-3.13,1.774-4.251c1.182-1.122,2.631-1.684,4.344-1.684c3.344,0,5.301,1.796,5.873,5.385
			c0.651,3.956,0.979,7.524,0.979,10.705c0,4.283-0.144,8.749-0.428,13.398c-0.245,4.446-0.348,8.912-0.307,13.398l0.062,5.383
			c3.344-4.485,6.923-7.84,10.737-10.063c3.813-2.223,7.861-3.335,12.143-3.335c6.771,0,11.42,2.202,13.949,6.607
			c1.795,3.101,2.814,8.32,3.059,15.661l0.49,11.686l1.223,12.725c0.571,4.772,1.264,8.974,2.08,12.604
			c0.163,0.693,0.245,1.285,0.245,1.773c0,1.674-0.612,3.068-1.835,4.191C1666.073,1792.863,1664.605,1793.424,1662.892,1793.424z"
			/>
		<path fill="#F1EB4D" d="M1749.152,1793.485c-8.361,0-15.335-2.529-20.922-7.586c-5.873-5.302-8.811-12.297-8.811-20.984
			c0-8.278,2.754-16.823,8.26-25.634c6.117-9.788,13.01-14.683,20.678-14.683c3.997,0,8.463,0.938,13.398,2.814
			c6.24,2.407,9.36,5.343,9.36,8.81c0,1.551-0.511,2.927-1.53,4.129c-1.02,1.204-2.284,1.805-3.793,1.805
			c-1.183,0-2.213-0.355-3.089-1.07c-0.878-0.713-1.724-1.416-2.539-2.11c-2.407-1.917-6.343-2.876-11.808-2.876
			c-4.16,0-8.279,3.713-12.357,11.135c-3.712,6.813-5.567,12.705-5.567,17.681c0,5.384,1.835,9.626,5.506,12.726
			c3.426,2.896,7.831,4.344,13.214,4.344c2.447,0,5.058-0.652,7.832-1.958l7.096-3.793c1.225-0.651,2.101-0.979,2.631-0.979
			c1.509,0,2.814,0.603,3.916,1.805c1.102,1.204,1.651,2.58,1.651,4.131c0,2.977-3.142,5.853-9.421,8.625
			C1757.352,1792.262,1752.783,1793.485,1749.152,1793.485z"/>
		<path fill="#F1EB4D" d="M1808.803,1793.24c-6.853,0-12.746-2.529-17.682-7.586c-5.506-5.628-8.402-13.193-8.688-22.697
			c-0.244-9.217,2.08-17.333,6.975-24.349c5.71-8.278,13.663-12.419,23.859-12.419c8.157,0,14.336,3.732,18.537,11.195
			c3.344,6.037,4.956,13.297,4.834,21.779c-0.123,9.055-2.488,16.784-7.098,23.188
			C1824.32,1789.611,1817.407,1793.24,1808.803,1793.24z M1812.473,1738.608c-5.995-0.04-10.666,2.814-14.01,8.565
			c-2.651,4.609-3.977,9.871-3.977,15.783c0,5.914,1.611,10.523,4.833,13.826c2.692,2.733,5.853,4.1,9.483,4.1
			c4.24,0,7.892-1.549,10.95-4.649c3.466-3.427,5.302-8.055,5.507-13.888C1825.83,1746.562,1821.567,1738.649,1812.473,1738.608z"/>
		<path fill="#F1EB4D" d="M1898.674,1793.975c-3.509,0-5.486-1.917-5.936-5.75l-1.713-13.398c-0.571-4.771-0.855-9.238-0.855-13.398
			c0-1.141,0.07-3.078,0.214-5.812c0.142-2.731,0.214-4.67,0.214-5.812c0-8.811-1.632-13.215-4.895-13.215
			c-4.568,0-8.932,2.713-13.092,8.137c-3.753,4.936-6.689,11.176-8.81,18.721c-0.083,1.59-0.267,3.59-0.551,5.995
			c-0.245,2.04-0.367,4.018-0.367,5.935c0,1.224,0.122,3.059,0.367,5.506s0.367,4.283,0.367,5.506c0,1.836-0.562,3.324-1.683,4.467
			c-1.122,1.141-2.561,1.713-4.313,1.713c-1.796,0-3.243-0.572-4.344-1.713c-1.102-1.143-1.652-2.631-1.652-4.467
			c0-1.223-0.133-3.059-0.397-5.506c-0.266-2.447-0.397-4.282-0.397-5.506c0-4.201,0.295-10.023,0.887-17.467
			c0.591-7.442,0.887-13.266,0.887-17.467c0-1.305-0.071-3.242-0.214-5.812c-0.144-2.569-0.214-4.506-0.214-5.812
			c0-1.754,0.581-3.191,1.744-4.313c1.162-1.121,2.6-1.683,4.313-1.683c3.752,0,5.813,2.652,6.18,7.953l0.183,7.158
			c6.853-9.136,13.888-13.704,21.106-13.704c6.525,0,11.074,2.876,13.643,8.626c1.754,3.834,2.713,9.504,2.876,17.008v6.18
			l-0.062,5.689c0,3.385,0.438,7.76,1.315,13.123c0.877,5.363,1.315,9.717,1.315,13.061c0,1.795-0.581,3.252-1.744,4.375
			C1901.885,1793.414,1900.426,1793.975,1898.674,1793.975z"/>
	</g>
	<g enable-background="new    ">
		<circle fill="#FFFFFF" cx="1574.121" cy="782.391" r="72.047"/>
		<g>
			<defs>
				<rect id="SVGID_6_" x="1501.465" y="710.178" width="145.166" height="144.426"/>
			</defs>
			<clipPath id="SVGID_7_">
				<use xlink:href="#SVGID_6_"  overflow="visible"/>
			</clipPath>
			<g clip-path="url(#SVGID_7_)">
				<defs>
					<circle id="SVGID_8_" cx="1574.121" cy="782.391" r="72.047"/>
				</defs>
				<clipPath id="SVGID_9_">
					<use xlink:href="#SVGID_8_"  overflow="visible"/>
				</clipPath>
				<g clip-path="url(#SVGID_9_)">
					<defs>
						<rect id="SVGID_10_" x="628.243" y="161.36" width="1666.453" height="1666.45"/>
					</defs>
					<clipPath id="SVGID_11_">
						<use xlink:href="#SVGID_10_"  overflow="visible"/>
					</clipPath>
					<circle clip-path="url(#SVGID_11_)" fill="#838383" cx="1590.563" cy="784.555" r="55.604"/>
					<path clip-path="url(#SVGID_11_)" fill="#31333E" d="M1635.002,785.612c0,25.462-20.643,46.105-46.104,46.105
						c-25.467,0-46.106-20.643-46.106-46.105c0-25.463,20.64-46.105,46.106-46.105
						C1614.359,739.506,1635.002,760.149,1635.002,785.612z"/>
					<path clip-path="url(#SVGID_11_)" fill="#FFFFFF" d="M1636.391,752.948c1.77,13.445-7.695,25.778-21.139,27.546
						c-13.441,1.77-25.775-7.692-27.547-21.137c-1.77-13.445,7.697-25.778,21.137-27.546
						C1622.287,730.041,1634.621,739.504,1636.391,752.948z"/>
				</g>
			</g>
		</g>
		
			<circle fill="none" stroke="#31333E" stroke-width="5" stroke-linecap="round" stroke-miterlimit="10" cx="1574.121" cy="782.391" r="72.047"/>
		<path fill="#FFFFFF" d="M1322.2,751.987c0,39.789-32.255,72.045-72.045,72.045c-39.789,0-72.045-32.256-72.045-72.045
			c0-39.793,32.256-72.048,72.045-72.048C1289.945,679.939,1322.2,712.194,1322.2,751.987z"/>
		<g>
			<defs>
				<rect id="SVGID_12_" x="1177.479" y="679.42" width="145.167" height="145.167"/>
			</defs>
			<clipPath id="SVGID_13_">
				<use xlink:href="#SVGID_12_"  overflow="visible"/>
			</clipPath>
			<g clip-path="url(#SVGID_13_)">
				<defs>
					<path id="SVGID_14_" d="M1322.2,751.987c0,39.789-32.255,72.045-72.045,72.045c-39.789,0-72.045-32.256-72.045-72.045
						c0-39.793,32.256-72.048,72.045-72.048C1289.945,679.939,1322.2,712.194,1322.2,751.987z"/>
				</defs>
				<clipPath id="SVGID_15_">
					<use xlink:href="#SVGID_14_"  overflow="visible"/>
				</clipPath>
				<g clip-path="url(#SVGID_15_)">
					<defs>
						<rect id="SVGID_16_" x="604.96" y="124.677" width="1666.454" height="1666.449"/>
					</defs>
					<clipPath id="SVGID_17_">
						<use xlink:href="#SVGID_16_"  overflow="visible"/>
					</clipPath>
					<circle clip-path="url(#SVGID_17_)" fill="#838383" cx="1267.486" cy="753.153" r="55.605"/>
					<circle clip-path="url(#SVGID_17_)" fill="#31333E" cx="1265.764" cy="754.208" r="46.105"/>
					<path clip-path="url(#SVGID_17_)" fill="#FFFFFF" d="M1311.921,712.136c1.771,13.444-7.693,25.778-21.137,27.549
						c-13.443,1.768-25.778-7.695-27.548-21.138c-1.769-13.444,7.696-25.778,21.14-27.548
						C1297.818,689.229,1310.151,698.694,1311.921,712.136z"/>
				</g>
			</g>
		</g>
		<path fill="none" stroke="#31333E" stroke-width="5" stroke-linecap="round" stroke-miterlimit="10" d="M1322.2,751.987
			c0,39.789-32.255,72.045-72.045,72.045c-39.789,0-72.045-32.256-72.045-72.045c0-39.793,32.256-72.048,72.045-72.048
			C1289.945,679.939,1322.2,712.194,1322.2,751.987z"/>
	</g>
	<g>
		<path fill="#BC9C6A" d="M2490.73,1524.41c-3.182,13.297-7.342,28.326-12.48,45.089c-1.143,3.712-3.039,7.524-5.689,11.44
			c-1.428,2.161-3.365,3.221-5.813,3.182c-4.445-0.083-7.912-5.607-10.4-16.58c-0.816-3.508-1.651-8.279-2.508-14.315l-2.02-13.644
			l-5.016,11.686l-9.299,25.267c-0.531,1.551-1.307,2.732-2.325,3.548c-1.224,2.365-3.182,3.59-5.874,3.672
			c-3.1,0.122-6.098-5.955-8.992-18.231c-1.469-6.321-2.938-14.887-4.405-25.695l-1.468-9.177c-0.531-3.67-0.796-6.75-0.796-9.238
			c0-1.713,0.602-3.129,1.805-4.252c1.202-1.121,2.661-1.682,4.374-1.682c3.1,0,5.018,1.693,5.752,5.078
			c0.529,2.406,0.957,5.383,1.284,8.932l0.917,8.993l3.609,27.47c4.527-12.563,9.218-27.041,14.072-43.438
			c1.346-4.527,3.69-6.791,7.035-6.791c3.221,0,5.404,2.529,6.546,7.586c1.06,4.772,2.386,12.113,3.977,22.025
			c1.631,10.277,3.079,18.291,4.344,24.043l4.466-16.641l7.893-33.343c0.611-2.487,2.365-3.731,5.261-3.731
			c1.714,0,3.202,0.581,4.466,1.743c1.264,1.163,1.896,2.56,1.896,4.19C2491.342,1521.801,2491.138,1522.738,2490.73,1524.41z"/>
		<path fill="#BC9C6A" d="M2526.152,1582.774c-6.852,0-12.746-2.529-17.68-7.586c-5.506-5.628-8.402-13.193-8.688-22.697
			c-0.245-9.217,2.08-17.333,6.975-24.349c5.709-8.279,13.662-12.42,23.859-12.42c8.156,0,14.336,3.732,18.537,11.195
			c3.344,6.037,4.955,13.297,4.832,21.78c-0.121,9.054-2.488,16.784-7.096,23.187
			C2541.671,1579.145,2534.758,1582.774,2526.152,1582.774z M2529.823,1528.143c-5.995-0.041-10.666,2.814-14.01,8.564
			c-2.651,4.609-3.977,9.871-3.977,15.784c0,5.914,1.61,10.522,4.833,13.826c2.691,2.733,5.852,4.099,9.482,4.099
			c4.242,0,7.893-1.549,10.951-4.648c3.467-3.427,5.302-8.055,5.506-13.889C2543.18,1536.096,2538.918,1528.184,2529.823,1528.143z"
			/>
		<path fill="#BC9C6A" d="M2642.33,1524.41c-3.181,13.297-7.341,28.326-12.48,45.089c-1.142,3.712-3.038,7.524-5.689,11.44
			c-1.428,2.161-3.364,3.221-5.812,3.182c-4.446-0.083-7.913-5.607-10.4-16.58c-0.816-3.508-1.651-8.279-2.509-14.315l-2.019-13.644
			l-5.017,11.686l-9.299,25.267c-0.531,1.551-1.307,2.732-2.324,3.548c-1.225,2.365-3.182,3.59-5.874,3.672
			c-3.1,0.122-6.098-5.955-8.993-18.231c-1.469-6.321-2.937-14.887-4.404-25.695l-1.469-9.177c-0.53-3.67-0.795-6.75-0.795-9.238
			c0-1.713,0.602-3.129,1.805-4.252c1.202-1.121,2.661-1.682,4.374-1.682c3.099,0,5.017,1.693,5.751,5.078
			c0.529,2.406,0.957,5.383,1.285,8.932l0.917,8.993l3.609,27.47c4.527-12.563,9.218-27.041,14.071-43.438
			c1.346-4.527,3.691-6.791,7.035-6.791c3.222,0,5.404,2.529,6.547,7.586c1.06,4.772,2.385,12.113,3.977,22.025
			c1.631,10.277,3.078,18.291,4.344,24.043l4.465-16.641l7.893-33.343c0.611-2.487,2.365-3.731,5.262-3.731
			c1.713,0,3.201,0.581,4.466,1.743c1.264,1.163,1.896,2.56,1.896,4.19C2642.942,1521.801,2642.738,1522.738,2642.33,1524.41z"/>
		<path fill="#BC9C6A" d="M2745.416,1579.287c-1.02,0-2.457-0.314-4.313-0.947c-1.856-0.633-3.273-0.949-4.252-0.949
			c-2.08,0-5.2,0.123-9.36,0.367s-7.302,0.367-9.421,0.367c-1.592,0-3.947,0.205-7.066,0.611c-3.121,0.408-5.477,0.612-7.066,0.612
			c-0.449,0-1.102-0.082-1.958-0.245c-0.856-0.162-1.509-0.244-1.958-0.244c-2.813,0-4.648-1.366-5.506-4.1
			c-0.489-1.427-0.734-3.874-0.734-7.341c0-9.503,2.59-17.15,7.77-22.942c2.365-2.65,8.749-7.545,19.149-14.683
			c5.832-3.997,9.728-7.116,11.685-9.36c3.508-3.915,5.262-8.504,5.262-13.766c0-2.609-1.693-4.934-5.078-6.974
			c-2.977-1.835-5.894-2.753-8.748-2.753c-3.753,0-7.321,1.081-10.706,3.242l-8.749,6.852c-1.754,1.388-3.16,2.08-4.221,2.08
			c-4.201,0-6.302-1.672-6.302-5.016c0-1.917,0.774-3.569,2.325-4.956c4.771-4.486,8.91-7.729,12.419-9.727
			c4.935-2.814,10.013-4.222,15.233-4.222c6.607,0,12.5,1.795,17.681,5.384c5.791,4.038,8.688,9.218,8.688,15.54
			c0,4.16-0.592,7.994-1.774,11.501c-1.184,3.509-2.978,6.71-5.384,9.605c-3.059,3.671-8.239,7.77-15.539,12.297
			c-7.669,4.813-12.705,8.463-15.111,10.951c-4.526,4.69-6.751,10.38-6.669,17.068l12.604-1.162
			c8.646-0.49,14.825-0.734,18.537-0.734c3.1,0,6.035,0.531,8.81,1.591c3.671,1.429,5.506,3.405,5.506,5.935
			c0,1.59-0.55,3.008-1.651,4.252S2747.047,1579.287,2745.416,1579.287z"/>
		<path fill="#BC9C6A" d="M2797.602,1581.551c-12.399,0-21.454-5.668-27.164-17.008c-4.323-8.727-6.484-20.086-6.484-34.076
			c0-11.827,2.814-22.146,8.442-30.956c6.647-10.318,15.683-15.478,27.103-15.478c10.727,0,19.088,4.568,25.083,13.704
			c5.179,7.913,7.77,17.559,7.77,28.938c0,18.272-2.896,31.986-8.688,41.143C2817.871,1576.973,2809.184,1581.551,2797.602,1581.551
			z M2799.437,1495.84c-7.586,0-13.603,3.854-18.048,11.563c-3.711,6.445-5.566,13.807-5.566,22.086
			c0,13.419,1.814,23.492,5.444,30.223c3.63,6.729,9.074,10.094,16.335,10.094c8.646,0,14.846-4.935,18.598-14.805
			c2.609-6.853,3.916-15.539,3.916-26.063c0-11.053-1.725-19.332-5.17-24.838C2811.498,1498.593,2806.328,1495.84,2799.437,1495.84z
			"/>
		<path fill="#BC9C6A" d="M2879.764,1579.227h-12.174l-12.113-0.062c-2.855,0-4.854-0.184-5.996-0.551
			c-2.08-0.733-3.12-2.284-3.12-4.649c0-4.119,3.202-6.18,9.604-6.18l2.938,0.063l2.508,0.121c0-1.957-0.174-4.853-0.52-8.687
			c-0.348-3.833-0.52-6.709-0.52-8.626c0-5.18,0.468-13.051,1.406-23.615c0.896-10.4,1.325-18.293,1.285-23.676
			c-5.467,4.242-8.953,6.362-10.462,6.362c-1.632,0-3.05-0.612-4.252-1.835c-1.203-1.225-1.805-2.631-1.805-4.222
			c0-1.917,1.753-4.241,5.261-6.975c2.203-1.549,5.323-4.038,9.361-7.463c3.588-3.63,7.014-5.445,10.277-5.445
			c2.732,0,4.1,1.57,4.1,4.71c0,0.939-0.123,2.335-0.367,4.191c-0.245,1.856-0.367,3.253-0.367,4.19c0,1.346,0.07,3.386,0.214,6.118
			c0.143,2.732,0.214,4.771,0.214,6.117c0,4.65-0.489,11.584-1.468,20.801c-0.979,9.219-1.468,16.131-1.468,20.74
			c0,2.365,0.162,5.24,0.488,8.626s0.51,6.159,0.551,8.32l6.424-0.122c1.713,0,3.13,0.561,4.252,1.682
			c1.121,1.123,1.683,2.52,1.683,4.191c0,1.713-0.562,3.119-1.683,4.221C2882.894,1578.676,2881.477,1579.227,2879.764,1579.227z"/>
		<path fill="#BC9C6A" d="M2930.664,1582.469c-8.605,0-15.56-1.877-20.861-5.629c-6.037-4.241-9.115-10.461-9.238-18.659
			c-0.163-13.173,4.467-22.146,13.888-26.919c-7.26-4.404-10.89-10.664-10.89-18.781c0-7.709,2.793-14.111,8.381-19.21
			c5.344-4.894,11.828-7.381,19.455-7.464c17.131-0.163,25.695,8.3,25.695,25.389c0,4.895-0.979,8.668-2.937,11.318
			c-1.591,2.203-4.671,4.467-9.237,6.791c6.076,3.059,10.338,6.362,12.785,9.91c2.855,4.16,4.283,9.892,4.283,17.191
			c0,8.32-3.08,14.847-9.238,19.578C2947.039,1580.307,2939.678,1582.469,2930.664,1582.469z M2930.114,1535.484
			c-6.485,3.018-10.809,5.628-12.97,7.83c-3.387,3.386-4.977,8.158-4.772,14.316c0.163,5.098,2.509,8.911,7.036,11.439
			c3.303,1.795,7.055,2.691,11.256,2.691c7.179,0,12.195-1.691,15.051-5.077c2.283-2.692,3.426-6.77,3.426-12.235
			c0-5.343-2.08-9.646-6.24-12.908C2940.127,1539.298,2935.865,1537.279,2930.114,1535.484z M2931.215,1496.758
			c-5.261,0-9.279,1.489-12.052,4.466c-2.488,2.774-3.712,6.526-3.671,11.257c0.041,5.711,4.73,9.769,14.071,12.175
			c4.894-1.427,8.401-2.854,10.522-4.282c3.385-2.284,5.078-5.344,5.078-9.178c0-5.546-1.244-9.441-3.732-11.685
			C2939.311,1497.675,2935.904,1496.758,2931.215,1496.758z"/>
	</g>
	<g>
		<g>
			<path fill="#97D2B1" d="M2284.176,804.249c-3.508,0-5.486-1.917-5.935-5.751l-1.713-13.398
				c-0.571-4.772-0.856-9.238-0.856-13.398c0-1.142,0.07-3.079,0.215-5.812c0.142-2.732,0.213-4.67,0.213-5.812
				c0-8.81-1.631-13.214-4.894-13.214c-4.568,0-8.933,2.713-13.093,8.137c-3.752,4.935-6.689,11.175-8.809,18.72
				c-0.083,1.591-0.267,3.59-0.551,5.996c-0.245,2.04-0.367,4.018-0.367,5.935c0,1.224,0.122,3.059,0.367,5.506
				c0.244,2.447,0.367,4.283,0.367,5.506c0,1.835-0.562,3.324-1.684,4.466c-1.121,1.141-2.56,1.713-4.313,1.713
				c-1.795,0-3.242-0.572-4.344-1.713c-1.102-1.143-1.652-2.631-1.652-4.466c0-1.223-0.133-3.059-0.396-5.506
				c-0.266-2.447-0.398-4.282-0.398-5.506c0-4.201,0.295-10.023,0.887-17.467c0.592-7.442,0.888-13.265,0.888-17.466
				c0-1.305-0.071-3.242-0.214-5.812c-0.144-2.569-0.215-4.506-0.215-5.812c0-1.753,0.582-3.19,1.744-4.313
				c1.162-1.121,2.6-1.682,4.313-1.682c3.752,0,5.813,2.651,6.18,7.953l0.184,7.158c6.852-9.136,13.887-13.704,21.106-13.704
				c6.524,0,11.073,2.875,13.643,8.626c1.753,3.834,2.712,9.503,2.876,17.007v6.179l-0.062,5.689c0,3.386,0.438,7.76,1.315,13.123
				c0.877,5.363,1.314,9.718,1.314,13.062c0,1.794-0.58,3.252-1.743,4.374C2287.388,803.688,2285.929,804.249,2284.176,804.249z"/>
			<path fill="#97D2B1" d="M2325.777,803.515c-6.852,0-12.746-2.529-17.681-7.586c-5.506-5.628-8.402-13.193-8.688-22.697
				c-0.245-9.217,2.08-17.333,6.975-24.349c5.71-8.279,13.663-12.419,23.859-12.419c8.157,0,14.336,3.732,18.537,11.195
				c3.344,6.037,4.956,13.297,4.833,21.78c-0.122,9.054-2.488,16.784-7.097,23.187
				C2341.295,799.885,2334.383,803.515,2325.777,803.515z M2329.447,748.882c-5.994-0.04-10.666,2.814-14.01,8.565
				c-2.65,4.609-3.977,9.871-3.977,15.784c0,5.914,1.611,10.523,4.834,13.826c2.691,2.733,5.852,4.099,9.482,4.099
				c4.241,0,7.893-1.549,10.951-4.649c3.466-3.426,5.301-8.055,5.506-13.888C2342.805,756.835,2338.543,748.923,2329.447,748.882z"
				/>
			<path fill="#97D2B1" d="M2421.705,751.819l-0.918,30.406c0,3.223-0.164,7.953-0.489,14.193c-0.408,4.078-2.407,6.118-5.995,6.118
				c-3.998,0-5.996-2.08-5.996-6.24c0-4.935,0.224-12.348,0.673-22.238c0.448-9.89,0.673-17.303,0.673-22.239
				c0-6.444,0.102-13.815,0.307-22.116c0.203-8.299,0.305-15.671,0.305-22.116c0-4.078,1.998-6.118,5.996-6.118
				c4.038,0,6.057,2.04,6.057,6.118c0,6.445-0.102,13.817-0.306,22.116C2421.807,738.003,2421.705,745.375,2421.705,751.819z"/>
			<path fill="#97D2B1" d="M2488.268,803.943c-0.775,0-2.184-0.897-4.222-2.692c-1.835-1.672-3.202-3.16-4.099-4.466
				c-3.916,2.121-7.363,3.721-10.34,4.803c-2.978,1.08-5.466,1.621-7.463,1.621c-9.545,0-16.498-2.692-20.862-8.076
				c-4.12-5.057-6.179-12.806-6.179-23.248c0-9.87,3.395-18.313,10.186-25.328c6.791-7.015,14.896-10.522,24.318-10.522
				c3.549,0,7.525,0.917,11.93,2.753c5.547,2.285,8.32,5.038,8.32,8.259c0,1.102-0.408,2.08-1.223,2.937
				c-0.408,1.55-0.725,4.099-0.949,7.647s-0.357,8.097-0.397,13.643c-0.041,5.058,0.306,9.054,1.04,11.991
				c0.407,1.795,1.691,5.384,3.854,10.768c0.284,0.734,0.754,1.815,1.407,3.242l0.367,1.04c0,1.631-0.572,2.977-1.713,4.038
				C2491.102,803.413,2489.775,803.943,2488.268,803.943z M2475.542,761.424c0-1.753,0.112-3.66,0.337-5.72
				c0.223-2.059,0.56-4.252,1.009-6.577c-1.509-0.774-2.805-1.346-3.885-1.713c-1.081-0.367-1.948-0.55-2.601-0.55
				c-6.322,0-11.776,2.58-16.365,7.739c-4.588,5.16-6.882,11.104-6.882,17.833c0,6.689,1.183,11.706,3.548,15.05
				c2.365,3.345,5.914,5.017,10.646,5.017c3.915,0,7.239-0.713,9.972-2.141c1.469-0.774,3.527-2.325,6.18-4.649
				C2476.193,774.904,2475.542,766.808,2475.542,761.424z"/>
			<path fill="#97D2B1" d="M2582.298,804.983c-3.345,0-5.302-1.774-5.873-5.322c-0.733-4.486-1.468-10.808-2.202-18.965
				l-2.08-18.965c-0.408-2.814-1.102-5.567-2.08-8.259c-1.387-3.67-2.896-5.506-4.527-5.506c-1.51,0-4.324,1.285-8.442,3.854
				c-3.915,2.366-6.485,4.263-7.708,5.69c-0.042,3.834,0.061,7.668,0.305,11.501l1.836,16.334
				c0.774,6.445,1.162,11.768,1.162,15.968c0,1.794-0.561,3.273-1.682,4.436c-1.123,1.162-2.561,1.743-4.313,1.743
				c-1.755,0-3.192-0.581-4.313-1.743c-1.122-1.163-1.682-2.642-1.682-4.436c0-4.935-0.5-12.225-1.5-21.872
				c-1-9.645-1.498-16.936-1.498-21.871c0-4.323-0.611-7.688-1.836-10.094c-2.855,1.306-5.75,3.426-8.688,6.362l-7.219,8.076
				c-0.652,0.979-1.693,2.264-3.12,3.854c0,2.447-0.225,6.057-0.673,10.829c-0.449,4.772-0.673,8.3-0.673,10.584
				c0,1.224,0.192,2.937,0.581,5.139c0.387,2.202,0.582,3.793,0.582,4.772c0,1.672-0.623,3.079-1.867,4.221
				c-1.244,1.141-2.701,1.713-4.373,1.713c-4.609,0-6.914-5.24-6.914-15.723c0-2.447,0.225-6.097,0.674-10.951
				c0.447-4.853,0.672-8.504,0.672-10.951c0-2.162-0.193-5.404-0.58-9.728c-0.389-4.323-0.582-7.586-0.582-9.789
				c0-9.258,2.08-13.888,6.24-13.888c1.591,0,3.049,0.694,4.375,2.08c1.324,1.387,1.988,2.896,1.988,4.527
				c0,0.775-0.104,1.979-0.307,3.609c-0.205,1.632-0.306,2.875-0.306,3.732l0.122,6.424c2.121-4.364,5.24-8.31,9.36-11.838
				c4.119-3.527,7.626-5.292,10.522-5.292c6.403,0,10.809,3.181,13.215,9.544c2.242-2.977,4.914-5.21,8.015-6.699
				c3.099-1.488,6.647-2.233,10.646-2.233c6.811,0,11.46,3.67,13.948,11.012c0.489,1.468,1.325,7.199,2.509,17.191
				c1.141,7.016,2.609,18.701,4.404,35.055c0.122,1.631-0.428,3.018-1.652,4.16C2585.541,804.412,2584.051,804.983,2582.298,804.983
				z"/>
			<path fill="#97D2B1" d="M2630.507,802.475c-6.24,0-11.909-1.224-17.008-3.67c-1.306,1.958-2.896,2.937-4.772,2.937
				c-1.55,0-2.865-0.541-3.945-1.621c-1.081-1.081-1.621-2.437-1.621-4.068c0-1.061,0.051-2.631,0.152-4.711s0.153-3.65,0.153-4.711
				c0-4.322-0.112-10.798-0.337-19.424c-0.225-8.626-0.336-15.101-0.336-19.424c0-2.977,0.02-8.616,0.061-16.916
				c0.041-8.299,0.062-13.958,0.062-16.977c0-2.447,0.51-4.649,1.53-6.607c1.346-2.487,3.201-3.732,5.566-3.732
				c3.059,0,4.589,1.774,4.589,5.322c0,0.572-0.103,1.407-0.306,2.508c-0.205,1.102-0.307,1.938-0.307,2.508l-0.184,13.398
				l-0.122,15.601c3.548-2.406,6.923-4.211,10.125-5.415c3.202-1.203,6.21-1.805,9.024-1.805c8.768,0,15.885,3.365,21.351,10.094
				c5.14,6.323,7.708,14.092,7.708,23.309c0,9.299-2.997,17.191-8.992,23.676C2646.902,799.232,2639.439,802.475,2630.507,802.475z
				 M2632.832,747.23c-3.346,0-6.771,0.939-10.278,2.814c-1.714,0.938-4.649,2.958-8.81,6.057l-0.123,10.584l0.062,9.543
				l0.062,10.034c1.957,0.897,4.711,2.04,8.259,3.426c2.528,0.775,5.362,1.163,8.504,1.163c5.913,0,10.767-2.08,14.561-6.24
				c3.793-4.16,5.689-9.339,5.689-15.54c0-6.077-1.529-11.154-4.589-15.233C2642.865,749.433,2638.419,747.23,2632.832,747.23z"/>
			<path fill="#97D2B1" d="M2699.211,803.515c-6.853,0-12.746-2.529-17.682-7.586c-5.506-5.628-8.402-13.193-8.688-22.697
				c-0.244-9.217,2.08-17.333,6.975-24.349c5.71-8.279,13.663-12.419,23.859-12.419c8.157,0,14.336,3.732,18.537,11.195
				c3.344,6.037,4.956,13.297,4.834,21.78c-0.123,9.054-2.488,16.784-7.098,23.187
				C2714.729,799.885,2707.815,803.515,2699.211,803.515z M2702.881,748.882c-5.995-0.04-10.666,2.814-14.01,8.565
				c-2.651,4.609-3.977,9.871-3.977,15.784c0,5.914,1.611,10.523,4.833,13.826c2.692,2.733,5.853,4.099,9.483,4.099
				c4.24,0,7.892-1.549,10.95-4.649c3.466-3.426,5.302-8.055,5.507-13.888C2716.238,756.835,2711.976,748.923,2702.881,748.882z"/>
			<path fill="#97D2B1" d="M2815.388,745.15c-3.181,13.297-7.341,28.326-12.48,45.089c-1.142,3.711-3.038,7.525-5.689,11.44
				c-1.429,2.161-3.364,3.221-5.812,3.181c-4.446-0.083-7.914-5.607-10.4-16.58c-0.816-3.507-1.652-8.279-2.509-14.315
				l-2.019-13.643l-5.018,11.685l-9.299,25.267c-0.53,1.551-1.306,2.732-2.324,3.548c-1.224,2.365-3.182,3.589-5.873,3.671
				c-3.1,0.123-6.098-5.955-8.994-18.231c-1.468-6.322-2.936-14.887-4.404-25.695l-1.469-9.177c-0.529-3.67-0.795-6.75-0.795-9.238
				c0-1.713,0.602-3.13,1.805-4.252c1.203-1.121,2.662-1.682,4.375-1.682c3.099,0,5.016,1.693,5.75,5.078
				c0.529,2.407,0.958,5.384,1.285,8.932l0.918,8.993l3.609,27.469c4.527-12.562,9.217-27.041,14.07-43.437
				c1.346-4.527,3.691-6.791,7.036-6.791c3.222,0,5.403,2.529,6.546,7.586c1.061,4.772,2.386,12.113,3.977,22.024
				c1.631,10.278,3.079,18.292,4.344,24.043l4.466-16.641l7.892-33.342c0.612-2.487,2.365-3.732,5.262-3.732
				c1.713,0,3.201,0.582,4.467,1.744c1.264,1.163,1.896,2.56,1.896,4.191C2816,742.541,2815.795,743.479,2815.388,745.15z"/>
		</g>
	</g>
	<g>
		<path fill="#E72E2B" d="M2210.441,1139.125c-6.852,0-12.746-2.529-17.68-7.586c-5.506-5.628-8.402-13.193-8.688-22.697
			c-0.245-9.217,2.08-17.333,6.975-24.349c5.709-8.279,13.662-12.419,23.859-12.419c8.156,0,14.336,3.732,18.537,11.195
			c3.344,6.037,4.955,13.297,4.832,21.78c-0.121,9.054-2.488,16.784-7.096,23.187
			C2225.96,1135.496,2219.047,1139.125,2210.441,1139.125z M2214.112,1084.493c-5.995-0.04-10.666,2.814-14.01,8.565
			c-2.651,4.609-3.977,9.871-3.977,15.784c0,5.914,1.61,10.523,4.833,13.826c2.691,2.733,5.852,4.099,9.482,4.099
			c4.242,0,7.893-1.549,10.951-4.649c3.467-3.426,5.302-8.055,5.506-13.888C2227.469,1092.446,2223.207,1084.534,2214.112,1084.493z
			"/>
		<path fill="#E72E2B" d="M2300.313,1139.859c-3.508,0-5.485-1.917-5.934-5.751l-1.713-13.398
			c-0.572-4.772-0.857-9.238-0.857-13.398c0-1.142,0.071-3.079,0.215-5.812c0.143-2.732,0.214-4.67,0.214-5.812
			c0-8.81-1.632-13.214-4.894-13.214c-4.568,0-8.933,2.713-13.093,8.137c-3.753,4.935-6.689,11.175-8.81,18.72
			c-0.082,1.591-0.266,3.59-0.551,5.996c-0.244,2.04-0.367,4.018-0.367,5.935c0,1.224,0.123,3.059,0.367,5.506
			s0.367,4.283,0.367,5.506c0,1.835-0.561,3.324-1.683,4.466c-1.122,1.141-2.56,1.713-4.313,1.713c-1.795,0-3.242-0.572-4.344-1.713
			c-1.101-1.143-1.651-2.631-1.651-4.466c0-1.223-0.133-3.059-0.397-5.506c-0.266-2.447-0.398-4.282-0.398-5.506
			c0-4.201,0.296-10.023,0.888-17.467c0.591-7.442,0.888-13.265,0.888-17.466c0-1.305-0.072-3.242-0.215-5.812
			c-0.143-2.569-0.214-4.506-0.214-5.812c0-1.753,0.581-3.19,1.743-4.313c1.162-1.121,2.601-1.682,4.313-1.682
			c3.752,0,5.812,2.651,6.179,7.953l0.184,7.158c6.852-9.136,13.888-13.704,21.107-13.704c6.524,0,11.072,2.875,13.643,8.626
			c1.752,3.834,2.711,9.503,2.875,17.007v6.179l-0.061,5.689c0,3.386,0.438,7.76,1.314,13.123c0.877,5.363,1.315,9.718,1.315,13.062
			c0,1.794-0.581,3.252-1.743,4.374C2303.525,1139.298,2302.066,1139.859,2300.313,1139.859z"/>
		<path fill="#E72E2B" d="M2334.512,1087.429l-0.918,30.406c0,3.223-0.163,7.953-0.488,14.193c-0.408,4.078-2.408,6.118-5.996,6.118
			c-3.998,0-5.996-2.08-5.996-6.24c0-4.935,0.225-12.348,0.674-22.238c0.447-9.89,0.673-17.303,0.673-22.239
			c0-6.444,0.101-13.815,0.306-22.116c0.203-8.299,0.306-15.671,0.306-22.116c0-4.078,1.998-6.118,5.995-6.118
			c4.039,0,6.057,2.04,6.057,6.118c0,6.445-0.102,13.817-0.305,22.116C2334.613,1073.614,2334.512,1080.985,2334.512,1087.429z"/>
		<path fill="#E72E2B" d="M2406.641,1080.944l-21.168,45.762c-5.221,11.134-9.217,20.454-11.99,27.958l-4.038,11.869
			c-1.062,2.937-2.896,4.405-5.506,4.405c-1.713,0-3.192-0.561-4.436-1.683c-1.245-1.122-1.866-2.519-1.866-4.19
			c0-4.079,4.405-15.886,13.215-35.422l-21.902-42.152l-2.752-4.466c-1.102-1.875-1.652-3.446-1.652-4.71
			c0-1.672,0.643-3.14,1.928-4.405c1.284-1.264,2.722-1.897,4.313-1.897c1.875,0,3.324,0.714,4.344,2.142
			c6.934,9.626,14.377,23.33,22.33,41.112l9.055-21.106c3.262-7.3,6.402-13.582,9.421-18.843c1.306-2.284,3.019-3.426,5.14-3.426
			c1.672,0,3.15,0.592,4.436,1.774c1.284,1.184,1.926,2.591,1.926,4.222C2407.436,1078.783,2407.17,1079.803,2406.641,1080.944z"/>
		<path fill="#E72E2B" d="M2529.182,1080.761c-3.182,13.297-7.342,28.326-12.48,45.089c-1.143,3.711-3.039,7.525-5.689,11.44
			c-1.428,2.161-3.365,3.221-5.813,3.181c-4.445-0.083-7.912-5.607-10.4-16.58c-0.816-3.507-1.651-8.279-2.508-14.315l-2.02-13.643
			l-5.016,11.685l-9.299,25.267c-0.531,1.551-1.307,2.732-2.325,3.548c-1.224,2.365-3.182,3.589-5.874,3.671
			c-3.1,0.123-6.098-5.955-8.992-18.231c-1.469-6.322-2.938-14.887-4.405-25.695l-1.468-9.177c-0.531-3.67-0.796-6.75-0.796-9.238
			c0-1.713,0.602-3.13,1.805-4.252c1.202-1.121,2.661-1.682,4.374-1.682c3.1,0,5.018,1.693,5.752,5.078
			c0.529,2.407,0.957,5.384,1.284,8.932l0.917,8.993l3.609,27.469c4.527-12.562,9.218-27.041,14.072-43.437
			c1.346-4.527,3.69-6.791,7.035-6.791c3.221,0,5.404,2.529,6.546,7.586c1.06,4.772,2.386,12.113,3.977,22.024
			c1.631,10.278,3.079,18.292,4.344,24.043l4.466-16.641l7.893-33.342c0.611-2.487,2.365-3.732,5.261-3.732
			c1.714,0,3.202,0.582,4.466,1.744c1.264,1.163,1.896,2.56,1.896,4.191C2529.793,1078.151,2529.589,1079.089,2529.182,1080.761z"/>
		<path fill="#E72E2B" d="M2564.604,1139.125c-6.852,0-12.746-2.529-17.68-7.586c-5.506-5.628-8.402-13.193-8.688-22.697
			c-0.245-9.217,2.08-17.333,6.975-24.349c5.709-8.279,13.662-12.419,23.859-12.419c8.156,0,14.336,3.732,18.537,11.195
			c3.344,6.037,4.955,13.297,4.832,21.78c-0.121,9.054-2.488,16.784-7.096,23.187
			C2580.122,1135.496,2573.209,1139.125,2564.604,1139.125z M2568.274,1084.493c-5.995-0.04-10.666,2.814-14.01,8.565
			c-2.651,4.609-3.977,9.871-3.977,15.784c0,5.914,1.61,10.523,4.833,13.826c2.691,2.733,5.852,4.099,9.482,4.099
			c4.242,0,7.893-1.549,10.951-4.649c3.467-3.426,5.302-8.055,5.506-13.888C2581.631,1092.446,2577.369,1084.534,2568.274,1084.493z
			"/>
		<path fill="#E72E2B" d="M2635.203,1139.37c-8.361,0-15.335-2.529-20.922-7.586c-5.873-5.301-8.811-12.297-8.811-20.984
			c0-8.279,2.754-16.824,8.26-25.633c6.117-9.789,13.01-14.683,20.678-14.683c3.997,0,8.463,0.939,13.398,2.814
			c6.24,2.407,9.36,5.343,9.36,8.81c0,1.55-0.511,2.927-1.53,4.129c-1.02,1.204-2.284,1.805-3.793,1.805
			c-1.183,0-2.213-0.356-3.089-1.07c-0.878-0.713-1.724-1.417-2.539-2.111c-2.407-1.917-6.343-2.875-11.808-2.875
			c-4.16,0-8.279,3.712-12.357,11.135c-3.712,6.812-5.567,12.705-5.567,17.68c0,5.384,1.835,9.626,5.506,12.725
			c3.426,2.896,7.831,4.344,13.214,4.344c2.447,0,5.058-0.652,7.832-1.958l7.096-3.793c1.225-0.652,2.101-0.979,2.631-0.979
			c1.509,0,2.814,0.602,3.916,1.805c1.102,1.204,1.651,2.58,1.651,4.13c0,2.978-3.142,5.853-9.421,8.626
			C2643.402,1138.146,2638.834,1139.37,2635.203,1139.37z"/>
		<path fill="#E72E2B" d="M2722.872,1138.024c-2.243,0-3.977-1.184-5.2-3.548c-2.121-4.119-5.322-8.993-9.605-14.622l-10.828-14.744
			c-2.365,1.876-6.037,4.507-11.012,7.892c-0.449,6.322-0.674,12.48-0.674,18.476c0,1.835-0.561,3.325-1.682,4.466
			c-1.123,1.142-2.561,1.713-4.313,1.713c-4.12,0-6.179-2.773-6.179-8.32c0-3.385,0.234-8.452,0.703-15.203
			c0.469-6.75,0.704-11.817,0.704-15.203c0-6.199,0.092-13.286,0.274-21.26c0.184-7.973,0.275-15.019,0.275-21.137
			c0-1.835-0.092-3.997-0.275-6.485c-0.183-2.487-0.274-4.649-0.274-6.485s0.56-3.324,1.683-4.466
			c1.121-1.142,2.559-1.713,4.313-1.713s3.191,0.572,4.313,1.713c1.121,1.142,1.683,2.63,1.683,4.466
			c0,1.876,0.102,4.089,0.306,6.638c0.204,2.55,0.306,4.763,0.306,6.638l-0.428,19.699c-0.205,7.097-0.266,14.193-0.184,21.29
			c5.546-4.241,10.889-8.891,16.028-13.949l13.46-13.887c1.346-1.386,2.793-2.08,4.343-2.08c1.591,0,3.028,0.633,4.313,1.896
			c1.285,1.265,1.927,2.733,1.927,4.405c0,1.387-0.592,2.753-1.774,4.099c-5.016,5.873-11.195,12.174-18.537,18.904l13.338,18.17
			c6.24,8.525,9.359,14.071,9.359,16.641c0,1.632-0.643,3.039-1.927,4.222C2726.023,1137.432,2724.544,1138.024,2722.872,1138.024z"
			/>
		<path fill="#E72E2B" d="M2768.145,1138.33c-9.218,0-16.682-2.305-22.392-6.913c-6.24-5.098-9.36-12.235-9.36-21.412
			c0-10.604,2.57-19.495,7.709-26.674c5.587-7.831,13.051-11.747,22.391-11.747c6.77,0,12.297,1.143,16.58,3.426
			c5.262,2.814,7.892,7.138,7.892,12.97c0,4.079-2.305,7.791-6.913,11.134c-2.04,1.468-6.362,3.753-12.97,6.852l-23.37,11.073
			c2.283,3.386,5.129,5.935,8.534,7.647s7.372,2.569,11.899,2.569c2.814,0,6.117-0.529,9.91-1.59c4.813-1.346,7.912-3.11,9.3-5.292
			c1.386-2.182,2.876-3.273,4.466-3.273c1.428,0,2.701,0.541,3.824,1.621c1.121,1.081,1.682,2.335,1.682,3.763
			c0,4.527-3.65,8.422-10.951,11.685C2780.135,1136.943,2774.058,1138.33,2768.145,1138.33z M2766.492,1082.596
			c-4.977,0-9.115,1.927-12.419,5.781c-3.304,3.854-5.771,9.657-7.402,17.405l18.782-8.932c7.381-3.589,12.643-6.709,15.783-9.36
			C2777.729,1084.228,2772.814,1082.596,2766.492,1082.596z"/>
		<path fill="#E72E2B" d="M2849.145,1083.392c-0.856,0-1.865-0.04-3.028-0.123c-1.163-0.081-2.172-0.122-3.028-0.122
			c-0.938,0-3.712,0.306-8.32,0.917l1.162,36.157l0.062,2.692l0.062,3.12c0.162,8.932-1.979,13.398-6.424,13.398
			c-1.632,0-3.05-0.531-4.252-1.591c-1.203-1.061-1.805-2.386-1.805-3.977c0-1.549,0.061-3.875,0.184-6.974
			c0.122-3.099,0.184-5.424,0.184-6.975l-1.225-35.728c-2.977-0.123-7.504-0.468-13.581-1.04c-3.63-0.49-5.444-2.508-5.444-6.057
			c0-1.794,0.551-3.283,1.651-4.466c1.101-1.182,2.509-1.774,4.222-1.774l12.848,1.04c0-2.08-0.092-4.864-0.275-8.351
			c-0.184-3.487-0.275-6.005-0.275-7.555c0-1.713,0.59-3.13,1.773-4.252c1.183-1.122,2.631-1.683,4.344-1.683
			c3.671,0,5.813,2.998,6.424,8.993c0.123,1.509,0.184,3.325,0.184,5.445l-0.122,3.548l-0.062,3.793
			c5.057-0.652,7.953-0.979,8.688-0.979c4.241,0,7.015,0.205,8.32,0.612c2.487,0.816,3.732,2.733,3.732,5.75
			c0,1.795-0.562,3.273-1.684,4.436C2852.336,1082.811,2850.898,1083.392,2849.145,1083.392z"/>
	</g>
	<path opacity="0.1" fill="#3D3E49" d="M1182.954,2277.795h525.176l-31.382-199.507c0,0-1.293,76.042-34.354,110.161
		s-60.51,37.496-79.73,39.426s-284.428,28.465-324.445-16.271s-31.971-60.869-31.971-60.869L1182.954,2277.795z"/>
</g>
</svg>
