<?xml version="1.0" encoding="utf-8"?>
<!-- Generator: Adobe Illustrator 16.0.0, SVG Export Plug-In . SVG Version: 6.00 Build 0)  -->
<!DOCTYPE svg PUBLIC "-//W3C//DTD SVG 1.1//EN" "http://www.w3.org/Graphics/SVG/1.1/DTD/svg11.dtd">
<svg version="1.1" id="Layer_1" xmlns="http://www.w3.org/2000/svg" xmlns:xlink="http://www.w3.org/1999/xlink" x="0px" y="0px"
	 width="3000px" height="3000px" viewBox="0 0 3000 3000" enable-background="new 0 0 3000 3000" xml:space="preserve">
<g display="none">
	<path display="inline" fill="#FFCCFD" d="M1401.637,270.407"/>
	<path display="inline" fill="#31323D" d="M1393.96,203.087c0,0,5.871-14.45,15.354,0c9.48,14.45,131.857,208.627,131.857,208.627
		s7.227,13.547,0,21.901c-7.225,8.354-133.215,156.02-133.215,156.02s-5.871,9.483-13.999,0
		c-8.128-9.48-132.313-158.955-132.313-158.955s-8.577-9.029-0.449-19.87C1269.325,399.974,1393.96,203.087,1393.96,203.087z"/>
	<polygon display="inline" fill="#4EB757" points="1396.218,365.203 1275.646,410.813 1396.218,222.957 	"/>
	<polygon display="inline" fill="#7EC68E" points="1275.646,422.553 1396.218,375.589 1396.218,469.517 	"/>
	<polygon display="inline" fill="#4EB757" points="1406.582,365.203 1527.152,410.813 1406.582,222.957 	"/>
	<polygon display="inline" fill="#7EC68E" points="1527.152,422.553 1406.582,375.589 1406.582,469.517 	"/>
	<polygon display="inline" fill="#4EB757" points="1527.152,431.132 1405.678,479.451 1405.678,576.991 	"/>
	<g display="inline">
		<polygon fill="#4EB757" points="1275.646,431.132 1397.121,479.451 1397.121,576.991 		"/>
		<polygon fill="#5A7F54" points="1275.195,431.132 1356.307,463.395 1396.669,576.991 		"/>
		<polygon fill="none" stroke="#31323D" stroke-miterlimit="10" points="1275.195,431.133 1396.669,479.45 1396.669,576.99 		"/>
	</g>
	<path display="inline" fill="#4EB757" d="M1275.195,422.354l66.833-25.738c0,0-10.839,13.458-0.452,32.018
		c10.386,18.563,9.935,23.074,9.935,23.074L1275.195,422.354z"/>
	<polygon display="inline" fill="none" stroke="#31323D" stroke-miterlimit="10" points="1275.195,422.354 1396.766,375.589 
		1396.766,469.517 	"/>
	<polygon display="inline" fill="#5A7F54" points="1343.327,385.21 1275.646,410.811 1396.218,222.957 	"/>
	<polygon display="inline" fill="none" stroke="#31323D" stroke-miterlimit="10" points="1396.218,365.203 1275.646,410.811 
		1396.218,222.957 	"/>
	<path display="inline" fill="#36B258" d="M1552.895,298.83c2.957,3.615,8.123,4.375,11.543,1.698l28.826-22.591
		c3.416-2.68,3.791-7.782,0.834-11.396l0,0c-2.957-3.615-8.121-4.375-11.539-1.697l-28.825,22.591
		C1550.314,290.113,1549.939,295.214,1552.895,298.83L1552.895,298.83z"/>
	<path display="inline" fill="#36B258" d="M1264.724,298.83c-2.956,3.615-8.123,4.375-11.541,1.698l-28.823-22.591
		c-3.418-2.68-3.793-7.782-0.838-11.396l0,0c2.957-3.615,8.123-4.375,11.541-1.697l28.826,22.591
		C1267.305,290.113,1267.68,295.214,1264.724,298.83L1264.724,298.83z"/>
	<path display="inline" fill="#36B258" d="M1552.895,536.131c2.957-3.614,8.123-4.375,11.543-1.699l28.824,22.594
		c3.418,2.68,3.791,7.778,0.836,11.396l0,0c-2.955,3.616-8.123,4.375-11.539,1.699l-28.825-22.591
		C1550.314,544.847,1549.939,539.745,1552.895,536.131L1552.895,536.131z"/>
	<path display="inline" fill="#36B258" d="M1264.724,536.131c-2.956-3.614-8.123-4.375-11.541-1.699l-28.823,22.594
		c-3.418,2.68-3.793,7.778-0.838,11.396l0,0c2.957,3.616,8.123,4.375,11.541,1.699l28.826-22.591
		C1267.305,544.847,1267.68,539.745,1264.724,536.131L1264.724,536.131z"/>
</g>
<g display="none">
	<g display="inline">
		<polygon fill="#5A7F54" points="1275.879,422.304 1406.874,360.391 1537.87,422.304 1406.874,512.242 		"/>
		<polygon fill="#4EB757" points="1406.875,360.391 1406.875,460.756 1537.87,422.304 		"/>
		<polyline fill="#7AC373" points="1275.879,422.304 1406.875,360.391 1406.875,460.756 		"/>
	</g>
	<g display="inline">
		
			<line fill="none" stroke="#36B258" stroke-width="5" stroke-miterlimit="10" x1="1267.42" y1="422.578" x2="1405.814" y2="640.578"/>
		
			<line fill="none" stroke="#7EC68E" stroke-width="3" stroke-miterlimit="10" x1="1264.454" y1="419.321" x2="1405.814" y2="557.476"/>
		
			<line fill="none" stroke="#7EC68E" stroke-width="3" stroke-miterlimit="10" x1="1288.328" y1="455.511" x2="1376.489" y2="507.946"/>
		
			<line fill="none" stroke="#7EC68E" stroke-width="3" stroke-miterlimit="10" x1="1305.932" y1="483.243" x2="1379.125" y2="507.946"/>
		
			<line fill="none" stroke="#7EC68E" stroke-width="3" stroke-miterlimit="10" x1="1336.618" y1="531.578" x2="1388.021" y2="578.982"/>
		<path fill="none" stroke="#7EC68E" stroke-width="3" stroke-miterlimit="10" d="M1388.021,580.287l-10.217-72.341
			c3.493,0-15.485,64.118-15.485,64.118"/>
		
			<line fill="none" stroke="#7EC68E" stroke-width="3" stroke-miterlimit="10" x1="1387.837" y1="578.982" x2="1405.814" y2="642.991"/>
		<ellipse fill="#7EC68E" cx="1377.313" cy="508.158" rx="5.438" ry="5.377"/>
		<ellipse fill="#7EC68E" cx="1387.692" cy="578.379" rx="5.437" ry="5.376"/>
		<line fill="none" stroke="#36B258" stroke-width="5" stroke-miterlimit="10" x1="1544.128" y1="423" x2="1405.732" y2="641"/>
		
			<line fill="none" stroke="#7EC68E" stroke-width="3" stroke-miterlimit="10" x1="1547.093" y1="419.743" x2="1405.732" y2="557.898"/>
		
			<line fill="none" stroke="#7EC68E" stroke-width="3" stroke-miterlimit="10" x1="1523.22" y1="455.933" x2="1435.058" y2="508.368"/>
		
			<line fill="none" stroke="#7EC68E" stroke-width="3" stroke-miterlimit="10" x1="1505.615" y1="483.665" x2="1432.423" y2="508.368"/>
		<line fill="none" stroke="#7EC68E" stroke-width="3" stroke-miterlimit="10" x1="1474.93" y1="532" x2="1423.525" y2="579.405"/>
		<path fill="none" stroke="#7EC68E" stroke-width="3" stroke-miterlimit="10" d="M1423.525,580.709l10.214-72.341
			c-3.491,0,15.487,64.118,15.487,64.118"/>
		
			<line fill="none" stroke="#7EC68E" stroke-width="3" stroke-miterlimit="10" x1="1423.711" y1="579.405" x2="1405.732" y2="643.413"/>
		<ellipse fill="#7EC68E" cx="1423.854" cy="578.379" rx="5.438" ry="5.376"/>
		<ellipse fill="#7EC68E" cx="1435.058" cy="508.158" rx="5.438" ry="5.377"/>
		<path fill="#36B258" d="M1414.712,642.993c0,4.855-3.985,8.798-8.896,8.798l0,0c-4.916,0-8.897-3.941-8.897-8.798l0,0
			c0-4.861,3.981-8.798,8.897-8.798l0,0C1410.727,634.195,1414.712,638.132,1414.712,642.993L1414.712,642.993z"/>
		<path fill="#36B258" d="M1273.351,419.321c0,4.857-3.983,8.798-8.896,8.798l0,0c-4.916,0-8.897-3.938-8.897-8.798l0,0
			c0-4.859,3.981-8.798,8.897-8.798l0,0C1269.366,410.523,1273.351,414.462,1273.351,419.321L1273.351,419.321z"/>
		<ellipse fill="#36B258" cx="1288.344" cy="457.485" rx="5.438" ry="5.376"/>
		<ellipse fill="#36B258" cx="1305.932" cy="483.995" rx="5.438" ry="5.377"/>
		<ellipse fill="#36B258" cx="1335.794" cy="532.548" rx="5.437" ry="5.376"/>
		<ellipse fill="#36B258" cx="1361.002" cy="571.162" rx="5.438" ry="5.377"/>
		<ellipse fill="#36B258" cx="1523.202" cy="457.485" rx="5.437" ry="5.376"/>
		<ellipse fill="#36B258" cx="1505.615" cy="484.417" rx="5.437" ry="5.377"/>
		<ellipse fill="#36B258" cx="1475.754" cy="532.97" rx="5.438" ry="5.376"/>
		<ellipse fill="#36B258" cx="1450.544" cy="571.584" rx="5.437" ry="5.377"/>
		<ellipse fill="#36B258" cx="1405.814" cy="557.476" rx="5.438" ry="5.376"/>
		<path fill="#36B258" d="M1557.967,417.496c0,4.859-3.983,8.798-8.896,8.798l0,0c-4.916,0-8.897-3.938-8.897-8.798l0,0
			c0-4.859,3.981-8.798,8.897-8.798l0,0C1553.98,408.698,1557.967,412.637,1557.967,417.496L1557.967,417.496z"/>
	</g>
	<polyline display="inline" fill="none" stroke="#7EC68E" stroke-width="3" stroke-miterlimit="10" points="1378.887,327.229 
		1361.505,264.92 1343.724,381.578 	"/>
	
		<line display="inline" fill="none" stroke="#7EC68E" stroke-width="3" stroke-miterlimit="10" x1="1338.358" y1="303.484" x2="1371.365" y2="367.377"/>
	
		<line display="inline" fill="none" stroke="#7EC68E" stroke-width="3" stroke-miterlimit="10" x1="1307.803" y1="353.035" x2="1378.298" y2="328.635"/>
	
		<line display="inline" fill="none" stroke="#7EC68E" stroke-width="3" stroke-miterlimit="10" x1="1268.649" y1="415.304" x2="1405.957" y2="280.408"/>
	
		<line display="inline" fill="none" stroke="#7EC68E" stroke-width="3" stroke-miterlimit="10" x1="1290.711" y1="380.274" x2="1378.298" y2="328.635"/>
	<path display="inline" fill="#36B258" d="M1273.835,418.044c0,4.859-3.982,8.798-8.891,8.798l0,0c-4.91,0-8.893-3.938-8.893-8.798
		l0,0c0-4.859,3.98-8.798,8.893-8.798l0,0C1269.854,409.246,1273.835,413.185,1273.835,418.044L1273.835,418.044z"/>
	<path display="inline" fill="#36B258" d="M1416.823,193.689c0,4.859-3.982,8.798-8.893,8.798l0,0c-4.911,0-8.891-3.939-8.891-8.798
		l0,0c0-4.859,3.979-8.798,8.891-8.798l0,0C1412.841,184.891,1416.823,188.83,1416.823,193.689L1416.823,193.689z"/>
	
		<line display="inline" fill="none" stroke="#36B258" stroke-width="5" stroke-miterlimit="10" x1="1264.945" y1="418.044" x2="1406.945" y2="191.602"/>
	<ellipse display="inline" fill="#36B258" cx="1288.571" cy="380.274" rx="5.433" ry="5.377"/>
	<ellipse display="inline" fill="#36B258" cx="1305.79" cy="353.035" rx="5.433" ry="5.376"/>
	<ellipse display="inline" fill="#36B258" cx="1361.505" cy="264.92" rx="5.433" ry="5.377"/>
	<ellipse display="inline" fill="#36B258" cx="1343.333" cy="380.274" rx="4.971" ry="4.919"/>
	<ellipse display="inline" fill="#36B258" cx="1370.358" cy="366.039" rx="3.42" ry="3.384"/>
	<ellipse display="inline" fill="#36B258" cx="1311.223" cy="396.313" rx="3.42" ry="3.384"/>
	
		<line display="inline" fill="none" stroke="#36B258" stroke-width="3" stroke-miterlimit="10" x1="1271.849" y1="415.304" x2="1404.875" y2="347.851"/>
	<path display="inline" fill="none" stroke="#36B258" stroke-miterlimit="10" d="M1402.665,344.928"/>
	
		<line display="inline" fill="none" stroke="#36B258" stroke-width="3" stroke-miterlimit="10" x1="1343.724" y1="378.166" x2="1339.278" y2="306.802"/>
	<polyline display="inline" fill="none" stroke="#7EC68E" stroke-width="3" stroke-miterlimit="10" points="1339.278,302.24 
		1387.848,259.543 1380.125,323.077 	"/>
	
		<line display="inline" fill="none" stroke="#36B258" stroke-width="3" stroke-miterlimit="10" x1="1389.093" y1="259.543" x2="1405.957" y2="341.67"/>
	
		<line display="inline" fill="none" stroke="#36B258" stroke-width="3" stroke-miterlimit="10" x1="1389.093" y1="256.62" x2="1405.957" y2="197.313"/>
	
		<line display="inline" fill="none" stroke="#36B258" stroke-width="3" stroke-miterlimit="10" x1="1307.803" y1="356.457" x2="1311.222" y2="396.313"/>
	
		<line display="inline" fill="none" stroke="#7EC68E" stroke-width="3" stroke-miterlimit="10" x1="1381.262" y1="328.635" x2="1404.64" y2="345.245"/>
	<ellipse display="inline" fill="#7EC68E" cx="1378.886" cy="327.229" rx="4.375" ry="4.328"/>
	<ellipse display="inline" fill="#36B258" cx="1337.303" cy="303.534" rx="5.435" ry="5.377"/>
	<polyline display="inline" fill="none" stroke="#7EC68E" stroke-width="3" stroke-miterlimit="10" points="1436.287,329.208 
		1453.668,266.899 1471.449,383.557 	"/>
	
		<line display="inline" fill="none" stroke="#7EC68E" stroke-width="3" stroke-miterlimit="10" x1="1476.814" y1="305.463" x2="1443.811" y2="369.356"/>
	
		<line display="inline" fill="none" stroke="#7EC68E" stroke-width="3" stroke-miterlimit="10" x1="1507.37" y1="355.014" x2="1436.875" y2="330.614"/>
	
		<line display="inline" fill="none" stroke="#7EC68E" stroke-width="3" stroke-miterlimit="10" x1="1546.524" y1="417.282" x2="1409.216" y2="282.387"/>
	
		<line display="inline" fill="none" stroke="#7EC68E" stroke-width="3" stroke-miterlimit="10" x1="1524.463" y1="382.253" x2="1436.875" y2="330.614"/>
	
		<line display="inline" fill="none" stroke="#36B258" stroke-width="5" stroke-miterlimit="10" x1="1550.229" y1="420.024" x2="1408.229" y2="193.581"/>
	<path display="inline" fill="#36B258" d="M1503.951,355.014c0,2.969,2.432,5.376,5.434,5.376c2.997,0,5.435-2.408,5.435-5.376
		c0-2.969-2.438-5.377-5.435-5.377C1506.383,349.637,1503.951,352.045,1503.951,355.014z"/>
	<ellipse display="inline" fill="#36B258" cx="1455.645" cy="264.944" rx="5.434" ry="5.376"/>
	<ellipse display="inline" fill="#36B258" cx="1446.79" cy="366.063" rx="3.421" ry="3.384"/>
	
		<line display="inline" fill="none" stroke="#36B258" stroke-width="3" stroke-miterlimit="10" x1="1543.325" y1="417.282" x2="1410.299" y2="349.83"/>
	
		<line display="inline" fill="none" stroke="#36B258" stroke-width="3" stroke-miterlimit="10" x1="1471.449" y1="380.145" x2="1475.895" y2="308.781"/>
	<polyline display="inline" fill="none" stroke="#7EC68E" stroke-width="3" stroke-miterlimit="10" points="1475.895,304.219 
		1427.325,261.522 1435.048,325.056 	"/>
	
		<line display="inline" fill="none" stroke="#36B258" stroke-width="3" stroke-miterlimit="10" x1="1426.081" y1="261.522" x2="1409.216" y2="343.648"/>
	
		<line display="inline" fill="none" stroke="#36B258" stroke-width="3" stroke-miterlimit="10" x1="1426.081" y1="258.599" x2="1409.216" y2="199.292"/>
	
		<line display="inline" fill="none" stroke="#36B258" stroke-width="3" stroke-miterlimit="10" x1="1507.37" y1="358.436" x2="1503.951" y2="398.292"/>
	
		<line display="inline" fill="none" stroke="#7EC68E" stroke-width="3" stroke-miterlimit="10" x1="1433.912" y1="330.614" x2="1410.532" y2="347.224"/>
	<ellipse display="inline" fill="#7EC68E" cx="1436.287" cy="329.208" rx="4.374" ry="4.329"/>
	<ellipse display="inline" fill="#36B258" cx="1477.87" cy="305.514" rx="5.433" ry="5.376"/>
	<path display="inline" fill="#36B258" d="M1558.083,418.044c0,4.859-3.982,8.798-8.89,8.798l0,0c-4.913,0-8.894-3.938-8.894-8.798
		l0,0c0-4.859,3.979-8.798,8.894-8.798l0,0C1554.101,409.246,1558.083,413.185,1558.083,418.044L1558.083,418.044z"/>
	<path display="inline" fill="#36B258" d="M1416.823,347.658c0,4.859-3.982,8.798-8.893,8.798l0,0c-4.911,0-8.891-3.939-8.891-8.798
		l0,0c0-4.859,3.979-8.798,8.891-8.798l0,0C1412.841,338.86,1416.823,342.799,1416.823,347.658L1416.823,347.658z"/>
	<ellipse display="inline" fill="#36B258" cx="1473.816" cy="380.274" rx="4.971" ry="4.919"/>
	<ellipse display="inline" fill="#36B258" cx="1505.926" cy="396.313" rx="3.419" ry="3.384"/>
	<ellipse display="inline" fill="#36B258" cx="1389.093" cy="258.799" rx="4.375" ry="4.328"/>
	<ellipse display="inline" fill="#36B258" cx="1426.08" cy="260.778" rx="4.374" ry="4.329"/>
	<ellipse display="inline" fill="#36B258" cx="1406.945" cy="278.118" rx="5.196" ry="5.144"/>
</g>
<g>
	<path fill="#FFCCFD" d="M1394.969,270.779"/>
	<polygon opacity="0.16" fill="#5A7F54" enable-background="new    " points="1282.404,413.865 1354.881,442.587 1390.947,543.718 	
		"/>
	<path opacity="0.16" fill="#4EB757" enable-background="new    " d="M1282.404,406.049l59.498-22.914
		c0,0-9.649,11.981-0.402,28.504c9.246,16.523,8.844,20.541,8.844,20.541L1282.404,406.049z"/>
	<polygon opacity="0.16" fill="#5A7F54" enable-background="new    " points="1343.058,372.982 1282.805,395.773 1390.145,228.536 	
		"/>
	<path fill="#36B258" d="M1529.626,296.082c2.633,3.219,7.232,3.895,10.277,1.512l25.662-20.112
		c3.041-2.386,3.375-6.928,0.743-10.146l0,0c-2.633-3.218-7.231-3.895-10.274-1.511l-25.662,20.112
		C1527.329,288.321,1526.995,292.863,1529.626,296.082L1529.626,296.082z"/>
	<path fill="#36B258" d="M1273.081,296.082c-2.631,3.219-7.231,3.895-10.273,1.512l-25.662-20.112
		c-3.043-2.386-3.377-6.928-0.745-10.146l0,0c2.633-3.218,7.233-3.895,10.274-1.511l25.663,20.112
		C1275.379,288.321,1275.713,292.863,1273.081,296.082L1273.081,296.082z"/>
	<path fill="#36B258" d="M1529.626,507.341c2.633-3.218,7.232-3.895,10.277-1.513l25.66,20.112
		c3.043,2.385,3.374,6.927,0.745,10.144l0,0c-2.632,3.22-7.233,3.896-10.274,1.513l-25.662-20.111
		C1527.329,515.101,1526.995,510.559,1529.626,507.341L1529.626,507.341z"/>
	<path fill="#36B258" d="M1273.081,507.341c-2.631-3.218-7.231-3.895-10.273-1.513l-25.662,20.112
		c-3.043,2.385-3.377,6.927-0.745,10.144l0,0c2.633,3.22,7.233,3.896,10.274,1.513l25.663-20.111
		C1275.379,515.101,1275.713,510.559,1273.081,507.341L1273.081,507.341z"/>
</g>
<line fill="none" stroke="#7EC68E" stroke-width="4" stroke-miterlimit="10" x1="1272.814" y1="404.288" x2="1395.878" y2="504.962"/>
<line fill="none" stroke="#7EC68E" stroke-width="4" stroke-miterlimit="10" x1="1303.485" y1="445.009" x2="1376.203" y2="471.823"/>
<path fill="#7EC68E" d="M1399.279,503.693c0,2.641-2.167,4.787-4.84,4.787c-2.673,0-4.839-2.146-4.839-4.787
	c0-2.646,2.167-4.787,4.839-4.787C1397.112,498.906,1399.279,501.048,1399.279,503.693z"/>
<path fill="#7EC68E" d="M1397.723,555.696c0,2.641-2.169,4.786-4.84,4.786c-2.673,0-4.841-2.145-4.841-4.786
	c0-2.645,2.168-4.786,4.841-4.786C1395.556,550.91,1397.723,553.051,1397.723,555.696z"/>
<ellipse fill="#36B258" stroke="#36B258" stroke-width="6" stroke-miterlimit="10" cx="1303.547" cy="445.695" rx="4.839" ry="4.786"/>
<line fill="none" stroke="#7EC68E" stroke-width="4" stroke-miterlimit="10" x1="1375.901" y1="467.135" x2="1379.529" y2="516.463"/>
<line fill="none" stroke="#7EC68E" stroke-width="4" stroke-miterlimit="10" x1="1324.776" y1="471.334" x2="1376.484" y2="471.823"/>
<ellipse fill="#36B258" stroke="#36B258" stroke-width="6" stroke-miterlimit="10" cx="1324.776" cy="471.333" rx="4.841" ry="4.787"/>
<polyline fill="none" stroke="#7EC68E" stroke-width="4" stroke-miterlimit="10" points="1345.116,496.029 1379.327,513.73 
	1394.438,550.91 "/>
<ellipse fill="#36B258" stroke="#36B258" stroke-width="6" stroke-miterlimit="10" cx="1345.117" cy="496.029" rx="4.84" ry="4.786"/>
<line fill="none" stroke="#7EC68E" stroke-width="4" stroke-miterlimit="10" x1="1365.456" y1="519.681" x2="1376.203" y2="471.243"/>
<ellipse fill="#36B258" stroke="#36B258" stroke-width="6" stroke-miterlimit="10" cx="1365.455" cy="519.68" rx="4.839" ry="4.787"/>
<line fill="none" stroke="#7EC68E" stroke-width="4" stroke-miterlimit="10" x1="1517.845" y1="404.139" x2="1392.758" y2="504.813"/>
<line fill="none" stroke="#7EC68E" stroke-width="4" stroke-miterlimit="10" x1="1486.669" y1="444.86" x2="1412.757" y2="471.675"/>
<path fill="#7EC68E" stroke="#36B258" stroke-width="6" stroke-miterlimit="10" d="M1389.302,503.543
	c0,2.642,2.202,4.787,4.918,4.787c2.717,0,4.92-2.146,4.92-4.787c0-2.645-2.203-4.785-4.92-4.785
	C1391.504,498.757,1389.302,500.898,1389.302,503.543z"/>
<ellipse fill="#36B258" stroke="#36B258" stroke-width="6" stroke-miterlimit="10" cx="1487.497" cy="445.546" rx="4.92" ry="4.786"/>
<line fill="none" stroke="#7EC68E" stroke-width="4" stroke-miterlimit="10" x1="1413.064" y1="466.986" x2="1409.376" y2="516.313"/>
<line fill="none" stroke="#7EC68E" stroke-width="4" stroke-miterlimit="10" x1="1465.029" y1="471.185" x2="1412.471" y2="471.675"/>
<ellipse fill="#36B258" stroke="#36B258" stroke-width="6" stroke-miterlimit="10" cx="1465.918" cy="471.184" rx="4.919" ry="4.787"/>
<polyline fill="none" stroke="#7EC68E" stroke-width="4" stroke-miterlimit="10" points="1445.244,495.88 1410.471,513.581 
	1395.112,550.76 "/>
<ellipse fill="#36B258" stroke="#36B258" stroke-width="6" stroke-miterlimit="10" cx="1444.354" cy="495.881" rx="4.92" ry="4.786"/>
<line fill="none" stroke="#7EC68E" stroke-width="4" stroke-miterlimit="10" x1="1423.681" y1="519.531" x2="1412.757" y2="471.095"/>
<ellipse fill="#36B258" stroke="#36B258" stroke-width="6" stroke-miterlimit="10" cx="1423.682" cy="520.422" rx="4.918" ry="4.787"/>
<path fill="#36B258" stroke="#36B258" stroke-width="3" stroke-miterlimit="10" d="M1404.505,549.903
	c0,5.366-4.398,9.715-9.817,9.715l0,0c-5.423,0-9.819-4.35-9.819-9.715l0,0c0-5.366,4.396-9.715,9.819-9.715l0,0
	C1400.106,540.188,1404.505,544.537,1404.505,549.903L1404.505,549.903z"/>
<path fill="#7EC68E" stroke="#7EC68E" stroke-miterlimit="10" d="M1419.078,471.579c0,3.606-2.958,6.534-6.607,6.534
	s-6.606-2.928-6.606-6.534c0-3.611,2.958-6.533,6.606-6.533C1416.12,465.045,1419.078,467.969,1419.078,471.579z"/>
<path fill="#7EC68E" stroke="#7EC68E" stroke-miterlimit="10" d="M1404.661,512.741c0,2.643,2.203,4.787,4.919,4.787
	c2.717,0,4.918-2.145,4.918-4.787c0-2.645-2.201-4.785-4.918-4.785C1406.863,507.956,1404.661,510.097,1404.661,512.741z"/>
<path fill="#7EC68E" stroke="#7EC68E" stroke-miterlimit="10" d="M1384.168,512.89c0,2.642-2.167,4.787-4.84,4.787
	c-2.672,0-4.839-2.145-4.839-4.787c0-2.645,2.167-4.787,4.839-4.787C1382.001,508.104,1384.168,510.246,1384.168,512.89z"/>
<path fill="#7EC68E" stroke="#7EC68E" stroke-miterlimit="10" d="M1382.507,471.823c0,3.606-2.958,6.534-6.606,6.534
	s-6.607-2.928-6.607-6.534c0-3.61,2.958-6.533,6.607-6.533S1382.507,468.214,1382.507,471.823z"/>
<line fill="none" stroke="#7EC68E" stroke-width="4" stroke-miterlimit="10" x1="1273.477" y1="406.228" x2="1394.22" y2="322.846"/>
<polyline fill="none" stroke="#7EC68E" stroke-width="4" stroke-miterlimit="10" points="1366.037,404.288 1370.83,290.302 
	1309.53,344.097 1365.456,406.228 1294.008,368.43 1294.008,370.151 1360.615,440.76 "/>
<polyline fill="none" stroke="#7EC68E" stroke-width="4" stroke-miterlimit="10" points="1356.713,271.541 1365.456,406.228 
	1341.268,295.138 "/>
<line fill="none" stroke="#7EC68E" stroke-width="4" stroke-miterlimit="10" x1="1365.456" y1="406.228" x2="1394.439" y2="453.406"/>
<line fill="none" stroke="#36B258" stroke-width="4" stroke-miterlimit="10" x1="1342.768" y1="294.413" x2="1336.475" y2="430.487"/>
<line fill="none" stroke="#36B258" stroke-width="4" stroke-miterlimit="10" x1="1309.529" y1="419.908" x2="1309.53" y2="344.097"/>
<polyline fill="none" stroke="#36B258" stroke-width="4" stroke-miterlimit="10" points="1394.616,216.021 1372.063,290.302 
	1394.438,454.625 "/>
<path fill="#36B258" stroke="#36B258" stroke-width="3" stroke-miterlimit="10" d="M1285.924,407.15
	c0,5.367-4.398,9.715-9.817,9.715l0,0c-5.421,0-9.817-4.35-9.817-9.715l0,0c0-5.366,4.396-9.714,9.817-9.714l0,0
	C1281.525,397.436,1285.924,401.784,1285.924,407.15L1285.924,407.15z"/>
<ellipse transform="matrix(-0.3018 -0.9534 0.9534 -0.3018 1507.2815 1646.9974)" fill="#36B258" stroke="#36B258" stroke-width="6" stroke-miterlimit="10" cx="1356.75" cy="271.552" rx="4.84" ry="4.786"/>
<ellipse transform="matrix(-0.3018 -0.9534 0.9534 -0.3018 1464.7207 1663.0216)" fill="#36B258" stroke="#36B258" stroke-width="6" stroke-miterlimit="10" cx="1341.314" cy="295.169" rx="4.841" ry="4.787"/>
<ellipse transform="matrix(-0.3018 -0.9534 0.9534 -0.3018 1376.7405 1696.4969)" fill="#36B258" stroke="#36B258" stroke-width="6" stroke-miterlimit="10" cx="1309.572" cy="344.131" rx="4.84" ry="4.786"/>
<ellipse transform="matrix(-0.3017 -0.9534 0.9534 -0.3017 1333.0892 1713.235)" fill="#36B258" stroke="#36B258" stroke-width="6" stroke-miterlimit="10" cx="1293.97" cy="368.41" rx="4.84" ry="4.788"/>
<ellipse transform="matrix(-0.3018 -0.9534 0.9534 -0.3018 1507.8427 1684.8883)" fill="#36B258" stroke="#36B258" stroke-width="6" stroke-miterlimit="10" cx="1370.884" cy="290.311" rx="4.84" ry="4.786"/>
<path fill="#7EC68E" stroke="#7EC68E" stroke-miterlimit="10" d="M1373.828,410.166c0,3.607-2.957,6.535-6.606,6.535
	c-3.649,0-6.607-2.928-6.607-6.535c0-3.61,2.958-6.533,6.607-6.533C1370.871,403.633,1373.828,406.557,1373.828,410.166z"/>
<ellipse transform="matrix(-0.3018 -0.9534 0.9534 -0.3018 1304.3739 1795.139)" fill="#36B258" stroke="#36B258" stroke-width="6" stroke-miterlimit="10" cx="1309.517" cy="419.944" rx="4.841" ry="4.787"/>
<ellipse transform="matrix(-0.3017 -0.9534 0.9534 -0.3017 1329.1666 1834.5201)" fill="#36B258" stroke="#36B258" stroke-width="6" stroke-miterlimit="10" cx="1336.432" cy="430.485" rx="6.356" ry="6.285"/>
<ellipse transform="matrix(-0.3018 -0.9534 0.9534 -0.3018 1351.0002 1870.9803)" fill="#36B258" stroke="#36B258" stroke-width="6" stroke-miterlimit="10" cx="1360.592" cy="440.798" rx="4.84" ry="4.787"/>
<line fill="none" stroke="#7EC68E" stroke-width="4" stroke-miterlimit="10" x1="1517.017" y1="407.649" x2="1396.272" y2="324.267"/>
<polyline fill="none" stroke="#7EC68E" stroke-width="4" stroke-miterlimit="10" points="1424.457,405.709 1419.665,291.723 
	1480.964,345.519 1425.039,407.649 1496.485,369.851 1496.485,371.572 1429.879,442.181 "/>
<polyline fill="none" stroke="#7EC68E" stroke-width="4" stroke-miterlimit="10" points="1433.782,272.962 1425.039,407.649 
	1449.226,296.559 "/>
<line fill="none" stroke="#7EC68E" stroke-width="4" stroke-miterlimit="10" x1="1425.039" y1="407.649" x2="1396.055" y2="454.827"/>
<line fill="none" stroke="#36B258" stroke-width="4" stroke-miterlimit="10" x1="1447.727" y1="295.833" x2="1454.019" y2="431.908"/>
<line fill="none" stroke="#36B258" stroke-width="4" stroke-miterlimit="10" x1="1480.965" y1="421.329" x2="1480.964" y2="345.519"/>
<polyline fill="none" stroke="#36B258" stroke-width="4" stroke-miterlimit="10" points="1395.878,217.442 1418.433,291.723 
	1396.056,456.046 "/>
<ellipse transform="matrix(0.3018 -0.9534 0.9534 0.3018 740.8389 1557.5551)" fill="#36B258" stroke="#36B258" stroke-width="6" stroke-miterlimit="10" cx="1433.78" cy="272.998" rx="4.84" ry="4.786"/>
<ellipse transform="matrix(0.3018 -0.9534 0.9534 0.3018 729.1055 1588.7793)" fill="#36B258" stroke="#36B258" stroke-width="6" stroke-miterlimit="10" cx="1449.234" cy="296.62" rx="4.84" ry="4.787"/>
<ellipse transform="matrix(0.3018 -0.9534 0.9534 0.3018 704.6146 1653.2351)" fill="#36B258" stroke="#36B258" stroke-width="6" stroke-miterlimit="10" cx="1480.975" cy="345.575" rx="4.841" ry="4.787"/>
<ellipse transform="matrix(0.3018 -0.9534 0.9534 0.3018 692.2183 1684.9729)" fill="#36B258" stroke="#36B258" stroke-width="6" stroke-miterlimit="10" cx="1496.463" cy="369.9" rx="4.84" ry="4.787"/>
<ellipse transform="matrix(0.3018 -0.9534 0.9534 0.3018 713.0325 1557.1591)" fill="#36B258" stroke="#36B258" stroke-width="6" stroke-miterlimit="10" cx="1419.663" cy="291.758" rx="4.84" ry="4.786"/>
<path fill="#36B258" stroke="#36B258" stroke-width="6" stroke-miterlimit="10" d="M1404.257,453.406
	c0,5.366-4.398,9.716-9.818,9.716l0,0c-5.423,0-9.818-4.351-9.818-9.716l0,0c0-5.366,4.396-9.715,9.818-9.715l0,0
	C1399.859,443.691,1404.257,448.04,1404.257,453.406L1404.257,453.406z"/>
<ellipse transform="matrix(0.3018 -0.9534 0.9534 0.3018 635.0159 1705.9247)" fill="#36B258" stroke="#36B258" stroke-width="6" stroke-miterlimit="10" cx="1482.224" cy="419.407" rx="4.84" ry="4.787"/>
<path fill="#36B258" stroke="#36B258" stroke-width="6" stroke-miterlimit="10" d="M1453.323,436.031
	c3.309,1.047,6.851-0.818,7.912-4.164c1.059-3.345-0.767-6.909-4.076-7.956c-3.308-1.047-6.85,0.818-7.908,4.163
	C1448.192,431.419,1450.016,434.983,1453.323,436.031z"/>
<ellipse transform="matrix(0.3018 -0.9534 0.9534 0.3018 579.3466 1671.7469)" fill="#36B258" stroke="#36B258" stroke-width="6" stroke-miterlimit="10" cx="1431.079" cy="440.318" rx="4.842" ry="4.787"/>
<ellipse transform="matrix(-0.3018 -0.9534 0.9534 -0.3018 1507.1582 1749.5818)" fill="#36B258" stroke="#36B258" stroke-width="6" stroke-miterlimit="10" cx="1394.253" cy="322.889" rx="4.84" ry="4.786"/>
<path fill="#36B258" stroke="#36B258" stroke-width="3" stroke-miterlimit="10" d="M1404.505,216.944
	c0,5.366-4.398,9.715-9.817,9.715l0,0c-5.423,0-9.819-4.35-9.819-9.715l0,0c0-5.366,4.396-9.715,9.819-9.715l0,0
	C1400.106,207.229,1404.505,211.578,1404.505,216.944L1404.505,216.944z"/>
<path fill="#7EC68E" stroke="#7EC68E" stroke-miterlimit="10" d="M1428.565,410.166c0,3.607-2.958,6.535-6.605,6.535
	c-3.65,0-6.607-2.928-6.607-6.535c0-3.61,2.958-6.533,6.607-6.533C1425.607,403.633,1428.565,406.557,1428.565,410.166z"/>
<path fill="#36B258" stroke="#36B258" stroke-width="3" stroke-miterlimit="10" d="M1523.786,406.228
	c0,5.366-4.397,9.714-9.816,9.714l0,0c-5.424,0-9.82-4.35-9.82-9.714l0,0c0-5.367,4.396-9.715,9.82-9.715l0,0
	C1519.389,396.512,1523.786,400.861,1523.786,406.228L1523.786,406.228z"/>
<g id="Layer_2_2_">
	<g>
		<path fill="none" stroke="#36B258" stroke-width="15" stroke-miterlimit="10" d="M1275.609,399.139l115.777-184.886
			c0,0,3.982-6.591,8.607,1.093c4.625,7.683,116.124,185.024,116.124,185.024s9.38,10.956,0,19.121
			c-9.381,8.167-115.991,135.865-115.991,135.865s-4.469,5.939-9.227,0S1276.86,416.492,1276.86,416.492
			S1265.778,408.572,1275.609,399.139z"/>
		<rect x="1391.386" y="214.254" fill="#36B258" width="9.86" height="346.789"/>
		
			<rect x="1331.506" y="315.691" transform="matrix(-0.3478 -0.9376 0.9376 -0.3478 1442.1716 1769.2146)" fill="#36B258" width="9.861" height="134.628"/>
		
			<rect x="1455.802" y="317.527" transform="matrix(0.3478 -0.9376 0.9376 0.3478 591.8813 1620.5355)" fill="#36B258" width="9.861" height="134.628"/>
		
			<rect x="1332.449" y="364.882" transform="matrix(-0.3478 0.9376 -0.9376 -0.3478 2207.7461 -671.3611)" fill="#36B258" width="9.861" height="134.628"/>
		
			<rect x="1456.789" y="363.07" transform="matrix(0.3477 0.9376 -0.9376 0.3477 1357.0389 -1089.7804)" fill="#36B258" width="9.86" height="134.623"/>
	</g>
</g>
</svg>
