<?xml version="1.0" encoding="utf-8"?>
<!-- Generator: Adobe Illustrator 16.0.0, SVG Export Plug-In . SVG Version: 6.00 Build 0)  -->
<!DOCTYPE svg PUBLIC "-//W3C//DTD SVG 1.1//EN" "http://www.w3.org/Graphics/SVG/1.1/DTD/svg11.dtd">
<svg version="1.1" id="Layer_1" xmlns="http://www.w3.org/2000/svg" xmlns:xlink="http://www.w3.org/1999/xlink" x="0px" y="0px"
	 width="3000px" height="3000px" viewBox="0 0 3000 3000" enable-background="new 0 0 3000 3000" xml:space="preserve">
<g>
	<g>
		<path fill="#F58F89" d="M1697.565,563.659c0,0,45.301-0.667,48.632-41.97c0,0,0.666-31.977-35.308-21.318
			c0,0-6.485-16.655-29.224-9.327C1658.927,498.373,1661.592,549.669,1697.565,563.659z"/>
		<path fill="#F8B0AE" d="M1683.523,496.51c0,0,5.996,21.849,10.659,23.181c0,0-8.66,11.325-5.329,36.64
			C1688.854,556.331,1643.553,505.306,1683.523,496.51z"/>
		<path fill="#FFFFFF" d="M1674.322,499.242c0,0,4.663,21.183,13.99,25.18l-13.99,9.327
			C1674.322,533.749,1662.331,520.029,1674.322,499.242z"/>
		<path fill="#DC7D76" d="M1737.825,526.42c0,0-19.319,25.981-39.305,31.977c0,0,23.316,3.331,39.305-23.983V526.42z"/>
		<path fill="none" stroke="#3E3F4A" stroke-width="8" stroke-miterlimit="10" d="M1697.565,563.659c0,0,45.301-0.667,48.632-41.97
			c0,0,0.666-31.977-35.308-21.318c0,0-6.485-16.655-29.224-9.327C1658.927,498.373,1661.592,549.669,1697.565,563.659z"/>
	</g>
	<path fill="none" stroke="#3E3F4A" stroke-width="8" stroke-miterlimit="10" d="M1697.565,563.659
		c0,0-9.713,124.576-96.523,255.148"/>
</g>
<g>
	<g>
		<path fill="#F58F89" d="M1153.231,555.165c0,0,32.362-23.268,13.99-54.756c0,0-15.604-23.415-36.208,2.374
			c0,0-13.057-8.76-25.784,7.967C1092.503,527.478,1120.228,563.162,1153.231,555.165z"/>
		<path fill="#F8B0AE" d="M1109.32,513.76c0,0,15.318,12.754,19.354,11.371c0,0-0.554,12.53,14.583,29.127
			C1143.257,554.258,1084.894,540.214,1109.32,513.76z"/>
		<path fill="#FFFFFF" d="M1104.052,520.36c0,0,14.021,12.944,22.764,11.137l-5.406,13.769
			C1121.41,545.267,1105.854,541.396,1104.052,520.36z"/>
		<path fill="#DC7D76" d="M1163.56,508.035c0,0-0.876,28.47-12.285,42.851c0,0,18.504-9.325,16.306-37.081L1163.56,508.035z"/>
		<path fill="none" stroke="#3E3F4A" stroke-width="8" stroke-miterlimit="10" d="M1153.231,555.165c0,0,32.362-23.268,13.99-54.756
			c0,0-15.604-23.415-36.208,2.374c0,0-13.057-8.76-25.784,7.967C1092.503,527.478,1120.228,563.162,1153.231,555.165z"/>
	</g>
	<path fill="none" stroke="#3E3F4A" stroke-width="8" stroke-miterlimit="10" d="M1153.231,555.165
		c0,0-3.154,138.602,80.785,294.522"/>
</g>
<g>
	<path fill="#F9A03E" d="M993.891,1785.512c0,0-105.527,2.899-185.291-83.191c0,0,42.66,73.186,197.713,99.237L993.891,1785.512z"/>
	<g>
		<path fill="#FBE988" d="M847.955,1764.08c0,0-171.667-4.942-245.178,93.916c-73.509,98.855-49.86,277.968,128.78,291.98
			c178.633,14.014,228.717-135.94,228.717-135.94l94.736-228.229L847.955,1764.08z"/>
		<path fill="none" stroke="#F99F3D" stroke-width="7" stroke-miterlimit="10" d="M960.274,2014.036
			c0,0-143.89,107.925-244.817,50.87c-100.923-57.051-66.578-206.119,42.015-291.877"/>
		
			<line fill="none" stroke="#F99F3D" stroke-width="7" stroke-miterlimit="10" x1="791.671" y1="2081.315" x2="759.804" y2="2150.854"/>
		<path fill="none" stroke="#F99F3D" stroke-width="7" stroke-miterlimit="10" d="M688.694,2045.36c0,0-49.986,21.146-79.381,54.567
			"/>
		<path fill="none" stroke="#F99F3D" stroke-width="7" stroke-miterlimit="10" d="M656.313,1975.676
			c0,0-72.861,11.721-91.307,24.645"/>
		<path fill="none" stroke="#F99F3D" stroke-width="7" stroke-miterlimit="10" d="M667.448,1893.082c0,0-49.704-13.891-78.161-5.395
			"/>
		<path fill="none" stroke="#F99F3D" stroke-width="7" stroke-miterlimit="10" d="M678.524,1798.042
			c0,0-116.729,68.122-106.56,206.096c10.167,137.97,189.267,145.873,190.13,141.876"/>
		<path fill="#FFFFFF" d="M779.065,2018.021c-4.007,13.292,3.513,27.313,16.804,31.323c13.288,4.011,27.313-3.516,31.32-16.811
			c4.009-13.284-3.516-27.311-16.803-31.318C797.097,1997.207,783.074,2004.733,779.065,2018.021z"/>
		<path fill="#CF92C1" d="M874.205,1807.701c0,0-83.507,24.443-94.337,79.436c-10.836,54.991,44.718,106.896,107.751,91.074
			c63.035-15.822,134.061-167.738,134.061-167.738S880.979,1796.801,874.205,1807.701z"/>
		<g>
			<path fill="#F5872B" d="M788.855,1947.884c-4.913,16.285,4.309,33.471,20.594,38.384c16.288,4.916,33.474-4.307,38.386-20.595
				c4.912-16.287-4.309-33.473-20.595-38.384C810.953,1922.377,793.77,1931.599,788.855,1947.884z"/>
			<path opacity="0.3" fill="#FBDAD0" d="M843.688,1942.385c0,0-2.943,34.577-49.882,30.13c0,0,15.814,19.642,37.151,8.816
				C852.297,1970.508,847.64,1946.278,843.688,1942.385z"/>
			<path fill="#FFFFFF" d="M832.398,1952.103c-1.067,3.523-0.209,6.894,1.906,7.53c2.118,0.638,4.695-1.696,5.757-5.217
				c1.061-3.521,0.206-6.894-1.911-7.537C836.035,1946.244,833.458,1948.581,832.398,1952.103z"/>
			<path fill="#FFFFFF" d="M799.302,1970.401c-0.575,1.905,0.51,3.925,2.42,4.499c1.912,0.578,3.93-0.499,4.507-2.417
				c0.576-1.907-0.506-3.927-2.417-4.502C801.898,1967.403,799.88,1968.483,799.302,1970.401z"/>
			<path fill="#FBDAD0" d="M846.003,1947.174c0,0-6.923,37.98-43.647,33.645c0,0,19.517,12.52,33.781-1.788
				C850.406,1964.721,850.903,1951.501,846.003,1947.174z"/>
			<path fill="none" stroke="#272C3E" stroke-width="5" stroke-miterlimit="10" d="M788.855,1947.884
				c-4.913,16.285,4.309,33.471,20.594,38.384c16.288,4.916,33.474-4.307,38.386-20.595c4.912-16.287-4.309-33.473-20.595-38.384
				C810.953,1922.377,793.77,1931.599,788.855,1947.884z"/>
		</g>
		<path fill="#FFFFFF" d="M706.357,1974.442c-3.275,10.852,2.87,22.302,13.72,25.573c10.85,3.273,22.296-2.868,25.57-13.717
			c3.272-10.854-2.872-22.305-13.718-25.572C721.078,1957.452,709.629,1963.597,706.357,1974.442z"/>
		<path fill="#FFFFFF" d="M708.271,1900.413c-2.444,8.096,2.141,16.642,10.235,19.08c8.098,2.44,16.643-2.145,19.085-10.237
			c2.441-8.096-2.144-16.642-10.237-19.085C719.253,1887.732,710.711,1892.317,708.271,1900.413z"/>
		<path fill="#F9A03E" d="M731.115,1839.332c-2.443,8.096,2.141,16.64,10.238,19.083c8.102,2.44,16.644-2.142,19.086-10.24
			c2.443-8.099-2.142-16.639-10.241-19.08C742.101,1826.651,733.558,1831.231,731.115,1839.332z"/>
		<path fill="none" stroke="#31333E" stroke-width="8" stroke-miterlimit="10" d="M848.103,1763.588
			c0,0-171.667-4.934-245.174,93.919c-73.512,98.853-49.864,277.965,128.773,291.98c178.634,14.011,228.723-135.94,228.723-135.94
			l94.732-228.23L848.103,1763.588z"/>
	</g>
	<g>
		<path fill="#FBE988" stroke="#31333E" stroke-width="8" stroke-miterlimit="10" d="M1175.467,1751.961
			c0,0-125.906-328.306-254.984-458.345c-129.074-130.034-172.616-130.093-228.565-125.164
			c-58.547,5.161-128.235,116.261-61.788,204.838c0,0,22.817,24.006,13.636,43.704c-9.179,19.698-65.646,99.602,60.976,259.248
			C704.741,1676.242,877.348,1912.357,1175.467,1751.961z"/>
		<path fill="#F9A03E" d="M1051.236,1614.662c0,0-116.682-239.106-316.159-357.535c0,0,211.012,144.567,300.84,347.524
			c0,0-127.021-8.108-355.172-271.125C680.746,1333.526,878.914,1599.368,1051.236,1614.662z"/>
		<path fill="#FCD638" d="M948.953,1539.604c0,0,4.697-97.842-20.559-146.455c-25.254-48.621-59.989-108.723-148.555-97.676
			c-88.565,11.046-75.87,122.764-65.622,149.592C724.468,1471.895,805.776,1549.285,948.953,1539.604z"/>
		<path fill="#D56B4C" d="M747.129,1379.957c-11.242,37.272,9.858,76.605,47.131,87.847c37.275,11.241,76.604-9.857,87.845-47.13
			c11.244-37.276-9.856-76.608-47.134-87.851C797.7,1321.581,758.369,1342.681,747.129,1379.957z"/>
		<path fill="#DD807C" d="M867.605,1360.24c0,0-7.748,106.955-119.492,50.776c0,0,2.924,47.861,54.149,54.123
			C853.485,1471.399,909.57,1420.901,867.605,1360.24z"/>
		<path fill="#FFFFFF" d="M803.001,1359.967c-1.233,4.091,1.083,8.418,5.18,9.651c4.097,1.235,8.419-1.085,9.655-5.178
			c1.236-4.097-1.083-8.418-5.18-9.656C808.563,1353.551,804.236,1355.867,803.001,1359.967z"/>
		<path opacity="0.4" fill="#FFFFFF" d="M797.233,1366.319c-1.234,4.091,1.084,8.418,5.181,9.652
			c4.095,1.233,8.417-1.085,9.652-5.179c1.235-4.097-1.083-8.419-5.18-9.655C802.792,1359.9,798.47,1362.22,797.233,1366.319z"/>
		<path fill="#FBDE34" d="M1134.671,1663.397c0,0-129.469-287.545-231.819-384.592c-102.355-97.043-163.017-119.446-210.383-103.735
			c0,0,197.723-25.304,440.312,494.598L1134.671,1663.397z"/>
		<path fill="#F9A03E" d="M691.19,1170.663c0,0-41.784,1.898-70.157,52.069c0,0-44.207,58.45,4.14,146.99
			c0,0,42.029,24.955,16.221,51.973c-25.811,27.015-36.517,139.265,40.431,223.724c91.23,100.134,112.892,155.377,336.444,158.276
			c0,0-170.918,3.114-282.288-117.993c0,0,25.914-15.174-7.592-45.578l-25.554,6.651l-33.127-51.179
			c0,0,61.993-29.883-15.368-27.113c0,0-28.86-58.01-21.188-88.324l45.024-24.852c0,0,8.728-38.695-26.198-44.878l7.033-16.001
			c0,0-52.008-71.52-44.99-121.608c0,0,50.56-18.824,56.965-16.89l9.345-37.063l-12.855-18.382l4.935-18.809L691.19,1170.663z"/>
		<path fill="#FFFFFF" d="M845.526,1397.782c-2.584,8.562-0.691,16.699,4.221,18.179c4.919,1.485,10.995-4.247,13.578-12.806
			c2.582-8.556,0.689-16.7-4.226-18.18C854.183,1383.49,848.107,1389.228,845.526,1397.782z"/>
		<path opacity="0.4" fill="#FFFFFF" d="M842.938,1406.355c-2.58,8.556-0.689,16.694,4.225,18.177
			c4.917,1.482,10.995-4.25,13.576-12.806c2.581-8.562,0.689-16.698-4.228-18.18
			C851.596,1392.064,845.519,1397.796,842.938,1406.355z"/>
		<path fill="#FFFFFF" d="M880.772,1382.523c0,0-3.047,53.022-29.599,76.663C851.173,1459.187,890.188,1437.149,880.772,1382.523z"
			/>
		<path fill="#F1DC74" d="M779.464,1343.653c0,0-50.387,47.378,1.486,116.247C780.95,1459.9,702.459,1403.863,779.464,1343.653z"/>
		<path fill="none" stroke="#31333E" stroke-width="8" stroke-miterlimit="10" d="M747.129,1379.957
			c-11.242,37.272,9.858,76.605,47.131,87.847c37.275,11.241,76.604-9.857,87.845-47.13c11.244-37.276-9.856-76.608-47.134-87.851
			C797.7,1321.581,758.369,1342.681,747.129,1379.957z"/>
		<path fill="#F9A03E" d="M1002.787,1652.944c0,0-68.603-30.101-106.985-70.959c0,0,57.24,57.028,120.718,82.651L1002.787,1652.944z
			"/>
		<path fill="#FCD06B" d="M633.428,1503.894c0,0,324.409,187.016,448.351,201.747l-64.169,98.915c0,0-139.512,9.485-229.124-63.623
			C698.879,1667.821,634.436,1554.206,633.428,1503.894z"/>
		<path fill="#F9A03E" d="M706.388,1531.779c0,0,95.17,45.97,144.183,136.276c0,0-81.204-28.813-126.662-64.1
			c0,0,46.13,47.359,134.446,72.916c0,0,61.265,50.849,140.892,58.687l1.791-5.936c0,0-96.867-18.019-132.592-54.018
			C832.72,1639.605,799.218,1569.489,706.388,1531.779z"/>
		<path fill="none" stroke="#31333E" stroke-width="8" stroke-miterlimit="10" d="M1175.801,1752.06
			c0,0-125.908-328.303-254.988-458.34c-129.074-130.042-172.613-130.092-228.562-125.166
			c-58.546,5.159-128.24,116.257-61.787,204.835c0,0,22.812,24.002,13.634,43.706c-9.177,19.699-65.648,99.604,60.972,259.247
			C705.07,1676.342,877.683,1912.459,1175.801,1752.06z"/>
	</g>
</g>
<g>
	<path fill="#F9A03E" d="M1972.819,1818.218c0,0,104.989-11.039,172.707-106.896c0,0-32.641,78.17-182.903,124.44L1972.819,1818.218
		z"/>
	<g>
		<path fill="#FBE988" d="M2114.658,1777.731c0,0,169.518-27.532,255.421,60.769c85.9,88.298,86.075,268.969-89.16,306.41
			c-175.228,37.447-244.645-104.596-244.645-104.596l-124.003-213.749L2114.658,1777.731z"/>
		<path fill="none" stroke="#F99F3D" stroke-width="7" stroke-miterlimit="10" d="M2036.274,2040.314
			c0,0,156.861,88.006,249.387,18.148c92.521-69.861,38.821-213.102-80.129-283.792"/>
		
			<line fill="none" stroke="#F99F3D" stroke-width="7" stroke-miterlimit="10" x1="2212.277" y1="2084.777" x2="2253.034" y2="2149.506"/>
		<path fill="none" stroke="#F99F3D" stroke-width="7" stroke-miterlimit="10" d="M2309.611,2035.558
			c0,0,52.34,14.366,85.885,43.624"/>
		<path fill="none" stroke="#F99F3D" stroke-width="7" stroke-miterlimit="10" d="M2332.524,1962.212c0,0,73.772,2.012,93.758,12.39
			"/>
		<path fill="none" stroke="#F99F3D" stroke-width="7" stroke-miterlimit="10" d="M2310.598,1881.807
			c0,0,47.439-20.321,76.766-15.655"/>
		<path fill="none" stroke="#F99F3D" stroke-width="7" stroke-miterlimit="10" d="M2287.089,1789.057
			c0,0,124.689,52.139,132.802,190.247c8.114,138.105-168.382,169.557-169.765,165.705"/>
		<path fill="#FFFFFF" d="M2216.427,2020.37c5.725,12.647,0.119,27.54-12.526,33.268s-27.541,0.114-33.265-12.532
			c-5.724-12.643-0.116-27.54,12.528-33.266C2195.806,2002.118,2210.699,2007.729,2216.427,2020.37z"/>
		<path fill="#CF92C1" d="M2094.388,1824.432c0,0,86.003,13.22,103.987,66.307c17.99,53.081-30.231,111.855-94.803,104.483
			c-64.569-7.374-155.005-148.601-155.005-148.601S2086.235,1814.52,2094.388,1824.432z"/>
		<g>
			<path fill="#F5872B" d="M2197.476,1952.139c7.017,15.496,0.145,33.746-15.354,40.762c-15.497,7.021-33.75,0.146-40.764-15.351
				c-7.018-15.497-0.143-33.749,15.351-40.768C2172.205,1929.767,2190.458,1936.643,2197.476,1952.139z"/>
			<path opacity="0.3" fill="#FBDAD0" d="M2142.396,1953.918c0,0,7.476,33.888,53.421,23.286c0,0-13.09,21.557-35.666,13.638
				C2137.57,1982.926,2138.993,1958.296,2142.396,1953.918z"/>
			<path fill="#FFFFFF" d="M2154.869,1962.059c1.52,3.352,1.115,6.805-0.897,7.721c-2.016,0.911-4.877-1.069-6.394-4.416
				c-1.515-3.35-1.114-6.805,0.9-7.719C2150.491,1956.734,2153.353,1958.712,2154.869,1962.059z"/>
			<path fill="#FFFFFF" d="M2190.089,1975.832c0.822,1.816,0.011,3.961-1.809,4.786c-1.819,0.822-3.964,0.019-4.786-1.801
				c-0.819-1.821-0.014-3.964,1.804-4.788C2187.118,1973.204,2189.259,1974.014,2190.089,1975.832z"/>
			<path fill="#FBDAD0" d="M2140.732,1958.97c0,0,11.869,36.736,47.704,27.595c0,0-17.697,14.983-33.729,2.683
				C2138.682,1976.941,2136.447,1963.903,2140.732,1958.97z"/>
			<path fill="none" stroke="#272C3E" stroke-width="5" stroke-miterlimit="10" d="M2197.476,1952.139
				c7.017,15.496,0.145,33.746-15.354,40.762c-15.497,7.021-33.75,0.146-40.764-15.351c-7.018-15.497-0.143-33.749,15.351-40.768
				C2172.205,1929.767,2190.458,1936.643,2197.476,1952.139z"/>
		</g>
		<path fill="#FFFFFF" d="M2282.754,1967.588c4.678,10.324,0.099,22.484-10.228,27.158c-10.326,4.679-22.479,0.096-27.155-10.225
			c-4.675-10.328-0.096-22.486,10.225-27.16C2265.924,1952.686,2278.081,1957.263,2282.754,1967.588z"/>
		<circle fill="#FFFFFF" cx="2257.15" cy="1900.771" r="15.314"/>
		<path fill="#F9A03E" d="M2240.396,1836.92c3.49,7.705,0.074,16.777-7.628,20.27c-7.71,3.484-16.782,0.07-20.271-7.635
			c-3.489-7.706-0.07-16.777,7.635-20.268C2227.836,1825.801,2236.91,1829.215,2240.396,1836.92z"/>
		<path fill="none" stroke="#31333E" stroke-width="8" stroke-miterlimit="10" d="M2114.444,1777.263
			c0,0,169.519-27.526,255.419,60.773c85.904,88.296,86.08,268.964-89.152,306.408c-175.229,37.441-244.648-104.596-244.648-104.596
			l-123.999-213.746L2114.444,1777.263z"/>
	</g>
	<g>
		<path fill="#FBE988" stroke="#31333E" stroke-width="8" stroke-miterlimit="10" d="M1788.406,1808.898
			c0,0,81.518-342.038,192.324-487.958c110.801-145.919,153.96-151.72,210.067-154.207c58.718-2.604,142.444,98.335,88.255,194.898
			c0,0-19.452,26.804-7.756,45.121c11.699,18.319,78.209,90.078-26.257,265.024
			C2245.04,1671.777,2105.07,1928.591,1788.406,1808.898z"/>
		<path fill="#F9A03E" d="M1893.447,1656.424c0,0,84.14-252.406,266.26-396.097c0,0-190.108,171.124-252.395,384.152
			c0,0,124.844-24.789,316.325-315.591C2223.638,1328.888,2062.252,1618.537,1893.447,1656.424z"/>
		<path fill="#FCD638" d="M1984.943,1568.531c0,0-17.554-96.369,1.069-147.886c18.622-51.524,45.126-115.683,134.379-116.411
			c89.248-0.726,91.396,111.69,84.772,139.63C2198.541,1471.814,2128.148,1559.252,1984.943,1568.531z"/>
		<path fill="#D56B4C" d="M2163.955,1383.668c16.058,35.465,0.332,77.234-35.135,93.293c-35.469,16.059-77.239,0.328-93.295-35.136
			c-16.062-35.468-0.334-77.238,35.137-93.298C2106.129,1332.47,2147.899,1348.203,2163.955,1383.668z"/>
		<path fill="#DD807C" d="M2041.932,1380.008c0,0,21.78,105,125.142,34.579c0,0,3.414,47.833-46.538,60.788
			C2070.584,1488.333,2008.332,1445.677,2041.932,1380.008z"/>
		<path fill="#FFFFFF" d="M2105.938,1371.218c1.762,3.894,0.033,8.487-3.863,10.251c-3.9,1.767-8.491,0.037-10.254-3.862
			c-1.766-3.896-0.035-8.486,3.86-10.251C2099.578,1365.592,2104.17,1367.322,2105.938,1371.218z"/>
		<path opacity="0.4" fill="#FFFFFF" d="M2112.49,1376.754c1.766,3.896,0.032,8.489-3.86,10.254
			c-3.897,1.759-8.487,0.034-10.251-3.863c-1.766-3.898-0.039-8.489,3.855-10.253
			C2106.131,1371.126,2110.725,1372.855,2112.49,1376.754z"/>
		<path fill="#FBDE34" d="M1817.166,1715.732c0,0,90.431-302.106,179.091-411.798c88.666-109.692,145.843-139.9,194.87-130.571
			c0,0-199.337,0.988-371.26,548.333L1817.166,1715.732z"/>
		<path fill="#F9A03E" d="M2191.811,1168.825c0,0,41.667-3.626,76.409,42.365c0,0,51.528,52.109,15.278,146.253
			c0,0-38.374,30.273-9.229,53.655c29.151,23.378,54.563,133.231-10.582,227.101c-77.23,111.287-91.42,168.904-312.635,201.256
			c0,0,169.836-19.449,264.264-154.183c0,0-27.689-11.624,1.519-46.183l26.205,3.227l26.096-55.101c0,0-65.396-21.445,11.653-28.903
			c0,0,20.959-61.311,9.358-90.349l-47.905-18.693c0,0-13.753-37.208,20.049-47.94l-9.079-14.938c0,0,42.123-77.748,28.565-126.478
			c0,0-52.604-11.99-58.695-9.231l-14.152-35.505l10.321-19.913l-7.373-18L2191.811,1168.825z"/>
		
			<ellipse transform="matrix(0.9109 -0.4126 0.4126 0.9109 -401.5874 976.4555)" fill="#FFFFFF" cx="2060.301" cy="1418.149" rx="9.295" ry="16.183"/>
		<path opacity="0.4" fill="#FFFFFF" d="M2072.463,1422.47c3.688,8.141,2.887,16.455-1.793,18.572
			c-4.676,2.117-11.457-2.764-15.144-10.903c-3.687-8.144-2.888-16.458,1.797-18.577
			C2062,1409.445,2068.778,1414.327,2072.463,1422.47z"/>
		<path fill="#FFFFFF" d="M2031.816,1403.836c0,0,10.012,52.157,39.449,72.086
			C2071.266,1475.922,2029.687,1459.227,2031.816,1403.836z"/>
		<path fill="#F1DC74" d="M2127.117,1351.948c0,0,56.191,40.318,13.853,115.428
			C2140.97,1467.376,2211.39,1401.477,2127.117,1351.948z"/>
		<path fill="none" stroke="#31333E" stroke-width="8" stroke-miterlimit="10" d="M2163.955,1383.668
			c16.058,35.465,0.332,77.234-35.135,93.293c-35.469,16.059-77.239,0.328-93.295-35.136c-16.062-35.468-0.334-77.238,35.137-93.298
			C2106.129,1332.47,2147.899,1348.203,2163.955,1383.668z"/>
		<path fill="#F9A03E" d="M1946.521,1687.979c0,0,64.036-38.883,96.697-84.443c0,0-49.221,64.078-108.765,97.846L1946.521,1687.979z
			"/>
		<path fill="#FCD06B" d="M2293.006,1491.531c0,0-296.92,228.156-417.84,259.098l76.654,89.596c0,0,139.545-8.996,218.73-93.281
			C2249.74,1662.658,2298.638,1541.535,2293.006,1491.531z"/>
		<path fill="#F9A03E" d="M2224.357,1528.796c0,0-88.276,58.112-124.953,154.093c0,0,76.693-39.269,117.1-80.236
			c0,0-39.479,53.024-123.657,90.003c0,0-54.021,58.485-131.921,76.751l-2.56-5.646c0,0,93.646-30.632,124.314-71.029
			C2113.348,1652.335,2137.31,1578.412,2224.357,1528.796z"/>
		<path fill="none" stroke="#31333E" stroke-width="8" stroke-miterlimit="10" d="M1788.089,1809.045
			c0,0,81.521-342.043,192.329-487.961c110.803-145.92,153.959-151.717,210.064-154.208c58.713-2.604,142.444,98.336,88.254,194.9
			c0,0-19.447,26.802-7.756,45.121c11.7,18.317,78.209,90.077-26.257,265.022C2244.724,1671.92,2104.755,1928.733,1788.089,1809.045
			z"/>
	</g>
</g>
<path fill="#FFFFFF" d="M1197.266,2280.255l-136.655-28.71c-88.919-46.953-145.242-145.74-131.089-253.305l95.44-501.135
	l346.451,180.429h99.347l410.721-208.184l151.581,493.502c38.88,137.466-45.056,274.138-175.246,308.931l-135.476,8.375h-531.932"/>
<path fill="#FFFFFF" stroke="#3E3F4A" stroke-width="9" stroke-miterlimit="10" d="M1168.045,796.947
	c0,0-109.336-126.181-131.768-140.556c-22.435-14.376-71.644-68.422-78.148,9.948c-6.507,78.37-18.854,284.469,28.312,351.887
	C1033.604,1085.643,1168.045,796.947,1168.045,796.947z"/>
<path fill="#E69EC6" stroke="#3E3F4A" stroke-width="9" stroke-miterlimit="10" d="M1135.505,828.152
	c0,0-94.597-109.17-114.005-121.607c-19.41-12.438-61.985-59.198-67.612,8.607c-5.63,67.804-16.313,246.121,24.495,304.449
	C1019.188,1077.931,1135.505,828.152,1135.505,828.152z"/>
<path fill="#FFFFFF" stroke="#3E3F4A" stroke-width="9" stroke-miterlimit="10" d="M1673.621,765.502
	c0,0,120.306-115.768,143.947-128.055c23.645-12.285,77.54-61.656,76.928,16.979c-0.611,78.637-6.968,285.009-60.043,347.881
	C1781.383,1065.179,1673.621,765.502,1673.621,765.502z"/>
<path fill="#E69EC6" stroke="#3E3F4A" stroke-width="9" stroke-miterlimit="10" d="M1683.534,818.392
	c0,0,115.301-110.951,137.959-122.727c22.659-11.774,74.314-59.092,73.726,16.273c-0.585,75.365-6.677,273.15-57.544,333.405
	C1786.813,1105.599,1683.534,818.392,1683.534,818.392z"/>
<path fill="#FFFFFF" d="M1728.737,2279.735l128.625-7.854c0,0,5.597,18.373,19.513,20.538c13.914,2.165,37.504,6.197,32.871,39.634
	c-4.632,33.436-59.415,27.645-84.72,27.1C1799.722,2358.609,1720.89,2359.432,1728.737,2279.735z"/>
<path fill="#FFFFFF" d="M2026.334,2118.264c0,0,178.204,59.581,191.105,88.91c12.905,29.329-27.502,51.089-88.607,41.688
	c-61.103-9.403-206.377-4.892-206.377-4.892L2026.334,2118.264z"/>
<path opacity="0.1" fill="#3E3F4A" d="M2040.466,2246.013l53.614-104.427l-63.917-25.914c0,0-26.987,71.551-100.328,126.194
	L2040.466,2246.013z"/>
<path fill="#FFFFFF" d="M1060.265,2251.445l129.691,28.713c0,0-5.717,51.995-25.565,65.173
	c-19.849,13.176-32.282,22.946-91.112,16.917c-58.83-6.027-70.894-1.496-73.866-39.968
	C996.44,2283.807,1061.974,2323.553,1060.265,2251.445z"/>
<path fill="#FFFFFF" d="M946.353,2115.932L946.353,2115.932c-0.103,0.032-207.872,66.359-209.943,100.536
	c-2.071,34.187,51.938,35.766,105.362,34.705c53.425-1.062,225.815,0.216,225.815,0.216L946.353,2115.932z"/>
<path opacity="0.1" fill="#3E3F4A" d="M895.444,2133.304c0,0,12.667,95.392,61.76,114.572l82.231-4.181
	c0,0-80.108-77.833-98.298-128.023L895.444,2133.304z"/>
<path fill="none" stroke="#31343F" stroke-width="9.375" stroke-linecap="round" stroke-miterlimit="10" d="M941.137,2115.672
	c-37.986,9.072-129.994,43.266-183.923,78.056c-26.417,17.05-10.074,55.726,23.125,55.127l279.524-5.483"/>
<path fill="none" stroke="#31343F" stroke-width="9.375" stroke-linecap="round" stroke-miterlimit="10" d="M2027.126,2118.461
	c47.353,13.76,136.377,45.959,179.24,75.267c26.018,17.745,10.066,55.726-23.124,55.127l-260.787-5.084"/>
<path opacity="0.1" fill="#3E3F4A" d="M1032.772,653.995c0,0,19.733,218.037,19.866,223.82
	c0.13,5.784,69.489-104.079,79.984-116.384C1143.114,749.126,1032.772,653.995,1032.772,653.995z"/>
<path opacity="0.1" fill="#767677" d="M1826.508,840.232l47.111-223.886c0,0,29.784-13.218,13.758,117.673
	c-0.752,6.16-11.063,161.031-19.301,173.687C1868.076,907.706,1832.809,847.124,1826.508,840.232z"/>
<linearGradient id="SVGID_1_" gradientUnits="userSpaceOnUse" x1="1931.4141" y1="1485.5645" x2="1931.4141" y2="2243.8384">
	<stop  offset="0" style="stop-color:#FFFFFF"/>
	<stop  offset="0.72" style="stop-color:#FFFFFF"/>
	<stop  offset="1" style="stop-color:#FFFFFF"/>
</linearGradient>
<path opacity="0.1" fill="url(#SVGID_1_)" d="M1875.723,1485.564l117.986,372.174c0,0,17.43,62.729,35.858,111.622
	c18.428,48.895,13.733,199.793-113.354,274.478c0,0,102.629-85.039,77.785-219.371c-24.847-134.333-168.678-488.426-168.678-488.426
	L1875.723,1485.564z"/>
<g>
	<defs>
		<polyline id="SVGID_2_" points="2039.089,222.282 2376.771,1706.795 936.851,2034.336 599.168,549.821 		"/>
	</defs>
	<clipPath id="SVGID_3_">
		<use xlink:href="#SVGID_2_"  overflow="visible"/>
	</clipPath>
</g>
<path opacity="0.1" fill="#3E3F4A" d="M1196.462,2275.722h517.584l-30.927-196.623c0,0-1.276,74.942-33.858,108.568
	c-32.586,33.627-59.636,36.954-78.579,38.856c-18.942,1.901-280.317,28.053-319.755-16.037
	c-39.439-44.089-31.508-59.989-31.508-59.989L1196.462,2275.722z"/>
<path fill="#35B891" stroke="#3E3F4A" stroke-width="9" stroke-miterlimit="10" d="M987.331,1405.7"/>
<path fill="#FFEF87" d="M2019.354,2111.929l-37.688-22.824c-8.6-5.192-19.423-4.952-27.775,0.616l-25.652,17.076
	c-4.944,3.303-8.598,8.211-10.354,13.887l-6.106,19.729c-3.316,10.726,0.65,22.368,9.825,28.837l45.557,32.028l37.505-42.818
	L2019.354,2111.929z"/>
<path fill="#FFEF87" d="M2040.107,2016.678l-38.574,11.059c-6.314,1.809-10.679,7.578-10.701,14.152v3.719
	c0.011,5.246,2.804,10.094,7.344,12.732l36.885,21.412L2040.107,2016.678z"/>
<path fill="#FFEF87" d="M1863.464,2189.619l13.444-1.415c9.746-1.059,19.58,0.756,28.308,5.219l47.24,24.149l-56.085,37.42
	l-35.474,12.828L1863.464,2189.619z"/>
<path fill="#FFEF87" d="M1858.773,1888.145l11.413,31.225c0.885,2.419,0.657,5.105-0.619,7.347l-11.679,20.874
	c-1.354,2.423-3.781,4.063-6.541,4.409c-2.756,0.349-5.518-0.632-7.433-2.641l-26.363-27.156c-3.101-3.212-3.295-8.241-0.442-11.678
	l18.133-22.03c1.045-1.266,2.427-2.215,3.982-2.738l8.401-2.831C1852.148,1881.321,1857.115,1883.648,1858.773,1888.145z"/>
<path fill="#FFEF87" d="M1778.455,1780.665l52.54,73.953c1.441,2.047,2.217,4.489,2.214,6.989c-0.01,3.691-1.707,7.172-4.599,9.464
	l-21.144,16.808c-2.811,2.239-6.475,3.114-9.994,2.388c-11.854-2.388-38.481-9.378-43.88-23.706l-17.956-49.981
	c-1.488-4.112-0.645-8.718,2.214-12.03l21.493-24.947c2.457-2.818,6.079-4.349,9.811-4.144
	C1772.893,1775.666,1776.324,1777.588,1778.455,1780.665z"/>
<path fill="#FFEF87" d="M1953.958,1814.014c-20.608,10.881-47.857,26.714-63.87,42.193c-6.561,6.295-9.402,15.527-7.519,24.42
	l9.907,46.351c1.068,5.04,3.59,9.651,7.256,13.269l31.051,30.519c7.896,7.772,19.824,9.759,29.808,4.958
	c15.039-7.259,36.892-18.577,51.22-30.169c8.441-6.87,11.753-18.245,8.316-28.571l-28.924-87.932
	c-2.416-7.357-7.946-13.273-15.131-16.17C1968.894,1809.981,1960.802,1810.395,1953.958,1814.014z"/>
<path fill="#FFEF87" d="M1920.964,1669.111c-15.659-5.039-38.305-11.674-57.324-15.213c-14.464-2.677-29.069,3.921-36.624,16.539
	c-9.64,16.017-22.117,39.809-26.184,61.75c-1.581,8.66,0.154,17.594,4.863,25.034c8.405,13.446,24.066,37.505,37.952,54.58
	c10.523,12.896,28.645,16.661,43.433,9.022c17.874-9.198,42.991-23.265,58.829-37.063c9.776-8.5,14.062-21.706,11.143-34.323
	l-12.472-54.672C1941.795,1682.643,1932.814,1672.891,1920.964,1669.111z"/>
<path fill="#FFEF87" d="M951.646,2123.465l25.016,6.831c13.373,3.667,23.42,14.739,25.786,28.401l8.493,49.116l-50.698-60.82
	L951.646,2123.465z"/>
<path fill="#FFEF87" d="M1061.121,2106.671l-18.922,17.058c-7.307,6.614-11.563,15.94-11.767,25.793l-1.574,75.898l41.675,29.024
	l-2.838-105.315L1061.121,2106.671z"/>
<path fill="#FFEF87" d="M926.897,2022.656c0,0,35.205-33.637,66.19-52.461c6.813-4.105,15.286-4.301,22.283-0.511
	c6.992,3.789,11.459,10.996,11.742,18.943c0.689,20.591,3.238,45.694,10.786,55.402l23.534,34.224l-29.121,32.361
	c-7.278,8.124-18.732,11.065-29.024,7.45l-64.718-22.748L926.897,2022.656z"/>
<path fill="#FFEF87" d="M1201.727,1891.668h15.49c3.748-0.033,7.115,2.279,8.432,5.787l2.748,7.258
	c0.587,1.369,0.587,4.703,0.587,8.134c-0.041,2.495-1.125,4.86-2.988,6.521c-1.864,1.652-4.334,2.455-6.818,2.21l-18.238-1.665
	c-4.621-0.408-8.156-4.291-8.142-8.929v-10.294c-0.024-2.381,0.904-4.68,2.58-6.371
	C1197.058,1892.625,1199.341,1891.668,1201.727,1891.668z"/>
<path fill="#FFEF87" d="M1193.489,1835.091l2.846,30.2c0.209,2.14,1.142,4.146,2.644,5.689c3.826,4.018,12.554,10.883,26.773,10.392
	c3.998-0.133,7.485-2.763,8.722-6.567l10.69-33.442c0.806-2.538,0.516-5.297-0.807-7.605c-1.323-2.313-3.555-3.96-6.154-4.55
	c-9.903-2.161-24.908-4.902-35.598-4.414c-2.593,0.098-5.036,1.254-6.757,3.197
	C1194.121,1829.938,1193.269,1832.502,1193.489,1835.091z"/>
<path fill="#FFEF87" d="M1256.197,1725.947l46.088-21.476c5.934-2.789,12.793-2.87,18.79-0.22
	c6.001,2.656,10.557,7.779,12.492,14.045c3.137,10.297,5.097,25.005,3.232,45.5c-3.135,34.323-47.952,45.598-80.208,49.325
	c-7.461,0.833-14.857-2.067-19.755-7.757c-4.904-5.686-6.686-13.423-4.759-20.68l11.766-44.027
	C1245.574,1734.16,1250.1,1728.771,1256.197,1725.947z"/>
<path fill="#FFEF87" d="M983.202,1913.731l31.379-26.28c3.258-2.729,5.479-6.507,6.271-10.686l7.843-41.48
	c0.904-4.684-0.045-9.535-2.644-13.535l-19.419-29.709c-9.018-13.823-30.198-9.707-33.534,6.373l-19.805,97.475
	C949.759,1912.945,969.86,1924.911,983.202,1913.731z"/>
<path fill="#FFEF87" d="M1085.817,1792.064c15.986-1.861,40.895-1.763,66.487,9.613c5.924,2.645,10.321,7.839,11.96,14.119
	c3.827,14.316,9.71,42.854,5.981,70.993c-0.909,6.646-4.907,12.461-10.787,15.689c-11.864,6.669-32.456,17.456-39.61,17.456
	c-7.162,0-36.676-25.889-50.7-38.831c-4.848-4.489-7.346-10.969-6.768-17.553l4.515-52.069
	C1067.804,1801.341,1075.705,1793.235,1085.817,1792.064z"/>
<path fill="#FFEF87" d="M1026.763,1620.814l86.976-37.65c12.958-5.615,28.054-2.298,37.463,8.233
	c15.199,16.967,36.378,46.189,46.474,85.802c1.33,5.246,1.33,10.743,0,15.986c-5.233,20.599-12.803,40.537-22.553,59.422
	c-6.827,13.08-21.576,19.954-35.985,16.768l-72.956-15.98c-9.888-2.177-18.213-8.798-22.555-17.946l-33.437-70.505
	c-3.821-8.024-4.208-17.26-1.083-25.583C1012.232,1631.041,1018.602,1624.344,1026.763,1620.814z"/>
<path fill="#FFEF87" d="M1215.462,1612.906c-6.844,1.854-12.518,6.635-15.505,13.064c-2.989,6.43-2.983,13.851,0.009,20.273
	c12.458,26.772,31.677,65.019,41.186,67.958c9.515,2.942,47.172-9.513,67.86-17.261c8.811-3.321,14.869-11.488,15.489-20.884
	l4.22-60.896c0.562-7.777-2.682-15.341-8.708-20.294c-6.023-4.951-14.07-6.671-21.594-4.612L1215.462,1612.906z"/>
<path fill="#FFEF87" d="M1694.944,1771.906l19.106,15.038c1.327,1.022,2.289,2.452,2.74,4.069l15.129,56.968
	c0.698,2.728-0.125,5.618-2.16,7.563c-2.036,1.943-4.971,2.64-7.66,1.814l-19.462-6.191c-2.615-0.834-4.596-2.986-5.219-5.664
	l-14.86-65.815c-0.685-3.198,0.697-6.481,3.47-8.225C1688.799,1769.723,1692.358,1769.898,1694.944,1771.906z"/>
<path fill="#FFEF87" d="M1791.723,1633.641l22.822,13.448c3.807,2.22,8.637,1.604,11.765-1.508l8.933-8.845
	c2.236-2.229,3.25-5.404,2.726-8.516c-0.532-3.109-2.536-5.771-5.379-7.141l-24.062-11.588c-3.581-1.728-7.856-1.095-10.792,1.589
	l-7.607,6.991c-2.281,2.076-3.447,5.113-3.128,8.188C1787.313,1629.327,1789.063,1632.07,1791.723,1633.641z"/>
<path fill="#FFEF87" d="M1795.879,1678.842l-19.73,54.496c-1.62,4.483-4.294,8.516-7.78,11.762l-15.66,14.51
	c-10.93,10.145-27.646,10.743-39.273,1.415l-35.123-28.129c-8.965-7.191-13.052-18.866-10.528-30.077l10.267-45.381
	c2.897-12.705,13.647-22.098,26.628-23.269l45.732-4.067c6.264-0.555,12.546,0.87,17.958,4.067l14.508,8.583
	C1795.316,1650.098,1800.776,1665.252,1795.879,1678.842z"/>
<path opacity="0.1" fill="#3E3F4A" d="M1920.834,2023.587c0,0-81.378,83.196-69.748,253.892c0,0,193.172-51.584,192.446-268.31
	c0,0-24.384,98.926-96.79,115.745C1874.336,2141.731,1920.834,2023.587,1920.834,2023.587z"/>
<path opacity="0.1" fill="#3E3F4A" d="M1024.509,1497.105l-61.994,344.443c0,0-14.193,84.537-30.706,160.739
	c-16.512,76.203,38.833,197.146,121.871,241.471c0,0,7.198-168.787-46.153-214.716l76.888-489.158L1024.509,1497.105z"/>
<path fill="#31343F" d="M1237.504,2039.316c-1.693,15.245-3.785,30.298-5.981,45.454l-3.489,22.624l-3.784,22.53
	c-2.597,15.057-5.385,30.01-8.082,45.062l-8.269,44.959l-16.547,90.02c-0.799,4.087-1.993,8.171-3.489,12.063
	c-1.495,3.887-3.292,7.771-5.384,11.364c-4.191,7.273-9.568,13.851-15.949,19.335c-12.861,11.068-28.91,17.549-45.759,18.744
	l-6.282,0.197h-6.08l-11.464-0.696l-22.831-1.298l-45.653-2.788h-4.689l-1.791-0.302c-2.294-0.399-4.486-0.998-6.683-1.691
	c-4.583-1.597-8.67-4.087-12.257-7.278c-3.587-3.288-6.381-7.276-8.276-11.662c-1.791-4.29-2.893-8.875-3.089-13.461
	c-0.197-4.385,0.098-8.871,0.998-13.157l0.196-0.799v-1.696l0.302-1.096c0.399-1.193,0.897-2.394,1.495-3.587
	c1.096-2.191,2.493-4.289,4.087-6.18c3.088-3.591,6.78-6.583,10.965-8.773c3.988-2.092,8.276-3.588,12.665-4.484
	c2.19-0.401,4.381-0.801,6.578-0.9l2.689-0.195l2.092-0.303c1.495-0.296,2.893-0.697,4.289-1.193
	c1.299-0.498,2.592-1.098,3.792-1.896c4.583-2.99,7.672-8.375,9.364-14.755c1.601-6.776,2.197-13.754,1.797-20.732l-0.898-22.828
	l-1.896-45.759c-0.596-15.249-1.292-30.501-1.791-45.757v0.499c-0.597-4.985-1.298-9.867-1.993-14.851
	c-0.4-2.493-0.799-4.886-1.199-7.379c-0.394-2.49-0.893-4.886-1.391-7.278c-0.499-2.395-0.997-4.885-1.6-7.275l-1.791-7.178
	c-1.298-4.784-2.695-9.473-4.387-14.156c-0.8-2.294-1.692-4.583-2.59-6.878c-0.898-2.293-1.797-4.585-2.893-6.782l-1.495-3.385
	l-1.595-3.291l-1.698-3.292l-1.791-3.285l-1.795-3.192l-1.896-3.191l-3.987-6.28c-1.391-2.092-2.788-4.087-4.283-6.179l-2.197-2.99
	l-2.289-2.992c-0.801-0.898-0.702-2.293,0.197-3.186c0.898-0.9,2.296-0.701,3.193,0.195l5.378,5.582
	c1.698,1.896,3.391,3.889,5.09,5.881c1.691,1.993,3.285,3.989,4.781,6.081l2.294,3.194l2.19,3.189
	c1.496,2.188,2.892,4.286,4.191,6.577l1.994,3.39l1.889,3.392c1.298,2.289,2.394,4.583,3.489,6.976
	c1.102,2.395,2.196,4.682,3.194,7.175c1.993,4.789,3.785,9.674,5.384,14.659c1.593,4.982,2.991,9.967,4.185,14.952
	c0.596,2.493,1.192,5.082,1.691,7.576c0.499,2.493,1.103,5.081,1.496,7.574c0.898,5.085,1.698,10.167,2.394,15.256v0.495
	c0.897,15.252,1.593,30.506,2.393,45.653l2.296,45.661l1.094,22.831c0.198,4.084,0.198,8.17-0.098,12.258
	c-0.3,4.19-0.897,8.372-1.895,12.46c-0.498,2.092-1.2,4.189-1.994,6.282c-0.898,2.093-1.895,4.186-3.089,6.179
	c-2.491,4.087-5.784,7.678-9.771,10.367c-3.987,2.594-8.473,4.488-13.156,5.289l-3.488,0.498l-2.991,0.195
	c-1.601,0.1-3.096,0.301-4.689,0.598c-3.089,0.598-5.981,1.698-8.77,3.194c-2.596,1.392-4.984,3.287-6.88,5.481
	c-0.897,0.997-1.593,2.093-2.196,3.286c-0.598,1.199-0.998,2.394-1.194,3.692c-0.695,3.189-0.898,6.375-0.695,9.568
	c0.197,2.991,0.793,5.884,1.994,8.674c1.095,2.588,2.788,4.98,4.879,6.877c2.099,1.895,4.591,3.39,7.279,4.288
	c1.397,0.499,2.893,0.795,4.388,1.095l0.997,0.199h3.889l45.653,2.693l22.83,1.392l11.464,0.702h10.466
	c13.761-0.898,26.916-6.184,37.482-15.154c5.188-4.487,9.569-9.771,13.059-15.651c3.489-5.981,5.979-12.362,7.378-19.139
	l17.346-89.821l8.67-44.957c2.893-14.955,5.784-29.906,8.776-44.861l4.683-22.428l4.984-22.332
	c3.391-14.85,6.979-29.703,10.966-44.457c0.203-1.398,1.397-2.293,2.695-2.192
	C1236.605,2036.52,1237.707,2037.916,1237.504,2039.316z"/>
<path fill="#31343F" d="M1681.212,2023.759l2.196,9.37c1.397,6.08,3.39,15.053,5.778,26.517c1.199,5.685,2.491,12.066,3.889,18.941
	l4.385,22.43l4.79,25.522l4.984,28.31l23.225,134.877c1.097,6.08,1.993,12.765,3.587,17.746c1.698,5.481,4.091,10.764,7.18,15.649
	c6.278,9.971,15.251,18.044,25.822,23.328l4.086,1.896l1.095,0.395l0.996,0.399l1.994,0.7c2.689,0.793,5.58,1.393,8.374,1.693
	l4.285,0.301h4.589l9.968-0.301l39.974-1.396l39.28-1.195l2.49-0.302l1.194-0.198l0.9-0.199l1.893-0.395l1.891-0.605
	c2.395-0.793,4.487-1.992,6.479-3.488c1.798-1.492,3.291-3.285,4.291-5.377c0.197-0.603,0.594-1.102,0.694-1.697l0.604-1.793
	c0.394-1.299,0.595-2.597,0.794-3.888c0.202-1.397,0.302-2.696,0.4-4.087v-2.099c0,0,0-1.392-0.099-2.189l-0.204-2.191v-0.302
	c0,0.196-0.196,0.302-0.297,0.196c-0.201,0-0.301-0.196-0.201-0.297c0-0.2,0.201-0.298,0.302-0.2c0.099,0,0.196,0.105,0.196,0.2
	v-1.591l-0.196-0.801l-0.199-0.897c-0.103-0.597-0.4-1.295-0.6-1.896c-1.694-4.982-4.686-9.27-8.372-11.662
	c-1.992-1.193-4.091-1.992-6.381-2.294l-1.795-0.199l-2.591-0.196h-1.193l-1.497-0.204l-2.893-0.496
	c-3.789-0.897-7.476-2.289-10.866-4.186c-3.488-1.993-6.577-4.687-9.07-7.975c-2.396-3.089-4.087-6.683-5.286-10.368
	c-0.997-3.488-1.691-7.076-1.895-10.665c-0.099-0.897-0.099-1.698-0.099-2.596v-7.173l0.202-9.07l0.794-35.293l0.202-8.572v-4.583
	l0.298-4.192l0.301-4.185c0.098-1.395,0.196-2.694,0.4-4.189l0.995-8.37c1.496-10.572,3.589-21.037,6.379-31.399
	c2.49-9.471,5.584-18.744,9.072-27.916l2.689-6.378c0.899-2.094,1.694-4.191,2.691-6.186l2.794-5.875
	c0.898-1.896,1.795-3.889,2.793-5.686l2.887-5.386l1.394-2.592l1.498-2.49l2.891-4.889c0.898-1.59,1.796-3.185,2.793-4.68
	l5.581-8.673l5.387-7.678l2.589-3.489l2.492-3.188c1.594-2.092,3.091-4.086,4.586-5.783l4.086-4.886l3.488-3.987l6.579-7.076
	c0.799-0.897,2.196-1.098,3.096-0.298c0.891,0.794,1.094,2.192,0.295,3.089l-5.582,7.773c-3.59,5.088-8.776,12.566-14.854,22.43
	l-4.682,7.778l-4.788,8.772c-0.896,1.498-1.694,3.093-2.491,4.684l-2.492,4.888l-1.294,2.491l-1.199,2.591l-2.49,5.384
	c-7.38,16.246-13.361,33.095-17.646,50.44l-0.897,3.59l-0.4,1.796l-0.401,1.791l-1.493,7.379l-0.396,1.893l-0.298,1.896
	l-0.601,3.785l-0.597,3.889l-0.301,1.895l-0.196,1.896l-0.899,7.773c-0.201,1.297-0.201,2.694-0.299,4.091l-0.298,4.185
	l-0.304,4.186v12.46l-0.497,35.291v15.751c0,0,0,1.397,0.1,1.995c0.203,2.492,0.701,5.082,1.398,7.478
	c0.693,2.188,1.794,4.28,3.187,6.178c2.694,3.586,6.879,5.783,11.961,6.879l1.797,0.301l0.898,0.197h1.195l2.196,0.198l2.99,0.301
	c4.087,0.596,8.072,1.992,11.661,4.184c3.489,2.197,6.578,5.088,8.973,8.475c2.295,3.193,4.087,6.781,5.385,10.468
	c0.294,0.896,0.597,1.796,0.794,2.792l0.399,1.397l0.3,1.595v2.891l0.198,2.692c0.098,0.896,0.098,1.793,0.098,2.792
	c0,0.998,0.104,1.79,0,2.787c-0.098,1.896-0.196,3.79-0.497,5.685c-0.297,1.993-0.695,3.891-1.194,5.778l-0.996,2.893
	c-0.302,0.996-0.801,1.895-1.299,2.893c-1.89,3.887-4.585,7.279-7.872,10.068c-3.293,2.589-6.878,4.688-10.867,5.98l-2.792,0.896
	l-2.991,0.696l-1.495,0.301l-1.294,0.199l-2.491,0.302h-5.685l-4.984,0.195l-9.969,0.399l-20.038,0.702l-39.973,1.291l-9.968,0.303
	h-5.385l-5.583-0.4c-3.689-0.398-7.375-1.193-10.963-2.295l-2.696-0.893l-1.39-0.496l-1.201-0.501l-4.886-2.296
	c-12.856-6.479-23.626-16.35-31.297-28.508c-3.789-5.98-6.684-12.364-8.675-19.143l-0.696-2.591l-0.301-1.295
	c-0.101-0.396-0.197-0.897-0.297-1.297l-0.498-2.294l-0.203-1.195v-1.398l-1.495-9.265l-21.931-135.183l-4.486-28.408l-3.783-25.62
	l-3.196-22.625c-0.995-6.979-1.789-13.36-2.491-19.243c-1.494-11.563-2.492-20.736-3.188-27.014l-0.997-9.568
	c0.4-1.102,1.692-1.698,2.788-1.298C1680.614,2023.162,1680.915,2023.463,1681.212,2023.759z"/>
<path fill="none" stroke="#3E3F4A" stroke-width="9" stroke-miterlimit="10" d="M1196.813,2280.255l-136.655-28.71
	c-88.918-46.953-145.241-145.74-131.089-253.305l95.44-501.135l346.451,180.429h99.347l410.721-208.184l151.582,493.502
	c38.879,137.466-45.057,274.138-175.247,308.931l-135.476,8.375h-531.931"/>
<path fill="#FFFFFF" stroke="#3E3F4A" stroke-width="9" stroke-miterlimit="10" d="M1979.573,1394.217
	c-184.104,281.461-567.411,347.623-601.822,336.869c-34.411-10.753-436.598-193.565-436.598-335.511
	c0,0-27.669-520.122,236.726-677.123c264.394-157.001,638.293,1.678,680.684,181.317
	C1898.314,1068.233,1979.573,1394.217,1979.573,1394.217z M1186.506,943.238c0,0-105.54,88.708-130.093,441.717
	c0,0,252.532,237.831,358.97,243.464c0,0,291.951-70.376,408.116-231.592c0,0-3.09-384.297-220.979-499.637
	C1357.529,767.502,1186.506,943.238,1186.506,943.238z"/>
<path fill="#FFFFFF" stroke="#3E3F4A" stroke-width="9" stroke-miterlimit="10" d="M1303.378,716.768
	c0,0-31.977-48.089-63.954-47.491c-31.977,0.599,29.312-35.24,82.607,0c0,0-19.481-31.53-45.714-52.772
	c0,0,43.049-13.248,80.355,34.718c0,0-95.93-234.83,63.954-42.803c0,0,95.931-189.029,45.3,42.803
	c0,0,141.231-107.745,47.965,47.387"/>
<path opacity="0.1" fill="#3E3F4A" d="M1143.257,742.31c0,0-225.505,171.088-193.526,690.978c0,0,63.99,113.794,230.507,199.434
	c0,0-182.992-145.876-171.774-212.478C1019.68,1353.642,979.057,1108.22,1143.257,742.31z"/>
<path opacity="0.1" fill="#767677" d="M1812.525,818.807c0,0,39.906,18.994,58.193,132.025l108.854,443.384l-49.738,65.806
	C1929.835,1460.023,1885.928,997.422,1812.525,818.807z"/>
</svg>
