<?xml version="1.0" encoding="utf-8"?>
<!-- Generator: Adobe Illustrator 16.0.0, SVG Export Plug-In . SVG Version: 6.00 Build 0)  -->
<!DOCTYPE svg PUBLIC "-//W3C//DTD SVG 1.1//EN" "http://www.w3.org/Graphics/SVG/1.1/DTD/svg11.dtd">
<svg version="1.1" xmlns="http://www.w3.org/2000/svg" xmlns:xlink="http://www.w3.org/1999/xlink" x="0px" y="0px" width="2250px"
	 height="2250px" viewBox="0 0 2250 2250" enable-background="new 0 0 2250 2250" xml:space="preserve">
<g id="Layer_2">
</g>
<g id="Layer_1">
	<rect x="1" display="none" fill="none" stroke="#AFD0F7" stroke-miterlimit="10" width="2250" height="2250"/>
</g>
<g id="Layer_3">
	<g>
		<g>
			<g>
				<path fill="#EDEEE8" stroke="#31323D" stroke-width="9.375" stroke-linecap="round" stroke-linejoin="round" d="
					M1320.638,1513.111c0,0-4.884-16.377,0.225-34.189s-10.224-27.813,2.442-75.145c0,0,6.509-69.334,2.921-82
					s5.826,2.492-2.158-55.215s-1.299-175.765-1.299-175.765s15.71-346.583,6.123-369.798s213.746-61.687,213.746-61.687
					s7.921-3.97,4.294,79.584s-33.315,61.938-4.322,207.674c0,0,38.065,115.848,48.254,129.928
					c10.188,14.078,26.006,83.946,29.557,86.614c3.551,2.666,10.277,28.264,30.581,59.465s8.971,55.201-25.696,85.867
					s-30.165,51.996-101.416,79.33s-120.584,56.668-122.584,100.668C1401.305,1488.443,1405.305,1513.779,1320.638,1513.111z"/>
				<path fill="#31323D" d="M1426.881,692.465c0,0-20.91,255.499-13.91,289.499c7,34,60,121,62,143.999c0,0-25-51.298-38.5-67.148
					s-41.5-73.646-34.5-152.748S1426.881,692.465,1426.881,692.465z"/>
				<path fill="#31323D" d="M1493.971,931.113c0,0,42,161.5-14,341.249l-67,141l62-142.469
					C1474.971,1270.893,1517.971,1184.111,1493.971,931.113z"/>
				<path fill="#31323D" d="M1358.971,699.113c0,0-1.801,109,13.1,230C1372.07,929.113,1359.229,705.215,1358.971,699.113z"/>
			</g>
			<path opacity="0.1" fill="#31323D" d="M1547.585,961.525c0,0,21.177,146.527,23.817,197.098
				c2.641,50.572-11.908,85.07-11.908,85.07s-6.729,3.402,0.16,12.951c6.89,9.547-0.89,13.137,0,22.592s0,21.455,0,21.455
				l-12.069,11.42l12.069,14c0,0-8.529,0.994-12.069,14.035s8.459-3.457-3.54,13.041c-11.999,16.5-6.103,16.5-14.301,21
				s-13.811,10.6-13.811,10.6l40.469-11.676l38.861-31.504l24.625-21.537c0,0,18.841-21.381,21.53-25.863
				s18.751-33.613,18.751-33.613v-17.088l-21.63-43.311l-18.12-37.082c0,0-8.312-24.234-12.345-29.574s-5.896-29.185-5.896-29.185
				l-14.128-23.242l-9.092-31.024L1547.585,961.525z"/>
			<path opacity="0.15" fill="#31323D" d="M1442.913,683.709c0,0-0.429,3.423-1.158,9.534
				c-5.439,45.548-27.577,240.406-13.111,279.744c16.406,44.616,48.963,149.635,49.934,160.871
				c0.971,11.236-48.4-90.171-77.712-148.211C1371.554,927.607,1437.776,691.798,1442.913,683.709z"/>
			<path opacity="0.1" fill="#31323D" d="M1369.971,705.113l2.1,224C1372.07,929.113,1330.89,783,1369.971,705.113z"/>
		</g>
		<g>
			<g>
				<path fill="#EDEEE8" stroke="#31323D" stroke-width="9.375" stroke-linecap="round" stroke-linejoin="round" d="
					M804.545,1567.869c0,0,8-68.617,8.667-71.883s5.737-135.934,5.737-135.934s-7.737-105.998-10.403-105.332
					s-3.208-196.806-3.208-196.806s11.875-332.522,11.875-338.522s-200-35.336-200-35.336s-16.667,256-16.667,256.667s-6,174-6,174
					s-42.321,106.614-50.667,115.995s-9.485,33.332-58.743,86c0,0-26.59,32-25.924,42c0,0,22,34.689,50,47.678
					s85.292,14.094,105.979,48.873s39.354,71.445,69.354,87.445S797.212,1558.357,804.545,1567.869z"/>
				<path fill="#31323D" d="M725.996,690.944c0,0-4.215,335.78,0,357.78C725.996,1048.724,736.781,700.165,725.996,690.944z"/>
				<path fill="#31323D" d="M649.211,835.723c0,0-8,362.998,97,497.998C746.211,1333.721,627.211,1240.721,649.211,835.723z"/>
				<path fill="#31323D" d="M598.211,1166.721c0,0,13.361,186.5,48.681,268.25C646.892,1434.971,589.211,1295.721,598.211,1166.721z
					"/>
			</g>
			<path opacity="0.2" fill="#31323D" d="M603.221,1147.572c0,0,26.274,329.732,62.632,381.441
				c36.358,51.707-44.783-74.793-71.712-94.043s-94.874-26.258-114.902-51.256c-20.028-24.996-21.801-27.391-5.376-49.994
				s89.479-109.297,107.414-186.148l10.812-26.7L603.221,1147.572z"/>
			<path opacity="0.2" fill="#31323D" d="M660.211,835.723c0,0-14.718,392.472,84.282,499.632
				C843.494,1442.514,506.211,1116.724,660.211,835.723z"/>
			<polygon opacity="0.2" fill="#31323D" points="710.983,714.076 733.211,1085.724 739.604,703.151 			"/>
		</g>
		<g>
			<g>
				<path fill="#8F423C" stroke="#31323D" stroke-width="9.375" stroke-linecap="round" stroke-linejoin="round" d="M499.13,629.559
					c0,0,309.393-209.364,521.766-283.798c0,0,35.15-23.09,90.93,9.907c55.779,32.997,207.407,70.899,490.236,273.891l7.414,10.605
					l-554.144,172.046L499.13,641.342V629.559z"/>
				<path fill="#EDEEE8" stroke="#31323D" stroke-width="9.375" stroke-linecap="round" stroke-linejoin="round" d="
					M830.864,748.229c0,0,75.645-102.965,210.822-183.482c0,0,147.87,89.655,205.715,184.341l-185.769,72.141L830.864,748.229z"/>
				<path fill="#EDEEE8" stroke="#31323D" stroke-width="9.375" stroke-linecap="round" stroke-linejoin="round" d="M497.983,635.97
					c0,0,3.724-9.951-6.385-5.237s-21.815,11.523-11.706,21.998c10.11,10.475,556.025,177.554,556.025,177.554
					s17.028,5.761,29.797,0c12.77-5.762,547.258-174.267,547.258-174.267s18.092-2.771,12.574-18.125
					c-5.518-15.354-17.343-7.02-17.343-7.02l-542.49,170.08c0,0-12.238,6.809-32.989,0
					C1011.975,794.145,497.983,635.97,497.983,635.97z"/>
				<g>
					<path fill="#3E1F1D" d="M983.176,700.895l56.191-87.637c0,0,2.112-5.103,4.481,0c2.368,5.101,56.3,87.637,56.3,87.637
						s2.915,4.008,0,7.106c-2.916,3.097-55.024,65.773-55.024,65.773s-2.369,7.289-8.381,0c-6.013-7.288-53.566-64.68-53.566-64.68
						S980.339,705.318,983.176,700.895z"/>
					<g>
						<polygon fill="#A5473F" points="1039.384,621.82 988.732,701.259 1039.384,681.217 						"/>
						<g>
							<g>
								<g>
									<polygon fill="#823733" points="1039.384,621.82 988.732,701.259 1017.6,689.836 									"/>
								</g>
							</g>
						</g>
					</g>
					<polygon fill="#A5473F" points="1043.864,621.82 1094.516,701.259 1043.864,681.217 					"/>
					<polygon fill="#C6554F" points="1043.864,685.772 1043.864,725.127 1094.516,705.45 					"/>
					<g>
						<polygon fill="#C6554F" points="1039.384,685.772 1039.384,725.127 988.732,705.45 						"/>
						<polygon fill="#A5473F" points="988.732,705.632 1014.527,695.429 1014.058,700.531 1015.441,705.632 1020.361,717.657 						
							"/>
					</g>
					<g>
						<polygon fill="#A5473F" points="990.19,709.458 1039.384,728.406 1039.384,768.854 						"/>
						<polygon fill="#823733" points="990.19,709.458 1022.205,721.79 1039.384,768.854 						"/>
					</g>
					<polygon fill="#A5473F" points="1093.059,709.458 1043.864,728.406 1043.864,768.854 					"/>
					<path fill="#A5473F" stroke="#3E1F1D" stroke-width="3" stroke-miterlimit="10" d="M984.194,653.706
						c-1.288,1.547-3.501,1.827-4.945,0.624l-12.213-10.164c-1.443-1.202-1.571-3.43-0.283-4.977l0,0
						c1.287-1.547,3.501-1.826,4.945-0.625l12.212,10.165C985.354,649.931,985.481,652.159,984.194,653.706L984.194,653.706z"/>
					<path fill="#A5473F" stroke="#3E1F1D" stroke-width="3" stroke-miterlimit="10" d="M1104.738,653.707
						c1.287,1.546,3.501,1.826,4.946,0.624l12.211-10.164c1.445-1.203,1.571-3.43,0.283-4.977l0,0
						c-1.286-1.547-3.501-1.826-4.944-0.624l-12.213,10.164C1103.578,649.931,1103.451,652.16,1104.738,653.707L1104.738,653.707z"
						/>
					<path fill="#A5473F" stroke="#3E1F1D" stroke-width="3" stroke-miterlimit="10" d="M985.651,752.966
						c-1.288-1.545-3.502-1.826-4.946-0.623l-12.212,10.164c-1.443,1.202-1.57,3.429-0.283,4.977l0,0
						c1.287,1.546,3.501,1.826,4.945,0.625l12.212-10.165C986.812,756.742,986.939,754.514,985.651,752.966L985.651,752.966z"/>
					<path fill="#A5473F" stroke="#3E1F1D" stroke-width="3" stroke-miterlimit="10" d="M1106.195,752.966
						c1.288-1.545,3.502-1.826,4.947-0.623l12.211,10.164c1.445,1.202,1.571,3.43,0.283,4.978l0,0
						c-1.286,1.546-3.502,1.826-4.945,0.624l-12.212-10.164C1105.035,756.741,1104.908,754.514,1106.195,752.966L1106.195,752.966z"
						/>
				</g>
			</g>
			<path opacity="0.2" fill="#31323D" d="M664.455,683.709c0,0-33.925-100.317,196.846-215.07
				c230.771-114.752,250.525-112.971,250.525-112.971s-51.693-36.668-125.287,2.95c-60.283,32.453-329.052,149.607-487.41,276.756
				L664.455,683.709z"/>
			<path opacity="0.2" fill="#31323D" d="M1135.671,371c0,0,318.27,184.322,104.561,314.661S1084.522,811,1059.522,825
				s554.018-169.339,554.018-169.339s27.918-16.721-6.05-25.691S1335.819,440,1135.671,371z"/>
		</g>
		<g>
			
				<ellipse transform="matrix(0.7496 0.6619 -0.6619 0.7496 656.5077 -678.0194)" fill="#EDEEE8" stroke="#31323D" stroke-width="4" stroke-linecap="round" stroke-linejoin="round" cx="1224.292" cy="528.599" rx="24.813" ry="13.73"/>
			<path fill="#EDEEE8" stroke="#31323D" stroke-width="3" stroke-linecap="round" stroke-linejoin="round" d="M1215.026,522.547
				l76.333-69.667l11.334-10c0,0,11.333-6,16.333,0.333c4.999,6.333,3.185,11.025,0.093,14.346
				c-3.093,3.321-86.759,70.987-86.426,80.987L1215.026,522.547z"/>
			<path fill="#31323D" d="M1209.835,515.649c0,0,20.898,22.646,30.912,27C1240.747,542.649,1215.06,539.591,1209.835,515.649z"/>
		</g>
		<g>
			
				<ellipse transform="matrix(0.7496 0.6619 -0.6619 0.7496 708.7567 -715.0878)" fill="#EDEEE8" stroke="#31323D" stroke-width="4" stroke-linecap="round" stroke-linejoin="round" cx="1299.404" cy="579.115" rx="24.813" ry="13.73"/>
			<path fill="#EDEEE8" stroke="#31323D" stroke-width="3" stroke-linecap="round" stroke-linejoin="round" d="M1290.139,572.407
				l81.404-72.522l12.087-10.41c0,0,12.086-6.246,17.418,0.347c5.331,6.593,3.396,11.477,0.099,14.934
				c-3.298,3.457-92.522,73.897-92.167,84.307L1290.139,572.407z"/>
			<path fill="#31323D" d="M1284.947,566.165c0,0,20.898,22.646,30.912,27C1315.859,593.165,1290.172,590.106,1284.947,566.165z"/>
		</g>
	</g>
</g>
</svg>
