<?xml version="1.0" encoding="utf-8"?>
<!-- Generator: Adobe Illustrator 16.0.0, SVG Export Plug-In . SVG Version: 6.00 Build 0)  -->
<!DOCTYPE svg PUBLIC "-//W3C//DTD SVG 1.1//EN" "http://www.w3.org/Graphics/SVG/1.1/DTD/svg11.dtd">
<svg version="1.1" id="Layer_4" xmlns="http://www.w3.org/2000/svg" xmlns:xlink="http://www.w3.org/1999/xlink" x="0px" y="0px"
	 width="3000px" height="3000px" viewBox="0 0 3000 3000" enable-background="new 0 0 3000 3000" xml:space="preserve">
<g>
	<path fill="#35B891" stroke="#3E3F4A" stroke-width="9" stroke-miterlimit="10" d="M1113.154,733.194
		c0,0,187.099-302.713,720.117-492.074c0,0-95.826,438.493-70.52,536.594C1788.059,875.813,1113.154,733.194,1113.154,733.194z"/>
	<path fill="#DCB165" stroke="#3E3F4A" stroke-width="9" stroke-miterlimit="10" d="M1685.711,340.938L1435.48,180.314
		c0,0,62.246,261.792,120.49,288.653L1685.711,340.938z"/>
	<path fill="#E42529" stroke="#3E3F4A" stroke-width="9" stroke-miterlimit="10" d="M1392.896,271.626l208.63,178.613
		l-55.414,216.86C1546.111,667.1,1347.653,348.273,1392.896,271.626z"/>
	<path fill="#E42529" stroke="#3E3F4A" stroke-width="9" stroke-miterlimit="10" d="M1594.621,339.939l314.721-43.589
		c0,0-99.856,200.71-294.904,173.013L1594.621,339.939z"/>
	<path fill="#35B891" stroke="#3E3F4A" stroke-width="9" stroke-miterlimit="10" d="M1601.816,413.117l231.36,20.812
		c0,0-124.497,175.952-301.292,151.616L1601.816,413.117z"/>
	<path fill="#E42529" stroke="#3E3F4A" stroke-width="9" stroke-miterlimit="10" d="M1349.105,532.58
		c0,0-176.276,24.002-279.164-35.193l22.893,258.851L1349.105,532.58z"/>
	<path fill="#E42529" stroke="#3E3F4A" stroke-width="9" stroke-miterlimit="10" d="M1549.342,526.64
		c0,0,168.951,55.727,280.902,16.276l-69.686,250.344L1549.342,526.64z"/>
	<path fill="#DCB165" stroke="#3E3F4A" stroke-width="9" stroke-miterlimit="10" d="M1754.837,756.052
		c0,0-144.149-213.32-263.958-264.887c0,0-236.162-3.471-405.44,286.047C1085.438,777.212,1382.484,681.32,1754.837,756.052z"/>
	<g>
		<path fill="#E42529" stroke="#3E3F4A" stroke-width="9" stroke-miterlimit="10" d="M1140.31,788.466
			c0,0-127.238-108.29-151.603-119.118c-24.366-10.829-81.219-56.852-75.802,21.658c5.413,78.51,24.365,284.258,81.216,343.817
			C1050.971,1094.382,1140.31,788.466,1140.31,788.466z"/>
		<path fill="#35B891" stroke="#3E3F4A" stroke-width="9" stroke-miterlimit="10" d="M1122.536,805.461
			c0,0-118.879-101.173-141.642-111.291c-22.766-10.118-75.881-53.115-70.822,20.235c5.058,73.352,22.763,265.581,75.88,321.227
			C1039.067,1091.278,1122.536,805.461,1122.536,805.461z"/>
		<path fill="#E42529" stroke="#3E3F4A" stroke-width="9" stroke-miterlimit="10" d="M1700.673,800.37
			c0,0,143.09-86.262,168.888-93.004c25.799-6.741,89.35-42.953,71.296,33.643c-18.051,76.598-70.062,276.566-135.806,326.135
			C1739.309,1116.714,1700.673,800.37,1700.673,800.37z"/>
		<path fill="#35B891" stroke="#3E3F4A" stroke-width="9" stroke-miterlimit="10" d="M1735.497,808.187
			c0,0,120.261-72.5,141.942-78.166c21.682-5.666,75.093-36.1,59.918,28.277c-15.17,64.375-58.881,232.438-114.137,274.098
			C1767.97,1074.057,1735.497,808.187,1735.497,808.187z"/>
		<path fill="#FFFFFF" d="M1713.42,2281.563l128.719-7.859c0,0,5.601,18.385,19.526,20.552c13.925,2.167,37.531,6.203,32.896,39.664
			c-4.635,33.458-59.458,27.664-84.781,27.117C1784.457,2360.494,1705.567,2361.317,1713.42,2281.563z"/>
		<path fill="#FFFFFF" d="M2011.232,2119.974c0,0,178.334,59.625,191.245,88.974c12.914,29.352-27.522,51.128-88.672,41.719
			c-61.147-9.408-206.527-4.893-206.527-4.893L2011.232,2119.974z"/>
		<path opacity="0.1" fill="#3E3F4A" d="M2025.375,2247.814l53.653-104.502l-63.964-25.933c0,0-27.006,71.604-100.4,126.286
			L2025.375,2247.814z"/>
		<path fill="#FFFFFF" d="M1044.462,2253.252l129.786,28.734c0,0-5.721,52.031-25.584,65.219
			c-19.863,13.186-32.306,22.964-91.178,16.93c-58.873-6.031-70.945-1.497-73.919-39.997S1046.173,2325.411,1044.462,2253.252z"/>
		<path fill="#FFFFFF" d="M930.468,2117.641L930.468,2117.641c-0.103,0.031-208.023,66.406-210.095,100.609
			c-2.073,34.211,51.976,35.791,105.439,34.729s225.978,0.217,225.978,0.217L930.468,2117.641z"/>
		<path opacity="0.1" fill="#3E3F4A" d="M879.521,2135.025c0,0,12.677,95.461,61.805,114.654l82.292-4.183
			c0,0-80.167-77.891-98.37-128.117L879.521,2135.025z"/>
		<g enable-background="new    ">
			<path fill="#35B891" stroke="#3E3F4A" stroke-width="9" stroke-miterlimit="10" d="M1181.11,2282.083l-136.754-28.731
				c-88.983-46.987-145.348-145.847-131.184-253.487l95.508-501.5l346.703,180.56h99.419l411.019-208.333l151.691,493.859
				c38.907,137.565-45.089,274.336-175.374,309.153l-135.574,8.383h-532.316"/>
			<path fill="none" stroke="#31343F" stroke-width="9.375" stroke-linecap="round" stroke-miterlimit="10" d="M925.248,2117.38
				c-38.013,9.078-130.088,43.297-184.056,78.112c-26.437,17.063-10.082,55.766,23.141,55.166l279.727-5.486"/>
			<path fill="none" stroke="#31343F" stroke-width="9.375" stroke-linecap="round" stroke-miterlimit="10" d="M2012.025,2120.172
				c47.387,13.768,136.476,45.992,179.37,75.32c26.036,17.758,10.074,55.766-23.141,55.166l-260.977-5.086"/>
			<path fill="#31343F" d="M1221.83,2040.969c-1.694,15.258-3.788,30.32-5.985,45.486l-3.492,22.641l-3.787,22.547
				c-2.599,15.068-5.388,30.031-8.087,45.094l-8.274,44.992l-16.56,90.086c-0.799,4.089-1.995,8.178-3.491,12.07
				c-1.496,3.891-3.296,7.776-5.388,11.373c-4.194,7.278-9.574,13.861-15.961,19.349c-12.871,11.075-28.931,17.563-45.792,18.758
				l-6.288,0.198h-6.083l-11.472-0.698l-22.848-1.297l-45.686-2.792h-4.693l-1.792-0.302c-2.297-0.398-4.49-0.997-6.688-1.692
				c-4.587-1.597-8.677-4.089-12.267-7.284c-3.59-3.289-6.385-7.281-8.282-11.669c-1.792-4.295-2.894-8.883-3.091-13.472
				c-0.197-4.388,0.099-8.878,0.999-13.167l0.197-0.799v-1.698l0.302-1.097c0.398-1.192,0.898-2.396,1.495-3.588
				c1.096-2.193,2.495-4.292,4.091-6.186c3.088-3.594,6.784-6.588,10.971-8.778c3.992-2.094,8.283-3.591,12.674-4.489
				c2.191-0.401,4.384-0.8,6.582-0.901l2.691-0.195l2.094-0.302c1.496-0.297,2.896-0.698,4.292-1.195
				c1.299-0.498,2.594-1.097,3.794-1.896c4.587-2.992,7.679-8.383,9.373-14.766c1.602-6.781,2.198-13.766,1.797-20.747
				l-0.898-22.847l-1.896-45.791c-0.598-15.261-1.294-30.523-1.793-45.789v0.5c-0.598-4.99-1.298-9.875-1.995-14.862
				c-0.4-2.495-0.799-4.891-1.199-7.386c-0.396-2.492-0.893-4.888-1.393-7.283c-0.499-2.396-0.998-4.889-1.602-7.279l-1.792-7.185
				c-1.299-4.786-2.698-9.479-4.391-14.167c-0.801-2.294-1.692-4.586-2.592-6.883c-0.9-2.294-1.798-4.588-2.895-6.786l-1.496-3.388
				l-1.595-3.292l-1.7-3.294l-1.792-3.289l-1.797-3.195l-1.898-3.193l-3.989-6.283c-1.391-2.094-2.789-4.092-4.287-6.186
				l-2.198-2.992l-2.291-2.994c-0.801-0.898-0.702-2.295,0.197-3.188c0.899-0.901,2.298-0.701,3.196,0.195l5.382,5.586
				c1.699,1.898,3.393,3.893,5.094,5.885c1.692,1.995,3.288,3.992,4.784,6.086l2.297,3.198l2.193,3.19
				c1.496,2.189,2.893,4.289,4.194,6.583l1.995,3.391l1.89,3.396c1.299,2.289,2.396,4.586,3.492,6.979
				c1.103,2.396,2.198,4.685,3.196,7.18c1.994,4.794,3.788,9.683,5.388,14.672c1.595,4.984,2.994,9.974,4.189,14.961
				c0.596,2.495,1.192,5.086,1.691,7.583c0.499,2.495,1.103,5.084,1.497,7.578c0.898,5.089,1.699,10.175,2.396,15.269v0.495
				c0.897,15.263,1.594,30.528,2.395,45.688l2.297,45.692l1.096,22.849c0.198,4.086,0.198,8.175-0.099,12.266
				c-0.301,4.193-0.898,8.378-1.896,12.469c-0.5,2.094-1.202,4.193-1.996,6.287c-0.9,2.096-1.897,4.189-3.091,6.185
				c-2.493,4.089-5.788,7.683-9.778,10.375c-3.991,2.594-8.479,4.489-13.166,5.292l-3.491,0.497l-2.994,0.198
				c-1.602,0.099-3.098,0.299-4.693,0.596c-3.091,0.6-5.984,1.701-8.776,3.198c-2.598,1.391-4.987,3.289-6.885,5.484
				c-0.897,0.997-1.594,2.094-2.197,3.289c-0.598,1.2-0.999,2.396-1.195,3.695c-0.695,3.19-0.898,6.38-0.695,9.575
				c0.197,2.992,0.794,5.889,1.996,8.68c1.095,2.589,2.789,4.984,4.883,6.883c2.099,1.896,4.594,3.391,7.284,4.289
				c1.398,0.5,2.896,0.797,4.391,1.097l0.998,0.2h3.892l45.686,2.695l22.846,1.391l11.473,0.703h10.474
				c13.771-0.898,26.936-6.188,37.509-15.164c5.191-4.492,9.575-9.778,13.067-15.664c3.492-5.984,5.984-12.369,7.384-19.15
				l17.358-89.889l8.677-44.989c2.895-14.966,5.789-29.927,8.781-44.894l4.688-22.445l4.987-22.346
				c3.394-14.862,6.984-29.727,10.974-44.49c0.203-1.4,1.398-2.294,2.698-2.195
				C1220.931,2038.172,1222.033,2039.567,1221.83,2040.969z"/>
			<path fill="#31343F" d="M1665.86,2025.4l2.198,9.378c1.398,6.083,3.392,15.063,5.782,26.534c1.2,5.689,2.493,12.075,3.892,18.955
				l4.389,22.445l4.793,25.542l4.988,28.331l23.24,134.974c1.098,6.086,1.995,12.773,3.59,17.761
				c1.699,5.484,4.094,10.771,7.186,15.658c6.282,9.979,15.262,18.058,25.841,23.347l4.089,1.898l1.096,0.394l0.996,0.4l1.996,0.701
				c2.691,0.794,5.584,1.393,8.381,1.695l4.287,0.299h4.593l9.976-0.299l40.002-1.398l39.309-1.195l2.492-0.303l1.195-0.2
				l0.901-0.198l1.894-0.396l1.892-0.604c2.397-0.794,4.491-1.994,6.483-3.492c1.799-1.492,3.294-3.286,4.294-5.38
				c0.198-0.604,0.595-1.102,0.695-1.698l0.604-1.794c0.393-1.3,0.595-2.599,0.794-3.891c0.202-1.398,0.302-2.698,0.401-4.091v-2.1
				c0,0,0-1.393-0.1-2.192l-0.204-2.192v-0.303c0,0.198-0.196,0.303-0.297,0.198c-0.202,0-0.301-0.198-0.202-0.297
				c0-0.2,0.202-0.3,0.303-0.2c0.099,0,0.196,0.104,0.196,0.2v-1.594l-0.196-0.8l-0.199-0.898c-0.104-0.599-0.401-1.297-0.601-1.898
				c-1.695-4.984-4.688-9.275-8.378-11.669c-1.993-1.195-4.094-1.995-6.385-2.297l-1.797-0.198l-2.593-0.197h-1.194l-1.498-0.203
				l-2.895-0.498c-3.792-0.898-7.48-2.289-10.874-4.188c-3.491-1.994-6.582-4.689-9.077-7.981c-2.396-3.091-4.09-6.688-5.29-10.375
				c-0.997-3.489-1.692-7.081-1.896-10.672c-0.1-0.898-0.1-1.7-0.1-2.599v-7.178l0.203-9.078l0.795-35.317l0.201-8.578v-4.586
				l0.299-4.195l0.301-4.188c0.098-1.396,0.196-2.698,0.4-4.192l0.996-8.378c1.498-10.578,3.592-21.052,6.383-31.422
				c2.492-9.477,5.589-18.758,9.08-27.935l2.691-6.383c0.899-2.097,1.695-4.195,2.692-6.19l2.797-5.88
				c0.898-1.898,1.796-3.891,2.794-5.69l2.89-5.388l1.395-2.594l1.499-2.492l2.893-4.894c0.898-1.591,1.797-3.188,2.795-4.683
				l5.586-8.68l5.391-7.682l2.59-3.492l2.494-3.19c1.596-2.094,3.093-4.091,4.589-5.789l4.09-4.888l3.491-3.992l6.583-7.081
				c0.8-0.898,2.198-1.099,3.098-0.297c0.892,0.794,1.095,2.192,0.296,3.091l-5.586,7.779c-3.593,5.091-8.783,12.575-14.866,22.445
				l-4.685,7.783l-4.792,8.779c-0.897,1.5-1.695,3.096-2.492,4.688l-2.495,4.891l-1.294,2.494l-1.2,2.592l-2.492,5.388
				c-7.386,16.258-13.371,33.12-17.658,50.477l-0.898,3.594l-0.4,1.797l-0.401,1.792l-1.495,7.385l-0.396,1.894l-0.298,1.898
				l-0.601,3.786l-0.598,3.894l-0.301,1.896l-0.196,1.896l-0.9,7.778c-0.201,1.3-0.201,2.698-0.299,4.094l-0.299,4.188l-0.303,4.19
				v12.469l-0.498,35.314v15.764c0,0,0,1.398,0.1,1.997c0.203,2.495,0.701,5.086,1.399,7.481c0.694,2.19,1.796,4.284,3.188,6.183
				c2.697,3.589,6.885,5.789,11.971,6.886l1.798,0.299l0.898,0.198h1.196l2.198,0.198l2.992,0.302
				c4.09,0.597,8.078,1.992,11.669,4.188c3.492,2.198,6.584,5.091,8.979,8.479c2.297,3.195,4.09,6.786,5.39,10.477
				c0.294,0.896,0.596,1.797,0.794,2.794l0.399,1.398l0.3,1.594v2.894l0.199,2.695c0.098,0.896,0.098,1.794,0.098,2.794
				c0,0.997,0.104,1.792,0,2.789c-0.098,1.896-0.196,3.792-0.497,5.688c-0.297,1.995-0.697,3.894-1.195,5.784l-0.998,2.893
				c-0.302,0.998-0.801,1.896-1.299,2.896c-1.891,3.888-4.589,7.283-7.878,10.075c-3.296,2.591-6.883,4.69-10.875,5.984
				l-2.794,0.898l-2.994,0.695l-1.496,0.302l-1.294,0.198l-2.493,0.302h-5.689l-4.988,0.195l-9.975,0.401l-20.054,0.703
				l-40.001,1.292l-9.976,0.302h-5.388l-5.588-0.401c-3.692-0.398-7.38-1.192-10.971-2.297l-2.698-0.893l-1.391-0.495l-1.202-0.503
				l-4.889-2.297c-12.866-6.484-23.644-16.361-31.32-28.528c-3.792-5.984-6.688-12.372-8.682-19.156l-0.696-2.594l-0.301-1.294
				c-0.101-0.398-0.198-0.898-0.297-1.3l-0.499-2.294l-0.203-1.198v-1.398l-1.496-9.271l-21.946-135.281l-4.489-28.43l-3.787-25.639
				l-3.197-22.641c-0.996-6.984-1.791-13.369-2.494-19.258c-1.494-11.57-2.493-20.75-3.189-27.033l-0.998-9.576
				c0.401-1.102,1.694-1.697,2.791-1.297C1665.263,2024.805,1665.563,2025.104,1665.86,2025.4z"/>
		</g>
		<path opacity="0.1" fill="#3E3F4A" d="M984.877,667.507c0,0,52.491,212.705,53.496,218.407
			c1.004,5.701,53.003-113.467,61.523-127.226C1108.416,744.93,984.877,667.507,984.877,667.507z"/>
		<linearGradient id="SVGID_1_" gradientUnits="userSpaceOnUse" x1="1833.2715" y1="840.7285" x2="1940.0313" y2="840.7285">
			<stop  offset="0" style="stop-color:#FFFFFF"/>
			<stop  offset="0.72" style="stop-color:#FFFFFF"/>
			<stop  offset="1" style="stop-color:#FFFFFF"/>
		</linearGradient>
		<path opacity="0.1" fill="url(#SVGID_1_)" d="M1833.271,907.227l95.666-208.01c0,0,31.998-6.287-12.693,117.879
			c-2.102,5.843-46.537,154.679-57.387,165.199C1858.857,982.294,1837.891,915.351,1833.271,907.227z"/>
		<path fill="#35B891" stroke="#3E3F4A" stroke-width="9" stroke-miterlimit="10" d="M1501.604,589.573
			c286.71,27.102,357.027,412.257,388.586,516.801c31.562,104.542,19.727,315.602,19.727,315.602
			c-169.637,260.373-510.884,301.797-542.444,291.932c-31.56-9.861-400.422-177.525-400.422-307.711
			c0-130.188,3.945-226.84,69.039-510.883C1036.089,895.314,1105.127,552.095,1501.604,589.573z M1174.248,968.749
			c0,0-105.617,88.771-130.188,442.037c0,0,252.715,238.005,359.232,243.641c0,0,292.162-70.427,408.412-231.761
			c0,0-3.093-384.575-221.14-499.999C1345.394,792.886,1174.248,968.749,1174.248,968.749z"/>
		<linearGradient id="SVGID_2_" gradientUnits="userSpaceOnUse" x1="1916.2451" y1="1486.8145" x2="1916.2451" y2="2245.6411">
			<stop  offset="0" style="stop-color:#FFFFFF"/>
			<stop  offset="0.72" style="stop-color:#FFFFFF"/>
			<stop  offset="1" style="stop-color:#FFFFFF"/>
		</linearGradient>
		<path opacity="0.1" fill="url(#SVGID_2_)" d="M1860.513,1486.814l118.071,372.445c0,0,17.443,62.773,35.885,111.703
			s13.743,199.938-113.437,274.678c0,0,102.703-85.102,77.841-219.531c-24.864-134.43-168.799-488.781-168.799-488.781
			L1860.513,1486.814z"/>
		<path opacity="0.1" fill="#3E3F4A" d="M1911.314,2037.635c0,0-73.682,75.328-63.152,229.886c0,0,174.908-46.708,174.25-242.94
			c0,0-22.078,89.57-87.638,104.8S1911.314,2037.635,1911.314,2037.635z"/>
		<path opacity="0.1" fill="#3E3F4A" d="M1008.681,1498.364l-62.039,344.692c0,0-14.203,84.6-30.727,160.857
			c-16.525,76.258,38.86,197.289,121.958,241.646c0,0,7.203-168.909-46.186-214.872l76.944-489.514L1008.681,1498.364z"/>
		<g>
			<defs>
				<polyline id="SVGID_3_" points="2205.529,843.839 2205.529,2367.377 727.755,2367.377 727.755,843.839 				"/>
			</defs>
			<clipPath id="SVGID_4_">
				<use xlink:href="#SVGID_3_"  overflow="visible"/>
			</clipPath>
		</g>
		<linearGradient id="SVGID_5_" gradientUnits="userSpaceOnUse" x1="1729.8291" y1="1115.7646" x2="1908.2949" y2="1115.7646">
			<stop  offset="0" style="stop-color:#FFFFFF"/>
			<stop  offset="0.72" style="stop-color:#FFFFFF"/>
			<stop  offset="1" style="stop-color:#FFFFFF"/>
		</linearGradient>
		<path opacity="0.1" fill="url(#SVGID_5_)" d="M1762.752,777.714c0,0,65.75,111.117,93.366,224.21
			c27.614,113.091,45.005,134.755,49.97,263.659c4.967,128.903,0,156.487,0,156.487l-61.806,76.266
			c0,0,16.258-562.569-114.453-765.141C1729.829,733.194,1755.204,764.366,1762.752,777.714z"/>
		<path opacity="0.1" fill="#3E3F4A" d="M1156.529,689.87c0,0-230.708,575.153-87.898,851.304c0,0-81.488-64.516-100.952-125.544
			c-19.462-61.026,51.345-443.688,51.345-443.688S1050.412,783.794,1156.529,689.87z"/>
		<path opacity="0.1" fill="#3E3F4A" d="M1180.759,2277.547h517.96l-30.949-196.766c0,0-1.277,74.997-33.883,108.646
			c-32.609,33.651-59.68,36.981-78.637,38.886c-18.956,1.903-280.52,28.072-319.987-16.05
			c-39.468-44.12-31.531-60.031-31.531-60.031L1180.759,2277.547z"/>
	</g>
	<polygon fill="#E42529" stroke="#E7C179" stroke-width="9" stroke-miterlimit="10" points="1091.394,1765 1166.601,1667.258 
		1221.665,1772.783 1144.277,1864.278 	"/>
	<polygon fill="#E42529" stroke="#E7C179" stroke-width="9" stroke-miterlimit="10" points="1690.883,1781.442 1738.52,1667.689 
		1818.794,1755.57 1767.449,1863.846 	"/>
	<polygon fill="#E7C179" stroke="#F3AF3F" stroke-width="9" stroke-miterlimit="10" points="1060.412,2018.104 1135.618,1920.361 
		1190.681,2025.885 1113.292,2117.38 	"/>
	<polygon fill="#E7C179" stroke="#F3AF3F" stroke-width="9" stroke-miterlimit="10" points="1716.555,2036.242 1775.717,1928.033 
		1846.457,2023.76 1784.173,2126.133 	"/>
	<polygon fill="#E7C179" stroke="#F3AF3F" stroke-width="9" stroke-miterlimit="10" points="1352.177,2065.231 1460.075,1897.273 
		1563.354,2059.922 1451.084,2218.106 	"/>
	<path opacity="0.1" fill="#3E3F4A" d="M1168.978,530.033l56.207,74.031l104.52-68.1
		C1329.704,535.964,1185.753,546.739,1168.978,530.033z"/>
	<linearGradient id="SVGID_6_" gradientUnits="userSpaceOnUse" x1="1751.9805" y1="280.5728" x2="1825.8184" y2="280.5728">
		<stop  offset="0" style="stop-color:#FFFFFF"/>
		<stop  offset="0.72" style="stop-color:#FFFFFF"/>
		<stop  offset="1" style="stop-color:#FFFFFF"/>
	</linearGradient>
	<polygon opacity="0.1" fill="url(#SVGID_6_)" points="1754.837,276.628 1751.98,314.105 1814.982,305.559 1825.818,247.04 	"/>
	<polygon opacity="0.1" fill="#3E3F4A" points="1784.373,491.164 1775.387,554.904 1700.673,554.904 	"/>
	<linearGradient id="SVGID_7_" gradientUnits="userSpaceOnUse" x1="1729.8291" y1="363.7461" x2="1900.1367" y2="363.7461">
		<stop  offset="0" style="stop-color:#FFFFFF"/>
		<stop  offset="0.72" style="stop-color:#FFFFFF"/>
		<stop  offset="1" style="stop-color:#FFFFFF"/>
	</linearGradient>
	<path opacity="0.1" fill="url(#SVGID_7_)" d="M1833.028,311.563c0,0-78.426,109.972-103.199,107.744l58.512,5.918
		c0,0,60.491-36.821,111.796-122.956L1833.028,311.563z"/>
	<linearGradient id="SVGID_8_" gradientUnits="userSpaceOnUse" x1="1646.9766" y1="491.4258" x2="1825.8184" y2="491.4258">
		<stop  offset="0" style="stop-color:#FFFFFF"/>
		<stop  offset="0.72" style="stop-color:#FFFFFF"/>
		<stop  offset="1" style="stop-color:#FFFFFF"/>
	</linearGradient>
	<path opacity="0.1" fill="url(#SVGID_8_)" d="M1755.438,432.703c0,0-73.066,111.187-108.461,111.529l42.817,5.917
		c0,0,74.219-35.504,136.024-112.432L1755.438,432.703z"/>
	<linearGradient id="SVGID_9_" gradientUnits="userSpaceOnUse" x1="1736.3965" y1="655.6782" x2="1822.3555" y2="655.6782">
		<stop  offset="0" style="stop-color:#FFFFFF"/>
		<stop  offset="0.72" style="stop-color:#FFFFFF"/>
		<stop  offset="1" style="stop-color:#FFFFFF"/>
	</linearGradient>
	<path opacity="0.1" fill="url(#SVGID_9_)" d="M1766.919,561.326l-30.522,162.207l30.698,37.675l55.261-211.06
		C1822.355,550.148,1797.946,560.834,1766.919,561.326z"/>
	<polygon opacity="0.1" fill="#3E3F4A" points="1549.342,405.564 1517.207,497.387 1552.032,530.033 1590.564,440.856 	"/>
	<polygon opacity="0.1" fill="#3E3F4A" points="1630.954,305.791 1611.884,334.474 1659.149,331.001 	"/>
	<polygon opacity="0.1" fill="#3E3F4A" points="1594.621,363.746 1560.595,415.197 1590.564,440.856 1601.816,413.117 	"/>
</g>
</svg>
