<?xml version="1.0" encoding="utf-8"?>
<!-- Generator: Adobe Illustrator 16.0.0, SVG Export Plug-In . SVG Version: 6.00 Build 0)  -->
<!DOCTYPE svg PUBLIC "-//W3C//DTD SVG 1.1//EN" "http://www.w3.org/Graphics/SVG/1.1/DTD/svg11.dtd">
<svg version="1.1" xmlns="http://www.w3.org/2000/svg" xmlns:xlink="http://www.w3.org/1999/xlink" x="0px" y="0px" width="3000px"
	 height="3000px" viewBox="0 0 3000 3000" enable-background="new 0 0 3000 3000" xml:space="preserve">
<g id="Layer_2">
</g>
<g id="Layer_3">
	<path fill="#FFFFFF" stroke="#3E3F4A" stroke-width="9" stroke-miterlimit="10" d="M1259.968,516.84
		c0,0-109.407-126.265-131.855-140.649c-22.448-14.386-71.689-68.467-78.199,9.955c-6.512,78.421-18.867,284.657,28.33,352.119
		C1125.438,805.726,1259.968,516.84,1259.968,516.84z"/>
	<path fill="#FFFFFF" stroke="#3E3F4A" stroke-width="9" stroke-miterlimit="10" d="M1645.855,507.556
		c0,0,120.385-115.844,144.043-128.139c23.659-12.293,77.591-61.697,76.978,16.991c-0.612,78.688-6.972,285.197-60.082,348.11
		C1753.688,807.431,1645.855,507.556,1645.855,507.556z"/>
	<path fill="#FFFFFF" d="M1722.086,2281.412l128.71-7.859c0,0,5.601,18.385,19.525,20.552c13.923,2.167,37.528,6.201,32.894,39.66
		c-4.635,33.457-59.455,27.662-84.775,27.116C1793.118,2360.338,1714.233,2361.161,1722.086,2281.412z"/>
	<path fill="#FFFFFF" d="M2019.879,2119.835c0,0,178.322,59.619,191.232,88.968c12.913,29.349-27.521,51.123-88.666,41.716
		c-61.144-9.409-206.514-4.894-206.514-4.894L2019.879,2119.835z"/>
	<path opacity="0.1" fill="#3E3F4A" d="M2034.02,2247.667l53.65-104.495l-63.959-25.931c0,0-27.005,71.598-100.395,126.276
		L2034.02,2247.667z"/>
	<path fill="#FFFFFF" d="M1053.172,2253.104l129.777,28.732c0,0-5.721,52.029-25.583,65.216
		c-19.862,13.184-32.303,22.96-91.172,16.929c-58.868-6.033-70.94-1.498-73.914-39.995
		C989.306,2285.486,1054.883,2325.259,1053.172,2253.104z"/>
	<path fill="#FFFFFF" d="M939.186,2117.5L939.186,2117.5c-0.103,0.033-208.009,66.403-210.081,100.603
		c-2.073,34.209,51.972,35.79,105.432,34.729c53.46-1.063,225.964,0.216,225.964,0.216L939.186,2117.5z"/>
	<path opacity="0.1" fill="#3E3F4A" d="M888.243,2134.885c0,0,12.675,95.454,61.801,114.646l82.285-4.183
		c0,0-80.161-77.884-98.363-128.107L888.243,2134.885z"/>
	<g enable-background="new    ">
		<path fill="#FFFFFF" stroke="#3E3F4A" stroke-width="9" stroke-miterlimit="10" d="M1189.811,2281.932l-136.745-28.729
			c-88.978-46.983-145.337-145.836-131.176-253.471l95.503-501.466l346.68,180.548h99.412l410.991-208.321l151.682,493.827
			c38.905,137.557-45.085,274.319-175.362,309.135l-135.565,8.381h-532.281"/>
		<path fill="none" stroke="#31343F" stroke-width="9.375" stroke-linecap="round" stroke-miterlimit="10" d="M933.966,2117.241
			c-38.011,9.077-130.08,43.294-184.043,78.106c-26.435,17.062-10.082,55.762,23.14,55.163l279.708-5.486"/>
		<path fill="none" stroke="#31343F" stroke-width="9.375" stroke-linecap="round" stroke-miterlimit="10" d="M2020.672,2120.031
			c47.384,13.769,136.467,45.989,179.358,75.316c26.034,17.757,10.073,55.762-23.14,55.163l-260.959-5.087"/>
		<path fill="#31343F" d="M1230.528,2040.834c-1.694,15.256-3.787,30.318-5.985,45.484l-3.491,22.64l-3.787,22.545
			c-2.598,15.067-5.388,30.029-8.087,45.091l-8.274,44.989l-16.559,90.079c-0.799,4.09-1.994,8.176-3.491,12.07
			c-1.495,3.89-3.294,7.775-5.388,11.372c-4.193,7.278-9.574,13.859-15.959,19.348c-12.87,11.075-28.929,17.56-45.789,18.757
			l-6.287,0.196h-6.083l-11.471-0.696l-22.846-1.299l-45.683-2.79h-4.692l-1.792-0.302c-2.296-0.4-4.489-0.999-6.688-1.692
			c-4.586-1.598-8.676-4.09-12.266-7.284c-3.589-3.289-6.385-7.28-8.281-11.67c-1.792-4.292-2.895-8.881-3.092-13.469
			c-0.196-4.388,0.099-8.877,0.999-13.166l0.196-0.799v-1.698l0.302-1.096c0.399-1.194,0.898-2.396,1.496-3.59
			c1.096-2.192,2.494-4.292,4.09-6.184c3.089-3.593,6.785-6.588,10.972-8.779c3.991-2.093,8.282-3.591,12.673-4.487
			c2.191-0.401,4.384-0.801,6.582-0.901l2.691-0.195l2.094-0.302c1.496-0.297,2.895-0.698,4.291-1.195
			c1.3-0.498,2.594-1.098,3.795-1.897c4.586-2.991,7.677-8.381,9.371-14.765c1.602-6.78,2.198-13.764,1.798-20.746l-0.898-22.844
			l-1.897-45.788c-0.597-15.26-1.293-30.521-1.792-45.788v0.5c-0.598-4.988-1.299-9.874-1.995-14.86
			c-0.4-2.495-0.799-4.89-1.2-7.384c-0.395-2.492-0.894-4.889-1.393-7.283c-0.499-2.396-0.998-4.888-1.601-7.279l-1.792-7.184
			c-1.299-4.787-2.697-9.479-4.39-14.166c-0.801-2.295-1.693-4.585-2.593-6.882c-0.899-2.294-1.798-4.589-2.894-6.786l-1.496-3.388
			l-1.595-3.293l-1.7-3.294l-1.792-3.287l-1.796-3.195l-1.898-3.192l-3.99-6.285c-1.392-2.094-2.79-4.089-4.286-6.183l-2.199-2.992
			l-2.29-2.995c-0.801-0.898-0.702-2.294,0.197-3.187c0.899-0.901,2.297-0.702,3.196,0.195l5.381,5.585
			c1.699,1.897,3.394,3.892,5.093,5.886c1.692,1.994,3.288,3.991,4.784,6.085l2.296,3.196l2.192,3.191
			c1.497,2.188,2.894,4.289,4.194,6.582l1.995,3.391l1.89,3.395c1.299,2.291,2.396,4.586,3.492,6.98
			c1.102,2.396,2.197,4.685,3.195,7.18c1.994,4.792,3.788,9.68,5.388,14.669c1.594,4.985,2.993,9.974,4.188,14.962
			c0.597,2.494,1.193,5.085,1.692,7.581c0.5,2.494,1.104,5.084,1.497,7.579c0.898,5.088,1.699,10.174,2.396,15.266v0.496
			c0.898,15.262,1.594,30.525,2.394,45.684l2.298,45.69l1.095,22.847c0.198,4.087,0.198,8.175-0.098,12.266
			c-0.301,4.192-0.898,8.377-1.896,12.468c-0.499,2.094-1.201,4.192-1.995,6.286c-0.899,2.096-1.896,4.188-3.091,6.184
			c-2.492,4.09-5.788,7.683-9.778,10.374c-3.99,2.595-8.479,4.491-13.165,5.293l-3.491,0.497l-2.993,0.196
			c-1.602,0.1-3.097,0.301-4.692,0.598c-3.091,0.598-5.985,1.699-8.775,3.196c-2.598,1.393-4.987,3.289-6.885,5.485
			c-0.898,0.998-1.594,2.094-2.197,3.288c-0.598,1.2-0.999,2.396-1.195,3.695c-0.695,3.19-0.898,6.379-0.695,9.574
			c0.197,2.994,0.794,5.888,1.996,8.68c1.096,2.59,2.79,4.983,4.882,6.882c2.1,1.896,4.594,3.392,7.284,4.29
			c1.397,0.5,2.895,0.796,4.39,1.097l0.998,0.199h3.891l45.683,2.695l22.845,1.392l11.472,0.703h10.473
			c13.77-0.9,26.934-6.188,37.506-15.164c5.191-4.491,9.576-9.777,13.068-15.662c3.491-5.985,5.984-12.37,7.383-19.151
			l17.357-89.881l8.677-44.986c2.894-14.965,5.788-29.927,8.781-44.892l4.686-22.442l4.988-22.347
			c3.393-14.859,6.982-29.723,10.973-44.486c0.203-1.399,1.398-2.294,2.697-2.193
			C1229.629,2038.037,1230.731,2039.434,1230.528,2040.834z"/>
		<path fill="#31343F" d="M1674.529,2025.267l2.197,9.377c1.398,6.084,3.393,15.063,5.782,26.533
			c1.201,5.688,2.494,12.075,3.892,18.955l4.389,22.443l4.792,25.54l4.988,28.328l23.239,134.966
			c1.098,6.084,1.994,12.772,3.59,17.758c1.699,5.485,4.094,10.771,7.185,15.659c6.282,9.978,15.261,18.057,25.839,23.344
			l4.089,1.898l1.096,0.395l0.996,0.399l1.996,0.7c2.691,0.795,5.583,1.394,8.38,1.695l4.287,0.301h4.592l9.975-0.301l40-1.398
			l39.307-1.195l2.492-0.302l1.195-0.199l0.9-0.199l1.894-0.395l1.892-0.605c2.396-0.794,4.49-1.993,6.482-3.49
			c1.8-1.493,3.294-3.288,4.294-5.382c0.198-0.603,0.595-1.102,0.695-1.697l0.604-1.794c0.393-1.3,0.595-2.599,0.794-3.891
			c0.202-1.398,0.302-2.698,0.401-4.09v-2.1c0,0,0-1.394-0.1-2.191l-0.204-2.192v-0.303c0,0.197-0.196,0.303-0.297,0.197
			c-0.202,0-0.301-0.197-0.202-0.297c0-0.201,0.202-0.299,0.303-0.201c0.099,0,0.196,0.105,0.196,0.201v-1.593l-0.196-0.801
			l-0.199-0.898c-0.104-0.598-0.401-1.295-0.601-1.896c-1.695-4.985-4.688-9.275-8.377-11.67c-1.993-1.194-4.094-1.993-6.385-2.296
			l-1.797-0.199l-2.593-0.196h-1.193l-1.499-0.204l-2.895-0.496c-3.791-0.898-7.479-2.291-10.872-4.188
			c-3.491-1.995-6.582-4.69-9.077-7.98c-2.396-3.091-4.089-6.687-5.29-10.374c-0.997-3.49-1.692-7.082-1.896-10.673
			c-0.099-0.898-0.099-1.698-0.099-2.597v-7.179l0.203-9.076l0.794-35.315l0.202-8.578v-4.586l0.298-4.195l0.301-4.188
			c0.098-1.396,0.196-2.696,0.401-4.192l0.996-8.376c1.497-10.578,3.591-21.05,6.382-31.419c2.492-9.478,5.589-18.757,9.079-27.935
			l2.691-6.383c0.899-2.095,1.695-4.193,2.692-6.189l2.797-5.879c0.898-1.898,1.795-3.891,2.794-5.689l2.889-5.389l1.395-2.594
			l1.499-2.492l2.893-4.892c0.898-1.591,1.797-3.187,2.794-4.683l5.586-8.678l5.391-7.684l2.59-3.492l2.494-3.189
			c1.595-2.094,3.092-4.09,4.588-5.787l4.09-4.89l3.491-3.99l6.583-7.081c0.799-0.897,2.197-1.099,3.097-0.298
			c0.892,0.794,1.095,2.194,0.296,3.091l-5.586,7.778c-3.592,5.093-8.781,12.575-14.864,22.445l-4.685,7.783l-4.792,8.778
			c-0.896,1.498-1.695,3.095-2.492,4.688l-2.494,4.89l-1.294,2.493l-1.201,2.593l-2.491,5.388
			c-7.386,16.257-13.37,33.116-17.657,50.473l-0.898,3.593l-0.4,1.797l-0.401,1.793l-1.494,7.384l-0.396,1.894l-0.298,1.897
			l-0.601,3.787l-0.597,3.893l-0.301,1.895l-0.197,1.897l-0.899,7.778c-0.202,1.298-0.202,2.696-0.3,4.094l-0.298,4.188
			l-0.304,4.188v12.469l-0.497,35.313v15.763c0,0,0,1.398,0.099,1.995c0.203,2.495,0.702,5.086,1.4,7.483
			c0.693,2.189,1.795,4.283,3.188,6.182c2.696,3.588,6.884,5.787,11.969,6.884l1.798,0.3l0.898,0.198h1.197l2.197,0.198l2.992,0.301
			c4.09,0.596,8.077,1.993,11.668,4.188c3.492,2.197,6.583,5.09,8.979,8.479c2.297,3.195,4.09,6.786,5.39,10.475
			c0.294,0.897,0.597,1.797,0.794,2.794l0.399,1.398l0.3,1.595v2.894l0.199,2.693c0.098,0.897,0.098,1.795,0.098,2.795
			c0,0.998,0.104,1.791,0,2.788c-0.098,1.897-0.196,3.793-0.497,5.688c-0.297,1.995-0.696,3.893-1.195,5.782l-0.997,2.895
			c-0.303,0.997-0.801,1.896-1.3,2.895c-1.891,3.889-4.588,7.284-7.877,10.074c-3.296,2.591-6.883,4.691-10.874,5.985l-2.795,0.897
			l-2.993,0.696l-1.496,0.301l-1.294,0.199l-2.493,0.303h-5.688l-4.988,0.195l-9.975,0.399l-20.052,0.703l-39.999,1.291
			l-9.975,0.304h-5.387l-5.588-0.401c-3.692-0.398-7.379-1.193-10.97-2.296l-2.698-0.894l-1.391-0.496l-1.201-0.501l-4.89-2.299
			c-12.864-6.482-23.642-16.359-31.318-28.526c-3.791-5.983-6.687-12.372-8.68-19.155l-0.697-2.592l-0.301-1.296
			c-0.1-0.397-0.197-0.898-0.297-1.298l-0.498-2.295l-0.203-1.197v-1.398l-1.496-9.271l-21.945-135.271l-4.489-28.429l-3.786-25.636
			l-3.198-22.641c-0.996-6.983-1.79-13.368-2.493-19.255c-1.494-11.571-2.493-20.75-3.189-27.032l-0.997-9.575
			c0.4-1.102,1.693-1.699,2.79-1.298C1673.932,2024.67,1674.232,2024.971,1674.529,2025.267z"/>
	</g>
	<path opacity="0.1" fill="#3E3F4A" d="M1124.606,373.793c0,0,19.746,218.181,19.877,223.968
		c0.132,5.788,69.536-104.148,80.037-116.46C1235.021,468.988,1124.606,373.793,1124.606,373.793z"/>
	
		<linearGradient id="SVGID_1_" gradientUnits="userSpaceOnUse" x1="1919.8057" y1="622.6436" x2="2026.5566" y2="622.6436" gradientTransform="matrix(0.9751 -0.2218 0.2218 0.9751 -226.0107 336.1699)">
		<stop  offset="0" style="stop-color:#FFFFFF"/>
		<stop  offset="0.72" style="stop-color:#FFFFFF"/>
		<stop  offset="1" style="stop-color:#FFFFFF"/>
	</linearGradient>
	<path opacity="0.1" fill="url(#SVGID_1_)" d="M1798.843,582.335l47.143-224.034c0,0,29.804-13.227,13.768,117.751
		c-0.753,6.164-11.069,161.137-19.313,173.801C1840.439,649.853,1805.148,589.231,1798.843,582.335z"/>
	<path fill="#FFFFFF" stroke="#3E3F4A" stroke-width="9" stroke-miterlimit="10" d="M1918.569,1421.883
		c-169.626,260.354-510.85,301.776-542.408,291.913c-31.558-9.861-400.396-177.516-400.396-307.69c0,0-9.198-365.364-3.199-391.359
		c5.999-25.998-2.032-295.967-2.032-295.967s8.031-117.986,148.015-175.979c139.983-57.994,559-107.988,737.446,49.994
		c0,0,96.456,53.994,82.459,223.974C1924.457,986.748,1918.569,1421.883,1918.569,1421.883z M1182.949,968.685
		c0,0-105.61,88.766-130.179,442.009c0,0,252.698,237.988,359.208,243.625c0,0,292.143-70.422,408.385-231.745
		c0,0-3.092-384.55-221.125-499.967C1354.085,792.834,1182.949,968.685,1182.949,968.685z"/>
	<linearGradient id="SVGID_2_" gradientUnits="userSpaceOnUse" x1="1924.8965" y1="1486.7173" x2="1924.8965" y2="2245.4927">
		<stop  offset="0" style="stop-color:#FFFFFF"/>
		<stop  offset="0.72" style="stop-color:#FFFFFF"/>
		<stop  offset="1" style="stop-color:#FFFFFF"/>
	</linearGradient>
	<path opacity="0.1" fill="url(#SVGID_2_)" d="M1869.169,1486.717l118.063,372.419c0,0,17.441,62.77,35.882,111.696
		c18.44,48.926,13.743,199.924-113.429,274.659c0,0,102.696-85.097,77.836-219.518c-24.863-134.421-168.788-488.748-168.788-488.748
		L1869.169,1486.717z"/>
	<path opacity="0.1" fill="#3E3F4A" d="M1919.968,2037.5c0,0-73.678,75.324-63.148,229.87c0,0,174.896-46.704,174.238-242.924
		c0,0-22.076,89.565-87.632,104.794C1877.87,2144.467,1919.968,2037.5,1919.968,2037.5z"/>
	<path opacity="0.1" fill="#3E3F4A" d="M1017.394,1498.266l-62.035,344.669c0,0-14.203,84.594-30.726,160.847
		s38.858,197.274,121.951,241.63c0,0,7.203-168.898-46.183-214.858l76.939-489.48L1017.394,1498.266z"/>
	<g>
		<defs>
			<polyline id="SVGID_3_" points="1999.905,211.303 2337.811,1696.795 896.94,2024.552 559.034,539.059 			"/>
		</defs>
		<clipPath id="SVGID_4_">
			<use xlink:href="#SVGID_3_"  overflow="visible"/>
		</clipPath>
	</g>
	<path opacity="0.2" fill="#B8BCBB" d="M1931.747,711.196c0,0-11.088,149.581-1.9,261.608
		c9.516,116.017-20.069,163.799-15.105,292.695c4.966,128.896,0,156.476,0,156.476l-61.802,76.262c0,0,70.34-685.656,19.137-893.261
		C1872.076,604.976,1924.199,697.85,1931.747,711.196z"/>
	<path opacity="0.1" fill="#3E3F4A" d="M1138.466,1579.042c0,0-133.443-72.936-150.792-138.642
		c-17.141-64.922-7.472-87.056-7.472-87.056l-2.717-650.724c0,0,29.939-88.95,67.269-115.374c0,0-29.195,126.04-24.1,150.038
		c5.095,23.998-0.238,661.29,2.428,661.29S1008.531,1444.863,1138.466,1579.042z"/>
	<path opacity="0.1" fill="#3E3F4A" d="M1189.459,2277.396h517.925l-30.947-196.753c0,0-1.276,74.993-33.88,108.641
		c-32.607,33.648-59.676,36.979-78.632,38.882c-18.954,1.903-280.502,28.072-319.966-16.048
		c-39.465-44.117-31.529-60.028-31.529-60.028L1189.459,2277.396z"/>
	<path fill="#35B891" stroke="#3E3F4A" stroke-width="9" stroke-miterlimit="10" d="M980.191,1406.801"/>
	<path fill="#010101" d="M1563.479,1806.321c0,0,29.859-30.321,40.356-36.819s22.993-14.995,16.494,10.997l-11.497,42.987
		c0,0,40.989,20.994,45.486,33.49c4.5,12.497-1,22.994-12.996,41.988c-11.997,18.995-41.987,24.492-47.486,20.495
		c-5.497-4-22.993-18.496-22.993-18.496s-9.997,37.489-29.99,39.489c-19.994,2-69.48-0.5-57.983-35.99
		c0,0,23.493-49.986,38.989-54.982c0,0-19.994-33.49-24.993-48.486c-4.999-14.997,13.497-7.999,13.497-7.999L1563.479,1806.321z"/>
	<path fill="#010101" d="M1340.38,1806.321c0,0-29.859-30.321-40.356-36.819s-22.993-14.995-16.495,10.997l11.497,42.987
		c0,0-40.988,20.994-45.487,33.49c-4.499,12.497,1,22.994,12.996,41.988c11.997,18.995,41.989,24.492,47.486,20.495
		c5.499-4,22.993-18.496,22.993-18.496s9.998,37.489,29.992,39.489s69.48-0.5,57.983-35.99c0,0-23.493-49.986-38.989-54.982
		c0,0,19.994-33.49,24.993-48.486c4.999-14.997-13.497-7.997-13.497-7.997L1340.38,1806.321z"/>
	<path fill="#010101" d="M1247.978,1969.131c0,0,187.906,135.541,393.346,6.195v16.618c0,0-186.866,160.961-393.346,0V1969.131z"/>
	<path fill="#3E3F4A" d="M1078.244,738.264c0,0,334.146,186.382,699.456,15.373C1777.699,753.637,1453.384,893.899,1078.244,738.264
		z"/>
</g>
</svg>
