<?xml version="1.0" encoding="utf-8"?>
<!-- Generator: Adobe Illustrator 16.0.0, SVG Export Plug-In . SVG Version: 6.00 Build 0)  -->
<!DOCTYPE svg PUBLIC "-//W3C//DTD SVG 1.1//EN" "http://www.w3.org/Graphics/SVG/1.1/DTD/svg11.dtd">
<svg version="1.1" id="Layer_3" xmlns="http://www.w3.org/2000/svg" xmlns:xlink="http://www.w3.org/1999/xlink" x="0px" y="0px"
	 width="3000px" height="3000px" viewBox="0 0 3000 3000" enable-background="new 0 0 3000 3000" xml:space="preserve">
<g>
	<path fill="#E18E88" d="M1201.831,879.694l223.637-468.488l215.89,462.759C1641.357,873.965,1474.193,963.182,1201.831,879.694z"/>
	<path fill="#E8A8A3" d="M1545.834,871.638l-116.667-441.137c0,0,77.28,165.935,167.974,432.301L1545.834,871.638z"/>
	<path fill="#E8A8A3" d="M1289.075,871.637c-2.712,0.901,127.668-423.384,127.668-423.384v-15.77l-168.398,427.9L1289.075,871.637z"
		/>
	
		<ellipse transform="matrix(0.4139 -0.9103 0.9103 0.4139 221.8629 1881.1327)" fill="#D47D71" cx="1571.81" cy="768.269" rx="3.53" ry="4.75"/>
	<path fill="#93CE4E" d="M1212.704,850.541c0,0,177.272,73.922,411.108,0l12.695,27.211c0,0-161.53,91.257-439.527,5.729
		L1212.704,850.541z"/>
	<path fill="#BA50D7" d="M1385.594,882.451c0,0-2.695,14.015,15.093,13.476c17.788-0.539,20.753-19.405,22.909-2.695
		c2.156,16.71,9.433,18.058,11.05,19.136c1.617,1.078,21.292,2.965,15.363-13.476c-5.929-16.441-4.043-15.632-1.887-14.555
		c2.156,1.078,20.484,3.773,14.285-3.503L1385.594,882.451z"/>
	<path fill="#BA50D7" d="M1226.833,887.5c0,0-9.962-19.102,11.852-14.218c0,0,5.814,5.884,6.148,7.551s4.333-11.667,10.667-12.667
		s25.667-0.667,23.667,7.667s-1.334,14.667,5.333,11.667s22,5,10.333,15.333L1226.833,887.5z"/>
	<path fill="#BA50D7" d="M1558.499,902.5c0,0-11.001-10,3.666-18.667s14.2,6.667,22.601-9.666s17.754-11.164,20.41-8.416
		s1.893,8.831-2.059,14.123s9.096-10.617,13.072,7.837L1558.499,902.5z"/>
	<path fill="none" stroke="#31323D" stroke-width="10" stroke-miterlimit="10" d="M1201.831,882.694l223.637-468.488l215.89,462.759
		C1641.357,876.965,1474.193,966.182,1201.831,882.694z"/>
	<path fill="#93CE4E" d="M1212.704,850.541"/>
	<path fill="none" stroke="#31323D" stroke-width="5" stroke-miterlimit="10" d="M1216.554,849.864c0,0,177.272,73.922,411.108,0
		l12.695,27.211c0,0-161.53,91.257-439.527,5.729L1216.554,849.864z"/>
	<path fill="#B950D9" stroke="#31323D" stroke-width="5" stroke-miterlimit="10" d="M1413.667,399.807
		c0,0-0.479-39.667,5.927-19.167s8.574,26.333,12.407,19.667s18.833-28.5,14.833-12.167s-10.333,25,4.833,19.833s24.5-4,15.667,0.5
		s-22,15.5-22.667,17.667S1456,439.307,1456,439.307s8.457,9.344-23.688-7.078c0,0-10.329,51.745-18.653,2.245
		c0,0-28.657,12.501-19.658,1.167s10.5-13.167,10.5-13.167s-36.333,5-19.5-1.667s22.833-10.5,22.833-10.5
		S1359,385.974,1413.667,399.807z"/>
	<g>
		<path fill="#590713" d="M1313.576,826.775c0,0,2.5-82,75-135.5c72.5-53.5,173.5-26,187,130.5
			C1575.576,821.775,1427.576,862.275,1313.576,826.775z"/>
		<path fill="#2F0006" stroke="#31323D" stroke-width="3" stroke-miterlimit="10" d="M1349.205,734.159
			c0,0,61.294-15.302,45.961,9.031s4.667,28.667,9.667,22.667s2-27,2-27s5.667-28,35,4.333s-6.334,71.666-24.667,65
			S1284.5,818.858,1349.205,734.159z"/>
		<path fill="#C42D38" stroke="#31323D" stroke-width="3" stroke-miterlimit="10" d="M1424.576,814.436
			c0,0-5.719-7.218-16.436-13.886c-17.861-11.114-47.687-19.531-89.978,8.386l-2.25,17.839c0,0,66.254,27.081,207.998,5.661
			c0,0-31.667-51-88.001-42.667c0,0-24.667,3.334-25.667,9.667L1424.576,814.436z"/>
		<path fill="none" stroke="#31323D" stroke-width="5" stroke-miterlimit="10" d="M1315.912,826.775c0,0,2.5-82,75-135.5
			s173.5-26,187,130.5C1577.912,821.775,1429.912,862.275,1315.912,826.775z"/>
	</g>
	
		<ellipse fill="#FFFFFF" stroke="#31323D" stroke-width="3" stroke-miterlimit="10" cx="1516.953" cy="576.681" rx="54.857" ry="52.643"/>
	
		<ellipse fill="#FFFFFF" stroke="#31323D" stroke-width="3" stroke-miterlimit="10" cx="1422.98" cy="576.681" rx="56.441" ry="52.643"/>
	<circle fill="#31323D" stroke="#31323D" stroke-width="3" stroke-miterlimit="10" cx="1431.41" cy="570.924" r="5.757"/>
	<circle fill="#31323D" stroke="#31323D" stroke-width="3" stroke-miterlimit="10" cx="1528.5" cy="570.924" r="5.757"/>
	
		<ellipse transform="matrix(-0.9119 -0.4104 0.4104 -0.9119 2720.7554 2249.6411)" fill="#D47D71" cx="1601.811" cy="832.827" rx="3.53" ry="4.75"/>
	
		<ellipse transform="matrix(-0.5062 -0.8624 0.8624 -0.5062 1740.8705 1959.4487)" fill="#D47D71" cx="1431.41" cy="481.327" rx="3.53" ry="4.75"/>
	
		<ellipse transform="matrix(0.9582 0.286 -0.286 0.9582 207.7631 -378.3609)" fill="#D47D71" cx="1399.094" cy="522.038" rx="3.157" ry="4.247"/>
	
		<ellipse transform="matrix(-0.9119 -0.4104 0.4104 -0.9119 2236.8865 1828.8037)" fill="#D47D71" cx="1314.711" cy="674.338" rx="4.775" ry="4.75"/>
	
		<ellipse transform="matrix(-0.3604 0.9328 -0.9328 -0.3604 2518.0876 -172.5081)" fill="#D47D71" cx="1318.188" cy="777.077" rx="3.53" ry="4.749"/>
	
		<ellipse transform="matrix(0.1249 -0.9922 0.9922 0.1249 275.2198 1975.8219)" fill="#D47D71" cx="1257.705" cy="831.889" rx="3.53" ry="5.37"/>
	<path fill="none" stroke="#31323D" stroke-width="3" stroke-miterlimit="10" d="M1460.167,849.864c0,0,22.666,4.967,42.333-4.366"
		/>
</g>
</svg>
