<?xml version="1.0" encoding="utf-8"?>
<!-- Generator: Adobe Illustrator 16.0.0, SVG Export Plug-In . SVG Version: 6.00 Build 0)  -->
<!DOCTYPE svg PUBLIC "-//W3C//DTD SVG 1.1//EN" "http://www.w3.org/Graphics/SVG/1.1/DTD/svg11.dtd">
<svg version="1.1" xmlns="http://www.w3.org/2000/svg" xmlns:xlink="http://www.w3.org/1999/xlink" x="0px" y="0px" width="2250px"
	 height="2250px" viewBox="0 0 2250 2250" enable-background="new 0 0 2250 2250" xml:space="preserve">
<g id="Layer_2">
</g>
<g id="Layer_1">
	<rect x="1" display="none" fill="none" stroke="#AFD0F7" stroke-miterlimit="10" width="2250" height="2250"/>
	<g>
		<g>
			
				<ellipse fill="#A0A0A0" stroke="#31323D" stroke-width="6" stroke-miterlimit="10" cx="1102.503" cy="1980.786" rx="173.795" ry="135.277"/>
			
				<ellipse fill="#B5B4BA" stroke="#31323D" stroke-width="6" stroke-miterlimit="10" cx="1102.503" cy="1965.937" rx="173.795" ry="130.85"/>
			
				<ellipse fill="#937E83" stroke="#31323D" stroke-width="5" stroke-miterlimit="10" cx="1102.355" cy="1920.936" rx="156.781" ry="118.433"/>
			
				<ellipse fill="#B13432" stroke="#31323D" stroke-width="4" stroke-miterlimit="10" cx="1100.165" cy="1912.351" rx="145.557" ry="117.215"/>
			
				<ellipse fill="#E54932" stroke="#31323D" stroke-width="4" stroke-miterlimit="10" cx="1100.165" cy="1894.668" rx="143.091" ry="107.188"/>
		</g>
		<g>
			<g>
				<path fill="#FFFFFF" stroke="#FFFFFF" stroke-width="9" stroke-miterlimit="10" d="M1024.469,1877.258
					c-1.62-3.182-2.438-4.768-4.093-7.938c3.302-1.345,4.961-2.004,8.295-3.298c1.609,3.195,2.404,4.794,3.978,8
					C1029.362,1875.291,1027.725,1875.938,1024.469,1877.258z M1044.932,1945.312c-0.486-2.595-0.731-3.891-1.222-6.484
					c1.601-0.24,2.816-0.525,3.648-0.864c1.475-0.601,2.378-1.512,2.708-2.75c0.329-1.236-0.295-3.752-1.924-7.531
					c-6.25-14.509-12.903-28.842-19.933-42.989c3.213-1.297,4.827-1.932,8.071-3.179c6.855,14.299,13.312,28.789,19.374,43.441
					c2.112,5.108,2.821,8.951,2.264,11.479c-0.72,3.265-3.079,5.694-7.084,7.313
					C1048.898,1944.528,1046.935,1945.049,1044.932,1945.312z"/>
				<path fill="#FFFFFF" stroke="#FFFFFF" stroke-width="9" stroke-miterlimit="10" d="M1096.357,1909.102
					c-0.823-2.514-1.241-3.771-2.085-6.282c-2.047,5.85-6.125,9.651-12.243,11.556c-2.7,0.841-5.38,1.168-8.064,0.982
					s-4.865-0.794-6.553-1.841c-1.688-1.048-3.178-2.532-4.476-4.435c-0.872-1.277-1.929-3.423-3.175-6.433
					c-3.571-8.629-7.286-17.198-11.132-25.708c3.291-1.172,4.943-1.746,8.264-2.867c4.011,9.227,5.946,13.858,9.675,23.153
					c1.488,3.708,2.624,6.172,3.45,7.344c1.204,1.706,2.834,2.839,4.832,3.396c1.997,0.557,4.163,0.468,6.521-0.26
					c2.358-0.728,4.381-1.945,6.082-3.666c1.7-1.72,2.669-3.656,2.884-5.82c0.215-2.162-0.303-5.064-1.598-8.699
					c-3.248-9.125-4.939-13.678-8.453-22.75c3.401-0.977,5.109-1.451,8.538-2.375c5.148,14.185,10.015,28.424,14.628,42.792
					C1100.603,1907.933,1099.184,1908.317,1096.357,1909.102z"/>
				<path fill="#FFFFFF" stroke="#FFFFFF" stroke-width="9" stroke-miterlimit="10" d="M1099.525,1853.076
					c-1.201-3.375-1.811-5.06-3.047-8.429c3.564-0.875,5.354-1.303,8.945-2.122c1.188,3.388,1.774,5.084,2.927,8.478
					C1104.808,1851.804,1103.042,1852.22,1099.525,1853.076z M1110.772,1923.309c-0.129-2.637-0.193-3.953-0.327-6.59
					c1.679-0.016,2.97-0.128,3.872-0.348c1.6-0.389,2.66-1.165,3.175-2.344s0.23-3.76-0.905-7.729
					c-4.357-15.239-9.126-30.362-14.3-45.344c3.471-0.839,5.214-1.242,8.711-2.026c4.974,15.115,9.544,30.362,13.692,45.725
					c1.446,5.354,1.632,9.255,0.7,11.681c-1.203,3.131-3.975,5.208-8.324,6.251
					C1114.964,1923.088,1112.87,1923.327,1110.772,1923.309z"/>
				<path fill="#FFFFFF" stroke="#FFFFFF" stroke-width="9" stroke-miterlimit="10" d="M1168.793,1894.723
					c-0.499-2.608-0.754-3.913-1.273-6.521c-2.919,5.499-7.647,8.681-14.213,9.695c-2.896,0.447-5.701,0.394-8.437-0.171
					c-2.733-0.563-4.893-1.473-6.481-2.75c-1.588-1.275-2.909-2.957-3.974-5.022c-0.716-1.388-1.499-3.663-2.354-6.817
					c-2.452-9.045-5.043-18.052-7.778-27.016c3.536-0.7,5.309-1.034,8.871-1.679c2.809,9.699,4.141,14.557,6.661,24.286
					c1.005,3.882,1.827,6.483,2.512,7.761c0.996,1.858,2.512,3.209,4.488,4.044c1.975,0.835,4.218,1.051,6.745,0.666
					s4.777-1.301,6.768-2.763c1.989-1.46,3.258-3.237,3.78-5.35c0.521-2.11,0.389-5.06-0.436-8.844
					c-2.069-9.501-3.17-14.251-5.509-23.733c3.626-0.484,5.443-0.71,9.092-1.135c3.315,14.782,6.349,29.582,9.106,44.479
					C1173.326,1894.18,1171.813,1894.353,1168.793,1894.723z"/>
			</g>
		</g>
		<path opacity="0.3" fill="#31323D" d="M951.126,1952.256c0,0-4.057,89.684,37.548,132.887c0,0-92.357-73.025-44.768-172.791
			C943.907,1912.352,945.885,1949.06,951.126,1952.256z"/>
		<g>
			<path fill="#31323D" d="M1121.712,2066.144l9.92-22.751c0,0,0.305-1.281,1.055-0.17c0.751,1.112,16.562,18.506,16.562,18.506
				s0.839,0.833,0.27,1.673c-0.57,0.84-10.471,17.561-10.471,17.561s-0.283,1.806-1.974,0.317
				c-1.69-1.489-15.052-13.205-15.052-13.205S1121.211,2067.292,1121.712,2066.144z"/>
			<g>
				<polygon fill="#B5B4BA" points="1131.959,2045.407 1123.034,2066.021 1134.201,2059.391 				"/>
				<g>
					<g>
						<g>
							<polygon fill="#937E83" points="1131.959,2045.407 1123.034,2066.021 1129.398,2062.241 							"/>
						</g>
					</g>
				</g>
			</g>
			<polygon fill="#B5B4BA" points="1133.014,2045.238 1147.938,2062.027 1135.256,2059.221 			"/>
			<polygon fill="#EAEAEA" points="1135.428,2060.293 1136.914,2069.558 1148.095,2063.014 			"/>
			<g>
				<polygon fill="#EAEAEA" points="1134.373,2060.462 1135.859,2069.727 1123.192,2067.007 				"/>
				<polygon fill="#B5B4BA" points="1123.198,2067.05 1128.887,2063.674 1128.969,2064.893 1129.486,2066.041 1131.098,2068.686 
									"/>
			</g>
			<g>
				<polygon fill="#B5B4BA" points="1123.687,2067.896 1135.982,2070.499 1137.51,2080.021 				"/>
				<polygon fill="#937E83" points="1123.687,2067.896 1131.688,2069.59 1137.51,2080.021 				"/>
			</g>
			<polygon fill="#B5B4BA" points="1147.903,2064.013 1137.037,2070.331 1138.564,2079.853 			"/>
		</g>
	</g>
	<rect x="2" fill="none" stroke="#B5B4BA" stroke-miterlimit="10" width="2250" height="2250"/>
	<rect x="2" fill="none" stroke="#000000" stroke-miterlimit="10" width="2250" height="2250"/>
</g>
</svg>
