<?xml version="1.0" encoding="utf-8"?>
<!-- Generator: Adobe Illustrator 16.0.0, SVG Export Plug-In . SVG Version: 6.00 Build 0)  -->
<!DOCTYPE svg PUBLIC "-//W3C//DTD SVG 1.1//EN" "http://www.w3.org/Graphics/SVG/1.1/DTD/svg11.dtd">
<svg version="1.1" xmlns="http://www.w3.org/2000/svg" xmlns:xlink="http://www.w3.org/1999/xlink" x="0px" y="0px" width="3000px"
	 height="3000px" viewBox="0 0 3000 3000" enable-background="new 0 0 3000 3000" xml:space="preserve">
<g id="Layer_4">
	<g>
		<g>
			<path fill="#F2AA55" stroke="#0A1624" stroke-width="3" stroke-miterlimit="10" d="M1422.491,1534.392
				c0,0-46.94-36.243-117.292-63.296c-33.615-12.925-105.233-31.396-114.31-27.524c-5.841,9.73-27.248,103.145-27.896,148.558
				c-0.649,45.412,29.192,147.265,36.975,151.154c7.788,3.893,117.377-25.835,147.27-42.816c28.54-16.22,54.73-39.657,75.253-64.226
				C1422.491,1618.075,1422.491,1534.392,1422.491,1534.392z"/>
			<path fill="#FFFFFF" d="M1450.259,1533.645c0,0-47.526-36.703-118.772-64.098c-34.035-13.09-110.17-32.146-115.754-27.875
				c-5.913,9.853-27.589,104.453-28.244,150.439c-0.663,45.985,29.561,149.129,37.441,153.067
				c7.884,3.943,118.859-26.158,149.128-43.356c28.904-16.424,55.429-40.161,76.201-65.038
				C1450.259,1618.389,1450.259,1533.645,1450.259,1533.645z"/>
			<path fill="#F2AA55" stroke="#0E1826" stroke-width="3" stroke-miterlimit="10" d="M1497.976,1534.519
				c0,0,46.933-36.242,117.287-63.297c33.617-12.926,105.23-31.396,114.305-27.525c5.841,9.732,27.253,103.147,27.9,148.558
				c0.645,45.412-29.197,147.265-36.98,151.154c-7.787,3.896-117.371-25.834-147.264-42.813
				c-28.542-16.22-54.73-39.659-75.248-64.226C1497.976,1618.203,1497.976,1534.519,1497.976,1534.519z"/>
			<path fill="#FFFFFF" d="M1470.197,1533.771c0,0,47.528-36.702,118.772-64.097c34.037-13.09,110.167-32.147,115.759-27.877
				c5.91,9.855,27.59,104.456,28.25,150.439c0.651,45.988-29.564,149.132-37.443,153.07c-7.885,3.943-118.87-26.163-149.137-43.356
				c-28.901-16.424-55.421-40.161-76.201-65.038C1470.197,1618.517,1470.197,1533.771,1470.197,1533.771z"/>
			<g>
				<defs>
					<path id="SVGID_1_" d="M1450.259,1533.645c0,0-47.526-36.703-118.772-64.098c-34.035-13.09-110.17-32.146-115.754-27.875
						c-5.913,9.853-27.589,104.453-28.244,150.439c-0.663,45.985,29.561,149.129,37.441,153.067
						c7.884,3.943,118.859-26.158,149.128-43.356c28.904-16.424,55.429-40.161,76.201-65.038
						C1450.259,1618.389,1450.259,1533.645,1450.259,1533.645z"/>
				</defs>
				<clipPath id="SVGID_2_">
					<use xlink:href="#SVGID_1_"  overflow="visible"/>
				</clipPath>
				<g clip-path="url(#SVGID_2_)">
					<g>
						
							<rect x="1092.161" y="1025.262" transform="matrix(0.7071 0.7071 -0.7071 0.7071 1231.7432 -397.3906)" fill="#005089" width="6.807" height="525.776"/>
						
							<rect x="1115.538" y="1048.64" transform="matrix(0.7073 0.707 -0.707 0.7073 1254.7717 -407.1007)" fill="#005089" width="6.806" height="525.776"/>
						
							<rect x="1138.916" y="1072.019" transform="matrix(0.7072 0.707 -0.707 0.7072 1278.2325 -416.7776)" fill="#005089" width="6.807" height="525.776"/>
						
							<rect x="1162.294" y="1095.398" transform="matrix(0.7071 0.7071 -0.7071 0.7071 1301.7876 -426.4482)" fill="#005089" width="6.81" height="525.775"/>
						
							<rect x="1185.672" y="1118.776" transform="matrix(0.7073 0.7069 -0.7069 0.7073 1324.7941 -436.1586)" fill="#005089" width="6.808" height="525.774"/>
						
							<rect x="1209.047" y="1142.155" transform="matrix(0.707 0.7073 -0.7073 0.707 1349.0085 -445.7777)" fill="#005089" width="6.807" height="525.774"/>
						<polygon fill="#4A409E" points="1052.352,1616.712 1047.537,1611.902 1419.317,1240.124 1424.126,1244.936 						"/>
						<polygon fill="#4A409E" points="1075.726,1640.094 1070.917,1635.278 1442.695,1263.502 1447.505,1268.314 						"/>
						
							<rect x="1279.185" y="1212.292" transform="matrix(0.7069 0.7073 -0.7073 0.7069 1419.3633 -474.8167)" fill="#4A409E" width="6.808" height="525.773"/>
						<polygon fill="#4A409E" points="1122.483,1686.851 1117.668,1682.036 1489.452,1310.258 1494.262,1315.07 						"/>
						
							<rect x="1325.943" y="1259.046" transform="matrix(0.7071 0.7071 -0.7071 0.7071 1465.5272 -494.2264)" fill="#4A409E" width="6.809" height="525.777"/>
						
							<rect x="1349.322" y="1282.423" transform="matrix(0.7073 0.7069 -0.7069 0.7073 1488.2793 -503.9514)" fill="#4A409E" width="6.807" height="525.774"/>
						<polygon fill="#4A409E" points="1192.619,1756.986 1187.807,1752.174 1559.583,1380.395 1564.4,1385.206 						"/>
						
							<rect x="1396.076" y="1329.181" transform="matrix(0.707 0.7073 -0.7073 0.707 1536.0891 -523.248)" fill="#4A409E" width="6.807" height="525.773"/>
						
							<rect x="1419.456" y="1352.558" transform="matrix(0.7073 0.7069 -0.7069 0.7073 1558.3835 -533.001)" fill="#4A409E" width="6.804" height="525.774"/>
						
							<rect x="1442.835" y="1375.938" transform="matrix(0.7071 0.7071 -0.7071 0.7071 1582.5276 -542.637)" fill="#4A409E" width="6.806" height="525.773"/>
						<polygon fill="#005089" points="1286.13,1850.5 1281.318,1845.686 1653.104,1473.906 1657.909,1478.72 						"/>
						
							<rect x="1489.592" y="1422.692" transform="matrix(0.7069 0.7073 -0.7073 0.7069 1629.7435 -561.978)" fill="#005089" width="6.807" height="525.775"/>
						
							<rect x="1512.967" y="1446.073" transform="matrix(0.7067 0.7075 -0.7075 0.7067 1653.7083 -571.623)" fill="#005089" width="6.805" height="525.772"/>
						<polygon fill="#005089" points="1356.269,1920.634 1351.454,1915.818 1723.235,1544.042 1728.042,1548.853 						"/>
						
							<rect x="1559.725" y="1492.83" transform="matrix(0.7073 0.707 -0.707 0.7073 1698.8345 -591.0898)" fill="#005089" width="6.811" height="525.775"/>
						
							<rect x="1583.103" y="1516.208" transform="matrix(0.7071 0.7071 -0.7071 0.7071 1722.6868 -600.7454)" fill="#005089" width="6.809" height="525.773"/>
						
							<rect x="1606.482" y="1539.589" transform="matrix(0.7073 0.7069 -0.7069 0.7073 1745.4548 -610.4634)" fill="#005089" width="6.808" height="525.772"/>
						<polygon fill="#005089" points="1449.78,2014.147 1444.968,2009.333 1816.747,1637.551 1821.559,1642.371 						"/>
						
							<rect x="1653.238" y="1586.344" transform="matrix(0.7071 0.7071 -0.7071 0.7071 1792.8223 -629.7949)" fill="#005089" width="6.806" height="525.774"/>
						
							<rect x="1676.615" y="1609.723" transform="matrix(0.707 0.7073 -0.7073 0.707 1816.7103 -639.4507)" fill="#005089" width="6.807" height="525.771"/>
						
							<rect x="1699.996" y="1633.1" transform="matrix(0.7073 0.7069 -0.7069 0.7073 1838.8047 -649.2056)" fill="#005089" width="6.808" height="525.773"/>
						
							<rect x="1723.372" y="1656.478" transform="matrix(0.7068 0.7074 -0.7074 0.7068 1864.0026 -658.79)" fill="#005089" width="6.806" height="525.773"/>
						
							<rect x="1746.751" y="1679.856" transform="matrix(0.7067 0.7075 -0.7075 0.7067 1887.66 -668.459)" fill="#005089" width="6.802" height="525.775"/>
						
							<rect x="1770.131" y="1703.229" transform="matrix(0.7071 0.7071 -0.7071 0.7071 1909.7115 -678.2134)" fill="#005089" width="6.802" height="525.78"/>
					</g>
					
						<rect x="1602.028" y="944.644" transform="matrix(-0.7068 0.7074 -0.7074 -0.7068 3769.6689 1348.2034)" fill="#FFFFFF" width="6.808" height="1021.372"/>
					<polygon fill="#FFFFFF" points="1207.509,1131.037 1212.324,1126.222 1934.541,1848.437 1929.719,1853.251 					"/>
					<polygon fill="#FFFFFF" points="1173.103,1165.442 1177.917,1160.627 1900.132,1882.844 1895.312,1887.658 					"/>
					
						<rect x="1498.805" y="1047.864" transform="matrix(-0.7071 0.7071 -0.7071 -0.7071 3666.4919 1598.387)" fill="#FFFFFF" width="6.809" height="1021.37"/>
					<polygon fill="#F58B02" points="1104.287,1234.257 1109.101,1229.439 1831.318,1951.657 1826.501,1956.469 					"/>
					
						<rect x="1429.993" y="1116.677" transform="matrix(-0.7072 0.707 -0.707 -0.7072 3597.6667 1764.7357)" fill="#F58B02" width="6.808" height="1021.37"/>
					<polygon fill="#F58B02" points="1035.474,1303.069 1040.289,1298.254 1762.505,2020.47 1757.695,2025.282 					"/>
					<polygon fill="#F58B02" points="1001.07,1337.475 1005.882,1332.661 1728.096,2054.877 1723.289,2059.687 					"/>
					<polygon fill="#F58B02" points="966.662,1371.884 971.477,1367.066 1693.691,2089.284 1688.882,2094.096 					"/>
					
						<rect x="1292.368" y="1254.305" transform="matrix(-0.7071 0.7071 -0.7071 -0.7071 3460.0557 2096.7766)" fill="#F58B02" width="6.806" height="1021.369"/>
					<polygon fill="#FFFFFF" points="897.848,1440.693 902.662,1435.881 1624.881,2158.097 1620.061,2162.907 					"/>
				</g>
				<use xlink:href="#SVGID_1_"  overflow="visible" fill="none" stroke="#0D1725" stroke-width="3" stroke-miterlimit="10"/>
			</g>
			<g>
				<defs>
					<path id="SVGID_3_" d="M1470.197,1533.771c0,0,47.528-36.702,118.772-64.097c34.037-13.09,110.167-32.147,115.759-27.877
						c5.91,9.855,27.59,104.456,28.25,150.439c0.651,45.988-29.564,149.132-37.443,153.07
						c-7.885,3.943-118.87-26.163-149.137-43.356c-28.901-16.424-55.421-40.161-76.201-65.038
						C1470.197,1618.517,1470.197,1533.771,1470.197,1533.771z"/>
				</defs>
				<clipPath id="SVGID_4_">
					<use xlink:href="#SVGID_3_"  overflow="visible"/>
				</clipPath>
				<g clip-path="url(#SVGID_4_)">
					<g>
						
							<rect x="1183.641" y="1669.146" transform="matrix(0.7073 -0.7069 0.7069 0.7073 -1018.3438 1404.6855)" fill="#005089" width="6.803" height="525.775"/>
						
							<rect x="1207.014" y="1645.77" transform="matrix(0.7071 -0.7071 0.7071 0.7071 -995.0752 1414.8154)" fill="#005089" width="6.809" height="525.773"/>
						
							<rect x="1230.394" y="1622.391" transform="matrix(0.7073 -0.707 0.707 0.7073 -971.6287 1424.1648)" fill="#005089" width="6.807" height="525.775"/>
						<polygon fill="#005089" points="1445.474,2045.381 1440.664,2050.195 1068.88,1678.416 1073.695,1673.604 						"/>
						
							<rect x="1277.15" y="1575.635" transform="matrix(0.7073 -0.707 0.707 0.7073 -924.885 1443.5313)" fill="#005089" width="6.807" height="525.773"/>
						
							<rect x="1300.528" y="1552.26" transform="matrix(0.7073 -0.7069 0.7069 0.7073 -901.479 1452.9911)" fill="#005089" width="6.807" height="525.771"/>
						
							<rect x="1323.907" y="1528.876" transform="matrix(0.7069 -0.7073 0.7073 0.7069 -878.3081 1464.0173)" fill="#005089" width="6.808" height="525.776"/>
						<polygon fill="#005089" points="1538.982,1951.871 1534.176,1956.682 1162.392,1584.902 1167.206,1580.093 						"/>
						
							<rect x="1370.665" y="1482.119" transform="matrix(0.7069 -0.7073 0.7073 0.7069 -831.5313 1483.3842)" fill="#005089" width="6.804" height="525.775"/>
						
							<rect x="1394.043" y="1458.74" transform="matrix(0.7069 -0.7073 0.7073 0.7069 -808.1428 1493.0688)" fill="#005089" width="6.808" height="525.779"/>
						
							<rect x="1417.421" y="1435.364" transform="matrix(0.7073 -0.7069 0.7069 0.7073 -784.6345 1501.4111)" fill="#005089" width="6.811" height="525.774"/>
						<polygon fill="#005089" points="1632.502,1858.357 1627.682,1863.167 1255.908,1491.391 1260.72,1486.578 						"/>
						
							<rect x="1464.177" y="1388.61" transform="matrix(0.7073 -0.707 0.707 0.7073 -737.9128 1521.0006)" fill="#005089" width="6.807" height="525.771"/>
						
							<rect x="1487.554" y="1365.225" transform="matrix(0.7067 -0.7075 0.7075 0.7067 -714.6089 1532.2488)" fill="#4A409E" width="6.805" height="525.779"/>
						
							<rect x="1510.934" y="1341.85" transform="matrix(0.707 -0.7072 0.7072 0.707 -691.1885 1541.0382)" fill="#4A409E" width="6.805" height="525.776"/>
						
							<rect x="1534.314" y="1318.473" transform="matrix(0.7072 -0.707 0.707 0.7072 -667.801 1550.2759)" fill="#4A409E" width="6.805" height="525.776"/>
						
							<rect x="1557.693" y="1295.095" transform="matrix(0.7071 -0.7071 0.7071 0.7071 -644.4253 1560.1841)" fill="#4A409E" width="6.806" height="525.774"/>
						
							<rect x="1581.067" y="1271.717" transform="matrix(0.7073 -0.7069 0.7069 0.7073 -621.0571 1569.1949)" fill="#4A409E" width="6.811" height="525.77"/>
						
							<rect x="1604.442" y="1248.337" transform="matrix(0.707 -0.7072 0.7072 0.707 -597.6628 1579.7704)" fill="#4A409E" width="6.809" height="525.776"/>
						<polygon fill="#4A409E" points="1819.522,1671.329 1814.715,1676.142 1442.934,1304.362 1447.748,1299.549 						"/>
						<polygon fill="#4A409E" points="1842.9,1647.95 1838.091,1652.766 1466.313,1280.985 1471.122,1276.172 						"/>
						
							<rect x="1674.581" y="1178.2" transform="matrix(0.7067 -0.7075 0.7075 0.7067 -527.4307 1609.9412)" fill="#4A409E" width="6.806" height="525.776"/>
						
							<rect x="1697.96" y="1154.826" transform="matrix(0.7075 -0.7067 0.7067 0.7075 -504.2778 1616.9429)" fill="#4A409E" width="6.809" height="525.775"/>
						
							<rect x="1721.337" y="1131.446" transform="matrix(0.7073 -0.707 0.707 0.7073 -480.824 1627.521)" fill="#4A409E" width="6.811" height="525.774"/>
						
							<rect x="1744.715" y="1108.069" transform="matrix(0.707 -0.7073 0.7073 0.707 -457.3447 1638.0977)" fill="#4A409E" width="6.807" height="525.771"/>
						
							<rect x="1768.094" y="1084.692" transform="matrix(0.7075 -0.7067 0.7067 0.7075 -434.1733 1646.2157)" fill="#4A409E" width="6.808" height="525.772"/>
						
							<rect x="1791.474" y="1061.313" transform="matrix(0.7071 -0.7071 0.7071 0.7071 -410.6431 1657.0183)" fill="#4A409E" width="6.806" height="525.773"/>
						
							<rect x="1814.852" y="1037.933" transform="matrix(0.7069 -0.7073 0.7073 0.7069 -387.1719 1667.2605)" fill="#4A409E" width="6.803" height="525.775"/>
						<polygon fill="#4A409E" points="2029.926,1460.926 2025.117,1465.738 1653.338,1093.959 1658.147,1089.146 						"/>
						
							<rect x="1861.607" y="991.178" transform="matrix(0.7073 -0.7069 0.7069 0.7073 -340.6379 1685.3984)" fill="#4A409E" width="6.811" height="525.77"/>
					</g>
					
						<rect x="1350.818" y="911.481" transform="matrix(0.7073 0.707 -0.707 0.7073 1401.8667 -541.0452)" fill="#FFFFFF" width="6.805" height="1021.371"/>
					<polygon fill="#FFFFFF" points="1029.926,1820.091 1025.111,1815.271 1747.323,1093.06 1752.136,1097.874 					"/>
					<polygon fill="#FFFFFF" points="1064.333,1854.495 1059.521,1849.681 1781.728,1127.467 1786.553,1132.279 					"/>
					
						<rect x="1454.034" y="1014.706" transform="matrix(0.7069 0.7073 -0.7073 0.7069 1506.1276 -583.7737)" fill="#FFFFFF" width="6.808" height="1021.365"/>
					
						<rect x="1488.442" y="1049.11" transform="matrix(0.7071 0.7071 -0.7071 0.7071 1539.8921 -598.0405)" fill="#F58B02" width="6.806" height="1021.367"/>
					
						<rect x="1522.848" y="1083.519" transform="matrix(0.7071 0.7071 -0.7071 0.7071 1574.1874 -612.2952)" fill="#F58B02" width="6.809" height="1021.365"/>
					
						<rect x="1557.255" y="1117.924" transform="matrix(0.7071 0.7071 -0.7071 0.7071 1608.5916 -626.5474)" fill="#F58B02" width="6.809" height="1021.366"/>
					<polygon fill="#F58B02" points="1236.366,2026.529 1231.554,2021.714 1953.769,1299.499 1958.576,1304.313 					"/>
					
						<rect x="1626.071" y="1186.737" transform="matrix(0.707 0.7073 -0.7073 0.707 1677.9971 -655.0398)" fill="#F58B02" width="6.807" height="1021.367"/>
					<polygon fill="#F58B02" points="1305.182,2095.342 1300.365,2090.527 2022.584,1368.314 2027.389,1373.127 					"/>
					<polygon fill="#FFFFFF" points="1339.586,2129.749 1334.776,2124.934 2056.986,1402.721 2061.803,1407.533 					"/>
				</g>
				<use xlink:href="#SVGID_3_"  overflow="visible" fill="none" stroke="#0E1826" stroke-width="3" stroke-miterlimit="10"/>
			</g>
		</g>
		<g>
			<path fill="#E3E4E5" d="M1442.382,1566.488c-19.891-11.167-113.652-39.417-168.179-53.211
				c-54.527-13.795-84.088,40.073-32.19,47.956C1293.911,1569.118,1404.274,1559.265,1442.382,1566.488z"/>
			<path fill="#E3E4E5" d="M1442.382,1602.625c-37.449,10.508-129.424,24.96-183.946,11.163
				c-54.53-13.795-61.097,46.645-9.199,54.529S1412.829,1647.252,1442.382,1602.625z"/>
		</g>
		<g>
			<path fill="#E3E4E5" d="M1482.813,1565.633c19.899-11.166,113.652-39.417,168.185-53.21
				c54.524-13.798,84.086,40.071,32.188,47.956C1631.287,1568.264,1520.919,1558.408,1482.813,1565.633z"/>
			<path fill="#E3E4E5" d="M1482.813,1601.766c37.449,10.511,129.424,24.965,183.951,11.168
				c54.521-13.795,61.095,46.643,9.194,54.529C1624.06,1675.348,1512.364,1646.397,1482.813,1601.766z"/>
		</g>
	</g>
</g>
<g id="Layer_3">
	<path fill="#ECE6F2" stroke="#0A1624" stroke-width="3" stroke-miterlimit="10" d="M1354.342,1492.327
		c0,0,39.293-4.337,53.521,1.457s28.729,8.543,45.979,3.293s39.75-3.75,50.25-0.25s19.5,3.5,30.25,1s20.75,2.75,30.5-2.25
		c0,0,3.5-0.25-1.75,18.5s-7,17.25-6.75,28.75s8.5,6.25,3.5,25s-4,8.75-3.25,23s1.974,14.281-0.277,25.282
		s-6.223,18.968,0.777,34.718s-3.25,36.25,0.25,43.25c0,0-2.75,0.5-4.5,0s-3.5-4.75-7.25-4.5s0.5,4.195-20.75,3.723
		s-21.75-7.223-24.5-5.723s-11.25,3.25-13,3.25s-5.75,0-8.5-1.75s-6.75-2-9-0.5s-8.769,7.75-25.759,4.75s-12.241-2.25-19.741-0.75
		s-19-0.5-19-0.5s-15.5-2.555-26,0.473s-25,3.527-25,3.527l3.25-33c0,0,4.5-23.75,2.25-34.75s0.5-15.5,2.25-21.25
		s-3-30.75,3.75-44.25s-9.5-31.25-10.5-38.75S1354.342,1492.327,1354.342,1492.327z"/>
	<path fill="#DED6E5" d="M1375.872,1512.446c0,0,30.663-0.397,42.938,1.203c14.48,1.889,23.027-1.883,36.866-6.221
		c13.839-4.338,34.743,0.836,43.167,3.73c8.424,2.892,12.811,7.898,21.435,5.832c8.625-2.065,16.646,2.272,24.468-1.859
		c0,0,2.809-0.206-1.403,15.288c-4.211,15.495-5.616,14.257-5.415,23.761c0.201,9.503,6.818,5.165,2.808,20.659
		c-4.011,15.495-3.208,7.232-2.606,19.009c0.602,11.775,5.673,13.573,3.867,22.665s-9.083,13.902-3.466,26.919
		c5.614,13.015-2.607,29.957,0.2,35.742c0,0-2.206,0.413-3.611,0c-1.403-0.413-2.808-3.926-5.816-3.719
		c-3.008,0.206,0.402,3.467-16.645,3.076c-17.05-0.391-17.45-5.969-19.656-4.73c-2.206,1.24-9.025,2.688-10.429,2.688
		s-4.613,0-6.819-1.447c-2.207-1.445-5.415-1.652-7.22-0.412c-1.805,1.24-7.035,6.404-20.666,3.925s-9.82-1.859-15.837-0.619
		c-6.017,1.239-15.243-0.414-15.243-0.414s-12.435-2.111-20.858,0.392c-8.424,2.5-20.056,2.914-20.056,2.914l2.607-27.271
		c0,0-3.404-12.638-5.209-21.729c-1.805-9.091-0.126-17.248,1.277-22c1.404-4.753-4.091-28.178,1.324-39.333
		c5.416-11.157,1.604-25.611,0.802-31.81S1375.872,1512.446,1375.872,1512.446z"/>
	<path fill="#F58B02" stroke="#031323" stroke-width="3" stroke-miterlimit="10" d="M1411.092,1520.327
		c0,0-21.75,39.691-5.25,70.846s68.75,50.096,73.5,2.25c0,0,16.5,17.654,16.5,40.404c0,0-1.25,45.75-40.25,46.5
		s-77.021-9.116-81.75-63.5C1367.842,1547.827,1411.092,1520.327,1411.092,1520.327z"/>
	<path fill="#4A409E" stroke="#031323" stroke-width="3" stroke-miterlimit="10" d="M1497.342,1666.327c0,0,16.25-31.25,7.75-50.5
		s-19-35.25-35.5-40.5s-34,3-41.75,27.75c0,0-31.25-20-15.5-65.75s145.333-43.832,126.333,74.834
		C1538.675,1612.161,1531.008,1664.493,1497.342,1666.327z"/>
	<path fill="#453B96" d="M1418.724,1567.655c0,0-5.5-41.167,43.167-45.5s65.167,41.666,67.667,66.5s-8,49.17-8,49.17
		s-10.166,16.168-5.666-4.166s-13.833-55.5-37.667-64.5c-23.833-9-33.238-5-42.786,1.833s-13.381,20.003-15.048,8.333
		S1418.724,1567.655,1418.724,1567.655z"/>
	<path fill="#685EB7" d="M1478.342,1557.658c0,0-18-10.167-28.667-3.667s-11-2.834-9.5-5.167s22.167-17,39-1.833
		S1489.342,1567.658,1478.342,1557.658z"/>
	
		<ellipse transform="matrix(0.9435 0.3313 -0.3313 0.9435 597.0068 -387.3573)" fill="#685EB7" cx="1434.557" cy="1557.241" rx="4.583" ry="2.75"/>
	<path fill="#E38308" d="M1385.342,1569.327c0,0,10.5-23.5,7.5-0.5s22.25,71.75,53.5,70.5s38.5-25.75,39-13.25c0,0-10,47-39.25,42.5
		S1367.092,1649.327,1385.342,1569.327z"/>
	<path fill="#F6A235" d="M1432,1647.25c0,0-10.5-6.75-11,0s14.75,12.75,21.75,12.5s16-3.75,18-7.75s0.75-7.5-9.25-2.75
		S1432,1647.25,1432,1647.25z"/>
	
		<ellipse transform="matrix(0.9862 -0.1656 0.1656 0.9862 -252.8514 266.4702)" fill="#F6A235" cx="1471.355" cy="1649.356" rx="3.75" ry="2.5"/>
</g>
</svg>
