<?xml version="1.0" encoding="utf-8"?>
<!-- Generator: Adobe Illustrator 16.0.0, SVG Export Plug-In . SVG Version: 6.00 Build 0)  -->
<!DOCTYPE svg PUBLIC "-//W3C//DTD SVG 1.1//EN" "http://www.w3.org/Graphics/SVG/1.1/DTD/svg11.dtd">
<svg version="1.1" id="Layer_1" xmlns="http://www.w3.org/2000/svg" xmlns:xlink="http://www.w3.org/1999/xlink" x="0px" y="0px"
	 width="3000px" height="3000px" viewBox="0 0 3000 3000" enable-background="new 0 0 3000 3000" xml:space="preserve">
<g id="Layer_4">
	<g>
		<g>
			<path fill="#F2AA55" stroke="#0A1624" stroke-width="5" stroke-miterlimit="10" d="M1422.491,1534.392
				c0,0-46.94-36.243-117.292-63.296c-33.615-12.925-105.233-31.396-114.311-27.523c-5.841,9.729-27.248,103.145-27.896,148.558
				c-0.649,45.412,29.192,147.265,36.975,151.154c7.788,3.893,117.377-25.835,147.271-42.816
				c28.539-16.22,54.729-39.657,75.253-64.226C1422.491,1618.075,1422.491,1534.392,1422.491,1534.392z"/>
			<path fill="#FFFFFF" d="M1450.259,1533.645c0,0-47.526-36.702-118.771-64.098c-34.035-13.09-110.171-32.146-115.755-27.875
				c-5.912,9.854-27.588,104.453-28.243,150.439c-0.663,45.984,29.561,149.129,37.44,153.066
				c7.885,3.943,118.859-26.158,149.129-43.355c28.903-16.424,55.429-40.161,76.201-65.038
				C1450.259,1618.389,1450.259,1533.645,1450.259,1533.645z"/>
			<path fill="#F2AA55" stroke="#0E1826" stroke-width="5" stroke-miterlimit="10" d="M1497.977,1534.52
				c0,0,46.933-36.242,117.286-63.298c33.617-12.926,105.23-31.396,114.306-27.524c5.841,9.731,27.253,103.146,27.899,148.558
				c0.646,45.412-29.196,147.265-36.979,151.154c-7.787,3.896-117.371-25.834-147.264-42.813
				c-28.543-16.22-54.73-39.658-75.248-64.226C1497.977,1618.203,1497.977,1534.52,1497.977,1534.52z"/>
			<path fill="#FFFFFF" d="M1470.197,1533.771c0,0,47.527-36.702,118.771-64.098c34.037-13.09,110.167-32.146,115.76-27.877
				c5.91,9.855,27.59,104.456,28.25,150.439c0.65,45.987-29.564,149.132-37.443,153.069c-7.885,3.943-118.87-26.163-149.137-43.355
				c-28.901-16.424-55.422-40.161-76.201-65.038C1470.197,1618.517,1470.197,1533.771,1470.197,1533.771z"/>
			<g>
				<g>
					<defs>
						<path id="SVGID_2_" d="M1450.259,1533.645c0,0-47.526-36.702-118.771-64.098c-34.035-13.09-110.171-32.146-115.755-27.875
							c-5.912,9.854-27.588,104.453-28.243,150.439c-0.663,45.984,29.561,149.129,37.44,153.066
							c7.885,3.943,118.859-26.158,149.129-43.355c28.903-16.424,55.429-40.161,76.201-65.038
							C1450.259,1618.389,1450.259,1533.645,1450.259,1533.645z"/>
					</defs>
					<clipPath id="SVGID_4_">
						<use xlink:href="#SVGID_2_"  overflow="visible"/>
					</clipPath>
					<g clip-path="url(#SVGID_4_)">
						<g>
							
								<rect x="1092.161" y="1025.248" transform="matrix(-0.7072 -0.707 0.707 -0.7072 959.5698 2973.6775)" fill="#005089" width="6.808" height="525.772"/>
							
								<rect x="1115.545" y="1048.73" transform="matrix(-0.7073 -0.707 0.707 -0.7073 983.047 3030.3442)" fill="#005089" width="6.806" height="525.808"/>
							
								<rect x="1138.898" y="1072.003" transform="matrix(-0.7073 -0.707 0.707 -0.7073 1006.4768 3086.5542)" fill="#005089" width="6.807" height="525.771"/>
							
								<rect x="1162.205" y="1095.376" transform="matrix(-0.7071 -0.7071 0.7071 -0.7071 1029.3848 3142.9077)" fill="#005089" width="6.81" height="525.77"/>
							
								<rect x="1185.726" y="1118.765" transform="matrix(-0.7073 -0.7069 0.7069 -0.7073 1053.551 3199.5063)" fill="#005089" width="6.808" height="525.769"/>
							
								<rect x="1209.021" y="1142.25" transform="matrix(-0.707 -0.7073 0.7073 -0.707 1075.7695 3256.033)" fill="#005089" width="6.807" height="525.807"/>
							<polygon fill="#4A409E" points="1052.352,1616.712 1047.537,1611.902 1419.316,1240.124 1424.126,1244.936 							"/>
							<polygon fill="#4A409E" points="1075.727,1640.094 1070.917,1635.278 1442.695,1263.502 1447.505,1268.314 							"/>
							
								<rect x="1279.228" y="1212.278" transform="matrix(-0.7069 -0.7073 0.7073 -0.7069 1145.8992 3425.1755)" fill="#4A409E" width="6.808" height="525.768"/>
							<polygon fill="#4A409E" points="1122.482,1686.851 1117.668,1682.036 1489.452,1310.258 1494.262,1315.07 							"/>
							
								<rect x="1325.945" y="1259.029" transform="matrix(-0.7071 -0.7071 0.7071 -0.7071 1193.1846 3538.0632)" fill="#4A409E" width="6.809" height="525.772"/>
							
								<rect x="1349.278" y="1282.404" transform="matrix(-0.7074 -0.7068 0.7068 -0.7074 1217.3206 3594.5176)" fill="#4A409E" width="6.807" height="525.769"/>
							<polygon fill="#4A409E" points="1192.619,1756.986 1187.807,1752.174 1559.583,1380.395 1564.4,1385.206 							"/>
							
								<rect x="1396.048" y="1329.293" transform="matrix(-0.707 -0.7073 0.7073 -0.707 1262.7318 3707.5823)" fill="#4A409E" width="6.807" height="525.806"/>
							
								<rect x="1419.412" y="1352.538" transform="matrix(-0.7073 -0.707 0.707 -0.7073 1287.0547 3763.8062)" fill="#4A409E" width="6.803" height="525.768"/>
							
								<rect x="1442.947" y="1375.927" transform="matrix(-0.7071 -0.7071 0.7071 -0.7071 1310.259 3820.3481)" fill="#4A409E" width="6.806" height="525.767"/>
							<polygon fill="#005089" points="1286.13,1850.5 1281.318,1845.686 1653.104,1473.906 1657.909,1478.72 							"/>
							
								<rect x="1489.528" y="1422.669" transform="matrix(-0.707 -0.7073 0.7073 -0.707 1356.2709 3933.0554)" fill="#005089" width="6.807" height="525.771"/>
							
								<rect x="1512.835" y="1446.046" transform="matrix(-0.7067 -0.7075 0.7075 -0.7067 1378.8267 3989.3989)" fill="#005089" width="6.805" height="525.768"/>
							<polygon fill="#005089" points="1356.27,1920.634 1351.454,1915.818 1723.234,1544.042 1728.042,1548.854 							"/>
							
								<rect x="1559.739" y="1492.959" transform="matrix(-0.7072 -0.707 0.707 -0.7072 1427.11 4102.769)" fill="#005089" width="6.811" height="525.807"/>
							
								<rect x="1583.104" y="1516.188" transform="matrix(-0.7071 -0.7071 0.7071 -0.7071 1450.3462 4158.8965)" fill="#005089" width="6.809" height="525.768"/>
							
								<rect x="1606.554" y="1539.572" transform="matrix(-0.7073 -0.707 0.707 -0.7073 1474.3313 4215.4238)" fill="#005089" width="6.807" height="525.766"/>
							<polygon fill="#005089" points="1449.78,2014.146 1444.968,2009.333 1816.747,1637.551 1821.559,1642.371 							"/>
							
								<rect x="1653.239" y="1586.323" transform="matrix(-0.7071 -0.7071 0.7071 -0.7071 1520.4778 4328.2178)" fill="#005089" width="6.806" height="525.768"/>
							
								<rect x="1676.583" y="1609.86" transform="matrix(-0.7069 -0.7073 0.7073 -0.7069 1542.9116 4384.8916)" fill="#005089" width="6.808" height="525.802"/>
							
								<rect x="1699.943" y="1633.075" transform="matrix(-0.7073 -0.7069 0.7069 -0.7073 1567.9235 4441.0938)" fill="#005089" width="6.808" height="525.768"/>
							
								<rect x="1723.326" y="1656.453" transform="matrix(-0.7068 -0.7074 0.7074 -0.7068 1589.4873 4497.4399)" fill="#005089" width="6.806" height="525.768"/>
							
								<rect x="1746.6" y="1679.825" transform="matrix(-0.7067 -0.7075 0.7075 -0.7067 1612.4108 4553.7817)" fill="#005089" width="6.802" height="525.77"/>
							
								<rect x="1770.132" y="1703.206" transform="matrix(-0.7071 -0.7071 0.7071 -0.7071 1637.3724 4610.4092)" fill="#005089" width="6.803" height="525.775"/>
						</g>
						
							<rect x="1602.046" y="944.578" transform="matrix(0.7068 -0.7074 0.7074 0.7068 -558.7549 1562.3376)" fill="#FFFFFF" width="6.807" height="1021.362"/>
						<polygon fill="#FFFFFF" points="1207.509,1131.037 1212.324,1126.222 1934.541,1848.438 1929.719,1853.251 						"/>
						<polygon fill="#FFFFFF" points="1173.104,1165.442 1177.917,1160.627 1900.132,1882.844 1895.313,1887.658 						"/>
						
							<rect x="1498.825" y="1047.869" transform="matrix(0.7071 -0.7071 0.7071 0.7071 -662.0679 1518.7252)" fill="#FFFFFF" width="6.809" height="1021.36"/>
						<polygon fill="#F58B02" points="1104.287,1234.257 1109.102,1229.439 1831.318,1951.657 1826.501,1956.469 						"/>
						
							<rect x="1430.02" y="1116.597" transform="matrix(0.7073 -0.707 0.707 0.7073 -730.791 1489.7627)" fill="#F58B02" width="6.807" height="1021.36"/>
						<polygon fill="#F58B02" points="1035.475,1303.069 1040.289,1298.254 1762.505,2020.47 1757.695,2025.282 						"/>
						<polygon fill="#F58B02" points="1001.07,1337.475 1005.882,1332.661 1728.096,2054.877 1723.289,2059.688 						"/>
						<polygon fill="#F58B02" points="966.662,1371.884 971.477,1367.066 1693.691,2089.284 1688.882,2094.096 						"/>
						
							<rect x="1292.389" y="1254.313" transform="matrix(0.7071 -0.7071 0.7071 0.7071 -868.5095 1433.2178)" fill="#F58B02" width="6.806" height="1021.358"/>
						<polygon fill="#FFFFFF" points="897.848,1440.693 902.662,1435.881 1624.881,2158.097 1620.061,2162.907 						"/>
					</g>
				</g>
				<g>
					<path id="SVGID_1_" fill="none" stroke="#0D1725" stroke-width="5" stroke-miterlimit="10" d="M1450.259,1533.645
						c0,0-47.526-36.702-118.771-64.098c-34.035-13.09-110.171-32.146-115.755-27.875c-5.912,9.854-27.588,104.453-28.243,150.439
						c-0.663,45.984,29.561,149.129,37.44,153.066c7.885,3.943,118.859-26.158,149.129-43.355
						c28.903-16.424,55.429-40.161,76.201-65.038C1450.259,1618.389,1450.259,1533.645,1450.259,1533.645z"/>
				</g>
			</g>
			<g>
				<g>
					<defs>
						<path id="SVGID_5_" d="M1470.197,1533.771c0,0,47.527-36.702,118.771-64.098c34.037-13.09,110.167-32.146,115.76-27.877
							c5.91,9.855,27.59,104.456,28.25,150.439c0.65,45.987-29.564,149.132-37.443,153.069
							c-7.885,3.943-118.87-26.163-149.137-43.355c-28.901-16.424-55.422-40.161-76.201-65.038
							C1470.197,1618.517,1470.197,1533.771,1470.197,1533.771z"/>
					</defs>
					<clipPath id="SVGID_6_">
						<use xlink:href="#SVGID_5_"  overflow="visible"/>
					</clipPath>
					<g clip-path="url(#SVGID_6_)">
						<g>
							
								<rect x="1183.605" y="1669.207" transform="matrix(-0.7073 0.7069 -0.7069 -0.7073 3392.3809 2459.6194)" fill="#005089" width="6.802" height="525.77"/>
							
								<rect x="1207.019" y="1645.656" transform="matrix(-0.7071 0.7071 -0.7071 -0.7071 3415.8623 2402.1826)" fill="#005089" width="6.809" height="525.768"/>
							
								<rect x="1230.524" y="1622.424" transform="matrix(-0.7073 0.7069 -0.7069 -0.7073 3439.4346 2346.6069)" fill="#005089" width="6.808" height="525.807"/>
							<polygon fill="#005089" points="1445.475,2045.381 1440.664,2050.195 1068.88,1678.416 1073.695,1673.604 							"/>
							
								<rect x="1277.281" y="1575.664" transform="matrix(-0.7073 0.7069 -0.7069 -0.7073 3486.209 2233.719)" fill="#005089" width="6.808" height="525.804"/>
							
								<rect x="1300.514" y="1552.212" transform="matrix(-0.7074 0.7068 -0.7068 -0.7074 3509.2456 2177.4453)" fill="#005089" width="6.807" height="525.765"/>
							
								<rect x="1323.879" y="1528.923" transform="matrix(-0.7069 0.7073 -0.7073 -0.7069 3532.9131 2119.6069)" fill="#005089" width="6.808" height="525.771"/>
							<polygon fill="#005089" points="1538.982,1951.871 1534.176,1956.682 1162.393,1584.902 1167.206,1580.093 							"/>
							
								<rect x="1370.638" y="1482.167" transform="matrix(-0.7069 0.7073 -0.7073 -0.7069 3579.6499 2006.7256)" fill="#005089" width="6.804" height="525.77"/>
							
								<rect x="1394.017" y="1458.788" transform="matrix(-0.7069 0.7073 -0.7073 -0.7069 3603.0251 1950.2856)" fill="#005089" width="6.808" height="525.774"/>
							
								<rect x="1417.404" y="1435.317" transform="matrix(-0.7073 0.7069 -0.7069 -0.7073 3626.2239 1895.0183)" fill="#005089" width="6.811" height="525.768"/>
							<polygon fill="#005089" points="1632.502,1858.357 1627.682,1863.167 1255.908,1491.391 1260.72,1486.578 							"/>
							
								<rect x="1464.311" y="1388.622" transform="matrix(-0.7073 0.707 -0.707 -0.7073 3673.3225 1781.9443)" fill="#005089" width="6.807" height="525.803"/>
							
								<rect x="1487.538" y="1365.099" transform="matrix(-0.7067 0.7075 -0.7075 -0.7067 3696.4138 1723.5487)" fill="#4A409E" width="6.806" height="525.774"/>
							
								<rect x="1510.916" y="1341.763" transform="matrix(-0.707 0.7072 -0.7072 -0.707 3719.7676 1668.2982)" fill="#4A409E" width="6.805" height="525.771"/>
							
								<rect x="1534.292" y="1318.563" transform="matrix(-0.7072 0.707 -0.707 -0.7072 3743.2588 1612.6127)" fill="#4A409E" width="6.805" height="525.772"/>
							
								<rect x="1557.672" y="1295.098" transform="matrix(-0.7071 0.7071 -0.7071 -0.7071 3766.5806 1555.795)" fill="#4A409E" width="6.806" height="525.768"/>
							
								<rect x="1581.045" y="1271.673" transform="matrix(-0.7072 0.707 -0.707 -0.7072 3789.9248 1499.4979)" fill="#4A409E" width="6.811" height="525.766"/>
							
								<rect x="1604.419" y="1248.252" transform="matrix(-0.707 0.7073 -0.7073 -0.707 3813.2476 1442.3231)" fill="#4A409E" width="6.809" height="525.771"/>
							<polygon fill="#4A409E" points="1819.521,1671.329 1814.715,1676.142 1442.934,1304.362 1447.748,1299.549 							"/>
							<polygon fill="#4A409E" points="1842.9,1647.95 1838.091,1652.766 1466.313,1280.985 1471.122,1276.172 							"/>
							
								<rect x="1674.568" y="1178.298" transform="matrix(-0.7067 0.7075 -0.7075 -0.7067 3883.4609 1272.6318)" fill="#4A409E" width="6.805" height="525.771"/>
							
								<rect x="1697.931" y="1154.736" transform="matrix(-0.7075 0.7067 -0.7067 -0.7075 3906.873 1218.1228)" fill="#4A409E" width="6.809" height="525.771"/>
							
								<rect x="1721.474" y="1131.437" transform="matrix(-0.7073 0.707 -0.707 -0.7073 3930.5486 1161.0596)" fill="#4A409E" width="6.811" height="525.806"/>
							
								<rect x="1744.847" y="1108.017" transform="matrix(-0.7069 0.7073 -0.7073 -0.7069 3953.7556 1103.4331)" fill="#4A409E" width="6.808" height="525.803"/>
							
								<rect x="1768.091" y="1084.826" transform="matrix(-0.7075 0.7067 -0.7067 -0.7075 3977.2871 1049.3906)" fill="#4A409E" width="6.807" height="525.767"/>
							
								<rect x="1791.453" y="1061.319" transform="matrix(-0.7071 0.7071 -0.7071 -0.7071 4000.3623 991.4)" fill="#4A409E" width="6.806" height="525.767"/>
							
								<rect x="1814.82" y="1037.875" transform="matrix(-0.7069 0.7073 -0.7073 -0.7069 4023.563 934.1875)" fill="#4A409E" width="6.802" height="525.771"/>
							<polygon fill="#4A409E" points="2029.926,1460.926 2025.117,1465.738 1653.338,1093.959 1658.146,1089.146 							"/>
							
								<rect x="1861.577" y="991.137" transform="matrix(-0.7073 0.7069 -0.7069 -0.7073 4070.5811 822.6746)" fill="#4A409E" width="6.811" height="525.765"/>
						</g>
						
							<rect x="1350.832" y="911.57" transform="matrix(-0.7073 -0.7069 0.7069 -0.7073 1306.7124 3385.5991)" fill="#FFFFFF" width="6.805" height="1021.434"/>
						<polygon fill="#FFFFFF" points="1029.926,1820.091 1025.111,1815.271 1747.323,1093.061 1752.136,1097.874 						"/>
						<polygon fill="#FFFFFF" points="1064.333,1854.495 1059.521,1849.681 1781.729,1127.467 1786.553,1132.279 						"/>
						
							<rect x="1454.079" y="1014.691" transform="matrix(-0.7069 -0.7073 0.7073 -0.7069 1408.8392 3634.5498)" fill="#FFFFFF" width="6.808" height="1021.356"/>
						
							<rect x="1488.443" y="1049.094" transform="matrix(-0.7071 -0.7071 0.7071 -0.7071 1443.8138 3717.5933)" fill="#F58B02" width="6.806" height="1021.357"/>
						
							<rect x="1522.736" y="1083.5" transform="matrix(-0.7071 -0.7071 0.7071 -0.7071 1478.0311 3800.5762)" fill="#F58B02" width="6.809" height="1021.355"/>
						
							<rect x="1557.141" y="1117.905" transform="matrix(-0.707 -0.7072 0.7072 -0.707 1512.2083 3883.6318)" fill="#F58B02" width="6.809" height="1021.355"/>
						<polygon fill="#F58B02" points="1236.366,2026.529 1231.554,2021.714 1953.77,1299.499 1958.576,1304.313 						"/>
						
							<rect x="1626.047" y="1186.849" transform="matrix(-0.707 -0.7073 0.7073 -0.707 1580.8092 4050.1084)" fill="#F58B02" width="6.807" height="1021.429"/>
						<polygon fill="#F58B02" points="1305.182,2095.342 1300.365,2090.527 2022.584,1368.314 2027.389,1373.127 						"/>
						<polygon fill="#FFFFFF" points="1339.586,2129.749 1334.775,2124.934 2056.986,1402.721 2061.803,1407.533 						"/>
					</g>
				</g>
				<g>
					<path id="SVGID_3_" fill="none" stroke="#0E1826" stroke-width="5" stroke-miterlimit="10" d="M1470.197,1533.771
						c0,0,47.527-36.702,118.771-64.098c34.037-13.09,110.167-32.146,115.76-27.877c5.91,9.855,27.59,104.456,28.25,150.439
						c0.65,45.987-29.564,149.132-37.443,153.069c-7.885,3.943-118.87-26.163-149.137-43.355
						c-28.901-16.424-55.422-40.161-76.201-65.038C1470.197,1618.517,1470.197,1533.771,1470.197,1533.771z"/>
				</g>
			</g>
		</g>
		<g opacity="0.7">
			<path fill="#E3E4E5" d="M1442.382,1566.488c-19.891-11.167-113.651-39.417-168.179-53.211
				c-54.527-13.795-84.088,40.072-32.189,47.956C1293.911,1569.118,1404.273,1559.265,1442.382,1566.488z"/>
			<path fill="#E3E4E5" d="M1442.382,1602.625c-37.448,10.508-129.424,24.96-183.946,11.163
				c-54.529-13.795-61.097,46.645-9.199,54.529C1301.135,1676.201,1412.829,1647.252,1442.382,1602.625z"/>
		</g>
		<g opacity="0.7">
			<path fill="#E3E4E5" d="M1482.813,1565.633c19.899-11.166,113.652-39.417,168.186-53.21
				c54.523-13.798,84.086,40.071,32.188,47.956S1520.919,1558.408,1482.813,1565.633z"/>
			<path fill="#E3E4E5" d="M1482.813,1601.766c37.449,10.512,129.424,24.965,183.951,11.168
				c54.521-13.795,61.096,46.644,9.194,54.529C1624.061,1675.348,1512.364,1646.396,1482.813,1601.766z"/>
		</g>
	</g>
</g>
<g id="Layer_3">
	<path fill="#ECE6F2" stroke="#0A1624" stroke-width="5" stroke-miterlimit="10" d="M1354.342,1492.327
		c0,0,39.293-4.337,53.521,1.457c14.228,5.794,28.729,8.543,45.979,3.293s39.75-3.75,50.25-0.25s19.5,3.5,30.25,1
		s20.75,2.75,30.5-2.25c0,0,3.5-0.25-1.75,18.5s-7,17.25-6.75,28.75s8.5,6.25,3.5,25s-4,8.75-3.25,23s1.975,14.281-0.277,25.282
		c-2.25,11.001-6.223,18.968,0.777,34.718s-3.25,36.25,0.25,43.25c0,0-2.75,0.5-4.5,0s-3.5-4.75-7.25-4.5s0.5,4.194-20.75,3.723
		s-21.75-7.223-24.5-5.723s-11.25,3.25-13,3.25s-5.75,0-8.5-1.75s-6.75-2-9-0.5s-8.769,7.75-25.759,4.75s-12.241-2.25-19.741-0.75
		s-19-0.5-19-0.5s-15.5-2.556-26,0.473s-25,3.527-25,3.527l3.25-33c0,0,4.5-23.75,2.25-34.75s0.5-15.5,2.25-21.25
		s-3-30.75,3.75-44.25s-9.5-31.25-10.5-38.75S1354.342,1492.327,1354.342,1492.327z"/>
	<path fill="#DED6E5" d="M1375.872,1512.446c0,0,30.663-0.397,42.938,1.203c14.479,1.889,23.026-1.884,36.865-6.222
		s34.743,0.836,43.167,3.73c8.424,2.892,12.812,7.897,21.435,5.832c8.625-2.065,16.646,2.271,24.469-1.859
		c0,0,2.809-0.206-1.403,15.288c-4.211,15.495-5.616,14.257-5.415,23.761s6.818,5.165,2.809,20.659
		c-4.012,15.495-3.209,7.232-2.606,19.009c0.603,11.775,5.673,13.573,3.867,22.666c-1.806,9.092-9.083,13.901-3.466,26.918
		c5.613,13.016-2.607,29.957,0.199,35.742c0,0-2.205,0.413-3.61,0c-1.403-0.413-2.808-3.926-5.816-3.719
		c-3.008,0.206,0.402,3.467-16.645,3.076c-17.05-0.391-17.45-5.969-19.656-4.73c-2.206,1.24-9.024,2.688-10.429,2.688
		s-4.613,0-6.819-1.447c-2.207-1.444-5.415-1.651-7.22-0.412c-1.805,1.24-7.035,6.404-20.666,3.925
		c-13.631-2.479-9.82-1.858-15.837-0.618c-6.017,1.238-15.243-0.414-15.243-0.414s-12.436-2.111-20.858,0.392
		c-8.424,2.5-20.056,2.914-20.056,2.914l2.607-27.271c0,0-3.404-12.638-5.209-21.729c-1.806-9.091-0.127-17.248,1.276-22
		c1.404-4.753-4.091-28.178,1.324-39.333c5.416-11.157,1.604-25.611,0.802-31.81
		C1375.874,1532.486,1375.872,1512.446,1375.872,1512.446z"/>
	<path fill="#F58B02" stroke="#031323" stroke-width="3" stroke-miterlimit="10" d="M1411.092,1520.327c0,0-21.75,39.69-5.25,70.846
		s68.75,50.096,73.5,2.25c0,0,16.5,17.654,16.5,40.404c0,0-1.25,45.75-40.25,46.5s-77.021-9.116-81.75-63.5
		C1367.842,1547.827,1411.092,1520.327,1411.092,1520.327z"/>
	<path fill="#4A409E" stroke="#031323" stroke-width="3" stroke-miterlimit="10" d="M1497.342,1666.327c0,0,16.25-31.25,7.75-50.5
		s-19-35.25-35.5-40.5s-34,3-41.75,27.75c0,0-31.25-20-15.5-65.75s145.333-43.832,126.333,74.834
		C1538.675,1612.161,1531.008,1664.493,1497.342,1666.327z"/>
	<path fill="#453B96" d="M1418.725,1567.655c0,0-5.5-41.167,43.166-45.5c48.668-4.333,65.168,41.666,67.668,66.5s-8,49.17-8,49.17
		s-10.166,16.168-5.666-4.166s-13.834-55.5-37.668-64.5c-23.832-9-33.238-5-42.785,1.833c-9.549,6.833-13.381,20.003-15.049,8.333
		C1418.725,1567.655,1418.725,1567.655,1418.725,1567.655z"/>
	<path fill="#685EB7" d="M1478.342,1557.658c0,0-18-10.167-28.667-3.667s-11-2.834-9.5-5.167s22.167-17,39-1.833
		S1489.342,1567.658,1478.342,1557.658z"/>
	
		<ellipse transform="matrix(0.3313 -0.9435 0.9435 0.3313 -509.9255 2394.8264)" fill="#685EB7" cx="1434.598" cy="1557.168" rx="2.75" ry="4.583"/>
	<path fill="#E38308" d="M1385.342,1569.327c0,0,10.5-23.5,7.5-0.5s22.25,71.75,53.5,70.5s38.5-25.75,39-13.25c0,0-10,47-39.25,42.5
		S1367.092,1649.327,1385.342,1569.327z"/>
	<path fill="#F6A235" d="M1432,1647.25c0,0-10.5-6.75-11,0s14.75,12.75,21.75,12.5s16-3.75,18-7.75s0.75-7.5-9.25-2.75
		S1432,1647.25,1432,1647.25z"/>
	
		<ellipse transform="matrix(-0.1656 -0.9862 0.9862 -0.1656 88.4089 3373.616)" fill="#F6A235" cx="1471.332" cy="1649.409" rx="2.5" ry="3.75"/>
</g>
</svg>
