<?xml version="1.0" encoding="utf-8"?>
<!-- Generator: Adobe Illustrator 16.0.0, SVG Export Plug-In . SVG Version: 6.00 Build 0)  -->
<!DOCTYPE svg PUBLIC "-//W3C//DTD SVG 1.1//EN" "http://www.w3.org/Graphics/SVG/1.1/DTD/svg11.dtd">
<svg version="1.1" xmlns="http://www.w3.org/2000/svg" xmlns:xlink="http://www.w3.org/1999/xlink" x="0px" y="0px" width="3000px"
	 height="3000px" viewBox="0 0 3000 3000" enable-background="new 0 0 3000 3000" xml:space="preserve">
<g id="Layer_1" display="none">
	<g display="inline">
		<g>
			<image overflow="visible" width="9375" height="9375" xlink:href="AD3C7BF1.jpg"  transform="matrix(0.32 0 0 0.32 0 0)">
			</image>
		</g>
	</g>
</g>
<g id="Layer_3">
	<g>
		<g>
			<g>
				<g>
					<path fill="#F0E162" d="M1757.27,648.413c0,0,3.502,11.558,1.574,25.723"/>
				</g>
				<path fill="#F0E162" d="M1107.272,628.508c0,0,102.917-256.944,292.146-401.906c0,0,36.518-35.411,73.036,0
					c36.514,35.409,171.52,150.496,282.183,416.078c0,0,452.595,154.924,514.56,289.928c0,0,43.16,94.058-310.948,223.531
					c0,0,74.142,185.906-8.854,240.13c-82.994,54.222-181.482,22.132-217.997-419.398c0,0-64.179-28.772-122.831-37.625
					c0,0-68.611,80.783-191.444,80.783c-122.831,0-181.479-54.225-210.251-80.783c0,0-74.142,27.665-92.957,43.157
					c0,0-11.063,241.238-30.981,291.035c-19.919,49.797-54.222,170.415-148.285,141.644
					c-94.059-28.771-100.701-122.833-56.438-232.382c0,0-188.12-73.037-324.229-201.401c0,0-38.731-32.091,0-84.103
					C592.711,845.186,762.015,688.264,1107.272,628.508z"/>
			</g>
		</g>
		<path fill="#BB9733" d="M1988.541,1292.459c0,0-72.795,48.686-87.17,46.469c-14.376-2.217-35.436,16.626-59.82-36.577
			s-96.432-248.282-96.432-248.282s17.385,299.277,106.786,348.597S1997.802,1358.764,1988.541,1292.459z"/>
		<path fill="#BB9733" d="M1901.371,1053.344c0,0,312.083-26.093,364.991-89.163c0,0-42.894,105.599-308.114,191.958
			L1901.371,1053.344z"/>
		<path fill="#BB9733" d="M576.865,992.813c0,0,275.076,120.589,342.038,109.766l-40.692,80.119
			C878.211,1182.698,610.101,1057.168,576.865,992.813z"/>
		<path fill="#BB9733" d="M1028.01,1384.124c0,0-0.201-37.849-38.995-47.825c-38.794-9.976-106.407-11.084-99.756-77.587
			c6.65-66.504,22.169-144.337,22.169-144.337s-120.627,181.284-10.436,286.951C900.993,1401.325,975.007,1451.901,1028.01,1384.124
			z"/>
		<path fill="#F3ECC6" d="M566.491,992.813c0,0,99.047-126.063,408.291-200.326c0,0-121.924-17.831-199.512,22.674
			c-77.588,40.505-185.217,73.715-202.34,59.881C572.929,875.042,509.406,933.772,566.491,992.813z"/>
		<path fill="none" stroke="#30323D" stroke-width="9" stroke-miterlimit="10" d="M1890.691,1037.813
			c0,0,46.822,63.718,75.506,140.852"/>
		<path fill="none" stroke="#30323D" stroke-width="9" stroke-miterlimit="10" d="M967.027,1031.902
			c0,0-55.893,61.635-102.209,188.58"/>
		<path fill="#F3ECC6" d="M1374.82,244.342c0,0,40.102-0.822,36.777,92.279h12.826c0,0,16.694-123.269,68.94-92.28
			C1493.363,244.342,1444.185,169.017,1374.82,244.342z"/>
		<g>
			<path fill="none" stroke="#31323D" stroke-width="9" stroke-miterlimit="10" d="M1757.27,648.413c0,0,3.502,11.558,1.574,25.723"
				/>
			<path fill="none" stroke="#31323D" stroke-width="9" stroke-miterlimit="10" d="M1107.272,628.508
				c0,0,102.917-256.944,292.146-401.906c0,0,36.518-35.411,73.036,0c36.514,35.409,171.52,150.496,282.183,416.078
				c0,0,452.595,154.924,514.56,289.928c0,0,43.16,94.058-310.948,223.531c0,0,74.142,185.906-8.854,240.13
				c-82.994,54.222-181.482,22.132-217.997-419.398c0,0-64.179-28.772-122.831-37.625c0,0-68.611,80.783-191.444,80.783
				c-122.831,0-181.479-54.225-210.251-80.783c0,0-74.142,27.665-92.957,43.157c0,0-11.063,241.238-30.981,291.035
				c-19.919,49.797-54.222,170.415-148.285,141.644c-94.059-28.771-100.701-122.833-56.438-232.383c0,0-188.12-73.036-324.229-201.4
				c0,0-38.731-32.091,0-84.103C592.711,845.186,762.015,688.264,1107.272,628.508z"/>
		</g>
		<path fill="#80CAA7" stroke="#30323D" stroke-width="9" stroke-miterlimit="10" d="M1362.691,309.965l124.141-13.3
			c0,0-15.518,396.807,0,474.395l-137.441-8.867C1349.391,762.192,1331.656,533.862,1362.691,309.965z"/>
		<path fill="#80CAA7" stroke="#30323D" stroke-width="9" stroke-miterlimit="10" d="M494.844,1009.733l128.574-8.867
			c0,0,2.217,403.458-8.867,430.059c0,0,28.818,2.218-128.575,28.819L494.844,1009.733z"/>
		<path fill="#80CAA7" stroke="#30323D" stroke-width="9" stroke-miterlimit="10" d="M2190.697,978.699l128.574-6.651
			c0,0,6.65,387.174,66.504,447.411c0,0-130.791,39.519-208.38,0L2190.697,978.699z"/>
	</g>
	<path d="M-456.376,674.136"/>
</g>
</svg>
