<?xml version="1.0" encoding="utf-8"?>
<!-- Generator: Adobe Illustrator 16.0.0, SVG Export Plug-In . SVG Version: 6.00 Build 0)  -->
<!DOCTYPE svg PUBLIC "-//W3C//DTD SVG 1.1//EN" "http://www.w3.org/Graphics/SVG/1.1/DTD/svg11.dtd">
<svg version="1.1" id="Layer_4" xmlns="http://www.w3.org/2000/svg" xmlns:xlink="http://www.w3.org/1999/xlink" x="0px" y="0px"
	 width="3000px" height="3000px" viewBox="0 0 3000 3000" enable-background="new 0 0 3000 3000" xml:space="preserve">
<g>
	<ellipse opacity="0.3" cx="721.189" cy="2716.697" rx="293.087" ry="46.429"/>
	<g>
		<path fill="#FFC03E" stroke="#31323D" stroke-width="5" stroke-miterlimit="10" d="M453.916,2620.594l14.89,75.299
			c0,0,361.088,67.429,501.616,1.261l18.102-76.56H453.916z"/>
		<g>
			<polygon fill="#FFFB8F" points="526.691,2647.019 532.326,2700.917 549.183,2703.605 538.572,2648.494 			"/>
		</g>
		<g opacity="0.7">
			<path fill="#C09137" d="M488.011,2640.305l7.247,51.204c0,0-23.316-6.088-28.673-9.566l-9.768-53.705L488.011,2640.305z"/>
			<polygon fill="#E0C48B" points="466.585,2681.942 456.818,2628.237 469.781,2633.252 475.093,2685.526 			"/>
			<path fill="#FFFFFF" d="M466.585,2681.942l-9.768-53.705l5.601,2.166c0,0,3.537,15.119,2.907,22.621
				c-0.63,7.501,5.874,29.025,5.559,30.005C470.569,2684.008,466.585,2681.942,466.585,2681.942z"/>
		</g>
		<g>
			<g>
				<g>
					<circle fill="#FFC03E" stroke="#31323D" stroke-width="5" stroke-miterlimit="10" cx="709.87" cy="2133.895" r="241.698"/>
					<path fill="#FFE953" d="M600.263,2141.23c21.078-37.986-50.586-56.159-38.783-112.144
						c11.803-55.984,46.371-34.979,78.677-63.85c31.102-27.795,7.849-60.493,6.072-62.893
						c-101.54,28.633-175.964,121.945-175.964,232.645c0,15.971,1.565,31.573,4.521,46.679
						C541.857,2200.112,580.411,2177.009,600.263,2141.23z"/>
					<path fill="#FFE953" d="M616.589,2202.375c35.096-6.64,58.505,8.681,49.053,30.636c-9.452,21.96-27.669,40.242-15.158,51.575
						c12.513,11.335,7.495,35.746-24.958,49.022c-37.659,15.405-4.325-33.352-29.195-43.504
						C502.658,2251.863,588.027,2207.779,616.589,2202.375z"/>
					<path opacity="0.5" fill="#4E847A" d="M497.691,2119.296c0-87.629,46.632-164.362,116.434-206.744
						c-85.086,37.415-144.51,122.432-144.51,221.343c0,133.486,108.213,241.699,241.699,241.699
						c45.858,0,88.734-12.774,125.263-34.955c-29.743,13.078-62.612,20.355-97.187,20.355
						C605.903,2360.994,497.691,2252.781,497.691,2119.296z"/>
				</g>
				<path fill="#FFE953" d="M813.584,2026.821c24.901,35.933,96.03,27.508,90.329,56.833c-5.7,29.324-41.633,56.379-37.383,87.94
					c3.934,29.212,39.22,48.239,63.373,53.664c11.518-28.189,17.884-59.031,17.884-91.364c0-85.859-44.775-161.254-112.242-204.13
					C818.141,1943.831,781.83,1980.999,813.584,2026.821z"/>
			</g>
			<path opacity="0.3" fill="#C7EAE4" d="M919.421,2119.296c0-87.629-46.631-164.362-116.434-206.744
				c85.088,37.415,144.512,122.432,144.512,221.343c0,133.486-108.213,241.699-241.7,241.699
				c-45.859,0-88.734-12.774-125.264-34.955c29.743,13.078,62.613,20.355,97.188,20.355
				C811.21,2360.994,919.421,2252.781,919.421,2119.296z"/>
			<path fill="#FFE953" d="M875.844,2248.294c-12.026,21.927,3.448,43.844,7.733,49.238c18.4-19.224,33.649-41.483,44.938-65.946
				C913.809,2235.827,887.709,2226.659,875.844,2248.294z"/>
		</g>
		<path fill="#FFC03E" stroke="#31323D" stroke-width="5" stroke-miterlimit="10" d="M584.021,2112.208
			c0,0-10.606,54.195,14.6,124.144l62.506-68.688C661.127,2167.663,632.67,2131.113,584.021,2112.208z"/>
		<ellipse opacity="0.2" fill="#31323D" cx="729.693" cy="2620.594" rx="223.859" ry="16.804"/>
		<path fill="#FFC03E" stroke="#31323D" stroke-width="5" stroke-miterlimit="10" d="M586.774,2285.701
			c0,0-15.25-64.474-21.552-73.926c-6.302-9.453-33.399-80.643-53.564-15.114c-20.166,65.527,29.618,220.55,72.47,231.263
			S586.774,2285.701,586.774,2285.701z"/>
		<path fill="#FFC03E" stroke="#31323D" stroke-width="5" stroke-miterlimit="10" d="M844.323,2283.452
			c0,0,6.84-65.898,11.875-76.082c5.035-10.185,22.761-84.266,51.179-21.872s-1.034,222.527-42.155,238.658
			C824.103,2440.286,844.323,2283.452,844.323,2283.452z"/>
		
			<ellipse fill="#FFC03E" stroke="#31323D" stroke-width="5" stroke-miterlimit="10" cx="721.219" cy="2620.594" rx="267.304" ry="36.231"/>
		<path fill="#FFC03E" stroke="#31323D" stroke-width="5" stroke-miterlimit="10" d="M832.843,2094.519
			c0,0,17.562,62.002-5.005,145.779l-79.316-73.852C748.521,2166.446,778.09,2121.196,832.843,2094.519z"/>
		<ellipse opacity="0.2" fill="#31323D" cx="727.195" cy="2620.594" rx="236.789" ry="16.804"/>
		<ellipse opacity="0.2" fill="#31323D" cx="726" cy="2625.884" rx="214.267" ry="16.804"/>
		<path fill="#FFC03E" stroke="#31323D" stroke-width="5" stroke-miterlimit="10" d="M538.145,2308.994
			c0,0,40.961-4.727,56.085-53.695c15.124-48.97,29.503-80.032,82.81-93.266s98.71,8.566,116.339,24.961
			c17.629,16.394,43.466,107.82,98.921,118.94c0,0-12.793,17.055-30.659,5.266c0,0,26.426,16.152,30.659,16.187
			c0,0-6.932,8.645-26.467,7.664l15.754,10.362c0,0-8.822,10.083-34.029-1.261l44.112,142.419c0,0,27.097,66.798,1.89,95.786
			c-25.207,28.987-27.096,40.961-96.416,41.591c-69.319,0.63-147.46,0-147.46,0s-49.784,0.63-74.99-20.795
			c-25.207-21.426-27.098-54.195-27.098-54.195l1.261-23.316c0,0,35.289-175.817,34.659-176.447c0,0-18.275,6.941-30.878-0.311
			c0,0,8.822-4.216,15.124-12.98c0,0-14.677,6.463-25.207-3.373c0,0,13.864-0.089,20.796-15.975
			C563.352,2316.556,551.378,2326.77,538.145,2308.994z"/>
		<path fill="#FFC03E" stroke="#31323D" stroke-width="5" stroke-miterlimit="10" d="M586.835,2610.868l-84.957,1.748
			c-10.592,0.191-15.807-12.148-7.378-17.59c17.176-11.1,46.564-22.01,58.685-24.904L586.835,2610.868z"/>
		<path fill="#FFC03E" stroke="#31323D" stroke-width="5" stroke-miterlimit="10" d="M899.692,2571.013
			c15.077,4.39,43.513,14.664,57.19,24.014c8.301,5.662,3.212,17.781-7.379,17.59l-83.209-1.621L899.692,2571.013z"/>
		<g enable-background="new    ">
			<path fill="#FFFFFF" d="M839,2249.559c1.42,10.748-1.487,21.618-8.081,30.221c-6.593,8.604-16.336,14.236-27.082,15.655
				c-10.747,1.422-21.617-1.485-30.222-8.08c-8.603-6.594-14.234-16.335-15.656-27.083c-2.96-22.371,5.925-52.65,35.166-55.359
				C815.588,2202.864,836.038,2227.188,839,2249.559z"/>
			<g>
				<defs>
					<rect id="SVGID_1_" x="757.109" y="2204.606" width="82.342" height="91.585"/>
				</defs>
				<clipPath id="SVGID_2_">
					<use xlink:href="#SVGID_1_"  overflow="visible"/>
				</clipPath>
				<g clip-path="url(#SVGID_2_)">
					<defs>
						<path id="SVGID_3_" d="M839,2249.559c1.42,10.748-1.487,21.618-8.081,30.221c-6.593,8.604-16.336,14.236-27.082,15.655
							c-10.747,1.422-21.617-1.485-30.222-8.08c-8.603-6.594-14.234-16.335-15.656-27.083c-2.96-22.371,5.925-52.65,35.166-55.359
							C815.588,2202.864,836.038,2227.188,839,2249.559z"/>
					</defs>
					<clipPath id="SVGID_4_">
						<use xlink:href="#SVGID_3_"  overflow="visible"/>
					</clipPath>
					<g clip-path="url(#SVGID_4_)">
						<defs>
							<rect id="SVGID_5_" x="261.794" y="1902.965" width="945.257" height="945.257"/>
						</defs>
						<clipPath id="SVGID_6_">
							<use xlink:href="#SVGID_5_"  overflow="visible"/>
						</clipPath>
						<circle clip-path="url(#SVGID_6_)" fill="#FCDF35" cx="797.991" cy="2263.243" r="30.721"/>
						<circle clip-path="url(#SVGID_6_)" fill="#31323D" cx="797.991" cy="2263.244" r="24.954"/>
						<circle clip-path="url(#SVGID_6_)" fill="#FFFFFF" cx="810.925" cy="2241.765" r="11.91"/>
					</g>
				</g>
			</g>
			<path fill="none" stroke="#31323D" stroke-width="4" stroke-linecap="round" stroke-miterlimit="10" d="M839,2249.559
				c1.42,10.748-1.487,21.618-8.081,30.221c-6.593,8.604-16.336,14.236-27.082,15.655c-10.747,1.422-21.617-1.485-30.222-8.08
				c-8.603-6.594-14.234-16.335-15.656-27.083c-2.96-22.371,5.925-52.65,35.166-55.359
				C815.588,2202.864,836.038,2227.188,839,2249.559z"/>
			<path fill="#FFFFFF" d="M588.538,2252.395c-1.421,10.748,1.487,21.618,8.08,30.221c6.594,8.604,16.337,14.236,27.083,15.655
				c10.748,1.422,21.618-1.485,30.222-8.08c8.603-6.594,14.235-16.336,15.654-27.083c2.962-22.371-5.922-52.65-35.163-55.359
				C611.95,2205.7,591.5,2230.023,588.538,2252.395z"/>
			<g>
				<defs>
					<rect id="SVGID_7_" x="587.803" y="2207.548" width="82.342" height="91.164"/>
				</defs>
				<clipPath id="SVGID_8_">
					<use xlink:href="#SVGID_7_"  overflow="visible"/>
				</clipPath>
				<g clip-path="url(#SVGID_8_)">
					<defs>
						<path id="SVGID_9_" d="M588.538,2252.395c-1.421,10.748,1.487,21.618,8.08,30.221c6.594,8.604,16.337,14.236,27.083,15.655
							c10.748,1.422,21.618-1.485,30.222-8.08c8.603-6.594,14.235-16.336,15.654-27.083c2.962-22.371-5.922-52.65-35.163-55.359
							C611.95,2205.7,591.5,2230.023,588.538,2252.395z"/>
					</defs>
					<clipPath id="SVGID_10_">
						<use xlink:href="#SVGID_9_"  overflow="visible"/>
					</clipPath>
					<g clip-path="url(#SVGID_10_)">
						<defs>
							<rect id="SVGID_11_" x="261.794" y="1902.965" width="945.257" height="945.257"/>
						</defs>
						<clipPath id="SVGID_12_">
							<use xlink:href="#SVGID_11_"  overflow="visible"/>
						</clipPath>
						<circle clip-path="url(#SVGID_12_)" fill="#FCDF35" cx="629.187" cy="2266" r="30.72"/>
						<circle clip-path="url(#SVGID_12_)" fill="#31323D" cx="629.186" cy="2265.999" r="24.955"/>
						<circle clip-path="url(#SVGID_12_)" fill="#FFFFFF" cx="641.397" cy="2244.211" r="11.892"/>
					</g>
				</g>
			</g>
			<path fill="none" stroke="#31323D" stroke-width="4" stroke-linecap="round" stroke-miterlimit="10" d="M588.538,2252.395
				c-1.421,10.748,1.487,21.618,8.08,30.221c6.594,8.604,16.337,14.236,27.083,15.655c10.748,1.422,21.618-1.485,30.222-8.08
				c8.603-6.594,14.235-16.336,15.654-27.083c2.962-22.371-5.922-52.65-35.163-55.359
				C611.95,2205.7,591.5,2230.023,588.538,2252.395z"/>
			<path fill="none" stroke="#31323D" stroke-width="10" stroke-linecap="round" stroke-miterlimit="10" d="M609.491,2199.207
				c7.278-9.419,16.131-15.974,28.484-14.052c16.258,2.521,23.316,12.257,27.191,23.347"/>
			<path fill="none" stroke="#31323D" stroke-width="10" stroke-linecap="round" stroke-miterlimit="10" d="M815.777,2196.057
				c-7.278-9.42-16.131-15.975-28.482-14.053c-16.26,2.521-23.316,12.258-27.192,23.348"/>
			<path fill="#31323D" d="M717.188,2288.126v0.787c-0.034,0.504-0.096,1.229-0.222,2.175c-0.22,1.857-0.6,4.474-1.261,7.593
				c-0.761,3.554-1.805,7.041-3.12,10.43c-0.747,1.92-1.608,3.792-2.583,5.609c-1.052,1.905-2.265,3.717-3.624,5.419
				c-1.322,1.708-2.834,3.263-4.506,4.63c-1.62,1.336-3.41,2.447-5.323,3.309c-1.781,0.802-3.655,1.372-5.578,1.702
				c-1.707,0.287-3.438,0.403-5.168,0.346c-1.446-0.034-2.889-0.172-4.316-0.408l-0.914-0.158l-0.85-0.188l-0.788-0.157l-0.695-0.19
				l-1.196-0.315l-0.883-0.251l-0.724-0.222c-0.543-0.276-0.325-1.098,0.282-1.069h0.033l0.724,0.157l0.852,0.188l1.165,0.221
				l0.692,0.126l0.756,0.126l0.819,0.127l0.883,0.094c1.37,0.149,2.75,0.202,4.127,0.157c1.613-0.04,3.216-0.24,4.79-0.6
				c3.595-0.818,6.917-2.555,9.641-5.041c1.442-1.32,2.732-2.801,3.843-4.411c1.127-1.614,2.119-3.323,2.963-5.104
				c0.822-1.739,1.537-3.528,2.143-5.356c1.06-3.261,1.86-6.601,2.394-9.987c0.472-2.993,0.692-5.483,0.819-7.247
				c0.062-0.883,0.095-1.545,0.095-2.017V2288c0.016-1.306,1.09-2.349,2.395-2.332c1.304,0.018,2.348,1.089,2.332,2.394v0.096
				V2288.126z"/>
			<path fill="#31323D" d="M717.818,2287.842v0.692c0.031,0.473,0.094,1.136,0.189,2.017c0.188,1.733,0.566,4.223,1.196,7.186
				c0.714,3.359,1.694,6.657,2.932,9.86c0.702,1.793,1.511,3.538,2.425,5.232c0.933,1.734,2.009,3.389,3.215,4.946
				c1.203,1.546,2.577,2.951,4.096,4.191c2.851,2.341,6.259,3.905,9.894,4.535c1.59,0.277,3.206,0.394,4.82,0.349
				c1.374-0.032,2.743-0.158,4.097-0.38l0.882-0.157l0.819-0.157l0.756-0.158l0.693-0.157l1.166-0.284l0.851-0.251l0.692-0.222
				h0.033c0.579-0.035,0.832,0.721,0.346,1.041l-0.694,0.253l-0.85,0.314l-1.166,0.377l-0.694,0.22l-0.757,0.191l-0.85,0.22
				l-0.915,0.188c-1.411,0.311-2.844,0.521-4.285,0.63c-1.722,0.142-3.453,0.11-5.167-0.093c-1.941-0.222-3.846-0.688-5.671-1.387
				c-1.963-0.749-3.817-1.757-5.514-2.994c-1.745-1.275-3.341-2.744-4.757-4.38c-1.402-1.614-2.667-3.343-3.781-5.167
				c-1.077-1.756-2.045-3.576-2.898-5.45c-1.5-3.321-2.732-6.756-3.688-10.273c-0.85-3.087-1.354-5.672-1.668-7.529
				c-0.158-0.914-0.253-1.639-0.349-2.143l-0.062-0.6v-0.22c-0.118-1.28,0.808-2.42,2.086-2.567
				c1.277-0.146,2.437,0.758,2.609,2.031v0.157L717.818,2287.842z"/>
			<path fill="#31323D" d="M695.415,2279.492c-0.66-1.643-0.289-3.521,0.945-4.788c2.616-2.712,8.226-6.713,18.874-7.09
				c10.651-0.38,15.818,3.182,18.275,5.733c1.221,1.278,1.567,3.159,0.883,4.789c-0.901,2.202-2.982,3.695-5.356,3.845
				c-2.994,0.188-7.121,1.196-9.641,5.011c-0.155,0.237-0.334,0.461-0.537,0.661l-0.093,0.094c-1.026,0.987-2.406,1.521-3.829,1.48
				c-1.423-0.042-2.769-0.655-3.733-1.701c0,0-2.27-3.654-10.335-4.064c-2.408-0.123-4.525-1.636-5.418-3.875v-0.095H695.415z"/>
			<path fill="#31323D" d="M736.093,2303.658l2.3-0.534c1.513-0.347,3.718-0.851,6.522-1.419c7.789-1.576,15.656-2.733,23.568-3.466
				c11.189-1.028,22.438-1.186,33.652-0.473c6.144,0.377,12.477,1.072,18.874,2.079c6.396,1.01,12.824,2.332,19.188,3.938
				c6.366,1.606,12.636,3.563,18.686,5.768l4.507,1.702l4.41,1.795l2.173,0.914l2.144,0.945c1.417,0.63,2.866,1.26,4.223,1.922
				l4.095,1.985l3.97,2.079l0.977,0.504l0.976,0.535l1.891,1.071l1.891,1.04l1.828,1.072c4.884,2.836,9.327,5.733,13.36,8.538
				c4.032,2.806,7.624,5.515,10.744,8.005c1.544,1.26,3.024,2.425,4.316,3.527l1.891,1.606l1.702,1.482
				c1.071,0.945,2.016,1.795,2.835,2.552l1.134,1.039l0.945,0.883l1.702,1.606l-1.733-1.576l-0.945-0.85l-1.166-1.01
				c-0.819-0.724-1.797-1.575-2.867-2.487l-1.732-1.451l-1.924-1.575c-1.322-1.103-2.802-2.236-4.378-3.466
				c-3.151-2.425-6.774-5.104-10.839-7.813c-4.065-2.709-8.538-5.578-13.456-8.318l-1.826-1.041l-1.891-1.007l-1.922-1.041
				l-0.978-0.503l-0.977-0.505l-4-1.985l-4.127-1.922c-1.387-0.661-2.805-1.229-4.223-1.859l-2.143-0.911l-2.175-0.884l-4.412-1.732
				l-4.504-1.607c-6.051-2.078-12.319-3.938-18.654-5.451c-6.332-1.512-12.728-2.741-19.063-3.624
				c-6.333-0.881-12.635-1.479-18.715-1.764c-11.1-0.536-22.226-0.21-33.273,0.977c-7.802,0.833-15.555,2.084-23.222,3.75
				c-2.774,0.599-4.947,1.134-6.397,1.513l-2.268,0.566c-2.038,0.525-2.826-2.53-0.788-3.056h0.031L736.093,2303.658z"/>
			<path fill="#31323D" d="M695.132,2306.747l-1.451-0.253c-0.945-0.157-2.33-0.377-4.127-0.598
				c-4.955-0.595-9.945-0.858-14.936-0.787c-7.075,0.087-14.125,0.868-21.046,2.33c-3.906,0.837-7.758,1.91-11.532,3.215
				c-3.893,1.346-7.693,2.946-11.376,4.789c-3.684,1.857-7.232,3.975-10.618,6.332c-1.702,1.136-3.277,2.396-4.884,3.593
				c-1.606,1.197-3.088,2.552-4.506,3.876l-1.07,0.977l-1.041,1.008l-2.017,2.017l-1.891,2.048
				c-0.629,0.662-1.196,1.388-1.795,2.049c-2.194,2.552-4.246,5.225-6.144,8.003c-1.764,2.583-3.277,5.011-4.506,7.248
				c-0.315,0.534-0.63,1.103-0.881,1.606l-0.821,1.513c-0.473,0.977-0.976,1.891-1.354,2.71c-0.788,1.638-1.356,2.961-1.764,3.876
				l-0.599,1.385l0.566-1.385c0.379-0.915,0.915-2.238,1.671-3.908c0.377-0.852,0.819-1.732,1.292-2.742l0.788-1.542
				c0.253-0.537,0.537-1.072,0.852-1.64c1.197-2.269,2.646-4.726,4.347-7.374c1.843-2.838,3.842-5.572,5.987-8.191
				c0.568-0.692,1.134-1.418,1.764-2.11l1.859-2.111l1.986-2.081l1.008-1.039l1.071-1.009c1.418-1.385,2.931-2.678,4.474-4.001
				c1.544-1.322,3.184-2.582,4.853-3.78c3.389-2.476,6.947-4.707,10.65-6.68c3.706-1.973,7.538-3.698,11.47-5.167
				c3.82-1.423,7.724-2.613,11.689-3.562c7.03-1.663,14.207-2.634,21.426-2.898c5.118-0.195,10.245-0.049,15.344,0.441
				c1.859,0.188,3.308,0.378,4.285,0.504l1.514,0.22c2.079,0.315,1.606,3.436-0.473,3.12H695.132z"/>
			<path fill="#31323D" d="M494.359,2350.921l1.702-1.479c1.134-0.977,2.773-2.363,4.884-4.127
				c4.253-3.497,10.46-8.351,18.306-13.613c8.943-6.006,18.293-11.386,27.98-16.101c5.326-2.583,10.933-5.041,16.7-7.31
				c5.765-2.27,11.785-4.317,17.834-6.113c6.048-1.795,12.192-3.339,18.306-4.568l4.568-0.883l1.134-0.22l1.136-0.189l2.268-0.379
				l2.237-0.377l2.236-0.315l2.239-0.314l1.103-0.158l1.103-0.126l4.378-0.504l4.318-0.377c1.418-0.127,2.835-0.191,4.222-0.284
				l2.08-0.127l2.048-0.095l4.032-0.158l3.907-0.062h7.404l3.497,0.095l3.342,0.158l3.15,0.188l2.994,0.22l2.803,0.253l2.584,0.251
				l4.569,0.536l3.655,0.504l2.709,0.411l2.236,0.346c2.082,0.314,1.609,3.435-0.473,3.12h-0.062l-2.206-0.379l-2.678-0.442
				l-3.624-0.535l-4.507-0.599l-2.551-0.314l-2.741-0.284l-2.931-0.252l-3.12-0.252l-3.275-0.189l-3.435-0.157l-1.764-0.062h-1.829
				l-3.719-0.064h-3.843l-3.969,0.095l-2.017,0.063l-2.048,0.096c-1.387,0.062-2.774,0.126-4.192,0.22l-4.285,0.315l-4.347,0.409
				l-1.103,0.094l-1.103,0.127l-2.206,0.284l-2.239,0.283l-2.236,0.347l-2.268,0.346l-1.134,0.158l-1.103,0.188l-4.538,0.82
				c-6.082,1.134-12.162,2.583-18.212,4.254c-6.049,1.669-12.004,3.624-17.802,5.796c-5.798,2.175-11.405,4.538-16.731,7.027
				c-9.729,4.553-19.13,9.774-28.138,15.628c-7.908,5.137-14.21,9.895-18.495,13.329c-2.174,1.702-3.812,3.087-4.946,4.032
				L494.359,2350.921z"/>
			<path fill="#31323D" d="M743.276,2294.49l29.367-4.474l14.21-2.175l7.751-1.165l4.001-0.6l2.048-0.314l2.048-0.284l2.081-0.284
				l2.111-0.251l4.285-0.41c0.726-0.096,1.449-0.096,2.175-0.157l4.349-0.253h2.205c2.93-0.093,5.892,0,8.885,0.064l4.474,0.25
				l1.104,0.065l1.102,0.093l2.239,0.222l2.236,0.22l4.411,0.568l1.103,0.157l1.103,0.188l4.38,0.757l4.316,0.914l1.071,0.22
				l1.071,0.253l4.221,1.069l2.082,0.6l2.079,0.599c0.693,0.188,1.387,0.378,2.048,0.631l4,1.322l1.955,0.694l1.921,0.724
				l1.922,0.726l1.859,0.787l3.686,1.544l3.53,1.639l3.402,1.639l3.278,1.607l6.239,3.056l26.687,13.045l-26.908-12.604
				l-6.302-2.963l-3.309-1.544l-3.435-1.575l-3.528-1.576l-3.686-1.479l-1.859-0.756l-1.921-0.693l-1.924-0.694l-1.953-0.661
				l-4.001-1.261c-0.662-0.22-1.355-0.377-2.048-0.599l-2.047-0.566l-2.082-0.568l-4.221-1.007l-1.071-0.253l-1.071-0.22
				l-4.316-0.852l-4.349-0.692l-1.103-0.158l-1.103-0.126l-2.206-0.251l-2.206-0.253l-4.411-0.377l-1.103-0.096l-1.103-0.062
				l-4.411-0.191c-2.931,0-5.86-0.062-8.76,0.096l-2.172,0.063l-2.175,0.157l-2.143,0.157c-0.724,0.064-1.418,0.096-2.142,0.191
				l-4.191,0.472l-2.08,0.282l-2.079,0.315l-2.048,0.315l-2.017,0.348l-4.002,0.661l-7.75,1.323l-14.179,2.394l-29.303,4.948
				c-0.861,0.147-1.678-0.432-1.827-1.291c-0.149-0.862,0.43-1.681,1.292-1.829h0.031L743.276,2294.49z"/>
			<path fill="#31323D" d="M690.688,2313.521l-0.912-0.096l-2.521-0.157h-3.972c-1.542,0.033-3.245,0.157-5.135,0.379
				c-2.014,0.232-4.013,0.578-5.987,1.039c-2.212,0.521-4.39,1.172-6.523,1.955l-1.669,0.66l-0.41,0.158h-0.188l-0.22,0.095
				l-0.852,0.378c-0.566,0.253-1.134,0.504-1.669,0.787l-1.64,0.851c-2.21,1.198-4.337,2.545-6.364,4.034
				c-2.044,1.489-3.983,3.121-5.798,4.883c-1.756,1.717-3.408,3.537-4.946,5.452c-2.744,3.402-5.151,7.063-7.185,10.934
				c-1.443,2.74-2.706,5.571-3.781,8.476c-0.377,1.039-0.661,1.891-0.85,2.457l-0.284,0.883l0.251-0.883
				c0.157-0.566,0.411-1.418,0.756-2.488c0.977-2.962,2.145-5.857,3.497-8.664c1.906-3.995,4.197-7.795,6.839-11.344
				c1.5-2.009,3.121-3.922,4.853-5.735c1.785-1.876,3.702-3.624,5.734-5.23c2.039-1.617,4.186-3.09,6.428-4.411l1.702-0.945
				c0.566-0.314,1.134-0.599,1.669-0.883l0.819-0.409l0.221-0.095l0.093-0.063h0.127l0.441-0.188l1.702-0.757
				c2.188-0.903,4.429-1.671,6.71-2.301c2.053-0.571,4.135-1.023,6.239-1.354c1.953-0.315,3.75-0.506,5.356-0.6l2.237-0.126h1.921
				l2.678,0.063h0.915c0.87,0.044,1.541,0.784,1.497,1.653c-0.043,0.872-0.784,1.542-1.654,1.497h-0.063L690.688,2313.521z"/>
			<path fill="#31323D" d="M744.221,2309.425l0.977-0.062l1.198-0.064h3.592l2.333,0.064l1.291,0.062l1.354,0.096l1.451,0.124
				l1.511,0.158l1.576,0.19l1.606,0.251c1.103,0.157,2.206,0.379,3.373,0.6l1.733,0.376l1.796,0.411l3.624,1.008l3.687,1.26
				l1.858,0.726l0.945,0.377l0.473,0.191l0.473,0.22l1.829,0.819c0.599,0.283,1.229,0.536,1.828,0.882l1.795,0.945
				c0.599,0.315,1.229,0.6,1.795,0.977l1.766,1.041l0.881,0.534l0.442,0.284l0.41,0.284c1.103,0.755,2.237,1.449,3.309,2.268
				l1.606,1.198l1.545,1.228c1.039,0.82,1.983,1.67,2.929,2.52c0.945,0.853,0.914,0.853,1.387,1.294l1.323,1.292l1.26,1.291
				l0.63,0.63l0.599,0.662l1.134,1.292l1.071,1.293c0.726,0.818,1.325,1.668,1.955,2.487l1.701,2.363
				c0.506,0.757,1.04,1.482,1.45,2.175c0.409,0.694,0.851,1.355,1.228,1.955l0.537,0.88l0.472,0.819l0.757,1.388l0.534,1.04
				l0.441,0.851l-0.472-0.851l-0.568-1.01l-0.818-1.354l-0.504-0.788l-0.568-0.852c-0.377-0.597-0.818-1.228-1.291-1.891
				c-0.473-0.661-0.977-1.354-1.545-2.11l-1.795-2.268c-0.662-0.757-1.291-1.575-2.048-2.396l-1.103-1.227l-1.198-1.23l-0.599-0.63
				l-0.63-0.6l-1.291-1.229l-1.355-1.229c-0.472-0.409-0.914-0.85-1.417-1.228c-0.979-0.787-1.955-1.608-2.994-2.362l-1.544-1.167
				l-1.606-1.104c-1.072-0.756-2.239-1.418-3.373-2.141l-0.441-0.253l-0.409-0.22l-0.882-0.473l-1.765-0.945
				c-0.568-0.349-1.197-0.6-1.796-0.884l-1.797-0.85c-0.599-0.284-1.229-0.537-1.826-0.787l-1.828-0.757l-0.441-0.188l-0.473-0.158
				l-0.914-0.314l-1.826-0.631l-3.625-1.071l-3.561-0.852l-1.732-0.347l-1.702-0.315c-1.134-0.157-2.206-0.377-3.275-0.473
				l-1.575-0.188l-1.513-0.126l-1.449-0.094l-1.387-0.063l-1.323-0.063h-3.498l-1.921,0.063l-1.545,0.095l-1.134,0.094l-0.977,0.095
				c-2.1,0.188-2.384-2.962-0.284-3.15h0.064L744.221,2309.425z"/>
			<path fill="#31323D" d="M695.383,2327.354c-0.188,9.422,11.596,14.998,21.018,14.368c10.617-0.726,18.84-10.871,18.84-16.196
				c0,0-20.165-11.847-20.669-43.355C714.604,2282.17,716.367,2315.412,695.383,2327.354z"/>
			<path fill="#31323D" d="M731.241,2353.915l-0.189,0.536c-0.064,0.189-0.126,0.378-0.252,0.661l-0.411,0.914l-0.597,1.072
				c-0.253,0.377-0.473,0.788-0.788,1.196c-0.689,0.947-1.47,1.823-2.332,2.615c-1.022,0.955-2.142,1.801-3.339,2.521l-0.979,0.565
				l-1.039,0.507c-0.725,0.314-1.448,0.63-2.236,0.881c-0.788,0.252-1.576,0.473-2.397,0.63l-1.227,0.222l-1.26,0.158
				c-1.72,0.172-3.451,0.159-5.167-0.034c-1.702-0.188-3.381-0.548-5.01-1.069c-1.571-0.509-3.09-1.162-4.538-1.954l-0.251-0.127
				l-0.126-0.063l-0.095-0.063h-0.063l-0.473-0.284l-0.976-0.63c-0.664-0.441-1.26-0.883-1.828-1.324
				c-1.065-0.849-2.055-1.786-2.962-2.803c-0.757-0.854-1.453-1.758-2.08-2.711c-0.476-0.741-0.907-1.508-1.292-2.3
				c-0.158-0.314-0.284-0.63-0.41-0.883l-0.285-0.661l-0.219-0.568c-0.291-0.832,0.797-1.438,1.355-0.754h0.031l0.346,0.439
				l0.976,1.198c0.411,0.503,0.977,1.103,1.606,1.764c0.63,0.662,1.418,1.325,2.27,2.048c0.922,0.742,1.891,1.427,2.898,2.049
				l0.819,0.473l0.852,0.473l0.881,0.441l0.506,0.253l0.439,0.188c1.275,0.563,2.593,1.026,3.938,1.388
				c1.374,0.377,2.775,0.641,4.191,0.788c1.413,0.139,2.836,0.159,4.254,0.062l1.041-0.095l1.039-0.158
				c0.694-0.094,1.356-0.251,1.986-0.408c0.63-0.158,1.292-0.346,1.89-0.568l0.881-0.314l0.852-0.347
				c1.063-0.47,2.086-1.028,3.056-1.67c0.834-0.547,1.625-1.157,2.363-1.827c0.584-0.517,1.142-1.064,1.671-1.64l0.566-0.63
				l0.41-0.535l0.347-0.441C730.432,2352.193,731.787,2353.012,731.241,2353.915z"/>
			<g opacity="0.2" enable-background="new    ">
				<g>
					<defs>
						<rect id="SVGID_13_" x="261.794" y="1902.965" width="945.257" height="945.257"/>
					</defs>
					<clipPath id="SVGID_14_">
						<use xlink:href="#SVGID_13_"  overflow="visible"/>
					</clipPath>
					<path clip-path="url(#SVGID_14_)" fill="#595959" d="M689.461,2351.27c0,0-0.821,22.875,18.368,23.789
						c18.559,0.881,22.466-20.261,22.466-20.261s-7.469,8.918-19.442,8.034C698.88,2361.949,689.461,2351.27,689.461,2351.27z"/>
				</g>
			</g>
			<path fill="#FFFFFF" d="M698.787,2331.48c0,0,4.065-4.127,6.867-5.294c0.206-0.08,0.436-0.068,0.63,0.033
				c0.269,0.138,0.432,0.422,0.41,0.724c-0.157,1.891-1.041,8.382-0.567,10.179c0,0-2.867-0.537-4.851-1.671
				C699.291,2334.316,698.787,2331.48,698.787,2331.48z"/>
			<path fill="none" stroke="#30313C" stroke-width="0.75" stroke-linecap="round" stroke-linejoin="round" d="M698.787,2331.48
				c0,0,4.065-4.127,6.867-5.294c0.206-0.08,0.436-0.068,0.63,0.033c0.269,0.138,0.432,0.422,0.41,0.724
				c-0.157,1.891-1.041,8.382-0.567,10.179c0,0-2.867-0.537-4.851-1.671C699.291,2334.316,698.787,2331.48,698.787,2331.48z"/>
			<path fill="#FFFFFF" d="M724.844,2336.27c0,0-0.409-6.711-0.945-8.822c0,0-0.315-1.069,0.253-1.418
				c0.566-0.346,4.223,1.103,6.428,5.767c-0.289,1.195-0.952,2.265-1.89,3.057C727.144,2336.112,724.844,2336.27,724.844,2336.27z"
				/>
			<path fill="none" stroke="#30313C" stroke-width="0.75" stroke-linecap="round" stroke-linejoin="round" d="M724.844,2336.27
				c0,0-0.409-6.711-0.945-8.822c0,0-0.315-1.069,0.253-1.418c0.566-0.346,4.223,1.103,6.428,5.767
				c-0.289,1.195-0.952,2.265-1.89,3.057C727.144,2336.112,724.844,2336.27,724.844,2336.27z"/>
		</g>
		<path fill="#FFFF50" stroke="#31323D" stroke-width="5" stroke-miterlimit="10" d="M467.727,2682.72
			c0,0,59.719,33.192,296.084,29.411c0,0,193.908-5.041,209.117-28.357l2.18,5.1c0,0,5.712,40.903-273.254,37.122
			s-230.806-29.618-230.806-29.618l-5.368-2.285L467.727,2682.72z"/>
		<path fill="#FFC03E" stroke="#31323D" stroke-width="5" stroke-miterlimit="10" d="M465.956,2683.773
			c0,0,20.987,32.139,255.315,35.289c0,0,249.508,1.261,254.568-35.289l-3.163,22.056c0,0-24.037,27.098-187.234,28.988
			c-163.196,1.891-282.167-0.719-319.487-30.337V2683.773z"/>
		<path fill="#FFFB8F" d="M530.267,2706.687c0,0-5.357,1.732-3.466,17.172l17.015,2.849l-2.048-12.301l8.98-4.407L530.267,2706.687z
			"/>
		<path fill="#31323D" d="M534.368,2194.39c-0.337,0.306-0.859,0.29-1.178-0.037l-0.207-0.21l-0.52-0.634
			c-0.241-0.339-0.466-0.69-0.671-1.051l-0.154-0.316l-0.18-0.343l-0.334-0.761l-0.282-0.867c-0.091-0.31-0.158-0.625-0.2-0.943
			l-0.126-0.5l-0.049-0.522l-0.095-1.048l0.036-1.124c-0.024-0.192-0.022-0.386,0.005-0.579l0.084-0.547l0.114-1.15l0.27-1.099
			c0.068-0.381,0.167-0.756,0.297-1.122l0.35-1.071l0.376-1.043c0.16-0.313,0.134-0.339,0.454-0.965
			c0.319-0.624,0.561-1.278,0.904-1.824c0.345-0.547,0.611-1.068,0.904-1.562c0.292-0.495,0.558-0.913,0.822-1.275
			c0.265-0.367,0.266-0.418,0.665-0.964c0.396-0.546,0.608-0.857,0.608-0.857c0.043-0.092,0.108-0.172,0.185-0.236
			c2.089-1.829,5.053,0.867,3.428,3.119l-0.106,0.104c0,0-0.369,0.469-0.58,0.676c-0.212,0.208-0.45,0.493-0.714,0.805
			c-0.316,0.316-0.608,0.654-0.872,1.014l-0.98,1.274c-0.365,0.465-0.701,0.951-1.006,1.457l-0.505,0.807
			c-0.158,0.271-0.3,0.55-0.425,0.835c-0.16,0.26-0.292,0.547-0.454,0.859l-0.374,0.888c-0.08,0.286-0.24,0.6-0.323,0.886
			l-0.242,0.915l-0.109,0.47c-0.037,0.146-0.063,0.295-0.081,0.444l-0.139,0.915l-0.035,0.864l-0.002,0.419l0.021,0.393l0.073,0.812
			l0.124,0.709l0.179,0.654l0.102,0.315l0.102,0.264l0.411,0.894l0.336,0.499l0.156,0.158
			C534.728,2193.542,534.7,2194.067,534.368,2194.39z M545.456,2207.573c-0.273,0.363-0.794,0.43-1.151,0.148l-0.832-0.846
			c-0.647-0.716-1.17-1.534-1.549-2.422c-0.565-1.247-0.883-2.593-0.935-3.961c-0.027-0.768-0.003-1.537,0.073-2.302
			c0.114-0.767,0.27-1.524,0.464-2.272l0.323-1.15l0.189-0.548l0.214-0.522c0.241-0.704,0.562-1.381,0.855-2.035l0.478-0.938
			c0.136-0.294,0.286-0.581,0.454-0.858c0.293-0.6,0.638-1.096,0.93-1.591c0.292-0.494,0.609-0.909,0.848-1.301
			c0.24-0.39,0.268-0.469,0.637-0.988c0.37-0.521,0.608-0.807,0.608-0.807c0.05-0.086,0.112-0.167,0.186-0.234
			c0.821-1.129,2.443-1.287,3.468-0.339c1.025,0.946,0.994,2.576-0.065,3.484c0,0-0.475,0.466-0.661,0.699
			c-0.186,0.235-0.45,0.494-0.713,0.807c-0.265,0.312-0.608,0.649-0.899,1.038c-0.291,0.392-0.662,0.807-1.006,1.3
			c-0.149,0.247-0.317,0.483-0.503,0.704c-0.158,0.271-0.336,0.533-0.53,0.78c-0.318,0.521-0.662,1.067-0.957,1.667l-0.212,0.417
			l-0.24,0.444l-0.373,0.886c-0.255,0.602-0.46,1.22-0.62,1.853c-0.161,0.582-0.271,1.177-0.329,1.777
			c-0.102,1.073-0.004,2.156,0.286,3.195c0.229,0.726,0.559,1.416,0.978,2.051l0.57,0.58
			C545.81,2206.636,545.818,2207.22,545.456,2207.573z"/>
		<path fill="#31323D" d="M888.208,2183.012l0.09-0.202l0.142-0.585l0.075-0.98l0.004-0.281l-0.014-0.332l-0.06-0.676l-0.131-0.708
			l-0.214-0.787l-0.117-0.375l-0.147-0.392l-0.333-0.798l-0.448-0.81c-0.069-0.135-0.145-0.265-0.231-0.39l-0.265-0.402
			l-0.545-0.773c-0.178-0.239-0.436-0.479-0.611-0.72l-0.659-0.701c-0.26-0.236-0.483-0.46-0.724-0.648
			c-0.217-0.224-0.447-0.436-0.689-0.635l-0.754-0.581c-0.462-0.368-0.946-0.708-1.45-1.017l-1.362-0.854
			c-0.372-0.245-0.763-0.461-1.17-0.647c-0.355-0.201-0.679-0.386-0.949-0.508c-0.269-0.12-0.777-0.431-0.777-0.431l-0.136-0.061
			c-2.307-1.547-0.464-5.104,2.13-4.116c0.095,0.034,0.184,0.087,0.255,0.157c0,0,0.308,0.218,0.869,0.593
			c0.563,0.373,0.582,0.421,0.958,0.673c0.374,0.248,0.768,0.548,1.213,0.91c0.447,0.361,0.878,0.758,1.391,1.15
			c0.513,0.394,0.965,0.922,1.482,1.396c0.518,0.476,0.502,0.509,0.761,0.748l0.715,0.847l0.7,0.883
			c0.25,0.298,0.473,0.615,0.67,0.949l0.634,0.937l0.507,1.039l0.269,0.483c0.093,0.171,0.162,0.352,0.206,0.54l0.424,1.042
			l0.275,1.015l0.136,0.509l0.056,0.512c0.07,0.313,0.117,0.633,0.14,0.955l0.036,0.91l-0.049,0.83l-0.049,0.383l-0.035,0.351
			c-0.067,0.41-0.156,0.818-0.264,1.219l-0.267,0.774l-0.121,0.27c-0.186,0.417-0.668,0.612-1.091,0.444
			C888.261,2183.932,888.054,2183.449,888.208,2183.012z M880.179,2196.651l0.333-0.742c0.172-0.74,0.242-1.502,0.205-2.263
			c-0.089-1.075-0.375-2.124-0.843-3.096c-0.263-0.542-0.572-1.063-0.925-1.552c-0.37-0.538-0.778-1.047-1.226-1.522l-0.658-0.701
			l-0.378-0.332l-0.344-0.317c-0.485-0.461-0.997-0.854-1.476-1.231c-0.268-0.165-0.526-0.348-0.768-0.548
			c-0.251-0.142-0.491-0.305-0.716-0.484c-0.495-0.342-0.987-0.604-1.396-0.869c-0.408-0.264-0.848-0.461-1.204-0.661
			c-0.355-0.201-0.692-0.354-0.949-0.509c-0.256-0.154-0.862-0.426-0.862-0.426c-1.309-0.483-1.904-2.002-1.272-3.244
			c0.631-1.246,2.208-1.66,3.369-0.887c0.093,0.037,0.179,0.091,0.256,0.154c0,0,0.323,0.185,0.851,0.544
			c0.527,0.36,0.582,0.424,0.941,0.706c0.36,0.284,0.801,0.563,1.247,0.926s0.942,0.708,1.424,1.168
			c0.254,0.202,0.494,0.42,0.724,0.647l0.774,0.714c0.502,0.51,1.039,1.034,1.508,1.611l0.382,0.414l0.369,0.448l0.702,0.967
			c0.442,0.634,0.852,1.29,1.225,1.97c0.338,0.69,0.627,1.404,0.869,2.133c0.426,1.301,0.596,2.673,0.499,4.039
			c-0.046,0.964-0.252,1.913-0.61,2.81l-0.486,1.082c-0.237,0.388-0.75,0.506-1.131,0.26
			C880.147,2197.654,879.952,2197.104,880.179,2196.651z"/>
		<path fill="#31323D" d="M508.967,2596.365h-0.19l-0.541,0.159c-0.647,0.214-1.275,0.49-1.87,0.824
			c-0.825,0.43-1.583,0.975-2.254,1.619c-0.356,0.347-0.666,0.742-0.918,1.174c-0.276,0.411-0.489,0.86-0.635,1.331
			c-0.16,0.461-0.256,0.942-0.286,1.428c-0.038,0.488-0.027,0.978,0.031,1.461c0.042,0.46,0.114,0.916,0.221,1.363
			c0.127,0.445,0.255,0.858,0.382,1.238c0.094,0.189,0.127,0.38,0.221,0.539l0.19,0.476l0.192,0.444l0.19,0.349l0.349,0.668v0.094
			c0.647,0.999,0.283,2.342-0.784,2.875c-1.065,0.532-2.36,0.021-2.769-1.099c-0.062-0.072-0.105-0.16-0.127-0.253l-0.286-0.857
			c-0.032-0.126-0.096-0.253-0.159-0.442c-0.043-0.184-0.096-0.364-0.158-0.54c-0.042-0.204-0.095-0.406-0.159-0.604
			c-0.063-0.221-0.096-0.476-0.159-0.697c-0.121-0.533-0.205-1.073-0.255-1.617c-0.173-1.291-0.121-2.602,0.159-3.872
			c0.066-0.346,0.162-0.686,0.286-1.015c0.111-0.339,0.248-0.668,0.413-0.983c0.301-0.64,0.686-1.237,1.142-1.776
			c0.429-0.504,0.906-0.96,1.428-1.364c0.485-0.362,0.995-0.689,1.524-0.983c0.471-0.247,0.958-0.458,1.458-0.635
			c0.722-0.262,1.466-0.463,2.221-0.604l0.666-0.096h0.221c0.387-0.057,0.746,0.217,0.793,0.604c0.042,0.355-0.19,0.682-0.539,0.762
			V2596.365z M524.038,2595.73h-0.221l-0.668,0.19l-0.983,0.317l-1.238,0.476c-0.487,0.208-0.963,0.441-1.428,0.699
			c-0.52,0.253-1.019,0.55-1.49,0.888c-0.492,0.335-0.959,0.707-1.396,1.109c-0.441,0.41-0.836,0.868-1.173,1.365l-0.255,0.349
			l-0.19,0.382c-0.149,0.238-0.266,0.493-0.349,0.761c-0.056,0.122-0.099,0.25-0.127,0.381l-0.127,0.381
			c-0.031,0.254-0.094,0.507-0.127,0.793c0.005,0.127-0.004,0.256-0.031,0.382v0.729c0.031,0.127,0.031,0.255,0.065,0.382
			c0.015,0.234,0.047,0.468,0.094,0.697c0.065,0.222,0.096,0.444,0.159,0.666c0.104,0.389,0.229,0.771,0.382,1.143
			c0.089,0.3,0.216,0.589,0.38,0.856l0.349,0.763l0.065,0.094c0.582,1.005,0.188,2.292-0.856,2.8
			c-1.043,0.507-2.298,0.022-2.73-1.055l-0.096-0.222l-0.349-0.983c-0.139-0.373-0.254-0.755-0.349-1.144
			c-0.127-0.442-0.19-0.982-0.317-1.586l-0.096-0.919c-0.031-0.317-0.031-0.635-0.031-0.985c-0.004-0.18,0.005-0.36,0.031-0.538
			c0-0.159,0.034-0.349,0.034-0.539c0.015-0.184,0.047-0.363,0.094-0.54l0.096-0.57c0.087-0.38,0.203-0.75,0.349-1.11
			c0.046-0.199,0.121-0.394,0.221-0.571l0.254-0.539c0.182-0.351,0.383-0.689,0.604-1.017l0.38-0.476l0.382-0.476
			c0.506-0.565,1.069-1.074,1.681-1.522c0.585-0.426,1.2-0.808,1.841-1.144c0.583-0.314,1.188-0.588,1.808-0.824
			c0.529-0.214,1.069-0.394,1.618-0.539l1.428-0.382l1.111-0.222l0.699-0.096h0.286c0.38-0.056,0.729,0.221,0.76,0.604
			C524.636,2595.303,524.399,2595.651,524.038,2595.73z"/>
		<path fill="#31323D" d="M941.129,2594.334h0.223l0.666,0.159c0.769,0.184,1.522,0.428,2.253,0.73
			c0.489,0.218,0.965,0.461,1.428,0.73c0.537,0.304,1.045,0.654,1.523,1.046c0.504,0.436,0.97,0.914,1.395,1.428
			c0.443,0.562,0.826,1.168,1.143,1.81c0.159,0.316,0.253,0.666,0.38,0.982c0.128,0.318,0.222,0.698,0.317,1.047
			c0.071,0.335,0.124,0.674,0.159,1.016c0.031,0.35,0.095,0.698,0.095,1.015v0.983c-0.038,0.306-0.06,0.613-0.064,0.921
			c-0.095,0.571-0.159,1.142-0.286,1.618c-0.033,0.247-0.086,0.49-0.159,0.729c-0.063,0.222-0.094,0.444-0.159,0.635
			c-0.063,0.177-0.116,0.357-0.159,0.538l-0.158,0.477l-0.317,0.857c-0.346,1.038-1.473,1.593-2.505,1.238
			c-1.043-0.36-1.597-1.498-1.238-2.538l0.094-0.224v-0.094l0.351-0.668l0.189-0.38l0.189-0.444l0.191-0.477l0.223-0.57
			c0.153-0.414,0.28-0.839,0.38-1.269c0.031-0.223,0.096-0.444,0.127-0.668c0.046-0.239,0.08-0.484,0.094-0.729
			c0.026-0.242,0.038-0.486,0.033-0.73c0.015-0.253,0.015-0.508,0-0.762c-0.027-0.256-0.069-0.511-0.127-0.76
			c-0.05-0.248-0.112-0.491-0.19-0.731c-0.147-0.491-0.36-0.961-0.635-1.396c-0.271-0.438-0.578-0.852-0.92-1.238
			c-0.347-0.361-0.719-0.702-1.11-1.014c-0.367-0.276-0.747-0.531-1.142-0.763c-0.598-0.358-1.224-0.666-1.872-0.92l-0.54-0.19
			h-0.253c-0.371-0.12-0.57-0.521-0.444-0.888C940.382,2594.468,940.759,2594.235,941.129,2594.334z"/>
		<path fill="#31323D" d="M926.058,2593.7h0.286l0.697,0.158c0.375,0.065,0.745,0.15,1.111,0.255
			c0.444,0.127,0.92,0.254,1.427,0.444c0.562,0.18,1.112,0.392,1.651,0.635c0.613,0.251,1.208,0.548,1.777,0.887
			c0.636,0.351,1.241,0.754,1.808,1.207c0.614,0.48,1.178,1.022,1.682,1.617l0.38,0.444l0.35,0.508
			c0.241,0.33,0.453,0.681,0.635,1.048c0.094,0.158,0.158,0.348,0.253,0.538c0.096,0.19,0.158,0.349,0.223,0.541l0.19,0.569
			l0.063,0.286l0.064,0.286c0.094,0.375,0.157,0.757,0.19,1.142c0.068,0.355,0.089,0.717,0.063,1.079
			c0.018,0.646-0.014,1.294-0.094,1.935c-0.127,0.604-0.192,1.143-0.317,1.587c-0.096,0.408-0.212,0.81-0.35,1.206l-0.349,0.983
			c-0.938,2.365-4.491,1.141-3.776-1.3l0.096-0.224l0.063-0.094l0.351-0.763c0.157-0.282,0.284-0.58,0.38-0.889
			c0.325-0.824,0.539-1.689,0.634-2.569c0.026-0.243,0.038-0.486,0.032-0.73c0.021-0.265,0.012-0.53-0.032-0.793v-0.38l-0.096-0.38
			l-0.094-0.414c-0.061-0.13-0.104-0.269-0.127-0.413c-0.127-0.252-0.222-0.508-0.38-0.761l-0.191-0.412l-0.253-0.349
			c-0.691-1.019-1.562-1.9-2.57-2.603c-0.464-0.36-0.952-0.688-1.46-0.983c-0.463-0.268-0.939-0.511-1.428-0.729
			c-0.732-0.351-1.484-0.658-2.252-0.921l-0.666-0.189l-0.221-0.065h-0.033c-0.909-0.211-0.592-1.574,0.317-1.362L926.058,2593.7z"
			/>
		<path opacity="0.1" d="M583.517,2349.194c0,0-27.718,228.12,77.521,238.202c105.238,10.083,223.546,9.824,234.972-88.353
			c0,0,19.494,55.252-5.111,83.602s-22.54,36.681-86.814,41.196c-64.275,4.517-194.703,1.869-214.02-11.224l-36.88-42.496
			c0,0-6.857-15.49-4.327-44.48c2.53-28.989,0.325-1.619,0.325-1.619L583.517,2349.194L583.517,2349.194z"/>
		<path opacity="0.2" d="M540.919,2332.463c0,0,20.047,7.999,33.377-12.579C574.296,2319.884,574.618,2350.921,540.919,2332.463z"/>
		<path opacity="0.2" d="M555.459,2349.194c0,0,23.611,3.562,29.597-17.756C585.056,2331.438,595.882,2357.045,555.459,2349.194z"/>
		<path opacity="0.2" d="M540.919,2310.213c0,0,19.892,8.645,26.689-11.202c0,0,0.304,31.481-26.689,12.96"/>
		<path opacity="0.2" d="M890.171,2329.594c0,0-20.046,7.999-33.377-12.579C856.794,2317.015,856.473,2348.053,890.171,2329.594z"/>
		<path opacity="0.2" d="M875.632,2346.324c0,0-23.611,3.563-29.597-17.755C846.035,2328.569,835.208,2354.176,875.632,2346.324z"/>
		<path opacity="0.2" d="M890.171,2307.344c0,0-19.891,8.645-26.688-11.202c0,0-0.304,31.481,26.688,12.959"/>
		<path opacity="0.1" fill="#FFFFFF" d="M844.718,2343.205c0,0,127.277,301.479-80.701,277.389c0,0,80.121,16.925,105.979-14.031
			l30.882-37.102c0,0,6.417-27.407-1.184-57.114s-54.977-170.577-54.977-170.577V2343.205z"/>
	</g>
</g>
</svg>
