<?xml version="1.0" encoding="utf-8"?>
<!-- Generator: Adobe Illustrator 16.0.0, SVG Export Plug-In . SVG Version: 6.00 Build 0)  -->
<!DOCTYPE svg PUBLIC "-//W3C//DTD SVG 1.1//EN" "http://www.w3.org/Graphics/SVG/1.1/DTD/svg11.dtd">
<svg version="1.1" id="Layer_1" xmlns="http://www.w3.org/2000/svg" xmlns:xlink="http://www.w3.org/1999/xlink" x="0px" y="0px"
	 width="360px" height="360px" viewBox="0 0 360 360" enable-background="new 0 0 360 360" xml:space="preserve">
<g id="Layer_2" opacity="0.3">
	<ellipse opacity="0.3" enable-background="new    " cx="177.004" cy="279.985" rx="160.686" ry="6.848"/>
</g>
<g>
	<path id="XMLID_3412_" fill="#FFFFFF" d="M302.385,273.85c-4.121-0.666-18.002-3.756-26.249-8.021
		c-2.313-1.196-6.256-4.019-8.809-4.526c-0.364-0.072-0.752-0.125-1.149-0.164c1.054-2.799,1.531-5.814,1.337-8.799
		c-0.16-2.462-0.841-5.041-2.648-6.722s-4.607-1.927-6.294-0.124c1.228-6.197-2.539-13.006-8.441-15.258s-13.067,1.107-16.279,6.547
		c1.135-2.946,1.967-6.203,1.096-9.238c-0.872-3.034-3.991-5.605-7.061-4.864c-0.894-1.745-1.905-3.608-3.677-4.445
		c-1.772-0.837-4.869-0.246-4.956,1.712c-0.088-2.004-1.605-3.862-3.552-4.351c-1.946-0.487-3.56,0.828-4.581,2.555
		c-1.247-3.813-3.082-7.521-5.944-10.331c-2.863-2.812-6.866-4.633-10.858-4.231c-3.99,0.402-7.786,3.334-8.566,7.27
		c-1.161-0.622-2.656-0.565-3.768,0.142c-1.112,0.705-0.859,1.902-0.788,3.218c-6.404-1.114-13.317,1.401-17.507,6.372
		c-4.188,4.972-5.402,12.285-3.22,18.408c-2.17-1.554-5.132-1.933-7.623-0.975c-2.491,0.957-4.438,3.223-5.008,5.83
		c-0.386-1.561-2.003-2.715-3.604-2.574c-1.602,0.143-2.509,0.549-2.613,2.152c-6.012-9.111-18.494-13.34-28.806-9.76
		s-17.07,14.656-16.143,25.531c-3.739-2.365-8.438-3.162-12.746-2.16c-4.31,1.002-8.175,3.789-10.487,7.562
		c-1.255,2.047-2.038,4.724-0.837,6.803c-2.659-1.767-6.795-1.261-8.998,1.052c-5.506-2.234-6.453-0.827-11.872,1.61
		c-8.124,3.654-15.967,3.654-21.909,3.654h17.638c19.261,0,27.931,5.017,39.96,1.899c16.545,4.579,33.895,4.257,50.405-0.446
		c5.512,2.863,11.934,2.721,17.561,0.088c13.445,3.305,27.589,2.944,40.898-0.87c2.907,1.509,6.558,1.192,9.501-0.244
		c9.519,3.389,19.915,3.374,29.744,1.034c5.447,2.713,11.75,2.407,17.208-0.283c9.088,2.652,18.769,2.523,27.931,0.139
		c4.085,1.215,8.947,1.124,13.021-0.132c2.01-0.62,4.19-0.98,6.585-1.185l30.573-0.896
		C313.898,276.151,319.257,275.837,302.385,273.85z"/>
	<g>
		<defs>
			<path id="XMLID_1_" d="M275.463,265.608c8.247,4.265,22.128,7.354,26.248,8.021c16.872,1.987,11.514,2.302,28.465,2.979
				l-30.574,0.896c-2.394,0.205-4.574,0.564-6.584,1.186c-4.073,1.256-8.936,1.347-13.021,0.131
				c-9.162,2.386-18.843,2.515-27.931-0.139c-5.459,2.691-11.762,2.997-17.208,0.284c-9.83,2.34-20.226,2.354-29.744-1.034
				c-2.943,1.437-6.594,1.753-9.501,0.244c-13.311,3.813-27.453,4.175-40.899,0.869c-5.626,2.633-12.048,2.776-17.56-0.088
				c-16.511,4.703-33.86,5.026-50.405,0.446c-12.029,3.117-20.7-1.899-39.96-1.899H29.151c5.941,0,13.785,0,21.908-3.654
				c5.42-2.437,6.367-3.844,11.873-1.61c2.203-2.313,6.338-2.818,8.998-1.051c0,0,23.054,2.475,25.583-3.938
				c0,0,14.925,15.255,28.625,0.885c0,0,10.428,10.85,24.777,0.781c0,0,11.559,13.811,28.983-0.34c0,0,7.977,2.433,14.026-0.441
				c0,0,5.75,9.285,22.593,0.663c0,0,8.374,8.631,23.065-1.105c0,0,9.791,13.355,33.769-2.084H275.463z"/>
		</defs>
		<clipPath id="XMLID_4_">
			<use xlink:href="#XMLID_1_"  overflow="visible"/>
		</clipPath>
		<g clip-path="url(#XMLID_4_)">
			<rect x="9.368" y="263.255" fill="#FFFFFF" width="345.392" height="21.765"/>
			<g>
				<line fill="none" stroke="#31323D" stroke-miterlimit="10" x1="27.271" y1="263.256" x2="14.067" y2="285.02"/>
				<line fill="none" stroke="#31323D" stroke-miterlimit="10" x1="31.104" y1="263.256" x2="17.902" y2="285.02"/>
				<line fill="none" stroke="#31323D" stroke-miterlimit="10" x1="34.939" y1="263.256" x2="21.737" y2="285.02"/>
				<line fill="none" stroke="#31323D" stroke-miterlimit="10" x1="38.774" y1="263.256" x2="25.571" y2="285.02"/>
				<line fill="none" stroke="#31323D" stroke-miterlimit="10" x1="42.609" y1="263.256" x2="29.406" y2="285.02"/>
				<line fill="none" stroke="#31323D" stroke-miterlimit="10" x1="46.444" y1="263.256" x2="33.241" y2="285.02"/>
				<line fill="none" stroke="#31323D" stroke-miterlimit="10" x1="50.279" y1="263.256" x2="37.076" y2="285.02"/>
				<line fill="none" stroke="#31323D" stroke-miterlimit="10" x1="54.114" y1="263.256" x2="40.911" y2="285.02"/>
				<line fill="none" stroke="#31323D" stroke-miterlimit="10" x1="57.949" y1="263.256" x2="44.746" y2="285.02"/>
				<line fill="none" stroke="#31323D" stroke-miterlimit="10" x1="61.784" y1="263.256" x2="48.581" y2="285.02"/>
				<line fill="none" stroke="#31323D" stroke-miterlimit="10" x1="65.618" y1="263.256" x2="52.416" y2="285.02"/>
				<line fill="none" stroke="#31323D" stroke-miterlimit="10" x1="69.453" y1="263.256" x2="56.251" y2="285.02"/>
				<line fill="none" stroke="#31323D" stroke-miterlimit="10" x1="73.288" y1="263.256" x2="60.086" y2="285.02"/>
				<line fill="none" stroke="#31323D" stroke-miterlimit="10" x1="77.123" y1="263.256" x2="63.92" y2="285.02"/>
				<line fill="none" stroke="#31323D" stroke-miterlimit="10" x1="80.958" y1="263.256" x2="67.755" y2="285.02"/>
				<line fill="none" stroke="#31323D" stroke-miterlimit="10" x1="84.793" y1="263.256" x2="71.59" y2="285.02"/>
				<line fill="none" stroke="#31323D" stroke-miterlimit="10" x1="88.628" y1="263.256" x2="75.425" y2="285.02"/>
				<line fill="none" stroke="#31323D" stroke-miterlimit="10" x1="92.463" y1="263.256" x2="79.26" y2="285.02"/>
				<line fill="none" stroke="#31323D" stroke-miterlimit="10" x1="96.298" y1="263.255" x2="83.095" y2="285.02"/>
				<line fill="none" stroke="#31323D" stroke-miterlimit="10" x1="100.133" y1="263.256" x2="86.93" y2="285.02"/>
				<line fill="none" stroke="#31323D" stroke-miterlimit="10" x1="103.967" y1="263.256" x2="90.765" y2="285.02"/>
				<line fill="none" stroke="#31323D" stroke-miterlimit="10" x1="107.803" y1="263.256" x2="94.6" y2="285.02"/>
				<line fill="none" stroke="#31323D" stroke-miterlimit="10" x1="111.637" y1="263.256" x2="98.435" y2="285.02"/>
				<line fill="none" stroke="#31323D" stroke-miterlimit="10" x1="115.472" y1="263.256" x2="102.269" y2="285.02"/>
				<line fill="none" stroke="#31323D" stroke-miterlimit="10" x1="119.307" y1="263.256" x2="106.104" y2="285.02"/>
				<line fill="none" stroke="#31323D" stroke-miterlimit="10" x1="123.142" y1="263.256" x2="109.938" y2="285.02"/>
				<line fill="none" stroke="#31323D" stroke-miterlimit="10" x1="126.977" y1="263.256" x2="113.773" y2="285.02"/>
				<line fill="none" stroke="#31323D" stroke-miterlimit="10" x1="130.812" y1="263.256" x2="117.608" y2="285.02"/>
				<line fill="none" stroke="#31323D" stroke-miterlimit="10" x1="134.646" y1="263.256" x2="121.443" y2="285.02"/>
				<line fill="none" stroke="#31323D" stroke-miterlimit="10" x1="138.48" y1="263.256" x2="125.278" y2="285.02"/>
				<line fill="none" stroke="#31323D" stroke-miterlimit="10" x1="142.316" y1="263.256" x2="129.113" y2="285.02"/>
				<line fill="none" stroke="#31323D" stroke-miterlimit="10" x1="146.15" y1="263.256" x2="132.948" y2="285.02"/>
				<line fill="none" stroke="#31323D" stroke-miterlimit="10" x1="149.985" y1="263.256" x2="136.782" y2="285.02"/>
				<line fill="none" stroke="#31323D" stroke-miterlimit="10" x1="153.82" y1="263.255" x2="140.617" y2="285.02"/>
				<line fill="none" stroke="#31323D" stroke-miterlimit="10" x1="157.655" y1="263.256" x2="144.452" y2="285.02"/>
				<line fill="none" stroke="#31323D" stroke-miterlimit="10" x1="161.49" y1="263.256" x2="148.287" y2="285.02"/>
				<line fill="none" stroke="#31323D" stroke-miterlimit="10" x1="165.325" y1="263.256" x2="152.122" y2="285.02"/>
				<line fill="none" stroke="#31323D" stroke-miterlimit="10" x1="169.16" y1="263.256" x2="155.957" y2="285.02"/>
				<line fill="none" stroke="#31323D" stroke-miterlimit="10" x1="172.995" y1="263.256" x2="159.792" y2="285.02"/>
				<line fill="none" stroke="#31323D" stroke-miterlimit="10" x1="176.829" y1="263.256" x2="163.627" y2="285.02"/>
				<line fill="none" stroke="#31323D" stroke-miterlimit="10" x1="180.664" y1="263.256" x2="167.462" y2="285.02"/>
				<line fill="none" stroke="#31323D" stroke-miterlimit="10" x1="184.499" y1="263.256" x2="171.297" y2="285.02"/>
				<line fill="none" stroke="#31323D" stroke-miterlimit="10" x1="188.334" y1="263.256" x2="175.132" y2="285.02"/>
				<line fill="none" stroke="#31323D" stroke-miterlimit="10" x1="192.169" y1="263.256" x2="178.967" y2="285.02"/>
				<line fill="none" stroke="#31323D" stroke-miterlimit="10" x1="196.004" y1="263.256" x2="182.802" y2="285.02"/>
				<line fill="none" stroke="#31323D" stroke-miterlimit="10" x1="29.188" y1="263.256" x2="15.984" y2="285.02"/>
				<line fill="none" stroke="#31323D" stroke-miterlimit="10" x1="33.022" y1="263.256" x2="19.819" y2="285.02"/>
				<line fill="none" stroke="#31323D" stroke-miterlimit="10" x1="36.857" y1="263.256" x2="23.654" y2="285.02"/>
				<line fill="none" stroke="#31323D" stroke-miterlimit="10" x1="40.692" y1="263.256" x2="27.489" y2="285.02"/>
				<line fill="none" stroke="#31323D" stroke-miterlimit="10" x1="44.527" y1="263.256" x2="31.324" y2="285.02"/>
				<line fill="none" stroke="#31323D" stroke-miterlimit="10" x1="48.361" y1="263.256" x2="35.159" y2="285.02"/>
				<line fill="none" stroke="#31323D" stroke-miterlimit="10" x1="52.196" y1="263.256" x2="38.994" y2="285.02"/>
				<line fill="none" stroke="#31323D" stroke-miterlimit="10" x1="56.031" y1="263.256" x2="42.829" y2="285.02"/>
				<line fill="none" stroke="#31323D" stroke-miterlimit="10" x1="59.866" y1="263.256" x2="46.663" y2="285.02"/>
				<line fill="none" stroke="#31323D" stroke-miterlimit="10" x1="63.701" y1="263.256" x2="50.498" y2="285.02"/>
				<line fill="none" stroke="#31323D" stroke-miterlimit="10" x1="67.536" y1="263.256" x2="54.333" y2="285.02"/>
				<line fill="none" stroke="#31323D" stroke-miterlimit="10" x1="71.371" y1="263.256" x2="58.168" y2="285.02"/>
				<line fill="none" stroke="#31323D" stroke-miterlimit="10" x1="75.206" y1="263.256" x2="62.003" y2="285.02"/>
				<line fill="none" stroke="#31323D" stroke-miterlimit="10" x1="79.041" y1="263.256" x2="65.838" y2="285.02"/>
				<line fill="none" stroke="#31323D" stroke-miterlimit="10" x1="82.875" y1="263.256" x2="69.673" y2="285.02"/>
				<line fill="none" stroke="#31323D" stroke-miterlimit="10" x1="86.71" y1="263.256" x2="73.508" y2="285.02"/>
				<line fill="none" stroke="#31323D" stroke-miterlimit="10" x1="90.545" y1="263.256" x2="77.343" y2="285.02"/>
				<line fill="none" stroke="#31323D" stroke-miterlimit="10" x1="94.38" y1="263.256" x2="81.178" y2="285.02"/>
				<line fill="none" stroke="#31323D" stroke-miterlimit="10" x1="98.215" y1="263.255" x2="85.013" y2="285.02"/>
				<line fill="none" stroke="#31323D" stroke-miterlimit="10" x1="102.05" y1="263.256" x2="88.847" y2="285.02"/>
				<line fill="none" stroke="#31323D" stroke-miterlimit="10" x1="105.885" y1="263.256" x2="92.682" y2="285.02"/>
				<line fill="none" stroke="#31323D" stroke-miterlimit="10" x1="109.72" y1="263.256" x2="96.517" y2="285.02"/>
				<line fill="none" stroke="#31323D" stroke-miterlimit="10" x1="113.555" y1="263.256" x2="100.352" y2="285.02"/>
				<line fill="none" stroke="#31323D" stroke-miterlimit="10" x1="117.39" y1="263.256" x2="104.187" y2="285.02"/>
				<line fill="none" stroke="#31323D" stroke-miterlimit="10" x1="121.225" y1="263.256" x2="108.021" y2="285.02"/>
				<line fill="none" stroke="#31323D" stroke-miterlimit="10" x1="125.059" y1="263.256" x2="111.856" y2="285.02"/>
				<line fill="none" stroke="#31323D" stroke-miterlimit="10" x1="128.894" y1="263.256" x2="115.691" y2="285.02"/>
				<line fill="none" stroke="#31323D" stroke-miterlimit="10" x1="132.729" y1="263.256" x2="119.526" y2="285.02"/>
				<line fill="none" stroke="#31323D" stroke-miterlimit="10" x1="136.563" y1="263.256" x2="123.36" y2="285.02"/>
				<line fill="none" stroke="#31323D" stroke-miterlimit="10" x1="140.398" y1="263.256" x2="127.195" y2="285.02"/>
				<line fill="none" stroke="#31323D" stroke-miterlimit="10" x1="144.233" y1="263.256" x2="131.031" y2="285.02"/>
				<line fill="none" stroke="#31323D" stroke-miterlimit="10" x1="148.068" y1="263.256" x2="134.865" y2="285.02"/>
				<line fill="none" stroke="#31323D" stroke-miterlimit="10" x1="151.903" y1="263.256" x2="138.7" y2="285.02"/>
				<line fill="none" stroke="#31323D" stroke-miterlimit="10" x1="155.737" y1="263.255" x2="142.535" y2="285.02"/>
				<line fill="none" stroke="#31323D" stroke-miterlimit="10" x1="159.572" y1="263.256" x2="146.37" y2="285.02"/>
				<line fill="none" stroke="#31323D" stroke-miterlimit="10" x1="163.407" y1="263.256" x2="150.205" y2="285.02"/>
				<line fill="none" stroke="#31323D" stroke-miterlimit="10" x1="167.242" y1="263.256" x2="154.039" y2="285.02"/>
				<line fill="none" stroke="#31323D" stroke-miterlimit="10" x1="171.077" y1="263.256" x2="157.874" y2="285.02"/>
				<line fill="none" stroke="#31323D" stroke-miterlimit="10" x1="174.912" y1="263.256" x2="161.709" y2="285.02"/>
				<line fill="none" stroke="#31323D" stroke-miterlimit="10" x1="178.747" y1="263.256" x2="165.544" y2="285.02"/>
				<line fill="none" stroke="#31323D" stroke-miterlimit="10" x1="182.582" y1="263.256" x2="169.379" y2="285.02"/>
				<line fill="none" stroke="#31323D" stroke-miterlimit="10" x1="186.417" y1="263.256" x2="173.214" y2="285.02"/>
				<line fill="none" stroke="#31323D" stroke-miterlimit="10" x1="190.251" y1="263.256" x2="177.049" y2="285.02"/>
				<line fill="none" stroke="#31323D" stroke-miterlimit="10" x1="194.086" y1="263.256" x2="180.883" y2="285.02"/>
				<line fill="none" stroke="#31323D" stroke-miterlimit="10" x1="197.921" y1="263.256" x2="184.719" y2="285.02"/>
				<line fill="none" stroke="#31323D" stroke-miterlimit="10" x1="199.839" y1="263.256" x2="186.637" y2="285.02"/>
				<line fill="none" stroke="#31323D" stroke-miterlimit="10" x1="203.674" y1="263.256" x2="190.471" y2="285.02"/>
				<line fill="none" stroke="#31323D" stroke-miterlimit="10" x1="207.509" y1="263.256" x2="194.306" y2="285.02"/>
				<line fill="none" stroke="#31323D" stroke-miterlimit="10" x1="211.344" y1="263.256" x2="198.141" y2="285.02"/>
				<line fill="none" stroke="#31323D" stroke-miterlimit="10" x1="215.178" y1="263.256" x2="201.976" y2="285.02"/>
				<line fill="none" stroke="#31323D" stroke-miterlimit="10" x1="219.014" y1="263.256" x2="205.811" y2="285.02"/>
				<line fill="none" stroke="#31323D" stroke-miterlimit="10" x1="222.848" y1="263.256" x2="209.646" y2="285.02"/>
				<line fill="none" stroke="#31323D" stroke-miterlimit="10" x1="226.683" y1="263.256" x2="213.479" y2="285.02"/>
				<line fill="none" stroke="#31323D" stroke-miterlimit="10" x1="230.518" y1="263.256" x2="217.314" y2="285.02"/>
				<line fill="none" stroke="#31323D" stroke-miterlimit="10" x1="234.353" y1="263.256" x2="221.149" y2="285.02"/>
				<line fill="none" stroke="#31323D" stroke-miterlimit="10" x1="238.188" y1="263.256" x2="224.984" y2="285.02"/>
				<line fill="none" stroke="#31323D" stroke-miterlimit="10" x1="242.022" y1="263.256" x2="228.819" y2="285.02"/>
				<line fill="none" stroke="#31323D" stroke-miterlimit="10" x1="245.857" y1="263.256" x2="232.654" y2="285.02"/>
				<line fill="none" stroke="#31323D" stroke-miterlimit="10" x1="249.691" y1="263.256" x2="236.489" y2="285.02"/>
				<line fill="none" stroke="#31323D" stroke-miterlimit="10" x1="253.527" y1="263.256" x2="240.324" y2="285.02"/>
				<line fill="none" stroke="#31323D" stroke-miterlimit="10" x1="257.362" y1="263.256" x2="244.159" y2="285.02"/>
				<line fill="none" stroke="#31323D" stroke-miterlimit="10" x1="261.196" y1="263.256" x2="247.993" y2="285.02"/>
				<line fill="none" stroke="#31323D" stroke-miterlimit="10" x1="265.031" y1="263.256" x2="251.828" y2="285.02"/>
				<line fill="none" stroke="#31323D" stroke-miterlimit="10" x1="268.866" y1="263.255" x2="255.664" y2="285.02"/>
				<line fill="none" stroke="#31323D" stroke-miterlimit="10" x1="272.701" y1="263.256" x2="259.498" y2="285.02"/>
				<line fill="none" stroke="#31323D" stroke-miterlimit="10" x1="276.536" y1="263.256" x2="263.333" y2="285.02"/>
				<line fill="none" stroke="#31323D" stroke-miterlimit="10" x1="280.371" y1="263.256" x2="267.168" y2="285.02"/>
				<line fill="none" stroke="#31323D" stroke-miterlimit="10" x1="284.206" y1="263.256" x2="271.003" y2="285.02"/>
				<line fill="none" stroke="#31323D" stroke-miterlimit="10" x1="288.041" y1="263.256" x2="274.838" y2="285.02"/>
				<line fill="none" stroke="#31323D" stroke-miterlimit="10" x1="291.875" y1="263.256" x2="278.673" y2="285.02"/>
				<line fill="none" stroke="#31323D" stroke-miterlimit="10" x1="295.71" y1="263.256" x2="282.507" y2="285.02"/>
				<line fill="none" stroke="#31323D" stroke-miterlimit="10" x1="299.545" y1="263.256" x2="286.342" y2="285.02"/>
				<line fill="none" stroke="#31323D" stroke-miterlimit="10" x1="303.38" y1="263.256" x2="290.178" y2="285.02"/>
				<line fill="none" stroke="#31323D" stroke-miterlimit="10" x1="307.215" y1="263.256" x2="294.012" y2="285.02"/>
				<line fill="none" stroke="#31323D" stroke-miterlimit="10" x1="311.05" y1="263.256" x2="297.847" y2="285.02"/>
				<line fill="none" stroke="#31323D" stroke-miterlimit="10" x1="314.885" y1="263.256" x2="301.682" y2="285.02"/>
				<line fill="none" stroke="#31323D" stroke-miterlimit="10" x1="318.72" y1="263.256" x2="305.517" y2="285.02"/>
				<line fill="none" stroke="#31323D" stroke-miterlimit="10" x1="322.555" y1="263.256" x2="309.352" y2="285.02"/>
				<line fill="none" stroke="#31323D" stroke-miterlimit="10" x1="326.389" y1="263.255" x2="313.187" y2="285.02"/>
				<line fill="none" stroke="#31323D" stroke-miterlimit="10" x1="330.225" y1="263.256" x2="317.021" y2="285.02"/>
				<line fill="none" stroke="#31323D" stroke-miterlimit="10" x1="334.059" y1="263.256" x2="320.856" y2="285.02"/>
				<line fill="none" stroke="#31323D" stroke-miterlimit="10" x1="337.894" y1="263.256" x2="324.69" y2="285.02"/>
				<line fill="none" stroke="#31323D" stroke-miterlimit="10" x1="341.729" y1="263.256" x2="328.525" y2="285.02"/>
				<line fill="none" stroke="#31323D" stroke-miterlimit="10" x1="345.563" y1="263.256" x2="332.361" y2="285.02"/>
				<line fill="none" stroke="#31323D" stroke-miterlimit="10" x1="201.756" y1="263.256" x2="188.554" y2="285.02"/>
				<line fill="none" stroke="#31323D" stroke-miterlimit="10" x1="205.591" y1="263.256" x2="192.389" y2="285.02"/>
				<line fill="none" stroke="#31323D" stroke-miterlimit="10" x1="209.426" y1="263.256" x2="196.223" y2="285.02"/>
				<line fill="none" stroke="#31323D" stroke-miterlimit="10" x1="213.261" y1="263.256" x2="200.058" y2="285.02"/>
				<line fill="none" stroke="#31323D" stroke-miterlimit="10" x1="217.096" y1="263.256" x2="203.893" y2="285.02"/>
				<line fill="none" stroke="#31323D" stroke-miterlimit="10" x1="220.931" y1="263.256" x2="207.728" y2="285.02"/>
				<line fill="none" stroke="#31323D" stroke-miterlimit="10" x1="224.766" y1="263.256" x2="211.563" y2="285.02"/>
				<line fill="none" stroke="#31323D" stroke-miterlimit="10" x1="228.601" y1="263.256" x2="215.397" y2="285.02"/>
				<line fill="none" stroke="#31323D" stroke-miterlimit="10" x1="232.436" y1="263.256" x2="219.232" y2="285.02"/>
				<line fill="none" stroke="#31323D" stroke-miterlimit="10" x1="236.27" y1="263.256" x2="223.067" y2="285.02"/>
				<line fill="none" stroke="#31323D" stroke-miterlimit="10" x1="240.104" y1="263.256" x2="226.901" y2="285.02"/>
				<line fill="none" stroke="#31323D" stroke-miterlimit="10" x1="243.939" y1="263.256" x2="230.737" y2="285.02"/>
				<line fill="none" stroke="#31323D" stroke-miterlimit="10" x1="247.774" y1="263.256" x2="234.571" y2="285.02"/>
				<line fill="none" stroke="#31323D" stroke-miterlimit="10" x1="251.609" y1="263.256" x2="238.406" y2="285.02"/>
				<line fill="none" stroke="#31323D" stroke-miterlimit="10" x1="255.444" y1="263.256" x2="242.241" y2="285.02"/>
				<line fill="none" stroke="#31323D" stroke-miterlimit="10" x1="259.279" y1="263.256" x2="246.076" y2="285.02"/>
				<line fill="none" stroke="#31323D" stroke-miterlimit="10" x1="263.114" y1="263.256" x2="249.911" y2="285.02"/>
				<line fill="none" stroke="#31323D" stroke-miterlimit="10" x1="266.949" y1="263.256" x2="253.746" y2="285.02"/>
				<line fill="none" stroke="#31323D" stroke-miterlimit="10" x1="270.783" y1="263.255" x2="257.581" y2="285.02"/>
				<line fill="none" stroke="#31323D" stroke-miterlimit="10" x1="274.619" y1="263.256" x2="261.416" y2="285.02"/>
				<line fill="none" stroke="#31323D" stroke-miterlimit="10" x1="278.453" y1="263.256" x2="265.251" y2="285.02"/>
				<line fill="none" stroke="#31323D" stroke-miterlimit="10" x1="282.288" y1="263.256" x2="269.086" y2="285.02"/>
				<line fill="none" stroke="#31323D" stroke-miterlimit="10" x1="286.123" y1="263.256" x2="272.92" y2="285.02"/>
				<line fill="none" stroke="#31323D" stroke-miterlimit="10" x1="289.958" y1="263.256" x2="276.755" y2="285.02"/>
				<line fill="none" stroke="#31323D" stroke-miterlimit="10" x1="293.793" y1="263.256" x2="280.59" y2="285.02"/>
				<line fill="none" stroke="#31323D" stroke-miterlimit="10" x1="297.628" y1="263.256" x2="284.425" y2="285.02"/>
				<line fill="none" stroke="#31323D" stroke-miterlimit="10" x1="301.463" y1="263.256" x2="288.26" y2="285.02"/>
				<line fill="none" stroke="#31323D" stroke-miterlimit="10" x1="305.297" y1="263.256" x2="292.095" y2="285.02"/>
				<line fill="none" stroke="#31323D" stroke-miterlimit="10" x1="309.133" y1="263.256" x2="295.93" y2="285.02"/>
				<line fill="none" stroke="#31323D" stroke-miterlimit="10" x1="312.967" y1="263.256" x2="299.765" y2="285.02"/>
				<line fill="none" stroke="#31323D" stroke-miterlimit="10" x1="316.802" y1="263.256" x2="303.599" y2="285.02"/>
				<line fill="none" stroke="#31323D" stroke-miterlimit="10" x1="320.637" y1="263.256" x2="307.434" y2="285.02"/>
				<line fill="none" stroke="#31323D" stroke-miterlimit="10" x1="324.472" y1="263.256" x2="311.269" y2="285.02"/>
				<line fill="none" stroke="#31323D" stroke-miterlimit="10" x1="328.307" y1="263.255" x2="315.104" y2="285.02"/>
				<line fill="none" stroke="#31323D" stroke-miterlimit="10" x1="332.142" y1="263.256" x2="318.938" y2="285.02"/>
				<line fill="none" stroke="#31323D" stroke-miterlimit="10" x1="335.977" y1="263.256" x2="322.773" y2="285.02"/>
				<line fill="none" stroke="#31323D" stroke-miterlimit="10" x1="339.812" y1="263.256" x2="326.608" y2="285.02"/>
				<line fill="none" stroke="#31323D" stroke-miterlimit="10" x1="343.646" y1="263.256" x2="330.443" y2="285.02"/>
				<line fill="none" stroke="#31323D" stroke-miterlimit="10" x1="347.481" y1="263.256" x2="334.278" y2="285.02"/>
			</g>
		</g>
	</g>
	<path id="XMLID_2_" fill="none" stroke="#31323D" stroke-width="2" stroke-miterlimit="10" d="M302.385,273.85
		c-4.121-0.666-18.002-3.756-26.249-8.021c-2.313-1.196-6.256-4.019-8.809-4.526c-0.364-0.072-0.752-0.125-1.149-0.164
		c1.054-2.799,1.531-5.814,1.337-8.799c-0.16-2.462-0.841-5.041-2.648-6.722s-4.607-1.927-6.294-0.124
		c1.228-6.197-2.539-13.006-8.441-15.258s-13.067,1.107-16.279,6.547c1.135-2.946,1.967-6.203,1.096-9.238
		c-0.872-3.034-3.991-5.605-7.061-4.864c-0.894-1.745-1.905-3.608-3.677-4.445c-1.772-0.837-4.869-0.246-4.956,1.712
		c-0.088-2.004-1.605-3.862-3.552-4.351c-1.946-0.487-3.56,0.828-4.581,2.555c-1.247-3.813-3.082-7.521-5.944-10.331
		c-2.863-2.812-6.866-4.633-10.858-4.231c-3.99,0.402-7.786,3.334-8.566,7.27c-1.161-0.622-2.656-0.565-3.768,0.142
		c-1.112,0.705-0.859,1.902-0.788,3.218c-6.404-1.114-13.317,1.401-17.507,6.372c-4.188,4.972-5.402,12.285-3.22,18.408
		c-2.17-1.554-5.132-1.933-7.623-0.975c-2.491,0.957-4.438,3.223-5.008,5.83c-0.386-1.561-2.003-2.715-3.604-2.574
		c-1.602,0.143-2.509,0.549-2.613,2.152c-6.012-9.111-18.494-13.34-28.806-9.76s-17.07,14.656-16.143,25.531
		c-3.739-2.365-8.438-3.162-12.746-2.16c-4.31,1.002-8.175,3.789-10.487,7.562c-1.255,2.047-2.038,4.724-0.837,6.803
		c-2.659-1.767-6.795-1.261-8.998,1.052c-5.506-2.234-6.453-0.827-11.872,1.61c-8.124,3.654-15.967,3.654-21.909,3.654h17.638
		c19.261,0,27.931,5.017,39.96,1.899c16.545,4.579,33.895,4.257,50.405-0.446c5.512,2.863,11.934,2.721,17.561,0.088
		c13.445,3.305,27.589,2.944,40.898-0.87c2.907,1.509,6.558,1.192,9.501-0.244c9.519,3.389,19.915,3.374,29.744,1.034
		c5.447,2.713,11.75,2.407,17.208-0.283c9.088,2.652,18.769,2.523,27.931,0.139c4.085,1.215,8.947,1.124,13.021-0.132
		c2.01-0.62,4.19-0.98,6.585-1.185l30.573-0.896C313.898,276.151,319.257,275.837,302.385,273.85z"/>
</g>
</svg>
