<?xml version="1.0" encoding="utf-8"?>
<!-- Generator: Adobe Illustrator 16.0.0, SVG Export Plug-In . SVG Version: 6.00 Build 0)  -->
<!DOCTYPE svg PUBLIC "-//W3C//DTD SVG 1.1//EN" "http://www.w3.org/Graphics/SVG/1.1/DTD/svg11.dtd">
<svg version="1.1" xmlns="http://www.w3.org/2000/svg" xmlns:xlink="http://www.w3.org/1999/xlink" x="0px" y="0px" width="360px"
	 height="360px" viewBox="0 0 360 360" enable-background="new 0 0 360 360" xml:space="preserve">
<g id="Layer_2">
	<ellipse opacity="0.3" cx="184.676" cy="276.396" rx="74.333" ry="4.271"/>
</g>
<g id="Layer_1">
	<g>
		<path fill="#EFCDE2" d="M178.733,107.723"/>
		<polygon opacity="0.16" fill="#5B8055" enable-background="new    " points="114.588,189.258 155.889,205.625 176.44,263.254 		
			"/>
		<path opacity="0.16" fill="#4FB756" enable-background="new    " d="M114.588,184.805l33.905-13.058c0,0-5.498,6.828-0.229,16.243
			c5.268,9.417,5.04,11.705,5.04,11.705L114.588,184.805z"/>
		<polygon opacity="0.16" fill="#5B8055" enable-background="new    " points="149.151,165.962 114.817,178.949 175.983,83.65 		"/>
		<path fill="#37B258" d="M255.465,122.142c1.502,1.833,4.123,2.219,5.855,0.86l14.623-11.459c1.734-1.361,1.924-3.949,0.424-5.783
			l0,0c-1.498-1.833-4.119-2.218-5.852-0.86l-14.625,11.461C254.158,117.72,253.967,120.306,255.465,122.142L255.465,122.142z"/>
		<path fill="#37B258" d="M109.276,122.142c-1.499,1.833-4.121,2.219-5.854,0.86l-14.623-11.459
			c-1.734-1.361-1.925-3.949-0.425-5.783l0,0c1.5-1.833,4.121-2.218,5.855-0.86l14.624,11.461
			C110.586,117.72,110.775,120.306,109.276,122.142L109.276,122.142z"/>
		<path fill="#37B258" d="M255.465,242.525c1.502-1.834,4.123-2.221,5.855-0.863l14.623,11.461c1.734,1.359,1.924,3.949,0.424,5.781
			l0,0c-1.498,1.834-4.121,2.219-5.852,0.861l-14.625-11.459C254.158,246.945,253.967,244.357,255.465,242.525L255.465,242.525z"/>
		<path fill="#37B258" d="M109.276,242.525c-1.499-1.834-4.121-2.221-5.854-0.863l-14.623,11.461
			c-1.734,1.359-1.925,3.949-0.425,5.781l0,0c1.5,1.834,4.121,2.219,5.855,0.861l14.624-11.459
			C110.586,246.945,110.775,244.357,109.276,242.525L109.276,242.525z"/>
	</g>
	<line fill="none" stroke="#7FC68F" stroke-width="4" stroke-miterlimit="10" x1="109.124" y1="183.801" x2="179.25" y2="241.17"/>
	
		<line fill="none" stroke="#7FC68F" stroke-width="4" stroke-miterlimit="10" x1="126.602" y1="207.006" x2="168.039" y2="222.285"/>
	<path fill="#7FC68F" d="M181.188,240.445c0,1.506-1.234,2.727-2.758,2.727c-1.522,0-2.758-1.221-2.758-2.727
		s1.235-2.727,2.758-2.727C179.954,237.719,181.188,238.939,181.188,240.445z"/>
	<path fill="#7FC68F" d="M180.302,270.08c0,1.504-1.235,2.727-2.758,2.727c-1.523,0-2.759-1.223-2.759-2.727
		c0-1.508,1.235-2.727,2.759-2.727S180.302,268.572,180.302,270.08z"/>
	
		<ellipse fill="#37B258" stroke="#37B258" stroke-width="6" stroke-miterlimit="10" cx="126.637" cy="207.396" rx="2.758" ry="2.727"/>
	
		<line fill="none" stroke="#7FC68F" stroke-width="4" stroke-miterlimit="10" x1="167.867" y1="219.613" x2="169.934" y2="247.723"/>
	
		<line fill="none" stroke="#7FC68F" stroke-width="4" stroke-miterlimit="10" x1="138.734" y1="222.006" x2="168.199" y2="222.285"/>
	
		<ellipse fill="#37B258" stroke="#37B258" stroke-width="6" stroke-miterlimit="10" cx="138.734" cy="222.007" rx="2.757" ry="2.728"/>
	<polyline fill="none" stroke="#7FC68F" stroke-width="4" stroke-miterlimit="10" points="150.324,236.078 169.819,246.166 
		178.43,267.354 	"/>
	
		<ellipse fill="#37B258" stroke="#37B258" stroke-width="6" stroke-miterlimit="10" cx="150.324" cy="236.079" rx="2.759" ry="2.728"/>
	
		<line fill="none" stroke="#7FC68F" stroke-width="4" stroke-miterlimit="10" x1="161.915" y1="249.557" x2="168.039" y2="221.955"/>
	
		<ellipse fill="#37B258" stroke="#37B258" stroke-width="6" stroke-miterlimit="10" cx="161.914" cy="249.557" rx="2.758" ry="2.729"/>
	
		<line fill="none" stroke="#7FC68F" stroke-width="4" stroke-miterlimit="10" x1="248.752" y1="183.715" x2="177.473" y2="241.086"/>
	<line fill="none" stroke="#7FC68F" stroke-width="4" stroke-miterlimit="10" x1="230.986" y1="206.92" x2="188.869" y2="222.201"/>
	<path fill="#7FC68F" stroke="#37B258" stroke-width="6" stroke-miterlimit="10" d="M175.503,240.361
		c0,1.504,1.254,2.727,2.802,2.727c1.549,0,2.805-1.223,2.805-2.727c0-1.508-1.256-2.727-2.805-2.727
		C176.758,237.635,175.503,238.854,175.503,240.361z"/>
	
		<ellipse fill="#37B258" stroke="#37B258" stroke-width="6" stroke-miterlimit="10" cx="231.459" cy="207.312" rx="2.803" ry="2.728"/>
	
		<line fill="none" stroke="#7FC68F" stroke-width="4" stroke-miterlimit="10" x1="189.043" y1="219.527" x2="186.941" y2="247.639"/>
	<line fill="none" stroke="#7FC68F" stroke-width="4" stroke-miterlimit="10" x1="218.656" y1="221.92" x2="188.705" y2="222.201"/>
	
		<ellipse fill="#37B258" stroke="#37B258" stroke-width="6" stroke-miterlimit="10" cx="219.162" cy="221.921" rx="2.803" ry="2.728"/>
	<polyline fill="none" stroke="#7FC68F" stroke-width="4" stroke-miterlimit="10" points="207.383,235.994 187.566,246.08 
		178.814,267.268 	"/>
	
		<ellipse fill="#37B258" stroke="#37B258" stroke-width="6" stroke-miterlimit="10" cx="206.875" cy="235.994" rx="2.803" ry="2.729"/>
	
		<line fill="none" stroke="#7FC68F" stroke-width="4" stroke-miterlimit="10" x1="195.094" y1="249.471" x2="188.869" y2="221.869"/>
	
		<ellipse fill="#37B258" stroke="#37B258" stroke-width="6" stroke-miterlimit="10" cx="195.094" cy="249.979" rx="2.803" ry="2.727"/>
	<path fill="#37B258" stroke="#37B258" stroke-width="3" stroke-miterlimit="10" d="M184.166,266.777
		c0,3.059-2.505,5.535-5.594,5.535l0,0c-3.09,0-5.595-2.477-5.595-5.535l0,0c0-3.057,2.506-5.535,5.595-5.535l0,0
		C181.661,261.242,184.166,263.721,184.166,266.777L184.166,266.777z"/>
	<path fill="#7FC68F" stroke="#7FC68F" stroke-miterlimit="10" d="M192.471,222.145c0,2.057-1.686,3.725-3.766,3.725
		s-3.764-1.668-3.764-3.725s1.686-3.721,3.764-3.721C190.785,218.424,192.471,220.088,192.471,222.145z"/>
	<path fill="#7FC68F" stroke="#7FC68F" stroke-miterlimit="10" d="M184.254,245.602c0,1.506,1.256,2.727,2.805,2.727
		c1.547,0,2.803-1.221,2.803-2.727c0-1.508-1.256-2.727-2.803-2.727C185.51,242.875,184.254,244.094,184.254,245.602z"/>
	<path fill="#7FC68F" stroke="#7FC68F" stroke-miterlimit="10" d="M172.578,245.688c0,1.504-1.235,2.727-2.758,2.727
		c-1.523,0-2.757-1.223-2.757-2.727c0-1.508,1.234-2.729,2.757-2.729C171.343,242.959,172.578,244.18,172.578,245.688z"/>
	<path fill="#7FC68F" stroke="#7FC68F" stroke-miterlimit="10" d="M171.632,222.285c0,2.055-1.686,3.723-3.765,3.723
		s-3.765-1.668-3.765-3.723c0-2.057,1.686-3.723,3.765-3.723C169.947,218.563,171.632,220.229,171.632,222.285z"/>
	
		<line fill="none" stroke="#7FC68F" stroke-width="4" stroke-miterlimit="10" x1="109.501" y1="184.906" x2="178.306" y2="137.393"/>
	<polyline fill="none" stroke="#7FC68F" stroke-width="4" stroke-miterlimit="10" points="162.246,183.801 164.977,118.847 
		130.045,149.502 161.915,184.906 121.201,163.367 121.201,164.348 159.156,204.584 	"/>
	<polyline fill="none" stroke="#7FC68F" stroke-width="4" stroke-miterlimit="10" points="156.933,108.156 161.915,184.906 
		148.131,121.604 	"/>
	<line fill="none" stroke="#7FC68F" stroke-width="4" stroke-miterlimit="10" x1="161.915" y1="184.906" x2="178.43" y2="211.791"/>
	<line fill="none" stroke="#37B258" stroke-width="4" stroke-miterlimit="10" x1="148.986" y1="121.189" x2="145.401" y2="198.73"/>
	
		<line fill="none" stroke="#37B258" stroke-width="4" stroke-miterlimit="10" x1="130.045" y1="192.703" x2="130.045" y2="149.502"/>
	<polyline fill="none" stroke="#37B258" stroke-width="4" stroke-miterlimit="10" points="178.531,76.519 165.68,118.847 
		178.43,212.486 	"/>
	<path fill="#37B258" stroke="#37B258" stroke-width="3" stroke-miterlimit="10" d="M116.594,185.432
		c0,3.059-2.505,5.535-5.594,5.535l0,0c-3.088,0-5.594-2.477-5.594-5.535l0,0c0-3.057,2.505-5.535,5.594-5.535l0,0
		C114.088,179.895,116.594,182.375,116.594,185.432L116.594,185.432z"/>
	
		<ellipse transform="matrix(0.9534 -0.3018 0.3018 0.9534 -25.3259 52.4028)" fill="#37B258" stroke="#37B258" stroke-width="6" stroke-miterlimit="10" cx="156.941" cy="108.17" rx="2.727" ry="2.757"/>
	
		<ellipse transform="matrix(0.9534 -0.3017 0.3017 0.9534 -29.7895 50.3654)" fill="#37B258" stroke="#37B258" stroke-width="6" stroke-miterlimit="10" cx="148.144" cy="121.615" rx="2.728" ry="2.759"/>
	
		<ellipse transform="matrix(0.9534 -0.3017 0.3017 0.9534 -39.0501 46.2081)" fill="#37B258" stroke="#37B258" stroke-width="6" stroke-miterlimit="10" cx="130.056" cy="149.514" rx="2.728" ry="2.759"/>
	
		<ellipse transform="matrix(0.9535 -0.3015 0.3015 0.9535 -43.6128 44.1337)" fill="#37B258" stroke="#37B258" stroke-width="6" stroke-miterlimit="10" cx="121.181" cy="163.367" rx="2.727" ry="2.758"/>
	
		<ellipse transform="matrix(0.9535 -0.3015 0.3015 0.9535 -28.1597 55.282)" fill="#37B258" stroke="#37B258" stroke-width="6" stroke-miterlimit="10" cx="164.995" cy="118.858" rx="2.727" ry="2.758"/>
	<path fill="#7FC68F" stroke="#7FC68F" stroke-miterlimit="10" d="M166.686,187.15c0,2.055-1.684,3.725-3.764,3.725
		c-2.079,0-3.766-1.67-3.766-3.725c0-2.057,1.687-3.723,3.766-3.723C165.001,183.428,166.686,185.094,166.686,187.15z"/>
	
		<ellipse transform="matrix(0.9534 -0.3018 0.3018 0.9534 -52.0981 48.2276)" fill="#37B258" stroke="#37B258" stroke-width="6" stroke-miterlimit="10" cx="130.025" cy="192.714" rx="2.728" ry="2.759"/>
	
		<ellipse transform="matrix(0.9533 -0.3021 0.3021 0.9533 -53.2408 53.2005)" fill="#37B258" stroke="#37B258" stroke-width="6" stroke-miterlimit="10" cx="145.377" cy="198.729" rx="3.582" ry="3.622"/>
	
		<ellipse transform="matrix(0.9534 -0.3019 0.3019 0.9534 -54.3357 57.5768)" fill="#37B258" stroke="#37B258" stroke-width="6" stroke-miterlimit="10" cx="159.129" cy="204.599" rx="2.727" ry="2.756"/>
	
		<line fill="none" stroke="#7FC68F" stroke-width="4" stroke-miterlimit="10" x1="248.281" y1="185.718" x2="179.476" y2="138.202"/>
	<polyline fill="none" stroke="#7FC68F" stroke-width="4" stroke-miterlimit="10" points="195.537,184.609 192.805,119.657 
		227.736,150.312 195.867,185.718 236.58,164.178 236.58,165.158 198.627,205.395 	"/>
	<polyline fill="none" stroke="#7FC68F" stroke-width="4" stroke-miterlimit="10" points="200.85,108.966 195.867,185.718 
		209.648,122.413 	"/>
	<line fill="none" stroke="#7FC68F" stroke-width="4" stroke-miterlimit="10" x1="195.867" y1="185.718" x2="179.351" y2="212.6"/>
	
		<line fill="none" stroke="#37B258" stroke-width="4" stroke-miterlimit="10" x1="208.797" y1="121.999" x2="212.381" y2="199.541"/>
	
		<line fill="none" stroke="#37B258" stroke-width="4" stroke-miterlimit="10" x1="227.736" y1="193.512" x2="227.736" y2="150.312"/>
	<polyline fill="none" stroke="#37B258" stroke-width="4" stroke-miterlimit="10" points="179.25,77.329 192.104,119.657 
		179.353,213.295 	"/>
	
		<ellipse transform="matrix(0.9535 0.3015 -0.3015 0.9535 42.1977 -55.4769)" fill="#37B258" stroke="#37B258" stroke-width="6" stroke-miterlimit="10" cx="200.837" cy="108.977" rx="2.727" ry="2.758"/>
	
		<ellipse transform="matrix(0.9534 0.3018 -0.3018 0.9534 46.7243 -57.5628)" fill="#37B258" stroke="#37B258" stroke-width="6" stroke-miterlimit="10" cx="209.647" cy="122.428" rx="2.728" ry="2.759"/>
	
		<ellipse transform="matrix(0.9534 0.3018 -0.3018 0.9534 55.9881 -61.7202)" fill="#37B258" stroke="#37B258" stroke-width="6" stroke-miterlimit="10" cx="227.733" cy="150.329" rx="2.728" ry="2.757"/>
	
		<ellipse transform="matrix(0.9534 0.3017 -0.3017 0.9534 60.5567 -63.7191)" fill="#37B258" stroke="#37B258" stroke-width="6" stroke-miterlimit="10" cx="236.561" cy="164.185" rx="2.729" ry="2.759"/>
	
		<ellipse transform="matrix(0.9533 0.3019 -0.3019 0.9533 45.1237 -52.6209)" fill="#37B258" stroke="#37B258" stroke-width="6" stroke-miterlimit="10" cx="192.793" cy="119.667" rx="2.727" ry="2.757"/>
	<path fill="#37B258" stroke="#37B258" stroke-width="6" stroke-miterlimit="10" d="M184.025,211.791
		c0,3.057-2.507,5.535-5.595,5.535l0,0c-3.089,0-5.594-2.479-5.594-5.535l0,0c0-3.059,2.504-5.537,5.594-5.537l0,0
		C181.519,206.254,184.025,208.732,184.025,211.791L184.025,211.791z"/>
	
		<ellipse transform="matrix(0.9534 0.3018 -0.3018 0.9534 68.725 -59.9672)" fill="#37B258" stroke="#37B258" stroke-width="6" stroke-miterlimit="10" cx="228.429" cy="192.425" rx="2.728" ry="2.757"/>
	<path fill="#37B258" stroke="#37B258" stroke-width="6" stroke-miterlimit="10" d="M211.984,201.891
		c1.885,0.596,3.904-0.467,4.51-2.373c0.602-1.906-0.438-3.938-2.324-4.535c-1.885-0.596-3.902,0.467-4.506,2.373
		S210.1,201.292,211.984,201.891z"/>
	
		<ellipse transform="matrix(0.9534 0.3018 -0.3018 0.9534 70.9519 -50.6186)" fill="#37B258" stroke="#37B258" stroke-width="6" stroke-miterlimit="10" cx="199.288" cy="204.306" rx="2.728" ry="2.758"/>
	
		<ellipse transform="matrix(0.9534 -0.3017 0.3017 0.9534 -33.1503 60.2082)" fill="#37B258" stroke="#37B258" stroke-width="6" stroke-miterlimit="10" cx="178.309" cy="137.406" rx="2.727" ry="2.759"/>
	<path fill="#37B258" stroke="#37B258" stroke-width="3" stroke-miterlimit="10" d="M184.166,77.045
		c0,3.058-2.505,5.536-5.594,5.536l0,0c-3.09,0-5.595-2.479-5.595-5.536l0,0c0-3.058,2.506-5.536,5.595-5.536l0,0
		C181.661,71.509,184.166,73.987,184.166,77.045L184.166,77.045z"/>
	<path fill="#7FC68F" stroke="#7FC68F" stroke-miterlimit="10" d="M197.877,187.15c0,2.055-1.686,3.725-3.764,3.725
		c-2.08,0-3.766-1.67-3.766-3.725c0-2.057,1.686-3.723,3.766-3.723C196.191,183.428,197.877,185.094,197.877,187.15z"/>
	<path fill="#37B258" stroke="#37B258" stroke-width="3" stroke-miterlimit="10" d="M252.137,184.906
		c0,3.058-2.506,5.537-5.594,5.537l0,0c-3.09,0-5.596-2.479-5.596-5.537l0,0c0-3.058,2.506-5.535,5.596-5.535l0,0
		C249.631,179.371,252.137,181.849,252.137,184.906L252.137,184.906z"/>
	<g>
		<path fill="none" stroke="#37B258" stroke-width="11" stroke-miterlimit="10" d="M110.717,180.865l65.974-105.354
			c0,0,2.269-3.755,4.904,0.623c2.636,4.378,66.171,105.434,66.171,105.434s5.346,6.242,0,10.897
			c-5.344,4.651-66.095,77.421-66.095,77.421s-2.547,3.383-5.258,0c-2.711-3.385-64.984-79.133-64.984-79.133
			S105.115,186.242,110.717,180.865z"/>
		<rect x="176.691" y="75.512" fill="#37B258" width="5.619" height="197.615"/>
		
			<rect x="142.56" y="133.302" transform="matrix(0.3479 0.9375 -0.9375 0.3479 255.7343 -24.3478)" fill="#37B258" width="5.619" height="76.714"/>
		
			<rect x="213.401" y="134.345" transform="matrix(-0.3477 0.9376 -0.9376 -0.3477 453.3057 30.0179)" fill="#37B258" width="5.618" height="76.712"/>
		
			<rect x="143.091" y="161.354" transform="matrix(0.3478 -0.9376 0.9376 0.3478 -92.0867 267.0408)" fill="#37B258" width="5.618" height="76.714"/>
		
			<rect x="213.931" y="160.312" transform="matrix(-0.3476 -0.9376 0.9376 -0.3476 105.799 470.9507)" fill="#37B258" width="5.619" height="76.714"/>
	</g>
</g>
</svg>
