<?xml version="1.0" encoding="utf-8"?>
<!-- Generator: Adobe Illustrator 16.0.0, SVG Export Plug-In . SVG Version: 6.00 Build 0)  -->
<!DOCTYPE svg PUBLIC "-//W3C//DTD SVG 1.1//EN" "http://www.w3.org/Graphics/SVG/1.1/DTD/svg11.dtd">
<svg version="1.1" id="Layer_1" xmlns="http://www.w3.org/2000/svg" xmlns:xlink="http://www.w3.org/1999/xlink" x="0px" y="0px"
	 width="360px" height="360px" viewBox="0 0 360 360" enable-background="new 0 0 360 360" xml:space="preserve">
<ellipse opacity="0.7" fill="#31333E" cx="172.592" cy="242.698" rx="109.883" ry="11.56"/>
<g>
	<g>
		<path fill="#F5908A" d="M196.32,61.592c0,0,4.784-0.07,5.137-4.433c0,0,0.07-3.377-3.729-2.251c0,0-0.685-1.759-3.086-0.985
			C192.24,54.697,192.521,60.114,196.32,61.592z"/>
		<path fill="#F8B0AE" d="M194.838,54.5c0,0,0.633,2.308,1.125,2.448c0,0-0.914,1.196-0.563,3.87
			C195.4,60.818,190.616,55.43,194.838,54.5z"/>
		<path fill="#FFFFFF" d="M193.865,54.789c0,0,0.493,2.237,1.479,2.659l-1.479,0.985C193.865,58.434,192.6,56.984,193.865,54.789z"
			/>
		<path fill="#DD7D76" d="M200.572,57.659c0,0-2.04,2.744-4.15,3.377c0,0,2.462,0.352,4.15-2.533V57.659z"/>
		<path fill="none" stroke="#3F404B" stroke-miterlimit="10" d="M196.32,61.592c0,0,4.784-0.07,5.137-4.433
			c0,0,0.07-3.377-3.729-2.251c0,0-0.685-1.759-3.086-0.985C192.24,54.697,192.521,60.114,196.32,61.592z"/>
	</g>
	<path fill="none" stroke="#3F404B" stroke-miterlimit="10" d="M196.32,61.592c0,0-1.025,13.156-10.193,26.945"/>
</g>
<g>
	<g>
		<path fill="#F5908A" d="M138.834,60.695c0,0,3.417-2.458,1.478-5.783c0,0-1.648-2.473-3.824,0.251c0,0-1.379-0.926-2.723,0.841
			S135.349,61.539,138.834,60.695z"/>
		<path fill="#F8B0AE" d="M134.197,56.322c0,0,1.618,1.347,2.044,1.201c0,0-0.059,1.323,1.54,3.075
			C137.781,60.599,131.618,59.116,134.197,56.322z"/>
		<path fill="#FFFFFF" d="M133.641,57.02c0,0,1.481,1.366,2.404,1.176l-0.571,1.454C135.474,59.649,133.831,59.241,133.641,57.02z"
			/>
		<path fill="#DD7D76" d="M139.925,55.718c0,0-0.092,3.007-1.297,4.525c0,0,1.954-0.985,1.722-3.916L139.925,55.718z"/>
		<path fill="none" stroke="#3F404B" stroke-miterlimit="10" d="M138.834,60.695c0,0,3.417-2.458,1.478-5.783
			c0,0-1.648-2.473-3.824,0.251c0,0-1.379-0.926-2.723,0.841S135.349,61.539,138.834,60.695z"/>
	</g>
	<path fill="none" stroke="#3F404B" stroke-miterlimit="10" d="M138.834,60.695c0,0-0.333,14.637,8.532,31.104"/>
</g>
<g>
	<path fill="#F9A03F" d="M122.007,190.63c0,0-11.145,0.306-19.568-8.786c0,0,4.505,7.729,20.88,10.48L122.007,190.63z"/>
	<g>
		<path fill="#FAE887" d="M106.595,188.366c0,0-18.129-0.522-25.893,9.918c-7.763,10.439-5.266,29.355,13.6,30.836
			c18.865,1.479,24.154-14.356,24.154-14.356l10.005-24.104L106.595,188.366z"/>
		<path fill="none" stroke="#F9A03E" stroke-miterlimit="10" d="M118.457,214.764c0,0-15.196,11.397-25.854,5.372
			c-10.658-6.025-7.031-21.768,4.437-30.824"/>
		<line fill="none" stroke="#F9A03E" stroke-miterlimit="10" x1="100.651" y1="221.868" x2="97.285" y2="229.212"/>
		<path fill="none" stroke="#F9A03E" stroke-miterlimit="10" d="M89.775,218.071c0,0-5.279,2.233-8.383,5.763"/>
		<path fill="none" stroke="#F9A03E" stroke-miterlimit="10" d="M86.356,210.712c0,0-7.695,1.238-9.643,2.604"/>
		<path fill="none" stroke="#F9A03E" stroke-miterlimit="10" d="M87.532,201.989c0,0-5.249-1.467-8.254-0.569"/>
		<path fill="none" stroke="#F9A03E" stroke-miterlimit="10" d="M88.702,191.952c0,0-12.328,7.195-11.253,21.766
			c1.073,14.571,19.988,15.405,20.079,14.983"/>
		<path fill="#FFFFFF" d="M99.319,215.185c-0.423,1.403,0.371,2.884,1.775,3.308c1.403,0.424,2.884-0.371,3.308-1.775
			c0.423-1.403-0.372-2.884-1.774-3.308C101.224,212.986,99.743,213.781,99.319,215.185z"/>
		<path fill="#CF92C0" d="M109.367,192.973c0,0-8.819,2.581-9.963,8.39c-1.145,5.807,4.723,11.289,11.379,9.617
			c6.657-1.671,14.158-17.714,14.158-17.714S110.083,191.821,109.367,192.973z"/>
		<g>
			<path fill="#F68729" d="M100.354,207.777c-0.519,1.72,0.455,3.534,2.175,4.054c1.72,0.519,3.535-0.455,4.054-2.175
				c0.519-1.721-0.455-3.535-2.175-4.054C102.687,205.083,100.873,206.058,100.354,207.777z"/>
			<path opacity="0.3" fill="#FBDAD0" enable-background="new    " d="M106.144,207.196c0,0-0.311,3.651-5.268,3.182
				c0,0,1.67,2.075,3.923,0.932C107.053,210.167,106.562,207.607,106.144,207.196z"/>
			<path fill="#FFFFFF" d="M104.952,208.223c-0.113,0.372-0.022,0.729,0.201,0.795c0.224,0.067,0.496-0.179,0.608-0.551
				c0.112-0.372,0.022-0.728-0.202-0.796C105.336,207.604,105.064,207.851,104.952,208.223z"/>
			<path fill="#FFFFFF" d="M101.457,210.155c-0.061,0.201,0.054,0.414,0.256,0.475c0.202,0.062,0.415-0.053,0.476-0.255
				c0.061-0.201-0.054-0.415-0.255-0.476C101.731,209.839,101.518,209.952,101.457,210.155z"/>
			<path fill="#FBDAD0" d="M106.389,207.702c0,0-0.731,4.011-4.609,3.554c0,0,2.061,1.321,3.567-0.189
				C106.854,209.556,106.906,208.159,106.389,207.702z"/>
			<path fill="none" stroke="#272C3E" stroke-miterlimit="10" d="M100.354,207.777c-0.519,1.72,0.455,3.534,2.175,4.054
				c1.72,0.519,3.535-0.455,4.054-2.175c0.519-1.721-0.455-3.535-2.175-4.054C102.687,205.083,100.873,206.058,100.354,207.777z"/>
		</g>
		<path fill="#FFFFFF" d="M91.641,210.582c-0.346,1.146,0.303,2.355,1.449,2.7c1.146,0.346,2.354-0.303,2.7-1.448
			c0.346-1.146-0.303-2.355-1.448-2.7C93.196,208.788,91.986,209.437,91.641,210.582z"/>
		<path fill="#FFFFFF" d="M91.843,202.764c-0.258,0.855,0.226,1.758,1.081,2.016c0.855,0.257,1.758-0.227,2.016-1.081
			c0.258-0.855-0.227-1.758-1.081-2.016C93.003,201.425,92.101,201.909,91.843,202.764z"/>
		<path fill="#F9A03F" d="M94.256,196.313c-0.258,0.854,0.226,1.757,1.081,2.016c0.855,0.257,1.758-0.227,2.016-1.082
			s-0.227-1.757-1.082-2.015C95.416,194.974,94.514,195.458,94.256,196.313z"/>
		<path fill="none" stroke="#31343F" stroke-miterlimit="10" d="M106.61,188.314c0,0-18.129-0.521-25.892,9.918
			c-7.764,10.44-5.266,29.355,13.599,30.836c18.865,1.479,24.155-14.356,24.155-14.356l10.004-24.104L106.61,188.314z"/>
	</g>
	<g>
		<path fill="#FAE887" stroke="#31343F" stroke-miterlimit="10" d="M141.183,187.086c0,0-13.296-34.672-26.928-48.404
			c-13.631-13.733-18.229-13.739-24.138-13.219c-6.183,0.545-13.543,12.278-6.525,21.633c0,0,2.41,2.535,1.44,4.615
			c-0.969,2.08-6.933,10.519,6.44,27.379C91.47,179.09,109.699,204.025,141.183,187.086z"/>
		<path fill="#F9A03F" d="M128.063,172.586c0,0-12.323-25.251-33.389-37.759c0,0,22.285,15.268,31.771,36.702
			c0,0-13.415-0.856-37.509-28.634C88.937,142.896,109.864,170.971,128.063,172.586z"/>
		<path fill="#FCD639" d="M117.261,164.659c0,0,0.496-10.332-2.171-15.467c-2.667-5.135-6.335-11.481-15.688-10.315
			c-9.354,1.167-8.013,12.966-6.93,15.799S102.141,165.682,117.261,164.659z"/>
		<path fill="#D56B4D" d="M95.947,147.8c-1.187,3.936,1.041,8.09,4.978,9.277c3.937,1.187,8.09-1.041,9.277-4.978
			c1.188-3.937-1.041-8.091-4.978-9.278C101.288,141.635,97.134,143.863,95.947,147.8z"/>
		<path fill="#DD807C" d="M108.67,145.718c0,0-0.818,11.295-12.619,5.361c0,0,0.309,5.055,5.719,5.717
			C107.179,157.456,113.102,152.124,108.67,145.718z"/>
		<path fill="#FFFFFF" d="M101.847,145.688c-0.13,0.432,0.115,0.889,0.547,1.02c0.433,0.13,0.889-0.115,1.02-0.547
			c0.13-0.433-0.114-0.89-0.547-1.02C102.435,145.011,101.978,145.256,101.847,145.688z"/>
		<path opacity="0.4" fill="#FFFFFF" enable-background="new    " d="M101.238,146.359c-0.13,0.432,0.114,0.889,0.547,1.02
			c0.433,0.13,0.889-0.115,1.02-0.547c0.13-0.433-0.114-0.89-0.547-1.021C101.825,145.682,101.369,145.927,101.238,146.359z"/>
		<path fill="#FADE34" d="M136.875,177.733c0,0-13.673-30.367-24.482-40.616c-10.81-10.249-17.216-12.614-22.218-10.955
			c0,0,20.881-2.673,46.5,52.233L136.875,177.733z"/>
		<path fill="#F9A03F" d="M90.039,125.696c0,0-4.413,0.2-7.409,5.499c0,0-4.668,6.173,0.438,15.523c0,0,4.438,2.636,1.713,5.488
			c-2.726,2.854-3.856,14.708,4.27,23.628c9.634,10.574,11.922,16.408,35.531,16.715c0,0-18.05,0.329-29.812-12.461
			c0,0,2.737-1.603-0.802-4.813l-2.699,0.702l-3.499-5.404c0,0,6.547-3.156-1.623-2.864c0,0-3.048-6.126-2.237-9.327l4.755-2.625
			c0,0,0.921-4.086-2.767-4.739l0.742-1.689c0,0-5.492-7.554-4.751-12.843c0,0,5.339-1.988,6.016-1.784l0.987-3.914l-1.357-1.941
			l0.521-1.986L90.039,125.696z"/>
		<path fill="#FFFFFF" d="M106.338,149.682c-0.273,0.904-0.073,1.764,0.446,1.92c0.52,0.157,1.161-0.448,1.434-1.353
			c0.272-0.903,0.073-1.764-0.446-1.92S106.611,148.778,106.338,149.682z"/>
		<path opacity="0.4" fill="#FFFFFF" enable-background="new    " d="M106.065,150.587c-0.272,0.904-0.073,1.764,0.446,1.92
			s1.161-0.448,1.434-1.353c0.273-0.904,0.073-1.763-0.446-1.92C106.979,149.078,106.338,149.684,106.065,150.587z"/>
		<path fill="#FFFFFF" d="M110.061,148.07c0,0-0.322,5.6-3.126,8.097C106.935,156.167,111.055,153.84,110.061,148.07z"/>
		<path fill="#F1DC75" d="M99.362,143.966c0,0-5.321,5.003,0.157,12.276C99.519,156.242,91.229,150.324,99.362,143.966z"/>
		<path fill="none" stroke="#31343F" stroke-miterlimit="10" d="M95.947,147.8c-1.187,3.936,1.041,8.09,4.978,9.277
			c3.937,1.187,8.09-1.041,9.277-4.978c1.188-3.937-1.041-8.091-4.978-9.278C101.288,141.635,97.134,143.863,95.947,147.8z"/>
		<path fill="#F9A03F" d="M122.946,176.629c0,0-7.245-3.179-11.298-7.493c0,0,6.045,6.022,12.749,8.729L122.946,176.629z"/>
		<path fill="#FCD06C" d="M83.939,160.889c0,0,34.26,19.75,47.35,21.306l-6.777,10.446c0,0-14.733,1.002-24.197-6.719
			C90.851,178.2,84.045,166.202,83.939,160.889z"/>
		<path fill="#F9A03F" d="M91.644,163.833c0,0,10.051,4.855,15.227,14.392c0,0-8.576-3.042-13.376-6.769c0,0,4.872,5.001,14.199,7.7
			c0,0,6.47,5.37,14.879,6.197l0.189-0.627c0,0-10.23-1.902-14.003-5.704S101.448,167.815,91.644,163.833z"/>
		<path fill="none" stroke="#31343F" stroke-miterlimit="10" d="M141.218,187.097c0,0-13.297-34.672-26.929-48.404
			c-13.631-13.733-18.229-13.739-24.138-13.219c-6.183,0.545-13.543,12.277-6.525,21.632c0,0,2.409,2.535,1.44,4.616
			c-0.969,2.08-6.933,10.519,6.439,27.379C91.505,179.101,109.734,204.036,141.218,187.097z"/>
	</g>
</g>
<g>
	<path fill="#F9A03F" d="M225.39,194.083c0,0,11.087-1.165,18.239-11.289c0,0-3.447,8.256-19.316,13.143L225.39,194.083z"/>
	<g>
		<path fill="#FAE887" d="M240.369,189.808c0,0,17.902-2.907,26.975,6.418c9.071,9.324,9.09,28.405-9.416,32.359
			s-25.837-11.047-25.837-11.047l-13.096-22.573L240.369,189.808z"/>
		<path fill="none" stroke="#F9A03E" stroke-miterlimit="10" d="M232.091,217.538c0,0,16.565,9.295,26.337,1.917
			s4.101-22.505-8.462-29.971"/>
		<line fill="none" stroke="#F9A03E" stroke-miterlimit="10" x1="250.678" y1="222.234" x2="254.982" y2="229.07"/>
		<path fill="none" stroke="#F9A03E" stroke-miterlimit="10" d="M260.957,217.036c0,0,5.527,1.518,9.07,4.607"/>
		<path fill="none" stroke="#F9A03E" stroke-miterlimit="10" d="M263.377,209.29c0,0,7.791,0.213,9.902,1.309"/>
		<path fill="none" stroke="#F9A03E" stroke-miterlimit="10" d="M261.062,200.799c0,0,5.011-2.146,8.107-1.653"/>
		<path fill="none" stroke="#F9A03E" stroke-miterlimit="10" d="M258.579,191.004c0,0,13.168,5.506,14.024,20.092
			c0.857,14.585-17.782,17.906-17.928,17.499"/>
		<path fill="#FFFFFF" d="M251.117,215.433c0.604,1.335,0.012,2.908-1.323,3.513c-1.336,0.605-2.909,0.013-3.513-1.323
			c-0.605-1.335-0.013-2.908,1.322-3.513S250.512,214.098,251.117,215.433z"/>
		<path fill="#CF92C0" d="M238.229,194.739c0,0,9.082,1.396,10.981,7.003c1.899,5.605-3.192,11.813-10.012,11.034
			s-16.37-15.693-16.37-15.693S237.367,193.692,238.229,194.739z"/>
		<g>
			<path fill="#F68729" d="M249.115,208.227c0.741,1.637,0.016,3.563-1.621,4.305s-3.564,0.016-4.306-1.621
				s-0.015-3.564,1.621-4.306C246.446,205.864,248.374,206.59,249.115,208.227z"/>
			<path opacity="0.3" fill="#FBDAD0" enable-background="new    " d="M243.299,208.414c0,0,0.789,3.579,5.641,2.46
				c0,0-1.382,2.276-3.766,1.439C242.789,211.478,242.939,208.877,243.299,208.414z"/>
			<path fill="#FFFFFF" d="M244.615,209.274c0.16,0.354,0.118,0.719-0.095,0.815c-0.213,0.096-0.515-0.113-0.675-0.467
				s-0.117-0.719,0.095-0.815C244.153,208.712,244.455,208.921,244.615,209.274z"/>
			<path fill="#FFFFFF" d="M248.335,210.729c0.087,0.192,0.001,0.419-0.19,0.506c-0.192,0.087-0.419,0.002-0.506-0.19
				s-0.002-0.419,0.19-0.506S248.247,210.537,248.335,210.729z"/>
			<path fill="#FBDAD0" d="M243.123,208.948c0,0,1.253,3.879,5.037,2.914c0,0-1.869,1.582-3.562,0.283
				C242.906,210.846,242.67,209.469,243.123,208.948z"/>
			<path fill="none" stroke="#272C3E" stroke-miterlimit="10" d="M249.115,208.227c0.741,1.637,0.016,3.563-1.621,4.305
				s-3.564,0.016-4.306-1.621s-0.015-3.564,1.621-4.306C246.446,205.864,248.374,206.59,249.115,208.227z"/>
		</g>
		<path fill="#FFFFFF" d="M258.121,209.858c0.494,1.09,0.011,2.374-1.08,2.868c-1.09,0.494-2.374,0.01-2.867-1.08
			c-0.494-1.091-0.011-2.375,1.079-2.868C256.344,208.284,257.628,208.768,258.121,209.858z"/>
		<circle fill="#FFFFFF" cx="255.417" cy="202.802" r="1.617"/>
		<path fill="#F9A03F" d="M253.648,196.059c0.368,0.813,0.008,1.771-0.807,2.141c-0.813,0.368-1.771,0.007-2.141-0.807
			c-0.368-0.813-0.007-1.771,0.807-2.14C252.321,194.884,253.279,195.245,253.648,196.059z"/>
		<path fill="none" stroke="#31343F" stroke-miterlimit="10" d="M240.346,189.758c0,0,17.903-2.906,26.975,6.419
			c9.072,9.324,9.091,28.404-9.415,32.358c-18.505,3.954-25.837-11.046-25.837-11.046l-13.095-22.573L240.346,189.758z"/>
	</g>
	<g>
		<path fill="#FAE887" stroke="#31343F" stroke-miterlimit="10" d="M205.914,193.1c0,0,8.609-36.122,20.311-51.533
			c11.702-15.409,16.26-16.022,22.186-16.285c6.201-0.274,15.043,10.385,9.32,20.583c0,0-2.055,2.83-0.819,4.765
			s8.26,9.514-2.772,27.989C254.139,178.618,239.356,205.739,205.914,193.1z"/>
		<path fill="#F9A03F" d="M217.008,176.997c0,0,8.885-26.656,28.119-41.831c0,0-20.077,18.071-26.655,40.569
			c0,0,13.185-2.618,33.406-33.329C251.878,142.406,234.834,172.995,217.008,176.997z"/>
		<path fill="#FCD639" d="M226.67,167.715c0,0-1.854-10.178,0.113-15.618c1.967-5.441,4.766-12.217,14.191-12.294
			c9.425-0.077,9.652,11.795,8.952,14.746C249.228,157.5,241.793,166.734,226.67,167.715z"/>
		<path fill="#D56B4D" d="M245.575,148.191c1.696,3.745,0.035,8.156-3.71,9.853c-3.746,1.696-8.158,0.035-9.854-3.711
			c-1.696-3.745-0.035-8.156,3.711-9.853S243.879,144.446,245.575,148.191z"/>
		<path fill="#DD807C" d="M232.688,147.805c0,0,2.3,11.089,13.216,3.652c0,0,0.361,5.052-4.914,6.419
			C235.715,159.245,229.141,154.74,232.688,147.805z"/>
		<path fill="#FFFFFF" d="M239.447,146.877c0.188,0.411,0.004,0.896-0.407,1.082c-0.412,0.187-0.896,0.004-1.083-0.407
			c-0.187-0.412-0.004-0.896,0.408-1.083C238.776,146.282,239.262,146.465,239.447,146.877z"/>
		<path opacity="0.4" fill="#FFFFFF" enable-background="new    " d="M240.141,147.461c0.186,0.412,0.002,0.896-0.408,1.083
			c-0.412,0.186-0.896,0.004-1.082-0.408c-0.188-0.411-0.005-0.896,0.406-1.082C239.469,146.867,239.953,147.05,240.141,147.461z"/>
		<path fill="#FADE34" d="M208.951,183.26c0,0,9.551-31.904,18.914-43.489c9.363-11.584,15.402-14.774,20.58-13.789
			c0,0-21.053,0.104-39.209,57.908L208.951,183.26z"/>
		<path fill="#F9A03F" d="M248.517,125.502c0,0,4.401-0.383,8.069,4.475c0,0,5.442,5.503,1.613,15.445c0,0-4.053,3.197-0.975,5.666
			c3.079,2.47,5.763,14.07-1.117,23.984c-8.156,11.753-9.654,17.837-33.017,21.254c0,0,17.937-2.054,27.908-16.283
			c0,0-2.924-1.228,0.161-4.877l2.768,0.341l2.756-5.819c0,0-6.906-2.265,1.23-3.052c0,0,2.213-6.476,0.988-9.542l-5.06-1.974
			c0,0-1.452-3.93,2.117-5.063l-0.958-1.577c0,0,4.447-8.211,3.016-13.357c0,0-5.555-1.267-6.198-0.975l-1.495-3.75l1.091-2.103
			l-0.778-1.901L248.517,125.502z"/>
		
			<ellipse transform="matrix(-0.4126 -0.9109 0.9109 -0.4126 193.1221 428.2047)" fill="#FFFFFF" cx="234.625" cy="151.835" rx="1.709" ry="0.982"/>
		<path opacity="0.4" fill="#FFFFFF" enable-background="new    " d="M235.912,152.289c0.391,0.86,0.306,1.738-0.188,1.962
			s-1.21-0.292-1.6-1.152c-0.39-0.859-0.305-1.737,0.19-1.961C234.808,150.914,235.523,151.43,235.912,152.289z"/>
		<path fill="#FFFFFF" d="M231.62,150.321c0,0,1.058,5.508,4.166,7.613C235.786,157.935,231.396,156.171,231.62,150.321z"/>
		<path fill="#F1DC75" d="M241.685,144.842c0,0,5.935,4.258,1.463,12.19C243.147,157.032,250.584,150.072,241.685,144.842z"/>
		<path fill="none" stroke="#31343F" stroke-miterlimit="10" d="M245.575,148.191c1.696,3.745,0.035,8.156-3.71,9.853
			c-3.746,1.696-8.158,0.035-9.854-3.711c-1.696-3.745-0.035-8.156,3.711-9.853S243.879,144.446,245.575,148.191z"/>
		<path fill="#F9A03F" d="M222.612,180.329c0,0,6.763-4.106,10.212-8.918c0,0-5.198,6.768-11.486,10.334L222.612,180.329z"/>
		<path fill="#FCD06C" d="M259.204,159.583c0,0-31.357,24.095-44.128,27.362l8.096,9.462c0,0,14.737-0.95,23.1-9.851
			C254.635,177.655,259.799,164.863,259.204,159.583z"/>
		<path fill="#F9A03F" d="M251.954,163.519c0,0-9.323,6.137-13.196,16.273c0,0,8.1-4.147,12.367-8.474c0,0-4.17,5.6-13.06,9.505
			c0,0-5.705,6.176-13.932,8.105l-0.271-0.597c0,0,9.89-3.234,13.129-7.501C240.23,176.564,242.762,168.758,251.954,163.519z"/>
		<path fill="none" stroke="#31343F" stroke-miterlimit="10" d="M205.881,193.114c0,0,8.609-36.122,20.311-51.532
			c11.702-15.41,16.26-16.022,22.186-16.285c6.2-0.275,15.043,10.385,9.32,20.583c0,0-2.055,2.83-0.819,4.765
			s8.259,9.513-2.772,27.988C254.105,178.633,239.323,205.755,205.881,193.114z"/>
	</g>
</g>
<path fill="#FFFFFF" d="M143.485,242.878l-14.432-3.031c-9.391-4.959-15.339-15.392-13.844-26.752l10.079-52.924l36.588,19.055
	h10.492l43.376-21.985l16.008,52.118c4.105,14.518-4.759,28.951-18.508,32.625l-14.307,0.885h-56.177"/>
<path fill="#FFFFFF" stroke="#3F404B" stroke-miterlimit="10" d="M140.399,86.229c0,0-11.547-13.326-13.916-14.845
	c-2.37-1.518-7.566-7.226-8.253,1.051s-1.991,30.042,2.99,37.162C126.201,116.718,140.399,86.229,140.399,86.229z"/>
<path fill="#E69FC6" stroke="#3F404B" stroke-miterlimit="10" d="M136.962,89.524c0,0-9.99-11.529-12.04-12.843
	c-2.05-1.313-6.546-6.252-7.141,0.909c-0.595,7.16-1.723,25.992,2.587,32.152C124.678,115.903,136.962,89.524,136.962,89.524z"/>
<path fill="#FFFFFF" stroke="#3F404B" stroke-miterlimit="10" d="M193.792,82.908c0,0,12.705-12.226,15.202-13.523
	c2.496-1.298,8.188-6.512,8.124,1.793s-0.736,30.1-6.341,36.739C205.172,114.557,193.792,82.908,193.792,82.908z"/>
<path fill="#E69FC6" stroke="#3F404B" stroke-miterlimit="10" d="M194.839,88.494c0,0,12.177-11.718,14.569-12.961
	c2.393-1.244,7.848-6.241,7.786,1.718s-0.705,28.848-6.077,35.211C205.746,118.825,194.839,88.494,194.839,88.494z"/>
<path fill="#FFFFFF" d="M199.612,242.823l13.584-0.829c0,0,0.591,1.94,2.061,2.169s3.961,0.654,3.472,4.186s-6.274,2.92-8.947,2.862
	C207.109,251.153,198.783,251.24,199.612,242.823z"/>
<path fill="#FFFFFF" d="M231.041,225.771c0,0,18.82,6.292,20.183,9.39s-2.905,5.396-9.358,4.402s-21.795-0.517-21.795-0.517
	L231.041,225.771z"/>
<path opacity="0.1" fill="#3F404B" enable-background="new    " d="M232.533,239.262l5.662-11.028l-6.75-2.736
	c0,0-2.85,7.557-10.596,13.327L232.533,239.262z"/>
<path fill="#FFFFFF" d="M129.017,239.836l13.696,3.032c0,0-0.604,5.491-2.7,6.883s-3.409,2.423-9.622,1.786
	c-6.213-0.636-7.487-0.157-7.801-4.221S129.197,247.451,129.017,239.836z"/>
<path fill="#FFFFFF" d="M116.986,225.524L116.986,225.524c-0.011,0.004-21.953,7.008-22.171,10.617
	c-0.219,3.61,5.485,3.777,11.127,3.665s23.848,0.023,23.848,0.023L116.986,225.524z"/>
<path opacity="0.1" fill="#3F404B" enable-background="new    " d="M111.61,227.359c0,0,1.338,10.074,6.522,12.1l8.685-0.441
	c0,0-8.46-8.22-10.381-13.521L111.61,227.359z"/>
<path fill="none" stroke="#313540" stroke-linecap="round" stroke-miterlimit="10" d="M116.436,225.497
	c-4.012,0.958-13.729,4.569-19.424,8.243c-2.79,1.801-1.064,5.886,2.442,5.822l29.52-0.579"/>
<path fill="none" stroke="#313540" stroke-linecap="round" stroke-miterlimit="10" d="M231.125,225.792
	c5,1.453,14.402,4.854,18.93,7.948c2.747,1.874,1.063,5.886-2.443,5.822l-27.541-0.537"/>
<path opacity="0.1" fill="#3F404B" enable-background="new    " d="M126.113,71.132c0,0,2.084,23.026,2.098,23.638
	c0.014,0.61,7.339-10.992,8.447-12.291C137.766,81.179,126.113,71.132,126.113,71.132z"/>
<path opacity="0.1" fill="#767778" enable-background="new    " d="M209.938,90.8l4.976-23.644c0,0,3.146-1.396,1.453,12.427
	c-0.079,0.65-1.169,17.007-2.038,18.343C214.328,97.926,210.604,91.528,209.938,90.8z"/>
<linearGradient id="SVGID_1_" gradientUnits="userSpaceOnUse" x1="-972.9839" y1="1307.0488" x2="-972.9839" y2="1226.9678" gradientTransform="matrix(1 0 0 -1 1194 1466)">
	<stop  offset="0" style="stop-color:#FFFFFF"/>
	<stop  offset="0.72" style="stop-color:#FFFFFF"/>
	<stop  offset="1" style="stop-color:#FFFFFF"/>
</linearGradient>
<path opacity="0.1" fill="url(#SVGID_1_)" enable-background="new    " d="M215.135,158.952l12.461,39.305
	c0,0,1.841,6.625,3.787,11.788c1.945,5.164,1.45,21.101-11.971,28.987c0,0,10.838-8.98,8.214-23.167s-17.813-51.582-17.813-51.582
	L215.135,158.952z"/>
<path opacity="0.1" fill="#3F404B" enable-background="new    " d="M143.4,242.399h54.661l-3.266-20.765
	c0,0-0.135,7.914-3.576,11.466c-3.441,3.551-6.297,3.902-8.299,4.104c-2,0.2-29.603,2.962-33.768-1.694s-3.328-6.335-3.328-6.335
	L143.4,242.399z"/>
<path fill="#36B791" stroke="#3F404B" stroke-miterlimit="10" d="M121.314,150.519"/>
<path fill="#FFEF88" d="M230.304,225.102l-3.979-2.41c-0.908-0.549-2.052-0.523-2.934,0.065l-2.709,1.803
	c-0.522,0.349-0.908,0.867-1.094,1.467l-0.645,2.084c-0.351,1.132,0.068,2.361,1.037,3.045l4.812,3.383l3.961-4.522L230.304,225.102
	z"/>
<path fill="#FFEF88" d="M232.496,215.042l-4.074,1.168c-0.667,0.191-1.128,0.801-1.13,1.495v0.393
	c0.001,0.554,0.296,1.066,0.775,1.345l3.896,2.261L232.496,215.042z"/>
<path fill="#FFEF88" d="M213.841,233.307l1.42-0.149c1.029-0.112,2.067,0.08,2.989,0.551l4.989,2.551l-5.923,3.951l-3.746,1.355
	L213.841,233.307z"/>
<path fill="#FFEF88" d="M213.346,201.468l1.205,3.298c0.094,0.256,0.069,0.539-0.065,0.776l-1.233,2.204
	c-0.143,0.256-0.399,0.43-0.691,0.466c-0.291,0.037-0.582-0.066-0.784-0.279l-2.784-2.867c-0.328-0.34-0.348-0.871-0.047-1.233
	l1.915-2.327c0.11-0.133,0.257-0.233,0.421-0.289l0.887-0.299C212.646,200.748,213.17,200.993,213.346,201.468z"/>
<path fill="#FFEF88" d="M204.863,190.117l5.549,7.811c0.152,0.216,0.234,0.474,0.233,0.738c-0.001,0.39-0.181,0.757-0.485,0.999
	l-2.233,1.775c-0.297,0.236-0.684,0.328-1.056,0.252c-1.252-0.252-4.063-0.99-4.634-2.504l-1.896-5.278
	c-0.158-0.434-0.068-0.921,0.232-1.271l2.271-2.635c0.26-0.297,0.642-0.459,1.036-0.438
	C204.275,189.59,204.639,189.793,204.863,190.117z"/>
<path fill="#FFEF88" d="M223.397,193.64c-2.177,1.148-5.054,2.821-6.745,4.456c-0.693,0.664-0.992,1.64-0.794,2.579l1.046,4.895
	c0.113,0.532,0.379,1.02,0.767,1.401l3.279,3.223c0.834,0.821,2.094,1.031,3.147,0.524c1.589-0.768,3.896-1.962,5.41-3.187
	c0.891-0.726,1.24-1.927,0.878-3.018l-3.055-9.286c-0.255-0.777-0.839-1.401-1.598-1.708
	C224.975,193.214,224.121,193.257,223.397,193.64z"/>
<path fill="#FFEF88" d="M219.913,178.337c-1.653-0.532-4.045-1.233-6.054-1.607c-1.527-0.282-3.07,0.414-3.867,1.747
	c-1.019,1.691-2.336,4.204-2.766,6.521c-0.167,0.914,0.016,1.858,0.514,2.644c0.887,1.42,2.541,3.961,4.008,5.764
	c1.111,1.362,3.025,1.76,4.587,0.953c1.888-0.971,4.54-2.457,6.213-3.914c1.032-0.897,1.485-2.292,1.177-3.625l-1.317-5.773
	C222.113,179.766,221.165,178.735,219.913,178.337z"/>
<path fill="#FFEF88" d="M117.545,226.32l2.642,0.721c1.412,0.388,2.473,1.557,2.723,3l0.897,5.187l-5.354-6.423L117.545,226.32z"/>
<path fill="#FFEF88" d="M129.107,224.546l-1.999,1.802c-0.771,0.698-1.221,1.684-1.243,2.724l-0.166,8.016l4.401,3.065l-0.3-11.122
	L129.107,224.546z"/>
<path fill="#FFEF88" d="M114.932,215.674c0,0,3.718-3.553,6.99-5.54c0.72-0.434,1.614-0.455,2.354-0.055
	c0.738,0.4,1.21,1.162,1.24,2.001c0.073,2.175,0.342,4.825,1.139,5.851l2.485,3.614l-3.075,3.418
	c-0.769,0.858-1.979,1.169-3.065,0.787l-6.834-2.402L114.932,215.674z"/>
<path fill="#FFEF88" d="M143.956,201.841h1.636c0.396-0.004,0.751,0.24,0.891,0.61l0.29,0.767c0.062,0.145,0.062,0.497,0.062,0.859
	c-0.004,0.264-0.119,0.514-0.315,0.688s-0.458,0.26-0.72,0.233l-1.926-0.176c-0.488-0.043-0.861-0.453-0.86-0.943v-1.087
	c-0.002-0.251,0.095-0.494,0.272-0.673S143.704,201.841,143.956,201.841z"/>
<path fill="#FFEF88" d="M143.086,195.865l0.301,3.189c0.022,0.226,0.121,0.438,0.279,0.601c0.404,0.425,1.326,1.149,2.827,1.098
	c0.422-0.014,0.791-0.292,0.921-0.693l1.129-3.532c0.085-0.268,0.054-0.56-0.085-0.803c-0.14-0.244-0.375-0.418-0.65-0.48
	c-1.046-0.229-2.63-0.518-3.759-0.466c-0.274,0.01-0.532,0.132-0.714,0.337C143.153,195.321,143.063,195.592,143.086,195.865z"/>
<path fill="#FFEF88" d="M149.708,184.339l4.867-2.268c0.627-0.295,1.351-0.304,1.984-0.023c0.634,0.28,1.115,0.821,1.319,1.483
	c0.332,1.087,0.539,2.641,0.341,4.805c-0.331,3.625-5.064,4.815-8.471,5.209c-0.788,0.088-1.569-0.218-2.086-0.819
	c-0.518-0.6-0.706-1.417-0.503-2.184l1.243-4.649C148.587,185.206,149.064,184.638,149.708,184.339z"/>
<path fill="#FFEF88" d="M120.878,204.17l3.314-2.774c0.344-0.289,0.579-0.688,0.662-1.129l0.829-4.381
	c0.095-0.494-0.005-1.007-0.279-1.43l-2.051-3.137c-0.953-1.46-3.189-1.025-3.542,0.673l-2.092,10.294
	C117.346,204.087,119.469,205.351,120.878,204.17z"/>
<path fill="#FFEF88" d="M131.715,191.321c1.688-0.196,4.319-0.187,7.021,1.016c0.626,0.279,1.09,0.827,1.263,1.49
	c0.404,1.513,1.025,4.526,0.632,7.498c-0.096,0.702-0.518,1.316-1.139,1.657c-1.253,0.704-3.428,1.843-4.183,1.843
	c-0.756,0-3.874-2.734-5.354-4.101c-0.512-0.474-0.776-1.158-0.715-1.854l0.477-5.499
	C129.813,192.301,130.647,191.445,131.715,191.321z"/>
<path fill="#FFEF88" d="M125.479,173.236l9.185-3.977c1.369-0.593,2.963-0.242,3.957,0.869c1.605,1.792,3.842,4.878,4.908,9.062
	c0.14,0.555,0.14,1.135,0,1.688c-0.553,2.176-1.352,4.281-2.382,6.275c-0.721,1.382-2.279,2.107-3.8,1.771l-7.705-1.688
	c-1.044-0.229-1.924-0.929-2.382-1.895l-3.531-7.446c-0.403-0.848-0.444-1.823-0.114-2.702
	C123.944,174.316,124.617,173.608,125.479,173.236z"/>
<path fill="#FFEF88" d="M145.407,172.401c-0.723,0.195-1.322,0.7-1.638,1.379c-0.315,0.68-0.315,1.463,0.001,2.142
	c1.316,2.827,3.345,6.866,4.35,7.177c1.005,0.311,4.982-1.005,7.167-1.823c0.931-0.351,1.57-1.213,1.636-2.205l0.446-6.432
	c0.059-0.821-0.283-1.62-0.919-2.143c-0.636-0.523-1.486-0.705-2.281-0.487L145.407,172.401z"/>
<path fill="#FFEF88" d="M196.043,189.192l2.019,1.588c0.14,0.108,0.241,0.26,0.289,0.43l1.599,6.017
	c0.073,0.288-0.014,0.594-0.229,0.799s-0.525,0.278-0.809,0.191l-2.057-0.653c-0.275-0.089-0.484-0.315-0.551-0.599l-1.569-6.95
	c-0.072-0.338,0.073-0.685,0.366-0.869C195.395,188.962,195.771,188.98,196.043,189.192z"/>
<path fill="#FFEF88" d="M206.264,174.591l2.411,1.42c0.401,0.234,0.912,0.17,1.242-0.159l0.943-0.935
	c0.236-0.235,0.343-0.57,0.288-0.898c-0.057-0.329-0.268-0.609-0.568-0.755l-2.541-1.224c-0.378-0.183-0.83-0.115-1.14,0.168
	l-0.804,0.738c-0.24,0.219-0.363,0.54-0.33,0.865C205.799,174.135,205.983,174.425,206.264,174.591z"/>
<path fill="#FFEF88" d="M206.703,179.364l-2.084,5.755c-0.17,0.474-0.453,0.899-0.821,1.242l-1.653,1.532
	c-1.154,1.072-2.92,1.135-4.148,0.15l-3.709-2.971c-0.946-0.76-1.378-1.993-1.111-3.177l1.084-4.793
	c0.307-1.342,1.441-2.333,2.813-2.457l4.829-0.43c0.661-0.059,1.325,0.092,1.896,0.43l1.532,0.906
	C206.645,176.329,207.221,177.929,206.703,179.364z"/>
<path opacity="0.1" fill="#3F404B" enable-background="new    " d="M219.899,215.772c0,0-8.595,8.786-7.366,26.813
	c0,0,20.4-5.447,20.324-28.336c0,0-2.575,10.447-10.222,12.224C214.988,228.249,219.899,215.772,219.899,215.772z"/>
<path opacity="0.1" fill="#3F404B" enable-background="new    " d="M125.24,160.171l-6.547,36.376c0,0-1.499,8.929-3.243,16.976
	c-1.744,8.048,4.101,20.82,12.871,25.501c0,0,0.76-17.825-4.874-22.675l8.12-51.659L125.24,160.171z"/>
<path fill="#313540" d="M147.734,217.434c-0.179,1.609-0.4,3.199-0.632,4.8l-0.368,2.39l-0.4,2.379
	c-0.274,1.59-0.568,3.169-0.854,4.759l-0.873,4.748l-1.748,9.507c-0.084,0.432-0.21,0.863-0.368,1.274
	c-0.158,0.41-0.348,0.82-0.569,1.2c-0.443,0.768-1.01,1.463-1.685,2.042c-1.358,1.168-3.053,1.854-4.833,1.979l-0.663,0.021h-0.642
	l-1.211-0.073l-2.411-0.138l-4.821-0.294h-0.495l-0.189-0.032c-0.242-0.042-0.474-0.105-0.706-0.179
	c-0.484-0.168-0.916-0.432-1.294-0.769c-0.379-0.347-0.674-0.769-0.874-1.231c-0.189-0.453-0.306-0.938-0.326-1.422
	c-0.021-0.463,0.01-0.937,0.105-1.39l0.021-0.084v-0.179l0.032-0.116c0.042-0.126,0.095-0.253,0.158-0.379
	c0.116-0.231,0.263-0.453,0.432-0.652c0.326-0.379,0.716-0.695,1.158-0.927c0.421-0.221,0.875-0.379,1.338-0.474
	c0.231-0.042,0.462-0.084,0.694-0.095l0.284-0.021l0.221-0.032c0.158-0.031,0.306-0.073,0.453-0.126
	c0.137-0.053,0.274-0.116,0.4-0.2c0.484-0.315,0.811-0.885,0.989-1.558c0.169-0.716,0.232-1.453,0.19-2.189l-0.095-2.411l-0.2-4.833
	c-0.063-1.61-0.137-3.221-0.189-4.832v0.053c-0.063-0.526-0.137-1.042-0.211-1.568c-0.042-0.264-0.084-0.516-0.126-0.779
	c-0.042-0.263-0.094-0.516-0.147-0.769s-0.105-0.516-0.169-0.769l-0.189-0.758c-0.137-0.506-0.285-1.001-0.463-1.495
	c-0.084-0.242-0.179-0.484-0.273-0.727s-0.19-0.484-0.306-0.716l-0.158-0.357l-0.168-0.348l-0.18-0.348l-0.189-0.347l-0.189-0.337
	l-0.2-0.338l-0.421-0.663c-0.147-0.221-0.294-0.432-0.453-0.652l-0.232-0.315l-0.242-0.316c-0.084-0.095-0.074-0.242,0.021-0.336
	c0.095-0.096,0.243-0.074,0.337,0.021l0.568,0.589c0.18,0.2,0.358,0.411,0.538,0.621c0.179,0.211,0.347,0.422,0.505,0.643
	l0.243,0.337l0.231,0.337c0.158,0.231,0.306,0.453,0.443,0.694l0.21,0.358l0.199,0.358c0.137,0.241,0.253,0.483,0.369,0.736
	c0.116,0.253,0.232,0.495,0.337,0.758c0.21,0.506,0.4,1.021,0.568,1.548s0.316,1.053,0.442,1.579
	c0.063,0.264,0.126,0.537,0.179,0.801c0.053,0.263,0.117,0.536,0.158,0.8c0.095,0.537,0.179,1.073,0.253,1.611v0.052
	c0.095,1.61,0.168,3.222,0.252,4.821l0.243,4.822l0.115,2.411c0.021,0.432,0.021,0.862-0.01,1.295
	c-0.032,0.442-0.095,0.884-0.2,1.315c-0.052,0.221-0.126,0.442-0.21,0.664c-0.095,0.221-0.2,0.441-0.326,0.652
	c-0.263,0.432-0.611,0.811-1.032,1.095c-0.421,0.273-0.895,0.474-1.39,0.559l-0.368,0.053l-0.316,0.021
	c-0.169,0.01-0.327,0.031-0.495,0.063c-0.326,0.063-0.632,0.18-0.926,0.338c-0.274,0.146-0.526,0.347-0.727,0.578
	c-0.095,0.105-0.168,0.222-0.232,0.348c-0.063,0.127-0.105,0.253-0.126,0.39c-0.073,0.337-0.095,0.673-0.073,1.011
	c0.021,0.315,0.083,0.621,0.21,0.916c0.115,0.273,0.294,0.525,0.515,0.727c0.222,0.199,0.485,0.357,0.769,0.452
	c0.147,0.053,0.306,0.084,0.463,0.116l0.105,0.021h0.411l4.821,0.284l2.411,0.147l1.211,0.074h1.105
	c1.453-0.095,2.842-0.653,3.958-1.601c0.548-0.474,1.011-1.032,1.379-1.652c0.369-0.632,0.632-1.306,0.779-2.021l1.832-9.486
	l0.916-4.748c0.305-1.579,0.611-3.158,0.927-4.737l0.495-2.368l0.526-2.358c0.358-1.568,0.737-3.138,1.158-4.695
	c0.021-0.147,0.147-0.242,0.284-0.231C147.64,217.138,147.756,217.285,147.734,217.434z"/>
<path fill="#313540" d="M194.594,215.79l0.231,0.99c0.147,0.642,0.358,1.589,0.61,2.8c0.127,0.601,0.264,1.274,0.41,2l0.464,2.369
	l0.506,2.695l0.526,2.989l2.453,14.244c0.115,0.643,0.21,1.349,0.379,1.875c0.179,0.578,0.432,1.137,0.758,1.652
	c0.663,1.053,1.61,1.905,2.727,2.464l0.432,0.2l0.115,0.041l0.105,0.043l0.211,0.073c0.284,0.084,0.59,0.147,0.885,0.179
	l0.452,0.032h0.484l1.053-0.032l4.222-0.147l4.148-0.126l0.263-0.031l0.126-0.021l0.096-0.021l0.199-0.042l0.2-0.064
	c0.253-0.083,0.474-0.21,0.685-0.368c0.189-0.157,0.348-0.347,0.453-0.567c0.021-0.064,0.063-0.117,0.072-0.18l0.064-0.189
	c0.041-0.137,0.063-0.273,0.084-0.41c0.021-0.147,0.031-0.285,0.042-0.432v-0.222c0,0,0-0.147-0.011-0.231l-0.021-0.231v-0.031
	c0,0.021-0.021,0.031-0.031,0.021c-0.021,0-0.031-0.021-0.021-0.031c0-0.021,0.021-0.032,0.032-0.021
	c0.011,0,0.021,0.011,0.021,0.021v-0.168l-0.021-0.085l-0.021-0.095c-0.012-0.063-0.043-0.137-0.064-0.2
	c-0.178-0.526-0.494-0.979-0.883-1.231c-0.211-0.126-0.433-0.211-0.675-0.242l-0.189-0.021l-0.273-0.021h-0.126l-0.158-0.021
	l-0.306-0.053c-0.399-0.095-0.79-0.241-1.147-0.441c-0.368-0.211-0.694-0.495-0.958-0.843c-0.253-0.326-0.432-0.706-0.558-1.095
	c-0.105-0.368-0.179-0.747-0.201-1.126c-0.01-0.096-0.01-0.18-0.01-0.274v-0.758l0.021-0.958l0.084-3.727l0.021-0.905v-0.484
	l0.031-0.442l0.031-0.442c0.011-0.147,0.021-0.284,0.043-0.442l0.104-0.884c0.158-1.116,0.379-2.222,0.674-3.316
	c0.263-1,0.59-1.979,0.958-2.948l0.284-0.673c0.095-0.222,0.179-0.442,0.284-0.653l0.295-0.621c0.095-0.2,0.189-0.41,0.295-0.6
	l0.305-0.569l0.147-0.273l0.158-0.263l0.306-0.517c0.095-0.168,0.189-0.337,0.295-0.494l0.589-0.916l0.569-0.812l0.273-0.368
	l0.263-0.337c0.169-0.221,0.327-0.432,0.484-0.61l0.432-0.517l0.368-0.421l0.695-0.747c0.084-0.095,0.231-0.116,0.326-0.031
	c0.095,0.084,0.116,0.231,0.031,0.326l-0.589,0.82c-0.38,0.538-0.927,1.328-1.569,2.369l-0.494,0.821l-0.506,0.927
	c-0.094,0.158-0.179,0.326-0.263,0.494l-0.263,0.517l-0.137,0.263l-0.127,0.274l-0.264,0.568c-0.779,1.716-1.41,3.495-1.863,5.327
	l-0.094,0.379l-0.043,0.189l-0.043,0.189l-0.156,0.779l-0.043,0.199l-0.031,0.201l-0.063,0.399l-0.063,0.41l-0.031,0.2l-0.021,0.2
	l-0.095,0.821c-0.021,0.137-0.021,0.284-0.031,0.432l-0.032,0.442l-0.032,0.442v1.315l-0.053,3.728v1.663c0,0,0,0.147,0.012,0.211
	c0.021,0.263,0.073,0.536,0.146,0.789c0.074,0.231,0.189,0.452,0.337,0.653c0.284,0.378,0.727,0.61,1.263,0.726l0.19,0.032
	l0.095,0.021h0.127l0.231,0.021l0.315,0.031c0.432,0.063,0.853,0.211,1.231,0.442c0.368,0.231,0.694,0.537,0.948,0.895
	c0.242,0.338,0.432,0.717,0.568,1.105c0.031,0.095,0.063,0.189,0.084,0.295l0.042,0.147l0.032,0.169v0.305l0.021,0.285
	c0.011,0.094,0.011,0.188,0.011,0.294s0.01,0.189,0,0.295c-0.011,0.2-0.021,0.4-0.053,0.601c-0.031,0.21-0.074,0.41-0.127,0.609
	l-0.104,0.306c-0.032,0.105-0.085,0.2-0.138,0.306c-0.199,0.411-0.484,0.769-0.831,1.063c-0.348,0.273-0.727,0.495-1.147,0.632
	l-0.295,0.095l-0.316,0.073l-0.157,0.031l-0.137,0.021l-0.263,0.032h-0.601l-0.526,0.021l-1.053,0.042l-2.116,0.074l-4.222,0.136
	l-1.053,0.032h-0.568l-0.59-0.042c-0.39-0.042-0.779-0.126-1.158-0.242l-0.284-0.095l-0.147-0.052l-0.127-0.054l-0.516-0.242
	c-1.357-0.685-2.495-1.727-3.305-3.011c-0.4-0.632-0.707-1.306-0.916-2.021l-0.074-0.273l-0.031-0.137
	c-0.011-0.042-0.021-0.095-0.031-0.138l-0.053-0.242l-0.021-0.126V245.1l-0.158-0.979l-2.316-14.276l-0.474-3l-0.399-2.706
	l-0.338-2.39c-0.104-0.736-0.188-1.41-0.263-2.032c-0.157-1.221-0.263-2.189-0.337-2.853l-0.105-1.011
	c0.043-0.116,0.18-0.179,0.295-0.137C194.53,215.728,194.563,215.759,194.594,215.79z"/>
<path fill="none" stroke="#3F404B" stroke-miterlimit="10" d="M143.437,242.878l-14.432-3.031
	c-9.391-4.959-15.339-15.392-13.844-26.752l10.079-52.924l36.588,19.055h10.492l43.375-21.985l16.009,52.118
	c4.106,14.518-4.759,28.951-18.508,32.625l-14.308,0.885h-56.176"/>
<path fill="#FFFFFF" stroke="#3F404B" stroke-miterlimit="10" d="M226.104,149.306c-19.443,29.725-59.924,36.712-63.558,35.576
	c-3.634-1.136-46.108-20.442-46.108-35.433c0,0-2.922-54.93,25-71.51c27.922-16.581,67.408,0.177,71.886,19.148
	C217.521,114.879,226.104,149.306,226.104,149.306z M142.349,101.679c0,0-11.146,9.368-13.739,46.648
	c0,0,26.669,25.117,37.91,25.712c0,0,30.832-7.433,43.1-24.458c0,0-0.326-40.585-23.337-52.766
	C160.41,83.119,142.349,101.679,142.349,101.679z"/>
<path fill="#FFFFFF" stroke="#3F404B" stroke-miterlimit="10" d="M154.691,77.762c0,0-3.377-5.079-6.754-5.016s3.096-3.722,8.724,0
	c0,0-2.057-3.33-4.828-5.573c0,0,4.546-1.399,8.486,3.666c0,0-10.131-24.8,6.754-4.52c0,0,10.131-19.963,4.784,4.52
	c0,0,14.915-11.378,5.065,5.005"/>
<path opacity="0.1" fill="#3F404B" enable-background="new    " d="M137.781,80.459c0,0-23.815,18.068-20.438,72.973
	c0,0,6.758,12.018,24.343,21.062c0,0-19.325-15.405-18.141-22.439C124.73,145.021,120.44,119.102,137.781,80.459z"/>
<path opacity="0.1" fill="#767778" enable-background="new    " d="M208.461,88.537c0,0,4.215,2.007,6.146,13.943l11.495,46.825
	l-5.253,6.949C220.85,156.255,216.213,107.4,208.461,88.537z"/>
</svg>
