<?xml version="1.0" encoding="utf-8"?>
<!-- Generator: Adobe Illustrator 16.0.0, SVG Export Plug-In . SVG Version: 6.00 Build 0)  -->
<!DOCTYPE svg PUBLIC "-//W3C//DTD SVG 1.1//EN" "http://www.w3.org/Graphics/SVG/1.1/DTD/svg11.dtd">
<svg version="1.1" xmlns="http://www.w3.org/2000/svg" xmlns:xlink="http://www.w3.org/1999/xlink" x="0px" y="0px" width="360px"
	 height="360px" viewBox="0 0 360 360" enable-background="new 0 0 360 360" xml:space="preserve">
<g id="Layer_1">
	<g id="Layer_2" opacity="0.6">
		<path opacity="0.3" enable-background="new    " d="M172.107,150.999c72.806,0,131.827,22.486,131.827,50.231
			c0,27.736-59.021,50.223-131.827,50.223c-72.805,0-131.826-22.486-131.826-50.223C40.282,173.485,99.303,150.999,172.107,150.999z
			"/>
	</g>
</g>
<g id="Layer_2_1_">
	<g>
		<g>
			<g>
				<path fill="#8F423C" stroke="#31323D" stroke-width="3" stroke-linecap="round" stroke-linejoin="round" d="M40.282,191.938
					c0,0,61.24-41.442,103.278-56.175c0,0,6.958-4.571,18,1.96c11.042,6.532,41.053,14.035,97.038,54.214l1.467,2.1l-109.688,34.056
					L40.282,194.271V191.938z"/>
				<path fill="#EDEEE8" stroke="#31323D" stroke-width="2" stroke-linecap="round" stroke-linejoin="round" d="M105.944,215.428
					c0,0,14.974-20.38,41.731-36.318c0,0,29.269,17.745,40.718,36.488l-36.77,14.279L105.944,215.428z"/>
				<path fill="#EDEEE8" stroke="#31323D" stroke-width="2" stroke-linecap="round" stroke-linejoin="round" d="M40.054,193.208
					c0,0,0.737-1.97-1.264-1.037c-2,0.934-4.317,2.28-2.317,4.354c2.001,2.073,110.06,35.146,110.06,35.146s3.371,1.139,5.897,0
					c2.529-1.142,108.325-34.496,108.325-34.496s3.584-0.548,2.49-3.586c-1.092-3.041-3.434-1.391-3.434-1.391L152.43,225.864
					c0,0-2.421,1.35-6.529,0C141.794,224.518,40.054,193.208,40.054,193.208z"/>
				<g>
					<path fill="#3E1F1D" d="M136.094,206.058l11.123-17.346c0,0,0.417-1.01,0.886,0c0.469,1.01,11.144,17.346,11.144,17.346
						s0.578,0.793,0,1.407c-0.577,0.613-10.891,13.02-10.891,13.02s-0.469,1.442-1.659,0c-1.191-1.442-10.603-12.803-10.603-12.803
						S135.532,206.935,136.094,206.058z"/>
					<g>
						<polygon fill="#A5473F" points="147.22,190.406 137.193,206.13 147.22,202.163 						"/>
						<g>
							<g>
								<g>
									<polygon fill="#823733" points="147.22,190.406 137.193,206.13 142.908,203.87 									"/>
								</g>
							</g>
						</g>
					</g>
					<polygon fill="#A5473F" points="148.107,190.406 158.133,206.13 148.107,202.163 					"/>
					<polygon fill="#C6554F" points="148.107,203.064 148.107,210.854 158.133,206.96 					"/>
					<g>
						<polygon fill="#C6554F" points="147.22,203.064 147.22,210.854 137.193,206.96 						"/>
						<polygon fill="#A5473F" points="137.193,206.996 142.298,204.977 142.206,205.986 142.48,206.996 143.454,209.376 						"/>
					</g>
					<g>
						<polygon fill="#A5473F" points="137.482,207.754 147.22,211.505 147.22,219.51 						"/>
						<polygon fill="#823733" points="137.482,207.754 143.818,210.194 147.22,219.51 						"/>
					</g>
					<polygon fill="#A5473F" points="157.843,207.754 148.107,211.505 148.107,219.51 					"/>
					<path fill="#A5473F" stroke="#3E1F1D" stroke-width="3" stroke-miterlimit="10" d="M136.294,196.718
						c-0.254,0.307-0.692,0.362-0.979,0.123l-2.417-2.011c-0.286-0.239-0.312-0.681-0.057-0.985l0,0
						c0.255-0.307,0.693-0.362,0.979-0.123l2.418,2.011C136.525,195.971,136.55,196.412,136.294,196.718L136.294,196.718z"/>
					<path fill="#A5473F" stroke="#3E1F1D" stroke-width="3" stroke-miterlimit="10" d="M160.156,196.718
						c0.255,0.307,0.693,0.362,0.98,0.123l2.417-2.011c0.285-0.239,0.311-0.681,0.055-0.985l0,0
						c-0.255-0.307-0.693-0.362-0.978-0.123l-2.418,2.011C159.925,195.971,159.901,196.412,160.156,196.718L160.156,196.718z"/>
					<path fill="#A5473F" stroke="#3E1F1D" stroke-width="3" stroke-miterlimit="10" d="M136.583,216.365
						c-0.255-0.306-0.693-0.36-0.979-0.122l-2.417,2.011c-0.286,0.238-0.311,0.68-0.056,0.986l0,0
						c0.254,0.305,0.692,0.36,0.979,0.122l2.417-2.011C136.813,217.112,136.838,216.672,136.583,216.365L136.583,216.365z"/>
					<path fill="#A5473F" stroke="#3E1F1D" stroke-width="3" stroke-miterlimit="10" d="M160.443,216.365
						c0.256-0.306,0.693-0.36,0.979-0.122l2.417,2.011c0.288,0.238,0.311,0.68,0.057,0.986l0,0c-0.254,0.305-0.693,0.36-0.98,0.122
						l-2.416-2.011C160.215,217.112,160.189,216.672,160.443,216.365L160.443,216.365z"/>
				</g>
			</g>
			<path opacity="0.2" fill="#31323D" d="M73.006,202.656c0,0-6.715-19.856,38.963-42.57c45.68-22.715,49.59-22.362,49.59-22.362
				s-10.232-7.257-24.8,0.583c-11.932,6.424-65.132,29.615-96.478,54.782L73.006,202.656z"/>
			<path opacity="0.2" fill="#31323D" d="M166.278,140.759c0,0,62.998,36.484,20.697,62.285
				c-42.302,25.798-30.82,24.809-35.77,27.58c-4.949,2.771,109.665-33.519,109.665-33.519s5.523-3.31-1.199-5.086
				C252.948,190.244,205.897,154.416,166.278,140.759z"/>
		</g>
		<g>
			
				<ellipse transform="matrix(0.7496 0.6619 -0.6619 0.7496 159.8482 -78.6128)" fill="#EDEEE8" stroke="#31323D" stroke-linecap="round" stroke-linejoin="round" cx="183.821" cy="171.954" rx="4.912" ry="2.719"/>
			<path fill="#EDEEE8" stroke="#31323D" stroke-linecap="round" stroke-linejoin="round" d="M181.985,170.756l15.111-13.789
				l2.242-1.98c0,0,2.242-1.188,3.232,0.065s0.633,2.182,0.02,2.839c-0.611,0.657-17.174,14.052-17.107,16.032L181.985,170.756z"/>
			<path fill="#31323D" d="M180.958,169.392c0,0,4.137,4.482,6.119,5.343C187.077,174.734,181.993,174.129,180.958,169.392z"/>
		</g>
		<g>
			
				<ellipse transform="matrix(0.7495 0.662 -0.662 0.7495 170.2196 -85.9527)" fill="#EDEEE8" stroke="#31323D" stroke-linecap="round" stroke-linejoin="round" cx="198.688" cy="181.953" rx="4.912" ry="2.718"/>
			<path fill="#EDEEE8" stroke="#31323D" stroke-linecap="round" stroke-linejoin="round" d="M196.854,180.625l16.111-14.355
				l2.395-2.059c0,0,2.393-1.236,3.447,0.067c1.055,1.306,0.672,2.272,0.02,2.957c-0.652,0.683-18.314,14.628-18.244,16.687
				L196.854,180.625z"/>
			<path fill="#31323D" d="M195.827,179.39c0,0,4.137,4.482,6.117,5.346C201.944,184.735,196.86,184.13,195.827,179.39z"/>
		</g>
	</g>
	<path fill="#31323D" d="M309.911,207.239c0,3.994-2.406,7.231-5.373,7.231h-85.287c-2.967,0-5.373-3.237-5.373-7.231l0,0
		c0-3.993,2.406-7.23,5.373-7.23h85.287C307.505,200.009,309.911,203.246,309.911,207.239L309.911,207.239z"/>
	<path fill="#31323D" d="M310.188,214.47c0,3.994-2.518,7.231-5.623,7.231h-89.287c-3.107,0-5.625-3.237-5.625-7.231l0,0
		c0-3.993,2.518-7.23,5.625-7.23h89.287C307.671,207.239,310.188,210.477,310.188,214.47L310.188,214.47z"/>
	<path fill="#EDEEE8" d="M308.597,206.984c0,3.08-2.33,5.577-5.207,5.577h-82.654c-2.873,0-5.205-2.497-5.205-5.577l0,0
		c0-3.081,2.332-5.578,5.205-5.578h82.654C306.267,201.406,308.597,203.903,308.597,206.984L308.597,206.984z"/>
	<path fill="#EDEEE8" d="M308.866,214.561c0,3.081-2.439,5.578-5.449,5.578h-86.531c-3.012,0-5.451-2.497-5.451-5.578l0,0
		c0-3.08,2.439-5.576,5.451-5.576h86.531C306.427,208.984,308.866,211.48,308.866,214.561L308.866,214.561z"/>
	<g>
		<g>
			<g>
				<path fill="#31323D" d="M254.884,209.841c0.182-0.008,2.629-0.112,6.197-0.264c3.572-0.099,8.266-0.229,12.938-0.359
					c4.672-0.074,9.322-0.071,12.805-0.052c3.48,0.027,5.795,0.104,5.799,0.257s-2.303,0.369-5.775,0.607
					c-3.471,0.246-8.107,0.482-12.766,0.757c-4.654,0.302-9.332,0.604-12.891,0.835c-3.559,0.252-6,0.425-6.184,0.438
					c-0.182,0.008-2.795,0.117-6.611,0.278c-1.912,0.063-4.119,0.181-6.488,0.218c-1.186,0.008-2.408,0.016-3.648,0.023
					c-1.242,0-2.498,0.046-3.758-0.059c-2.518-0.174-5.035-0.195-7.359-0.602c-2.326-0.343-4.506-0.566-6.324-1.02
					c-3.658-0.785-6.07-1.362-6.039-1.513c0.068-0.42,9.82,1.651,19.748,1.563c1.236,0.054,2.482-0.04,3.707-0.084
					c1.227-0.052,2.434-0.102,3.605-0.15c2.342-0.117,4.547-0.304,6.447-0.422C252.095,210.031,254.7,209.853,254.884,209.841z"/>
			</g>
		</g>
	</g>
	<g>
		<path fill="#31323D" d="M308.597,210.584c0,0-59.756,3.645-74.053,3.364"/>
		<g>
			<g>
				<path fill="#31323D" d="M270.356,213.238c-0.348,0.013-9.295,0.354-18.158,0.693c-4.436,0.038-8.852,0.077-12.158,0.105
					c-1.65-0.005-3.025-0.009-3.988-0.012c-0.961-0.014-1.51-0.039-1.508-0.077c0-0.038,0.549-0.089,1.512-0.146
					c0.961-0.048,2.334-0.115,3.984-0.197c3.299-0.124,7.703-0.291,12.127-0.458c8.852-0.497,17.787-0.999,18.135-1.019
					c0.172-0.007,2.652-0.106,6.273-0.253c3.621-0.166,8.385-0.385,13.127-0.604c4.742-0.202,9.465-0.404,13-0.556
					c1.77-0.062,3.24-0.112,4.271-0.148c1.031-0.024,1.621-0.021,1.623,0.017s-0.582,0.11-1.609,0.207
					c-1.027,0.086-2.496,0.209-4.26,0.356c-3.527,0.282-8.244,0.595-12.98,0.908c-4.74,0.305-9.5,0.61-13.117,0.843
					C273.009,213.094,270.528,213.229,270.356,213.238z"/>
			</g>
		</g>
	</g>
</g>
</svg>
