<?xml version="1.0" encoding="utf-8"?>
<!-- Generator: Adobe Illustrator 16.0.0, SVG Export Plug-In . SVG Version: 6.00 Build 0)  -->
<!DOCTYPE svg PUBLIC "-//W3C//DTD SVG 1.1//EN" "http://www.w3.org/Graphics/SVG/1.1/DTD/svg11.dtd">
<svg version="1.1" id="Layer_1" xmlns="http://www.w3.org/2000/svg" xmlns:xlink="http://www.w3.org/1999/xlink" x="0px" y="0px"
	 width="360px" height="360px" viewBox="0 0 360 360" enable-background="new 0 0 360 360" xml:space="preserve">
<ellipse opacity="0.7" fill="#3F404B" cx="175.969" cy="270.391" rx="91.531" ry="7.68"/>
<g>
	<path fill="#36B791" stroke="#3F404B" stroke-miterlimit="10" d="M133.579,87.984c0,0,22.452-36.326,86.414-59.049
		c0,0-11.499,52.619-8.463,64.39C214.567,105.097,133.579,87.984,133.579,87.984z"/>
	<path fill="#DCB165" stroke="#3F404B" stroke-miterlimit="10" d="M202.285,40.913l-30.027-19.275c0,0,7.469,31.415,14.459,34.639
		L202.285,40.913z"/>
	<path fill="#E3282A" stroke="#3F404B" stroke-miterlimit="10" d="M167.147,32.595l25.036,21.434l-6.65,26.023
		C185.533,80.052,161.718,41.793,167.147,32.595z"/>
	<path fill="#E3282A" stroke="#3F404B" stroke-miterlimit="10" d="M191.354,40.793l37.766-5.231c0,0-11.982,24.085-35.388,20.761
		L191.354,40.793z"/>
	<path fill="#36B791" stroke="#3F404B" stroke-miterlimit="10" d="M192.218,49.575l27.763,2.496c0,0-14.939,21.115-36.154,18.195
		L192.218,49.575z"/>
	<path fill="#E3282A" stroke="#3F404B" stroke-miterlimit="10" d="M161.893,63.91c0,0-21.153,2.879-33.5-4.224l2.747,31.063
		L161.893,63.91z"/>
	<path fill="#E3282A" stroke="#3F404B" stroke-miterlimit="10" d="M185.921,63.196c0,0,20.274,6.687,33.708,1.954l-8.361,30.041
		L185.921,63.196z"/>
	<path fill="#DCB165" stroke="#3F404B" stroke-miterlimit="10" d="M210.581,90.726c0,0-17.299-25.598-31.675-31.786
		c0,0-28.34-0.417-48.653,34.326C130.252,93.266,165.898,81.758,210.581,90.726z"/>
	<g>
		<path fill="#E3282A" stroke="#3F404B" stroke-miterlimit="10" d="M136.837,94.616c0,0-15.269-12.995-18.192-14.294
			c-2.924-1.3-9.747-6.822-9.097,2.599c0.65,9.421,2.924,34.111,9.747,41.259C126.117,131.325,136.837,94.616,136.837,94.616z"/>
		<path fill="#36B791" stroke="#3F404B" stroke-miterlimit="10" d="M134.705,96.656c0,0-14.266-12.142-16.997-13.355
			c-2.732-1.215-9.106-6.374-8.499,2.429c0.606,8.802,2.731,31.87,9.105,38.547C124.688,130.953,134.705,96.656,134.705,96.656z"/>
		<path fill="#E3282A" stroke="#3F404B" stroke-miterlimit="10" d="M204.081,96.044c0,0,17.171-10.351,20.266-11.161
			c3.097-0.809,10.723-5.154,8.556,4.038c-2.165,9.192-8.406,33.188-16.296,39.136S204.081,96.044,204.081,96.044z"/>
		<path fill="#36B791" stroke="#3F404B" stroke-miterlimit="10" d="M208.26,96.982c0,0,14.431-8.7,17.033-9.379
			c2.602-0.68,9.011-4.333,7.19,3.393c-1.82,7.725-7.065,27.893-13.696,32.892C212.156,128.886,208.26,96.982,208.26,96.982z"/>
		<path fill="#FFFFFF" d="M205.61,273.788l15.446-0.943c0,0,0.673,2.206,2.343,2.467c1.672,0.259,4.504,0.743,3.948,4.759
			c-0.557,4.016-7.136,3.319-10.174,3.255C214.135,283.259,204.668,283.358,205.61,273.788z"/>
		<path fill="#FFFFFF" d="M241.348,254.397c0,0,21.4,7.154,22.95,10.677c1.55,3.521-3.304,6.136-10.642,5.005
			c-7.338-1.128-24.783-0.587-24.783-0.587L241.348,254.397z"/>
		<path opacity="0.1" fill="#3F404B" enable-background="new    " d="M243.045,269.737l6.438-12.54l-7.676-3.111
			c0,0-3.241,8.592-12.048,15.154L243.045,269.737z"/>
		<path fill="#FFFFFF" d="M125.335,270.391l15.575,3.447c0,0-0.687,6.244-3.07,7.826c-2.384,1.582-3.877,2.756-10.941,2.032
			c-7.065-0.724-8.514-0.18-8.87-4.8C117.671,274.276,125.541,279.05,125.335,270.391z"/>
		<path fill="#FFFFFF" d="M111.656,254.117L111.656,254.117c-0.012,0.004-24.962,7.969-25.211,12.073
			c-0.249,4.104,6.237,4.295,12.653,4.167c6.416-0.127,27.118,0.026,27.118,0.026L111.656,254.117z"/>
		<path opacity="0.1" fill="#3F404B" enable-background="new    " d="M105.542,256.203c0,0,1.521,11.455,7.417,13.758l9.875-0.501
			c0,0-9.621-9.348-11.805-15.374L105.542,256.203z"/>
		<g enable-background="new    ">
			<path fill="#36B791" stroke="#3F404B" stroke-miterlimit="10" d="M141.733,273.851l-16.41-3.449
				c-10.678-5.637-17.442-17.5-15.742-30.417l11.461-60.181l41.604,21.667h11.93l49.322-25l18.202,59.264
				c4.669,16.508-5.41,32.92-21.044,37.098l-16.27,1.007H140.91"/>
			<path fill="none" stroke="#313540" stroke-linecap="round" stroke-miterlimit="10" d="M111.03,254.086
				c-4.562,1.089-15.61,5.195-22.086,9.373c-3.172,2.048-1.21,6.691,2.777,6.62l33.567-0.659"/>
			<path fill="none" stroke="#313540" stroke-linecap="round" stroke-miterlimit="10" d="M241.442,254.42
				c5.688,1.652,16.378,5.52,21.525,9.039c3.124,2.131,1.208,6.691-2.777,6.62l-31.317-0.61"/>
			<path fill="#313540" d="M146.619,244.917c-0.203,1.83-0.454,3.638-0.718,5.457l-0.419,2.718l-0.455,2.705
				c-0.312,1.809-0.646,3.604-0.97,5.412l-0.993,5.398l-1.987,10.811c-0.096,0.49-0.24,0.98-0.419,1.448
				c-0.18,0.467-0.396,0.934-0.647,1.364c-0.503,0.874-1.149,1.664-1.915,2.322c-1.544,1.33-3.472,2.108-5.495,2.251l-0.755,0.023
				h-0.729l-1.377-0.083l-2.741-0.156l-5.483-0.335h-0.563l-0.215-0.035c-0.276-0.049-0.539-0.121-0.803-0.203
				c-0.55-0.192-1.042-0.491-1.472-0.875c-0.431-0.395-0.766-0.874-0.993-1.4c-0.216-0.516-0.348-1.065-0.372-1.616
				c-0.023-0.526,0.012-1.065,0.12-1.58l0.023-0.096v-0.204l0.036-0.132c0.048-0.143,0.108-0.287,0.18-0.431
				c0.131-0.263,0.299-0.515,0.491-0.741c0.371-0.433,0.814-0.791,1.316-1.054c0.479-0.251,0.994-0.432,1.521-0.539
				c0.263-0.048,0.526-0.097,0.79-0.107l0.323-0.024l0.251-0.035c0.18-0.036,0.347-0.084,0.515-0.144
				c0.156-0.06,0.311-0.132,0.455-0.229c0.55-0.358,0.921-1.005,1.125-1.771c0.192-0.813,0.264-1.651,0.215-2.49l-0.108-2.741
				l-0.228-5.495c-0.072-1.831-0.155-3.662-0.215-5.494v0.06c-0.072-0.599-0.156-1.185-0.24-1.783
				c-0.047-0.299-0.096-0.587-0.144-0.886c-0.047-0.3-0.107-0.587-0.167-0.875s-0.12-0.586-0.193-0.874l-0.215-0.861
				c-0.156-0.574-0.323-1.138-0.527-1.699c-0.096-0.276-0.203-0.551-0.311-0.827c-0.108-0.275-0.216-0.55-0.348-0.813l-0.179-0.406
				l-0.191-0.396l-0.204-0.396l-0.215-0.395l-0.216-0.384l-0.228-0.383l-0.479-0.754c-0.167-0.251-0.335-0.491-0.515-0.743
				l-0.264-0.358l-0.274-0.359c-0.096-0.107-0.084-0.275,0.023-0.383s0.276-0.083,0.383,0.023l0.646,0.671
				c0.204,0.228,0.407,0.468,0.611,0.706c0.203,0.239,0.395,0.479,0.574,0.73l0.275,0.384l0.264,0.383
				c0.179,0.263,0.347,0.515,0.503,0.79l0.239,0.406l0.227,0.408c0.156,0.274,0.288,0.55,0.419,0.837s0.264,0.563,0.383,0.862
				c0.24,0.575,0.455,1.161,0.647,1.761c0.191,0.598,0.359,1.195,0.502,1.794c0.072,0.301,0.143,0.611,0.203,0.91
				c0.061,0.3,0.133,0.61,0.18,0.909c0.107,0.611,0.204,1.222,0.287,1.833v0.06c0.108,1.832,0.191,3.663,0.288,5.482l0.275,5.482
				l0.132,2.742c0.023,0.49,0.023,0.981-0.012,1.473c-0.036,0.503-0.107,1.006-0.228,1.496c-0.06,0.251-0.144,0.503-0.239,0.755
				c-0.108,0.251-0.228,0.502-0.371,0.741c-0.299,0.491-0.695,0.922-1.173,1.245c-0.479,0.311-1.018,0.539-1.58,0.636l-0.419,0.06
				l-0.359,0.023c-0.192,0.012-0.372,0.036-0.563,0.071c-0.371,0.072-0.718,0.204-1.053,0.384c-0.312,0.167-0.598,0.395-0.827,0.658
				c-0.107,0.119-0.191,0.251-0.264,0.395c-0.071,0.145-0.119,0.288-0.143,0.444c-0.083,0.382-0.108,0.765-0.083,1.148
				c0.024,0.358,0.096,0.706,0.24,1.041c0.131,0.311,0.334,0.599,0.586,0.826c0.252,0.228,0.551,0.407,0.875,0.516
				c0.167,0.06,0.347,0.095,0.526,0.131l0.12,0.023h0.467l5.482,0.324l2.741,0.167l1.377,0.084h1.257
				c1.653-0.107,3.232-0.742,4.501-1.82c0.623-0.539,1.148-1.173,1.568-1.879c0.419-0.718,0.718-1.485,0.886-2.298l2.083-10.787
				l1.041-5.398c0.348-1.797,0.695-3.591,1.054-5.388l0.563-2.693l0.599-2.682c0.407-1.783,0.838-3.566,1.316-5.338
				c0.025-0.169,0.168-0.275,0.324-0.264C146.512,244.581,146.644,244.748,146.619,244.917z"/>
			<path fill="#313540" d="M199.903,243.048l0.264,1.126c0.167,0.729,0.407,1.807,0.694,3.184c0.144,0.683,0.299,1.449,0.467,2.275
				l0.526,2.692l0.575,3.065l0.599,3.399l2.788,16.196c0.132,0.73,0.24,1.533,0.432,2.132c0.204,0.658,0.491,1.293,0.862,1.879
				c0.753,1.198,1.831,2.167,3.101,2.802l0.49,0.228l0.132,0.048l0.119,0.047l0.24,0.085c0.322,0.096,0.67,0.168,1.006,0.203
				l0.514,0.036h0.552l1.197-0.036l4.8-0.167l4.717-0.144l0.3-0.037l0.143-0.023l0.109-0.024l0.227-0.047l0.228-0.072
				c0.286-0.096,0.539-0.239,0.777-0.42c0.217-0.179,0.396-0.395,0.516-0.646c0.023-0.072,0.071-0.132,0.084-0.203l0.071-0.215
				c0.048-0.156,0.072-0.313,0.096-0.467c0.024-0.169,0.036-0.324,0.049-0.492v-0.251c0,0,0-0.167-0.013-0.264l-0.024-0.263v-0.036
				c0,0.023-0.024,0.036-0.035,0.023c-0.024,0-0.037-0.023-0.024-0.035c0-0.024,0.024-0.037,0.035-0.024
				c0.013,0,0.024,0.013,0.024,0.024v-0.191l-0.024-0.097l-0.022-0.107c-0.013-0.072-0.048-0.156-0.073-0.229
				c-0.203-0.597-0.562-1.112-1.005-1.399c-0.239-0.144-0.491-0.24-0.766-0.275l-0.216-0.024l-0.312-0.023h-0.144l-0.18-0.024
				l-0.348-0.06c-0.455-0.107-0.896-0.275-1.305-0.502c-0.418-0.24-0.79-0.563-1.089-0.959c-0.288-0.37-0.491-0.802-0.636-1.245
				c-0.119-0.418-0.202-0.85-0.227-1.28c-0.012-0.106-0.012-0.203-0.012-0.312v-0.861l0.024-1.09l0.095-4.237l0.024-1.029v-0.551
				l0.035-0.503l0.037-0.503c0.012-0.168,0.022-0.323,0.048-0.503l0.119-1.005c0.181-1.27,0.432-2.527,0.767-3.771
				c0.299-1.137,0.67-2.25,1.09-3.353l0.322-0.766c0.107-0.251,0.203-0.503,0.323-0.743l0.336-0.705
				c0.106-0.228,0.216-0.467,0.335-0.683l0.346-0.647l0.169-0.311l0.179-0.299l0.348-0.587c0.107-0.19,0.216-0.383,0.336-0.563
				l0.67-1.042l0.646-0.922l0.312-0.418l0.299-0.383c0.19-0.252,0.371-0.491,0.551-0.695l0.491-0.587l0.419-0.479l0.789-0.85
				c0.097-0.108,0.264-0.133,0.372-0.036c0.107,0.095,0.131,0.264,0.036,0.371l-0.671,0.934c-0.431,0.611-1.054,1.509-1.784,2.693
				l-0.562,0.935l-0.575,1.054c-0.108,0.18-0.204,0.371-0.3,0.562l-0.299,0.587l-0.155,0.299l-0.145,0.313l-0.298,0.646
				c-0.888,1.95-1.605,3.974-2.12,6.057l-0.107,0.432l-0.047,0.216l-0.05,0.214l-0.179,0.888l-0.048,0.227l-0.036,0.228l-0.07,0.454
				l-0.072,0.468l-0.037,0.228l-0.022,0.228l-0.109,0.933c-0.022,0.156-0.022,0.325-0.035,0.492l-0.036,0.502l-0.036,0.503v1.496
				l-0.06,4.238v1.891c0,0,0,0.169,0.013,0.241c0.023,0.299,0.083,0.609,0.167,0.897c0.084,0.263,0.216,0.514,0.383,0.741
				c0.323,0.431,0.825,0.695,1.436,0.826l0.217,0.036l0.107,0.023h0.144l0.264,0.024l0.359,0.036
				c0.49,0.071,0.969,0.238,1.399,0.502c0.42,0.264,0.791,0.611,1.078,1.019c0.276,0.383,0.49,0.813,0.646,1.257
				c0.035,0.107,0.072,0.215,0.096,0.336l0.048,0.167l0.036,0.191v0.347l0.023,0.324c0.013,0.106,0.013,0.214,0.013,0.335
				c0,0.119,0.012,0.215,0,0.335c-0.013,0.227-0.024,0.455-0.062,0.682c-0.035,0.239-0.082,0.468-0.142,0.695l-0.121,0.347
				c-0.036,0.119-0.095,0.228-0.155,0.348c-0.228,0.467-0.551,0.874-0.945,1.209c-0.396,0.311-0.825,0.563-1.305,0.717l-0.336,0.108
				l-0.358,0.084l-0.18,0.036l-0.155,0.024l-0.299,0.035h-0.683l-0.6,0.023l-1.197,0.048l-2.406,0.085l-4.8,0.154l-1.196,0.037
				h-0.646l-0.672-0.048c-0.443-0.049-0.886-0.144-1.316-0.276l-0.323-0.107l-0.167-0.06l-0.144-0.06l-0.587-0.276
				c-1.544-0.778-2.838-1.963-3.759-3.423c-0.455-0.718-0.803-1.485-1.042-2.299l-0.083-0.311l-0.036-0.156
				c-0.012-0.047-0.024-0.107-0.036-0.156l-0.06-0.274l-0.025-0.144v-0.168l-0.179-1.113l-2.634-16.233l-0.538-3.412l-0.455-3.076
				l-0.384-2.717c-0.119-0.839-0.215-1.604-0.299-2.311c-0.18-1.389-0.299-2.49-0.383-3.245l-0.119-1.148
				c0.048-0.132,0.203-0.203,0.335-0.156C199.832,242.977,199.867,243.013,199.903,243.048z"/>
		</g>
		<path opacity="0.1" fill="#3F404B" enable-background="new    " d="M118.185,80.101c0,0,6.299,25.525,6.42,26.209
			c0.12,0.684,6.36-13.617,7.383-15.268C133.01,89.391,118.185,80.101,118.185,80.101z"/>
		
			<linearGradient id="SVGID_1_" gradientUnits="userSpaceOnUse" x1="-974.0078" y1="1365.1123" x2="-961.1963" y2="1365.1123" gradientTransform="matrix(1 0 0 -1 1194 1466)">
			<stop  offset="0" style="stop-color:#FFFFFF"/>
			<stop  offset="0.72" style="stop-color:#FFFFFF"/>
			<stop  offset="1" style="stop-color:#FFFFFF"/>
		</linearGradient>
		<path opacity="0.1" fill="url(#SVGID_1_)" enable-background="new    " d="M219.992,108.867l11.48-24.961
			c0,0,3.84-0.754-1.523,14.145c-0.252,0.701-5.584,18.562-6.887,19.825C223.063,117.875,220.547,109.842,219.992,108.867z"/>
		<path fill="#36B791" stroke="#3F404B" stroke-miterlimit="10" d="M180.192,70.749c34.405,3.252,42.844,49.471,46.63,62.016
			c3.788,12.545,2.367,37.873,2.367,37.873c-20.356,31.244-61.305,36.215-65.092,35.031c-3.788-1.183-48.051-21.303-48.051-36.925
			s0.474-27.221,8.285-61.306C124.331,107.438,132.615,66.252,180.192,70.749z M140.91,116.25c0,0-12.674,10.652-15.623,53.044
			c0,0,30.326,28.562,43.108,29.237c0,0,35.059-8.451,49.009-27.811c0,0-0.371-46.149-26.537-60
			C161.447,95.146,140.91,116.25,140.91,116.25z"/>
		
			<linearGradient id="SVGID_2_" gradientUnits="userSpaceOnUse" x1="-964.0508" y1="1287.582" x2="-964.0508" y2="1196.5234" gradientTransform="matrix(1 0 0 -1 1194 1466)">
			<stop  offset="0" style="stop-color:#FFFFFF"/>
			<stop  offset="0.72" style="stop-color:#FFFFFF"/>
			<stop  offset="1" style="stop-color:#FFFFFF"/>
		</linearGradient>
		<path opacity="0.1" fill="url(#SVGID_2_)" enable-background="new    " d="M223.261,178.418l14.17,44.693
			c0,0,2.092,7.532,4.307,13.404c2.212,5.872,1.648,23.992-13.613,32.961c0,0,12.324-10.212,9.341-26.344
			c-2.983-16.131-20.256-58.653-20.256-58.653L223.261,178.418z"/>
		<path opacity="0.1" fill="#3F404B" enable-background="new    " d="M229.357,244.516c0,0-8.842,9.04-7.578,27.588
			c0,0,20.989-5.605,20.91-29.154c0,0-2.649,10.749-10.516,12.576C224.306,257.354,229.357,244.516,229.357,244.516z"/>
		<path opacity="0.1" fill="#3F404B" enable-background="new    " d="M121.042,179.803l-7.445,41.363c0,0-1.705,10.152-3.688,19.304
			c-1.982,9.151,4.663,23.675,14.635,28.998c0,0,0.865-20.27-5.542-25.785l9.233-58.742L121.042,179.803z"/>
		
			<linearGradient id="SVGID_3_" gradientUnits="userSpaceOnUse" x1="-986.4209" y1="1332.1074" x2="-965.0044" y2="1332.1074" gradientTransform="matrix(1 0 0 -1 1194 1466)">
			<stop  offset="0" style="stop-color:#FFFFFF"/>
			<stop  offset="0.72" style="stop-color:#FFFFFF"/>
			<stop  offset="1" style="stop-color:#FFFFFF"/>
		</linearGradient>
		<path opacity="0.1" fill="url(#SVGID_3_)" enable-background="new    " d="M211.529,93.325c0,0,7.891,13.334,11.204,26.906
			c3.315,13.57,5.401,16.169,5.998,31.638c0.595,15.469,0,18.778,0,18.778l-7.418,9.152c0,0,1.952-67.508-13.734-91.816
			C207.579,87.984,210.625,91.724,211.529,93.325z"/>
		<path opacity="0.1" fill="#3F404B" enable-background="new    " d="M138.784,82.785c0,0-27.685,69.018-10.548,102.156
			c0,0-9.778-7.741-12.114-15.064c-2.335-7.323,6.162-53.243,6.162-53.243S126.05,94.056,138.784,82.785z"/>
		<path opacity="0.1" fill="#3F404B" enable-background="new    " d="M141.691,273.306h62.154l-3.714-23.611
			c0,0-0.152,8.999-4.065,13.037c-3.913,4.037-7.162,4.438-9.437,4.666s-33.662,3.368-38.398-1.926
			c-4.736-5.295-3.784-7.204-3.784-7.204L141.691,273.306z"/>
	</g>
	<polygon fill="#E3282A" stroke="#E7C179" stroke-miterlimit="10" points="130.967,211.8 139.992,200.07 146.6,212.734 
		137.313,223.713 	"/>
	<polygon fill="#E3282A" stroke="#E7C179" stroke-miterlimit="10" points="202.906,213.773 208.623,200.123 218.256,210.669 
		212.094,223.662 	"/>
	<polygon fill="#E7C179" stroke="#F3AF3F" stroke-miterlimit="10" points="127.25,242.172 136.274,230.443 142.882,243.106 
		133.595,254.086 	"/>
	<polygon fill="#E7C179" stroke="#F3AF3F" stroke-miterlimit="10" points="205.986,244.35 213.087,231.363 221.574,242.852 
		214.101,255.136 	"/>
	<polygon fill="#E7C179" stroke="#F3AF3F" stroke-miterlimit="10" points="162.261,247.827 175.209,227.672 187.603,247.19 
		174.13,266.173 	"/>
	<path opacity="0.1" fill="#3F404B" enable-background="new    " d="M140.278,63.604l6.744,8.884l12.542-8.172
		C159.564,64.316,142.29,65.608,140.278,63.604z"/>
	
		<linearGradient id="SVGID_4_" gradientUnits="userSpaceOnUse" x1="-983.7627" y1="1432.332" x2="-974.9014" y2="1432.332" gradientTransform="matrix(1 0 0 -1 1194 1466)">
		<stop  offset="0" style="stop-color:#FFFFFF"/>
		<stop  offset="0.72" style="stop-color:#FFFFFF"/>
		<stop  offset="1" style="stop-color:#FFFFFF"/>
	</linearGradient>
	<polygon opacity="0.1" fill="url(#SVGID_4_)" enable-background="new    " points="210.581,33.195 210.237,37.692 217.798,36.667 
		219.099,29.644 	"/>
	<polygon opacity="0.1" fill="#3F404B" enable-background="new    " points="214.125,58.94 213.047,66.589 204.081,66.589 	"/>
	
		<linearGradient id="SVGID_5_" gradientUnits="userSpaceOnUse" x1="-986.4209" y1="1422.3496" x2="-965.9834" y2="1422.3496" gradientTransform="matrix(1 0 0 -1 1194 1466)">
		<stop  offset="0" style="stop-color:#FFFFFF"/>
		<stop  offset="0.72" style="stop-color:#FFFFFF"/>
		<stop  offset="1" style="stop-color:#FFFFFF"/>
	</linearGradient>
	<path opacity="0.1" fill="url(#SVGID_5_)" enable-background="new    " d="M219.963,37.387c0,0-9.41,13.197-12.384,12.93
		l7.021,0.709c0,0,7.26-4.418,13.416-14.754L219.963,37.387z"/>
	
		<linearGradient id="SVGID_6_" gradientUnits="userSpaceOnUse" x1="-996.3633" y1="1407.0293" x2="-974.9014" y2="1407.0293" gradientTransform="matrix(1 0 0 -1 1194 1466)">
		<stop  offset="0" style="stop-color:#FFFFFF"/>
		<stop  offset="0.72" style="stop-color:#FFFFFF"/>
		<stop  offset="1" style="stop-color:#FFFFFF"/>
	</linearGradient>
	<path opacity="0.1" fill="url(#SVGID_6_)" enable-background="new    " d="M210.653,51.924c0,0-8.769,13.343-13.017,13.384
		l5.139,0.71c0,0,8.906-4.261,16.323-13.492L210.653,51.924z"/>
	
		<linearGradient id="SVGID_7_" gradientUnits="userSpaceOnUse" x1="-985.6318" y1="1387.3184" x2="-975.3174" y2="1387.3184" gradientTransform="matrix(1 0 0 -1 1194 1466)">
		<stop  offset="0" style="stop-color:#FFFFFF"/>
		<stop  offset="0.72" style="stop-color:#FFFFFF"/>
		<stop  offset="1" style="stop-color:#FFFFFF"/>
	</linearGradient>
	<path opacity="0.1" fill="url(#SVGID_7_)" enable-background="new    " d="M212.03,67.359l-3.662,19.465l3.683,4.521l6.632-25.327
		C218.683,66.019,215.754,67.3,212.03,67.359z"/>
	<polygon opacity="0.1" fill="#3F404B" enable-background="new    " points="185.921,48.667 182.064,59.686 186.244,63.604 
		190.867,52.903 	"/>
	<polygon opacity="0.1" fill="#3F404B" enable-background="new    " points="195.715,36.695 193.427,40.137 199.098,39.72 	"/>
	<polygon opacity="0.1" fill="#3F404B" enable-background="new    " points="191.354,43.649 187.271,49.824 190.867,52.903 
		192.218,49.575 	"/>
</g>
</svg>
