<?xml version="1.0" encoding="utf-8"?>
<!-- Generator: Adobe Illustrator 16.0.0, SVG Export Plug-In . SVG Version: 6.00 Build 0)  -->
<!DOCTYPE svg PUBLIC "-//W3C//DTD SVG 1.1//EN" "http://www.w3.org/Graphics/SVG/1.1/DTD/svg11.dtd">
<svg version="1.1" id="Layer_1" xmlns="http://www.w3.org/2000/svg" xmlns:xlink="http://www.w3.org/1999/xlink" x="0px" y="0px"
	 width="360px" height="360px" viewBox="0 0 360 360" enable-background="new 0 0 360 360" xml:space="preserve">
<ellipse opacity="0.7" fill="#31333E" cx="172.592" cy="242.698" rx="109.883" ry="11.56"/>
<g id="Layer_3">
	<path fill="#FFFFFF" stroke="#3F404B" stroke-miterlimit="10" d="M151.036,67.968c0,0-10.831-12.5-13.053-13.923
		c-2.222-1.424-7.097-6.778-7.741,0.985s-1.868,28.179,2.805,34.857C137.719,96.564,151.036,67.968,151.036,67.968z"/>
	<path fill="#FFFFFF" stroke="#3F404B" stroke-miterlimit="10" d="M189.236,67.049c0,0,11.916-11.468,14.259-12.685
		s7.681-6.108,7.62,1.682c-0.061,7.79-0.689,28.232-5.947,34.46S189.236,67.049,189.236,67.049z"/>
	<path fill="#FFFFFF" d="M196.781,242.646l12.742-0.778c0,0,0.555,1.821,1.934,2.035c1.378,0.214,3.714,0.613,3.256,3.926
		c-0.459,3.313-5.887,2.739-8.393,2.684C203.814,250.459,196.005,250.542,196.781,242.646z"/>
	<path fill="#FFFFFF" d="M226.262,226.652c0,0,17.651,5.902,18.931,8.807c1.278,2.905-2.725,5.062-8.777,4.13
		s-20.443-0.484-20.443-0.484L226.262,226.652z"/>
	<path opacity="0.1" fill="#3F404B" enable-background="new    " d="M227.661,239.306l5.311-10.344l-6.331-2.566
		c0,0-2.673,7.087-9.938,12.499L227.661,239.306z"/>
	<path fill="#FFFFFF" d="M130.565,239.845l12.847,2.845c0,0-0.566,5.15-2.532,6.455c-1.966,1.306-3.198,2.272-9.026,1.677
		c-5.827-0.598-7.022-0.149-7.316-3.96C124.243,243.05,130.734,246.986,130.565,239.845z"/>
	<path fill="#FFFFFF" d="M119.281,226.421L119.281,226.421c-0.01,0.003-20.591,6.573-20.796,9.958
		c-0.206,3.387,5.145,3.544,10.437,3.438c5.292-0.105,22.369,0.021,22.369,0.021L119.281,226.421z"/>
	<path opacity="0.1" fill="#3F404B" enable-background="new    " d="M114.238,228.142c0,0,1.255,9.45,6.118,11.35l8.146-0.414
		c0,0-7.936-7.711-9.737-12.682L114.238,228.142z"/>
	<g enable-background="new    ">
		<path fill="#FFFFFF" stroke="#3F404B" stroke-miterlimit="10" d="M144.091,242.698l-13.537-2.844
			c-8.808-4.65-14.387-14.437-12.985-25.092l9.454-49.642l34.319,17.873h9.841l40.685-20.622l15.016,48.885
			c3.852,13.617-4.463,27.156-17.359,30.603l-13.42,0.83h-52.692"/>
		<path fill="none" stroke="#313540" stroke-linecap="round" stroke-miterlimit="10" d="M118.764,226.396
			c-3.763,0.898-12.877,4.285-18.219,7.731c-2.617,1.689-0.998,5.52,2.291,5.46l27.689-0.542"/>
		<path fill="none" stroke="#313540" stroke-linecap="round" stroke-miterlimit="10" d="M226.34,226.671
			c4.691,1.363,13.51,4.554,17.755,7.456c2.577,1.758,0.998,5.52-2.291,5.46l-25.832-0.503"/>
		<path fill="#313540" d="M148.122,218.831c-0.167,1.511-0.375,3.001-0.592,4.503l-0.346,2.241l-0.375,2.231
			c-0.257,1.491-0.533,2.973-0.8,4.464l-0.819,4.453l-1.64,8.917c-0.079,0.405-0.197,0.811-0.346,1.195
			c-0.147,0.386-0.326,0.77-0.533,1.126c-0.415,0.72-0.948,1.372-1.58,1.915c-1.274,1.096-2.863,1.738-4.532,1.857l-0.623,0.02
			h-0.603l-1.135-0.07l-2.262-0.128l-4.522-0.275h-0.464l-0.178-0.03c-0.228-0.04-0.444-0.1-0.662-0.168
			c-0.454-0.158-0.859-0.404-1.214-0.721c-0.355-0.325-0.632-0.721-0.82-1.155c-0.177-0.425-0.286-0.879-0.306-1.333
			c-0.02-0.435,0.01-0.88,0.099-1.304l0.02-0.079v-0.168l0.03-0.108c0.04-0.119,0.089-0.237,0.148-0.355
			c0.108-0.218,0.247-0.425,0.405-0.612c0.306-0.356,0.671-0.652,1.086-0.869c0.395-0.207,0.82-0.355,1.255-0.443
			c0.217-0.041,0.434-0.08,0.651-0.09l0.267-0.02l0.207-0.029c0.148-0.03,0.287-0.07,0.425-0.119
			c0.128-0.05,0.257-0.107,0.376-0.188c0.454-0.296,0.759-0.829,0.927-1.462c0.159-0.671,0.218-1.362,0.178-2.054l-0.089-2.261
			l-0.188-4.533c-0.059-1.511-0.128-3.021-0.177-4.532v0.05c-0.059-0.495-0.129-0.978-0.198-1.471
			c-0.04-0.247-0.079-0.484-0.119-0.731c-0.039-0.247-0.088-0.484-0.138-0.722c-0.049-0.236-0.099-0.483-0.159-0.721l-0.177-0.711
			c-0.129-0.474-0.267-0.938-0.435-1.401c-0.08-0.229-0.168-0.455-0.257-0.682c-0.089-0.228-0.178-0.454-0.287-0.672l-0.148-0.335
			l-0.158-0.326l-0.168-0.326l-0.177-0.325l-0.178-0.317l-0.188-0.315l-0.395-0.621c-0.138-0.209-0.276-0.405-0.424-0.613
			l-0.218-0.296l-0.227-0.297c-0.079-0.089-0.069-0.227,0.02-0.315c0.089-0.09,0.228-0.068,0.316,0.02l0.533,0.553
			c0.168,0.188,0.336,0.386,0.504,0.582c0.167,0.198,0.326,0.396,0.474,0.604l0.228,0.316l0.217,0.315
			c0.148,0.217,0.287,0.425,0.415,0.651l0.198,0.336l0.187,0.336c0.128,0.227,0.237,0.454,0.346,0.691
			c0.109,0.236,0.218,0.463,0.316,0.711c0.198,0.474,0.375,0.957,0.534,1.452c0.158,0.493,0.296,0.986,0.415,1.48
			c0.059,0.246,0.118,0.504,0.167,0.75c0.049,0.247,0.109,0.504,0.148,0.751c0.089,0.504,0.168,1.007,0.237,1.511v0.049
			c0.089,1.511,0.158,3.021,0.237,4.523l0.227,4.522l0.109,2.263c0.019,0.403,0.019,0.809-0.01,1.213
			c-0.03,0.415-0.089,0.83-0.188,1.235c-0.049,0.207-0.119,0.414-0.197,0.622c-0.089,0.207-0.188,0.414-0.306,0.611
			c-0.247,0.405-0.573,0.761-0.968,1.027c-0.395,0.257-0.839,0.444-1.303,0.523l-0.346,0.049l-0.296,0.02
			c-0.158,0.011-0.307,0.03-0.464,0.06c-0.306,0.06-0.592,0.169-0.869,0.317c-0.257,0.138-0.494,0.325-0.682,0.542
			c-0.089,0.099-0.158,0.208-0.218,0.325c-0.059,0.119-0.099,0.238-0.118,0.366c-0.069,0.316-0.089,0.632-0.069,0.948
			c0.02,0.296,0.079,0.582,0.198,0.859c0.108,0.256,0.276,0.493,0.483,0.681c0.208,0.188,0.455,0.336,0.721,0.425
			c0.138,0.05,0.287,0.079,0.435,0.108l0.099,0.02h0.385l4.522,0.267l2.262,0.139l1.136,0.069h1.037
			c1.363-0.089,2.666-0.612,3.713-1.501c0.514-0.445,0.948-0.968,1.293-1.551c0.346-0.592,0.592-1.225,0.731-1.896l1.718-8.897
			l0.859-4.453c0.287-1.481,0.573-2.964,0.869-4.444l0.464-2.222l0.494-2.212c0.336-1.471,0.691-2.943,1.086-4.403
			c0.021-0.139,0.139-0.228,0.267-0.218C148.033,218.555,148.142,218.692,148.122,218.831z"/>
		<path fill="#313540" d="M192.074,217.291l0.218,0.928c0.138,0.603,0.336,1.49,0.572,2.627c0.118,0.563,0.247,1.195,0.386,1.876
			l0.434,2.222l0.475,2.528l0.494,2.804l2.3,13.361c0.108,0.602,0.198,1.264,0.356,1.758c0.168,0.543,0.404,1.065,0.711,1.55
			c0.621,0.987,1.51,1.788,2.558,2.311l0.405,0.188l0.107,0.038l0.1,0.04l0.197,0.069c0.266,0.079,0.553,0.139,0.829,0.168
			l0.425,0.03h0.455l0.986-0.03l3.96-0.139l3.892-0.118l0.246-0.029l0.119-0.021l0.088-0.02l0.188-0.039l0.187-0.06
			c0.238-0.079,0.445-0.198,0.643-0.346c0.178-0.147,0.326-0.326,0.425-0.533c0.02-0.06,0.059-0.108,0.069-0.167l0.059-0.179
			c0.039-0.128,0.059-0.256,0.079-0.385c0.021-0.138,0.03-0.267,0.04-0.404v-0.209c0,0,0-0.137-0.01-0.216l-0.021-0.218v-0.029
			c0,0.019-0.02,0.029-0.03,0.019c-0.02,0-0.029-0.019-0.02-0.028c0-0.021,0.02-0.029,0.03-0.021c0.01,0,0.02,0.011,0.02,0.021
			v-0.158l-0.02-0.078l-0.02-0.09c-0.011-0.06-0.04-0.128-0.06-0.188c-0.168-0.493-0.465-0.918-0.83-1.156
			c-0.196-0.117-0.404-0.196-0.631-0.227l-0.178-0.02l-0.258-0.02h-0.117l-0.148-0.021l-0.287-0.049
			c-0.375-0.088-0.74-0.227-1.076-0.414c-0.346-0.198-0.651-0.465-0.898-0.79c-0.238-0.307-0.404-0.663-0.523-1.026
			c-0.099-0.346-0.168-0.702-0.188-1.058c-0.01-0.089-0.01-0.167-0.01-0.257v-0.711l0.02-0.898l0.079-3.496l0.02-0.85v-0.453
			l0.029-0.415l0.03-0.415c0.01-0.138,0.02-0.267,0.039-0.415l0.1-0.829c0.146-1.047,0.355-2.084,0.631-3.11
			c0.246-0.938,0.553-1.856,0.898-2.766l0.268-0.632c0.088-0.207,0.167-0.415,0.266-0.612l0.277-0.582
			c0.088-0.188,0.178-0.385,0.275-0.563l0.287-0.533l0.139-0.256l0.148-0.248l0.286-0.483c0.088-0.158,0.177-0.316,0.276-0.464
			l0.553-0.859l0.533-0.76l0.257-0.346l0.247-0.316c0.158-0.207,0.307-0.405,0.453-0.573l0.406-0.482l0.346-0.396l0.65-0.7
			c0.08-0.09,0.218-0.109,0.307-0.03s0.109,0.218,0.03,0.307l-0.554,0.77c-0.355,0.505-0.869,1.245-1.471,2.223l-0.464,0.771
			l-0.476,0.868c-0.088,0.149-0.166,0.307-0.246,0.464l-0.246,0.484l-0.129,0.247l-0.119,0.256l-0.246,0.533
			c-0.73,1.609-1.323,3.279-1.748,4.997l-0.089,0.356l-0.04,0.178l-0.039,0.177l-0.148,0.731l-0.039,0.188l-0.029,0.188l-0.06,0.374
			l-0.059,0.386l-0.03,0.188l-0.02,0.188l-0.089,0.771c-0.021,0.128-0.021,0.267-0.03,0.405l-0.029,0.414l-0.029,0.414v1.235
			l-0.049,3.495v1.561c0,0,0,0.138,0.009,0.197c0.021,0.248,0.069,0.504,0.14,0.741c0.068,0.216,0.178,0.423,0.314,0.612
			c0.268,0.354,0.682,0.572,1.186,0.681l0.178,0.029l0.089,0.02h0.118l0.218,0.02l0.296,0.03c0.405,0.06,0.801,0.198,1.156,0.415
			c0.344,0.218,0.65,0.504,0.889,0.839c0.227,0.316,0.404,0.672,0.533,1.037c0.029,0.09,0.059,0.178,0.078,0.277l0.039,0.139
			l0.029,0.156v0.287l0.021,0.267c0.01,0.089,0.01,0.178,0.01,0.276c0,0.1,0.011,0.178,0,0.276c-0.01,0.188-0.02,0.376-0.05,0.563
			c-0.029,0.197-0.068,0.385-0.117,0.572l-0.1,0.286c-0.029,0.099-0.079,0.188-0.128,0.286c-0.188,0.386-0.454,0.722-0.78,0.998
			c-0.326,0.257-0.682,0.464-1.076,0.592l-0.277,0.089l-0.296,0.069l-0.147,0.029l-0.129,0.02l-0.246,0.031h-0.563l-0.494,0.02
			l-0.988,0.039l-1.984,0.069l-3.96,0.128l-0.987,0.03h-0.533l-0.553-0.04c-0.366-0.039-0.731-0.118-1.086-0.227l-0.268-0.09
			l-0.138-0.049l-0.119-0.05l-0.484-0.228c-1.272-0.642-2.34-1.619-3.1-2.823c-0.376-0.593-0.662-1.225-0.858-1.896l-0.07-0.257
			l-0.029-0.128c-0.01-0.039-0.02-0.089-0.029-0.128l-0.05-0.228l-0.021-0.118v-0.139l-0.146-0.918l-2.173-13.391l-0.445-2.814
			l-0.374-2.537l-0.317-2.242c-0.099-0.691-0.177-1.323-0.246-1.906c-0.147-1.146-0.247-2.054-0.315-2.676l-0.099-0.947
			c0.038-0.109,0.167-0.169,0.276-0.129C192.015,217.231,192.045,217.261,192.074,217.291z"/>
	</g>
	<path opacity="0.1" fill="#3F404B" enable-background="new    " d="M137.636,53.807c0,0,1.955,21.598,1.967,22.171
		c0.013,0.573,6.884-10.31,7.923-11.529C148.566,63.23,137.636,53.807,137.636,53.807z"/>
	
		<linearGradient id="SVGID_1_" gradientUnits="userSpaceOnUse" x1="-767.084" y1="1609.9512" x2="-756.5166" y2="1609.9512" gradientTransform="matrix(0.9751 -0.2218 -0.2218 -0.9751 1307.9917 1467.7598)">
		<stop  offset="0" style="stop-color:#FFFFFF"/>
		<stop  offset="0.72" style="stop-color:#FFFFFF"/>
		<stop  offset="1" style="stop-color:#FFFFFF"/>
	</linearGradient>
	<path opacity="0.1" fill="url(#SVGID_1_)" enable-background="new    " d="M204.381,74.451l4.667-22.177
		c0,0,2.95-1.31,1.362,11.656c-0.074,0.61-1.096,15.952-1.912,17.205C208.498,81.135,205.005,75.134,204.381,74.451z"/>
	<path fill="#FFFFFF" stroke="#3F404B" stroke-miterlimit="10" d="M216.232,157.561c-16.792,25.772-50.57,29.873-53.694,28.896
		c-3.124-0.977-39.636-17.573-39.636-30.459c0,0-0.911-36.168-0.317-38.742c0.594-2.573-0.201-29.298-0.201-29.298
		s0.795-11.68,14.652-17.421c13.857-5.741,55.336-10.69,73,4.95c0,0,9.549,5.345,8.164,22.171
		C216.815,114.484,216.232,157.561,216.232,157.561z M143.412,112.696c0,0-10.455,8.788-12.887,43.756
		c0,0,25.015,23.559,35.559,24.117c0,0,28.92-6.971,40.427-22.94c0,0-0.306-38.068-21.89-49.493
		C160.353,95.289,143.412,112.696,143.412,112.696z"/>
	
		<linearGradient id="SVGID_2_" gradientUnits="userSpaceOnUse" x1="-977.1411" y1="1302.0234" x2="-977.1411" y2="1226.9092" gradientTransform="matrix(1 0 0 -1 1194 1466)">
		<stop  offset="0" style="stop-color:#FFFFFF"/>
		<stop  offset="0.72" style="stop-color:#FFFFFF"/>
		<stop  offset="1" style="stop-color:#FFFFFF"/>
	</linearGradient>
	<path opacity="0.1" fill="url(#SVGID_2_)" enable-background="new    " d="M211.342,163.978l11.688,36.867
		c0,0,1.727,6.214,3.553,11.057c1.825,4.844,1.36,19.791-11.229,27.189c0,0,10.166-8.424,7.705-21.73
		c-2.461-13.308-16.709-48.383-16.709-48.383L211.342,163.978z"/>
	<path opacity="0.1" fill="#3F404B" enable-background="new    " d="M216.371,218.502c0,0-7.293,7.456-6.251,22.755
		c0,0,17.313-4.623,17.248-24.047c0,0-2.186,8.865-8.675,10.372C212.203,229.09,216.371,218.502,216.371,218.502z"/>
	<path opacity="0.1" fill="#3F404B" enable-background="new    " d="M127.023,165.121l-6.141,34.119c0,0-1.406,8.375-3.042,15.923
		c-1.636,7.55,3.847,19.529,12.072,23.92c0,0,0.713-16.72-4.572-21.27l7.616-48.454L127.023,165.121z"/>
	<path opacity="0.2" fill="#B9BCBB" enable-background="new    " d="M217.537,87.207c0,0-1.098,14.808-0.188,25.897
		c0.941,11.484-1.987,16.215-1.496,28.975c0.492,12.759,0,15.49,0,15.49l-6.118,7.549c0,0,6.964-67.874,1.895-88.426
		C211.63,76.692,216.79,85.886,217.537,87.207z"/>
	<path opacity="0.1" fill="#3F404B" enable-background="new    " d="M139.008,173.117c0,0-13.21-7.221-14.927-13.725
		c-1.697-6.427-0.74-8.617-0.74-8.617l-0.269-64.417c0,0,2.964-8.805,6.659-11.421c0,0-2.89,12.477-2.386,14.853
		c0.504,2.375-0.023,65.463,0.24,65.463C127.85,155.253,126.146,159.834,139.008,173.117z"/>
	<path opacity="0.1" fill="#3F404B" enable-background="new    " d="M144.056,242.25h51.271l-3.063-19.479
		c0,0-0.127,7.424-3.354,10.756c-3.229,3.33-5.908,3.66-7.784,3.849c-1.877,0.188-27.768,2.779-31.675-1.589
		c-3.907-4.367-3.121-5.942-3.121-5.942L144.056,242.25z"/>
	<path fill="#36B791" stroke="#3F404B" stroke-miterlimit="10" d="M123.34,156.066"/>
	<path fill="#020202" d="M181.081,195.617c0,0,2.956-3.002,3.995-3.646s2.275-1.484,1.633,1.088l-1.138,4.256
		c0,0,4.058,2.078,4.503,3.315s-0.1,2.276-1.287,4.156s-4.156,2.425-4.701,2.029c-0.544-0.396-2.275-1.832-2.275-1.832
		s-0.99,3.712-2.969,3.91c-1.979,0.198-6.878-0.049-5.74-3.563c0,0,2.326-4.948,3.859-5.442c0,0-1.979-3.316-2.474-4.801
		c-0.495-1.484,1.336-0.792,1.336-0.792L181.081,195.617z"/>
	<path fill="#020202" d="M158.996,195.617c0,0-2.956-3.002-3.995-3.646s-2.276-1.484-1.633,1.088l1.138,4.256
		c0,0-4.058,2.078-4.502,3.315c-0.446,1.237,0.099,2.276,1.286,4.156s4.156,2.425,4.701,2.029c0.544-0.396,2.276-1.832,2.276-1.832
		s0.99,3.712,2.969,3.91c1.979,0.198,6.878-0.049,5.74-3.563c0,0-2.326-4.948-3.86-5.442c0,0,1.979-3.316,2.474-4.801
		s-1.336-0.792-1.336-0.792L158.996,195.617z"/>
	<path fill="#020202" d="M149.849,211.733c0,0,18.601,13.417,38.938,0.613v1.645c0,0-18.498,15.934-38.938,0V211.733z"/>
	<path fill="#3F404B" d="M133.047,89.887c0,0,33.078,18.451,69.24,1.522C202.287,91.409,170.183,105.294,133.047,89.887z"/>
</g>
</svg>
