<?xml version="1.0" encoding="utf-8"?>
<!-- Generator: Adobe Illustrator 16.0.0, SVG Export Plug-In . SVG Version: 6.00 Build 0)  -->
<!DOCTYPE svg PUBLIC "-//W3C//DTD SVG 1.1//EN" "http://www.w3.org/Graphics/SVG/1.1/DTD/svg11.dtd">
<svg version="1.1" id="Layer_1" xmlns="http://www.w3.org/2000/svg" xmlns:xlink="http://www.w3.org/1999/xlink" x="0px" y="0px"
	 width="360px" height="360px" viewBox="0 0 360 360" enable-background="new 0 0 360 360" xml:space="preserve">
<g transform="matrix(1,0,3.46945e-18,0.581395,3.66667,85.0543)">
	<ellipse fill="#31333E" fill-opacity="0.302" cx="177.999" cy="286" rx="161.334" ry="57.333"/>
</g>
<rect fill="#31333E" fill-opacity="0" width="360" height="360"/>
<g>
	<path fill="#E18E88" d="M80.063,243.285L182.896,27.864l99.271,212.786C282.166,240.65,205.301,281.674,80.063,243.285z"/>
	<path fill="#E8A8A3" d="M238.242,239.58L184.597,36.736c0,0,35.535,76.3,77.237,198.781L238.242,239.58z"/>
	<path fill="#E8A8A3" d="M120.18,239.58c-1.247,0.414,58.705-194.681,58.705-194.681v-7.252l-77.434,196.758L120.18,239.58z"/>
	
		<ellipse transform="matrix(-0.9103 -0.414 0.414 -0.9103 398.3929 470.4688)" fill="#D57E72" cx="250.178" cy="192.063" rx="2.184" ry="1.623"/>
	<path fill="#94C952" d="M85.063,229.88c0,0,81.513,33.99,189.037,0l5.836,12.512c0,0-74.274,41.962-202.103,2.635L85.063,229.88z"
		/>
	<path fill="#9D5BA4" d="M164.561,244.553c0,0-1.239,6.444,6.94,6.196c8.179-0.248,9.542-8.923,10.534-1.239
		s4.338,8.304,5.081,8.799c0.743,0.496,9.79,1.363,7.063-6.196c-2.726-7.56-1.858-7.188-0.867-6.692
		c0.992,0.495,9.42,1.734,6.568-1.611L164.561,244.553z"/>
	<path fill="#9D5BA4" d="M91.56,246.874c0,0-4.581-8.783,5.45-6.537c0,0,2.673,2.705,2.827,3.472
		c0.154,0.767,1.993-5.365,4.905-5.824c2.912-0.46,11.802-0.308,10.882,3.525c-0.919,3.832-0.613,6.744,2.452,5.364
		c3.066-1.379,10.116,2.299,4.751,7.051L91.56,246.874z"/>
	<path fill="#9D5BA4" d="M244.066,253.771c0,0-5.059-4.599,1.686-8.584c6.744-3.984,6.529,3.066,10.393-4.444
		c3.863-7.51,8.164-5.134,9.385-3.87c1.222,1.264,0.871,4.062-0.947,6.494c-1.816,2.434,4.184-4.882,6.012,3.604L244.066,253.771z"
		/>
	<path fill="none" stroke="#31333E" stroke-width="3" stroke-miterlimit="10" d="M80.063,244.664L182.896,29.243l99.271,212.787
		C282.166,242.03,205.301,283.054,80.063,244.664z"/>
	<path fill="#94C952" d="M85.063,229.88"/>
	<path fill="none" stroke="#31333E" stroke-width="3" stroke-miterlimit="10" d="M86.833,229.568c0,0,81.514,33.991,189.037,0
		l5.838,12.513c0,0-74.275,41.961-202.104,2.634L86.833,229.568z"/>
	<path fill="#9C5BA5" stroke="#31333E" stroke-width="3" stroke-miterlimit="10" d="M177.47,22.622c0,0-0.221-18.239,2.725-8.813
		c2.946,9.426,3.942,12.107,5.706,9.043c1.762-3.065,8.659-13.104,6.82-5.595c-1.84,7.51-4.752,11.495,2.223,9.119
		c6.973-2.376,11.266-1.839,7.203,0.23c-4.062,2.069-10.115,7.127-10.422,8.123c-0.307,0.997,5.211,6.055,5.211,6.055
		s3.889,4.297-10.893-3.255c0,0-4.75,23.794-8.577,1.033c0,0-13.177,5.748-9.039,0.536c4.138-5.212,4.828-6.055,4.828-6.055
		s-16.707,2.3-8.966-0.767c7.74-3.065,10.499-4.828,10.499-4.828S152.333,16.262,177.47,22.622z"/>
	<g>
		<path fill="#581018" d="M131.446,218.951c0,0,1.149-37.705,34.486-62.306c33.337-24.6,79.779-11.955,85.987,60.007
			C251.919,216.652,183.865,235.275,131.446,218.951z"/>
		<path fill="#2D1013" stroke="#31333E" stroke-miterlimit="10" d="M147.829,176.364c0,0,28.184-7.035,21.134,4.153
			s2.146,13.182,4.445,10.423c2.299-2.759,0.919-12.415,0.919-12.415s2.606-12.875,16.094,1.992
			c13.487,14.867-2.913,32.953-11.342,29.889C170.648,207.341,118.076,215.312,147.829,176.364z"/>
		<path fill="#C52E39" stroke="#31333E" stroke-miterlimit="10" d="M182.486,213.277c0,0-2.63-3.318-7.558-6.385
			c-8.213-5.11-21.928-8.98-41.374,3.855l-1.034,8.203c0,0,30.465,12.452,95.642,2.604c0,0-14.562-23.451-40.465-19.619
			c0,0-11.343,1.532-11.803,4.444L182.486,213.277z"/>
		<path fill="none" stroke="#31333E" stroke-width="3" stroke-miterlimit="10" d="M132.52,218.951c0,0,1.149-37.705,34.486-62.306
			c33.337-24.6,79.779-11.955,85.987,60.007C252.993,216.652,184.939,235.275,132.52,218.951z"/>
	</g>
	
		<ellipse fill="#FFFFFF" stroke="#31333E" stroke-width="2" stroke-miterlimit="10" cx="224.963" cy="103.953" rx="25.225" ry="24.206"/>
	
		<ellipse fill="#FFFFFF" stroke="#31333E" stroke-width="2" stroke-miterlimit="10" cx="181.752" cy="103.953" rx="25.953" ry="24.206"/>
	<circle fill="#31333E" stroke="#31333E" stroke-width="3" stroke-miterlimit="10" cx="185.629" cy="101.306" r="2.647"/>
	<circle fill="#31333E" stroke="#31333E" stroke-width="3" stroke-miterlimit="10" cx="230.271" cy="101.306" r="2.647"/>
	
		<ellipse transform="matrix(-0.4104 0.9119 -0.9119 -0.4104 574.5482 71.989)" fill="#D57E72" cx="264.003" cy="221.723" rx="2.184" ry="1.623"/>
	
		<ellipse transform="matrix(-0.8624 0.5062 -0.5062 -0.8624 376.1288 18.0031)" fill="#D57E72" cx="185.618" cy="60.119" rx="2.184" ry="1.623"/>
	
		<ellipse transform="matrix(0.286 -0.9582 0.9582 0.286 46.4063 219.8958)" fill="#D57E72" cx="170.759" cy="78.808" rx="1.953" ry="1.451"/>
	
		<ellipse transform="matrix(-0.4104 0.9119 -0.9119 -0.4104 321.885 89.5677)" fill="#D57E72" cx="131.986" cy="148.848" rx="2.184" ry="2.196"/>
	
		<ellipse transform="matrix(0.9328 0.3605 -0.3605 0.9328 79.6564 -34.9578)" fill="#D57E72" cx="133.551" cy="196.082" rx="2.184" ry="1.623"/>
	
		<ellipse transform="matrix(-0.9922 -0.1248 0.1248 -0.9922 183.0779 454.0174)" fill="#D57E72" cx="105.756" cy="221.276" rx="2.469" ry="1.624"/>
	<path fill="none" stroke="#31333E" stroke-width="3" stroke-miterlimit="10" d="M198.852,229.568c0,0,10.422,2.284,19.465-2.008"/>
</g>
</svg>
