<?xml version="1.0" encoding="utf-8"?>
<!-- Generator: Adobe Illustrator 16.0.0, SVG Export Plug-In . SVG Version: 6.00 Build 0)  -->
<!DOCTYPE svg PUBLIC "-//W3C//DTD SVG 1.1//EN" "http://www.w3.org/Graphics/SVG/1.1/DTD/svg11.dtd">
<svg version="1.1" xmlns="http://www.w3.org/2000/svg" xmlns:xlink="http://www.w3.org/1999/xlink" x="0px" y="0px" width="360px"
	 height="360px" viewBox="0 0 360 360" enable-background="new 0 0 360 360" xml:space="preserve">
<g id="Layer_1">
	<g id="Layer_2" opacity="0.6">
		<path opacity="0.3" enable-background="new    " d="M163.072,173.567c44.505,0,80.583,23.873,80.583,53.33
			c0,29.447-36.078,53.319-80.583,53.319c-44.504,0-80.583-23.872-80.583-53.319C82.489,197.44,118.568,173.567,163.072,173.567z"/>
	</g>
</g>
<g id="Layer_2_1_">
	<g>
		<g>
			
				<ellipse fill="#A0A0A0" stroke="#31323D" stroke-width="3" stroke-miterlimit="10" cx="180" cy="217.526" rx="77.248" ry="60.126"/>
			
				<ellipse fill="#B5B4BA" stroke="#31323D" stroke-width="3" stroke-miterlimit="10" cx="180" cy="210.925" rx="77.248" ry="58.16"/>
			
				<ellipse fill="#937E83" stroke="#31323D" stroke-width="3" stroke-miterlimit="10" cx="179.933" cy="190.924" rx="69.685" ry="52.642"/>
			
				<ellipse fill="#B13432" stroke="#31323D" stroke-width="2" stroke-miterlimit="10" cx="178.959" cy="187.108" rx="64.696" ry="52.099"/>
			
				<ellipse fill="#E54932" stroke="#31323D" stroke-width="2" stroke-miterlimit="10" cx="178.96" cy="179.249" rx="63.6" ry="47.644"/>
		</g>
		<g>
			<g>
				<path fill="#FFFFFF" stroke="#FFFFFF" stroke-width="4" stroke-miterlimit="10" d="M145.721,171.391
					c-0.72-1.415-1.084-2.12-1.82-3.529c1.468-0.598,2.206-0.891,3.688-1.467c0.715,1.42,1.069,2.131,1.769,3.556
					C147.896,170.515,147.168,170.804,145.721,171.391z M154.814,201.635c-0.216-1.153-0.323-1.727-0.541-2.879
					c0.711-0.106,1.251-0.234,1.622-0.385c0.655-0.267,1.059-0.672,1.205-1.223c0.146-0.55-0.134-1.666-0.857-3.348
					c-3.32-7.705-5.092-11.529-8.859-19.105c1.428-0.577,2.146-0.859,3.588-1.414c3.67,7.66,5.394,11.524,8.611,19.308
					c0.938,2.271,1.253,3.978,1.006,5.101c-0.32,1.451-1.367,2.533-3.147,3.252C156.58,201.29,155.705,201.519,154.814,201.635z"/>
				<path fill="#FFFFFF" stroke="#FFFFFF" stroke-width="4" stroke-miterlimit="10" d="M177.673,185.543
					c-0.366-1.118-0.551-1.677-0.926-2.793c-0.91,2.601-2.723,4.29-5.443,5.137c-1.2,0.374-2.39,0.52-3.583,0.437
					c-1.193-0.082-2.163-0.353-2.914-0.817s-1.411-1.125-1.989-1.971c-0.388-0.568-0.857-1.522-1.412-2.86
					c-1.901-4.59-2.89-6.876-4.948-11.426c1.463-0.521,2.198-0.775,3.674-1.274c1.783,4.1,2.643,6.158,4.299,10.289
					c0.662,1.649,1.166,2.746,1.534,3.267c0.535,0.758,1.26,1.261,2.147,1.508c0.887,0.247,1.851,0.208,2.898-0.115
					c1.049-0.323,1.948-0.865,2.704-1.63s1.186-1.623,1.281-2.585c0.096-0.961-0.134-2.254-0.709-3.869
					c-1.444-4.056-2.196-6.077-3.758-10.109c1.512-0.434,2.271-0.646,3.795-1.056c2.807,7.57,4.107,11.377,6.501,19.02
					C179.56,185.024,178.93,185.194,177.673,185.543z"/>
				<path fill="#FFFFFF" stroke="#FFFFFF" stroke-width="4" stroke-miterlimit="10" d="M179.081,160.641
					c-0.534-1.5-0.805-2.248-1.354-3.746c1.584-0.389,2.379-0.58,3.976-0.944c0.528,1.506,0.787,2.26,1.3,3.769
					C181.428,160.076,180.645,160.26,179.081,160.641z M184.08,191.859c-0.057-1.172-0.086-1.76-0.146-2.932
					c0.746-0.006,1.32-0.057,1.721-0.153c0.711-0.173,1.184-0.519,1.413-1.043c0.229-0.523,0.1-1.669-0.404-3.435
					c-2.313-8.094-3.585-12.127-6.355-20.152c1.543-0.373,2.317-0.553,3.872-0.902c2.665,8.097,3.883,12.163,6.087,20.322
					c0.643,2.38,0.723,4.116,0.309,5.194c-0.534,1.392-1.767,2.312-3.699,2.774C185.941,191.758,185.013,191.868,184.08,191.859z"/>
				<path fill="#FFFFFF" stroke="#FFFFFF" stroke-width="4" stroke-miterlimit="10" d="M209.869,179.151
					c-0.222-1.159-0.333-1.736-0.564-2.896c-1.298,2.445-3.401,3.857-6.32,4.308c-1.287,0.199-2.532,0.174-3.747-0.077
					s-2.174-0.654-2.881-1.222c-0.706-0.567-1.293-1.313-1.768-2.232c-0.317-0.616-0.667-1.629-1.047-3.032
					c-1.304-4.812-1.994-7.212-3.456-12.005c1.571-0.312,2.361-0.461,3.944-0.747c1.248,4.31,1.841,6.469,2.961,10.793
					c0.447,1.726,0.813,2.882,1.117,3.45c0.443,0.826,1.114,1.426,1.991,1.796s1.875,0.47,2.998,0.3
					c1.124-0.171,2.126-0.579,3.011-1.229c0.884-0.65,1.444-1.44,1.677-2.378c0.232-0.938,0.177-2.248-0.189-3.93
					c-0.92-4.223-1.41-6.333-2.449-10.548c1.612-0.215,2.42-0.316,4.041-0.505c1.828,7.897,2.638,11.854,4.048,19.768
					C211.886,178.911,211.211,178.987,209.869,179.151z"/>
			</g>
		</g>
		<path opacity="0.3" fill="#31323D" d="M112.717,204.844c0,0-1.804,39.863,16.689,59.065c0,0-41.051-32.458-19.898-76.801
			C109.507,187.108,110.387,203.424,112.717,204.844z"/>
		<g>
			<path fill="#31323D" d="M188.536,255.463l4.409-10.11c0,0,0.137-0.57,0.469-0.074c0.334,0.492,7.361,8.224,7.361,8.224
				s0.373,0.37,0.119,0.744c-0.252,0.372-4.652,7.804-4.652,7.804s-0.125,0.804-0.879,0.143c-0.75-0.663-6.689-5.868-6.689-5.868
				S188.314,255.975,188.536,255.463z"/>
			<g>
				<polygon fill="#B5B4BA" points="193.092,246.249 189.123,255.41 194.088,252.463 				"/>
				<g>
					<g>
						<g>
							<polygon fill="#937E83" points="193.092,246.249 189.123,255.41 191.953,253.73 							"/>
						</g>
					</g>
				</g>
			</g>
			<polygon fill="#B5B4BA" points="193.559,246.173 200.193,253.637 194.557,252.387 			"/>
			<polygon fill="#EAEAEA" points="194.633,252.863 195.293,256.983 200.264,254.073 			"/>
			<g>
				<polygon fill="#EAEAEA" points="194.164,252.938 194.824,257.057 189.194,255.847 				"/>
				<polygon fill="#B5B4BA" points="189.197,255.867 191.727,254.366 191.762,254.908 191.993,255.418 192.709,256.594 				"/>
			</g>
			<g>
				<polygon fill="#B5B4BA" points="189.415,256.243 194.881,257.4 195.559,261.633 				"/>
				<polygon fill="#937E83" points="189.415,256.243 192.972,256.996 195.559,261.633 				"/>
			</g>
			<polygon fill="#B5B4BA" points="200.18,254.518 195.35,257.327 196.027,261.557 			"/>
		</g>
	</g>
</g>
</svg>
