<?xml version="1.0" encoding="utf-8"?>
<!-- Generator: Adobe Illustrator 16.0.0, SVG Export Plug-In . SVG Version: 6.00 Build 0)  -->
<!DOCTYPE svg PUBLIC "-//W3C//DTD SVG 1.1//EN" "http://www.w3.org/Graphics/SVG/1.1/DTD/svg11.dtd">
<svg version="1.1" id="Layer_1" xmlns="http://www.w3.org/2000/svg" xmlns:xlink="http://www.w3.org/1999/xlink" x="0px" y="0px"
	 width="360px" height="360px" viewBox="0 0 360 360" enable-background="new 0 0 360 360" xml:space="preserve">
<g transform="matrix(1,0,3.46945e-18,0.581395,3.66667,85.0543)">
	<ellipse fill="#31333E" fill-opacity="0.302" cx="177.999" cy="286" rx="161.334" ry="57.333"/>
</g>
<rect fill="#31333E" fill-opacity="0" width="360" height="360"/>
<g>
	<g>
		<g>
			<path fill="#F1AB56" stroke="#0D1725" stroke-width="3" stroke-miterlimit="10" d="M158.489,142.814
				c0,0-24.229-18.708-60.543-32.672c-17.351-6.671-54.319-16.206-59.004-14.207c-3.015,5.022-14.065,53.241-14.399,76.682
				c-0.335,23.441,15.068,76.015,19.085,78.021c4.02,2.01,60.587-13.334,76.018-22.101c14.731-8.372,28.25-20.47,38.844-33.151
				C158.489,186.009,158.489,142.814,158.489,142.814z"/>
			<path fill="#FFFFFF" d="M172.821,142.428c0,0-24.532-18.945-61.307-33.085c-17.568-6.757-56.867-16.593-59.75-14.389
				c-3.052,5.086-14.24,53.917-14.579,77.653c-0.342,23.735,15.258,76.977,19.326,79.009c4.07,2.034,61.353-13.502,76.977-22.38
				c14.919-8.478,28.611-20.729,39.333-33.569C172.821,186.171,172.821,142.428,172.821,142.428z"/>
			<path fill="#F1AB56" stroke="#0F1927" stroke-width="3" stroke-miterlimit="10" d="M197.452,142.88
				c0,0,24.226-18.707,60.54-32.673c17.354-6.672,54.316-16.206,59.002-14.207c3.015,5.023,14.066,53.241,14.4,76.682
				c0.332,23.44-15.069,76.015-19.088,78.022c-4.02,2.01-60.584-13.336-76.014-22.101c-14.734-8.373-28.251-20.471-38.842-33.151
				C197.452,186.075,197.452,142.88,197.452,142.88z"/>
			<path fill="#FFFFFF" d="M183.113,142.494c0,0,24.531-18.944,61.307-33.085c17.569-6.757,56.866-16.593,59.753-14.389
				c3.051,5.087,14.24,53.917,14.582,77.653c0.335,23.737-15.262,76.978-19.328,79.011c-4.069,2.035-61.356-13.504-76.979-22.379
				c-14.918-8.479-28.607-20.729-39.334-33.57C183.113,186.236,183.113,142.494,183.113,142.494z"/>
			<g>
				<g>
					<g>
						<defs>
							<path id="SVGID_2_" d="M172.821,142.428c0,0-24.532-18.945-61.307-33.085c-17.568-6.757-56.867-16.593-59.75-14.389
								c-3.052,5.086-14.24,53.917-14.579,77.653c-0.342,23.735,15.258,76.977,19.326,79.009c4.07,2.034,61.353-13.502,76.977-22.38
								c14.919-8.478,28.611-20.729,39.333-33.569C172.821,186.171,172.821,142.428,172.821,142.428z"/>
						</defs>
						<clipPath id="SVGID_4_">
							<use xlink:href="#SVGID_2_"  overflow="visible"/>
						</clipPath>
						<g clip-path="url(#SVGID_4_)">
							<g>
								
									<rect x="-12.019" y="-119.992" transform="matrix(0.707 0.7072 -0.7072 0.707 8.0973 11.8574)" fill="#005189" width="3.514" height="271.387"/>
								
									<rect x="0.052" y="-107.869" transform="matrix(0.7072 0.707 -0.707 0.7072 20.2072 6.8699)" fill="#005189" width="3.513" height="271.406"/>
								
									<rect x="12.105" y="-95.857" transform="matrix(0.7073 0.7069 -0.7069 0.7073 32.2171 1.8605)" fill="#005189" width="3.514" height="271.386"/>
								
									<rect x="24.134" y="-83.792" transform="matrix(0.707 0.7072 -0.7072 0.707 44.2883 -3.1053)" fill="#005189" width="3.516" height="271.386"/>
								
									<rect x="36.28" y="-71.718" transform="matrix(0.7072 0.707 -0.707 0.7072 56.3705 -8.1606)" fill="#005189" width="3.514" height="271.385"/>
								
									<rect x="48.299" y="-59.598" transform="matrix(0.7068 0.7074 -0.7074 0.7068 68.5103 -13.0971)" fill="#005189" width="3.514" height="271.405"/>
								<polygon fill="#4C439B" points="-32.568,185.307 -35.053,182.822 156.85,-9.08 159.333,-6.596 								"/>
								<polygon fill="#4C439B" points="-20.502,197.374 -22.985,194.891 168.917,2.988 171.4,5.472 								"/>
								
									<rect x="84.538" y="-23.45" transform="matrix(0.707 0.7072 -0.7072 0.707 104.6702 -28.1411)" fill="#4C439B" width="3.514" height="271.386"/>
								<polygon fill="#4C439B" points="3.632,221.509 1.146,219.023 193.052,27.122 195.534,29.606 								"/>
								
									<rect x="108.654" y="0.682" transform="matrix(0.7071 0.7071 -0.7071 0.7071 128.7709 -38.1289)" fill="#4C439B" width="3.515" height="271.387"/>
								
									<rect x="120.692" y="12.747" transform="matrix(0.7074 0.7068 -0.7068 0.7074 140.7523 -43.1147)" fill="#4C439B" width="3.513" height="271.386"/>
								<polygon fill="#4C439B" points="39.834,257.712 37.351,255.229 229.252,63.325 231.738,65.808 								"/>
								
									<rect x="144.826" y="36.951" transform="matrix(0.7068 0.7074 -0.7074 0.7068 165.1058 -53.074)" fill="#4C439B" width="3.515" height="271.404"/>
								
									<rect x="156.914" y="48.95" transform="matrix(0.7074 0.7068 -0.7068 0.7074 176.9398 -58.1225)" fill="#4C439B" width="3.511" height="271.386"/>
								
									<rect x="169.033" y="61.022" transform="matrix(0.707 0.7072 -0.7072 0.707 189.1715 -63.1467)" fill="#4C439B" width="3.513" height="271.384"/>
								<polygon fill="#005189" points="88.103,305.98 85.619,303.496 277.523,111.593 280.005,114.078 								"/>
								
									<rect x="193.088" y="85.148" transform="matrix(0.707 0.7072 -0.7072 0.707 213.2854 -73.0893)" fill="#005189" width="3.513" height="271.387"/>
								
									<rect x="205.124" y="97.186" transform="matrix(0.7068 0.7074 -0.7074 0.7068 225.3929 -78.0679)" fill="#005189" width="3.512" height="271.405"/>
								<polygon fill="#005189" points="124.307,342.184 121.821,339.695 313.725,147.795 316.206,150.279 								"/>
								
									<rect x="229.318" y="121.431" transform="matrix(0.7071 0.7071 -0.7071 0.7071 249.5019 -88.0823)" fill="#005189" width="3.516" height="271.406"/>
								
									<rect x="241.409" y="133.423" transform="matrix(0.707 0.7072 -0.7072 0.707 261.5864 -93.1186)" fill="#005189" width="3.514" height="271.385"/>
								
									<rect x="253.518" y="145.495" transform="matrix(0.7071 0.7071 -0.7071 0.7071 273.5971 -98.1488)" fill="#005189" width="3.513" height="271.384"/>
								<polygon fill="#005189" points="172.575,390.451 170.09,387.967 361.993,196.063 364.478,198.55 								"/>
								
									<rect x="277.618" y="169.626" transform="matrix(0.7072 0.707 -0.707 0.7072 297.6385 -108.1251)" fill="#005189" width="3.513" height="271.385"/>
								
									<rect x="289.657" y="181.775" transform="matrix(0.7068 0.7074 -0.7074 0.7068 310.0119 -113.067)" fill="#005189" width="3.515" height="271.403"/>
								
									<rect x="301.689" y="193.757" transform="matrix(0.7077 0.7066 -0.7066 0.7077 321.4817 -118.0888)" fill="#005189" width="3.513" height="271.387"/>
								
									<rect x="313.76" y="205.824" transform="matrix(0.7066 0.7077 -0.7077 0.7066 334.267 -123.0613)" fill="#005189" width="3.513" height="271.386"/>
								
									<rect x="325.774" y="217.888" transform="matrix(0.7067 0.7075 -0.7075 0.7067 346.2353 -128.0256)" fill="#005189" width="3.51" height="271.387"/>
								
									<rect x="337.905" y="229.956" transform="matrix(0.7071 0.7071 -0.7071 0.7071 358.0384 -133.0793)" fill="#005189" width="3.511" height="271.389"/>
							</g>
							
								<rect x="251.174" y="-161.615" transform="matrix(-0.7071 0.7071 -0.7071 -0.7071 503.8923 -4.7537)" fill="#FFFFFF" width="3.514" height="527.195"/>
							<polygon fill="#FFFFFF" points="47.52,-65.387 50.006,-67.873 422.796,304.916 420.306,307.4 							"/>
							<polygon fill="#FFFFFF" points="29.761,-47.628 32.246,-50.114 405.034,322.676 402.547,325.161 							"/>
							
								<rect x="197.886" y="-108.327" transform="matrix(-0.7072 0.707 -0.707 -0.7072 450.611 123.9437)" fill="#FFFFFF" width="3.514" height="527.195"/>
							<polygon fill="#F48C20" points="-5.76,-12.108 -3.275,-14.595 369.515,358.195 367.028,360.68 							"/>
							
								<rect x="162.373" y="-72.853" transform="matrix(-0.7072 0.707 -0.707 -0.7072 415.061 209.6126)" fill="#F48C20" width="3.514" height="527.195"/>
							<polygon fill="#F48C20" points="-41.279,23.411 -38.794,20.926 333.995,393.715 331.513,396.199 							"/>
							<polygon fill="#F48C20" points="-59.038,41.17 -56.555,38.686 316.233,411.476 313.753,413.958 							"/>
							<polygon fill="#F48C20" points="-76.799,58.932 -74.313,56.445 298.477,429.235 295.993,431.719 							"/>
							
								<rect x="91.324" y="-1.741" transform="matrix(-0.707 0.7072 -0.7072 -0.707 344.0704 381.175)" fill="#F48C20" width="3.513" height="527.195"/>
							<polygon fill="#FFFFFF" points="-112.319,94.449 -109.834,91.965 262.957,464.755 260.469,467.237 							"/>
						</g>
					</g>
				</g>
				<g>
					<path id="SVGID_1_" fill="none" stroke="#0F1826" stroke-width="3" stroke-miterlimit="10" d="M172.821,142.428
						c0,0-24.532-18.945-61.307-33.085c-17.568-6.757-56.867-16.593-59.75-14.389c-3.052,5.086-14.24,53.917-14.579,77.653
						c-0.342,23.735,15.258,76.977,19.326,79.009c4.07,2.034,61.353-13.502,76.977-22.38c14.919-8.478,28.611-20.729,39.333-33.569
						C172.821,186.171,172.821,142.428,172.821,142.428z"/>
				</g>
			</g>
			<g>
				<g>
					<g>
						<defs>
							<path id="SVGID_5_" d="M183.113,142.494c0,0,24.531-18.944,61.307-33.085c17.569-6.757,56.866-16.593,59.753-14.389
								c3.051,5.087,14.24,53.917,14.582,77.653c0.335,23.737-15.262,76.978-19.328,79.011
								c-4.069,2.035-61.356-13.504-76.979-22.379c-14.918-8.479-28.607-20.729-39.334-33.57
								C183.113,186.236,183.113,142.494,183.113,142.494z"/>
						</defs>
						<clipPath id="SVGID_6_">
							<use xlink:href="#SVGID_5_"  overflow="visible"/>
						</clipPath>
						<g clip-path="url(#SVGID_6_)">
							<g>
								
									<rect x="35.172" y="212.421" transform="matrix(0.7072 -0.707 0.707 0.7072 -235.3165 128.0452)" fill="#005189" width="3.511" height="271.386"/>
								
									<rect x="47.258" y="200.263" transform="matrix(0.7072 -0.707 0.707 0.7072 -223.1807 133.0314)" fill="#005189" width="3.514" height="271.386"/>
								
									<rect x="59.41" y="188.248" transform="matrix(0.7075 -0.7068 0.7068 0.7075 -211.0617 138)" fill="#005189" width="3.512" height="271.405"/>
								<polygon fill="#005189" points="170.352,406.573 167.869,409.059 -24.037,217.154 -21.551,214.671 								"/>
								
									<rect x="83.543" y="164.111" transform="matrix(0.7073 -0.7069 0.7069 0.7073 -186.9722 148.0489)" fill="#005189" width="3.513" height="271.405"/>
								
									<rect x="95.51" y="151.995" transform="matrix(0.7075 -0.7067 0.7067 0.7075 -174.8636 152.8822)" fill="#005189" width="3.514" height="271.402"/>
								
									<rect x="107.57" y="139.976" transform="matrix(0.7068 -0.7074 0.7074 0.7068 -162.9598 158.1582)" fill="#005189" width="3.515" height="271.406"/>
								<polygon fill="#005189" points="218.618,358.307 216.139,360.789 24.232,168.886 26.717,166.404 								"/>
								
									<rect x="131.723" y="115.867" transform="matrix(0.7068 -0.7074 0.7074 0.7068 -138.8174 168.1714)" fill="#005189" width="3.512" height="271.386"/>
								
									<rect x="143.795" y="103.788" transform="matrix(0.707 -0.7072 0.7072 0.707 -126.7215 173.1171)" fill="#005189" width="3.514" height="271.388"/>
								
									<rect x="155.865" y="91.681" transform="matrix(0.7075 -0.7067 0.7067 0.7075 -114.5817 177.8917)" fill="#005189" width="3.516" height="271.385"/>
								<polygon fill="#005189" points="266.891,310.037 264.402,312.52 72.502,120.618 74.986,118.134 								"/>
								
									<rect x="180.077" y="67.577" transform="matrix(0.7075 -0.7067 0.7067 0.7075 -90.472 187.9545)" fill="#005189" width="3.514" height="271.403"/>
								
									<rect x="192.067" y="55.424" transform="matrix(0.7066 -0.7077 0.7077 0.7066 -78.3699 193.2452)" fill="#4C439B" width="3.513" height="271.389"/>
								
									<rect x="204.133" y="43.385" transform="matrix(0.7071 -0.7071 0.7071 0.7071 -66.3242 198.0374)" fill="#4C439B" width="3.513" height="271.387"/>
								
									<rect x="216.198" y="31.398" transform="matrix(0.7072 -0.707 0.707 0.7072 -54.3215 203.0034)" fill="#4C439B" width="3.513" height="271.387"/>
								
									<rect x="228.268" y="19.297" transform="matrix(0.7071 -0.7071 0.7071 0.7071 -42.2218 208.0475)" fill="#4C439B" width="3.513" height="271.385"/>
								
									<rect x="240.329" y="7.195" transform="matrix(0.7071 -0.7071 0.7071 0.7071 -30.1304 213.0322)" fill="#4C439B" width="3.516" height="271.383"/>
								
									<rect x="252.397" y="-4.887" transform="matrix(0.7068 -0.7074 0.7074 0.7068 -18.02 218.1334)" fill="#4C439B" width="3.515" height="271.387"/>
								<polygon fill="#4C439B" points="363.425,213.497 360.944,215.98 169.041,24.079 171.525,21.594 								"/>
								<polygon fill="#4C439B" points="375.493,201.432 373.011,203.915 181.107,12.012 183.591,9.527 								"/>
								
									<rect x="288.603" y="-40.999" transform="matrix(0.7067 -0.7075 0.7075 0.7067 18.1664 233.2108)" fill="#4C439B" width="3.513" height="271.387"/>
								
									<rect x="300.648" y="-53.155" transform="matrix(0.7075 -0.7068 0.7068 0.7075 30.1257 237.8765)" fill="#4C439B" width="3.514" height="271.405"/>
								
									<rect x="312.828" y="-65.166" transform="matrix(0.7072 -0.707 0.707 0.7072 42.2466 243.0787)" fill="#4C439B" width="3.516" height="271.404"/>
								
									<rect x="324.882" y="-77.274" transform="matrix(0.7068 -0.7074 0.7074 0.7068 54.43 248.1886)" fill="#4C439B" width="3.513" height="271.404"/>
								
									<rect x="336.876" y="-89.25" transform="matrix(0.7073 -0.7069 0.7069 0.7073 66.2821 252.9717)" fill="#4C439B" width="3.512" height="271.386"/>
								
									<rect x="348.93" y="-101.387" transform="matrix(0.7072 -0.707 0.707 0.7072 78.4118 257.9673)" fill="#4C439B" width="3.513" height="271.385"/>
								
									<rect x="360.998" y="-113.479" transform="matrix(0.707 -0.7072 0.7072 0.707 90.5646 263.0391)" fill="#4C439B" width="3.512" height="271.386"/>
								<polygon fill="#4C439B" points="472.03,104.893 469.548,107.377 277.646,-84.526 280.128,-87.01 								"/>
								
									<rect x="385.151" y="-137.586" transform="matrix(0.7072 -0.707 0.707 0.7072 114.6352 273.0047)" fill="#4C439B" width="3.516" height="271.385"/>
							</g>
							
								<rect x="121.503" y="-178.667" transform="matrix(0.7073 0.7069 -0.7069 0.7073 96.1268 -62.2679)" fill="#FFFFFF" width="3.512" height="527.233"/>
							<polygon fill="#FFFFFF" points="-44.144,290.284 -46.629,287.797 326.159,-84.99 328.643,-82.505 							"/>
							<polygon fill="#FFFFFF" points="-26.383,308.043 -28.867,305.559 343.917,-67.23 346.407,-64.746 							"/>
							
								<rect x="174.782" y="-125.436" transform="matrix(0.707 0.7072 -0.7072 0.707 149.4451 -84.371)" fill="#FFFFFF" width="3.514" height="527.192"/>
							
								<rect x="192.531" y="-107.679" transform="matrix(0.707 0.7072 -0.7072 0.707 167.1804 -91.7177)" fill="#F48C20" width="3.513" height="527.193"/>
							
								<rect x="210.244" y="-89.921" transform="matrix(0.707 0.7072 -0.7072 0.707 184.9543 -99.0445)" fill="#F48C20" width="3.514" height="527.192"/>
							
								<rect x="227.976" y="-72.159" transform="matrix(0.707 0.7072 -0.7072 0.707 202.7127 -106.3804)" fill="#F48C20" width="3.514" height="527.193"/>
							<polygon fill="#F48C20" points="62.416,396.843 59.932,394.357 432.722,21.568 435.202,24.053 							"/>
							
								<rect x="263.54" y="-36.571" transform="matrix(0.7071 0.7071 -0.7071 0.7071 238.2482 -121.0937)" fill="#F48C20" width="3.513" height="527.23"/>
							<polygon fill="#F48C20" points="97.937,432.362 95.45,429.877 468.241,57.089 470.722,59.573 							"/>
							<polygon fill="#FFFFFF" points="115.695,450.122 113.212,447.637 485.999,74.849 488.485,77.333 							"/>
						</g>
					</g>
				</g>
				<g>
					<path id="SVGID_3_" fill="none" stroke="#0F1927" stroke-width="3" stroke-miterlimit="10" d="M183.113,142.494
						c0,0,24.531-18.944,61.307-33.085c17.569-6.757,56.866-16.593,59.753-14.389c3.051,5.087,14.24,53.917,14.582,77.653
						c0.335,23.737-15.262,76.978-19.328,79.011c-4.069,2.035-61.356-13.504-76.979-22.379
						c-14.918-8.479-28.607-20.729-39.334-33.57C183.113,186.236,183.113,142.494,183.113,142.494z"/>
				</g>
			</g>
		</g>
		<g opacity="0.7">
			<path fill="#E3E4E5" d="M168.756,159.381c-10.267-5.764-58.664-20.346-86.81-27.466C53.8,124.794,38.542,152.6,65.331,156.669
				C92.119,160.739,149.085,155.653,168.756,159.381z"/>
			<path fill="#E3E4E5" d="M168.756,178.034c-19.33,5.424-66.806,12.884-94.949,5.763c-28.146-7.121-31.537,24.076-4.748,28.146
				S153.501,201.068,168.756,178.034z"/>
		</g>
		<g opacity="0.7">
			<path fill="#E3E4E5" d="M189.625,158.94c10.271-5.764,58.665-20.346,86.813-27.466c28.144-7.122,43.402,20.684,16.613,24.754
				C266.264,160.298,209.294,155.21,189.625,158.94z"/>
			<path fill="#E3E4E5" d="M189.625,177.591c19.33,5.427,66.807,12.888,94.95,5.765c28.143-7.121,31.537,24.076,4.745,28.146
				C262.534,215.57,204.879,200.628,189.625,177.591z"/>
		</g>
	</g>
	<g id="Layer_3">
		<path fill="#ECE6F2" stroke="#0D1725" stroke-width="3" stroke-miterlimit="10" d="M123.312,121.101
			c0,0,20.282-2.238,27.626,0.752c7.344,2.991,14.829,4.41,23.733,1.7c8.904-2.71,20.519-1.936,25.938-0.129
			c5.42,1.807,10.065,1.807,15.615,0.517c5.549-1.291,10.709,1.419,15.741-1.162c0,0,1.808-0.129-0.901,9.549
			c-2.711,9.678-3.613,8.904-3.484,14.84s4.387,3.226,1.807,12.904c-2.58,9.679-2.063,4.517-1.678,11.872
			c0.387,7.355,1.02,7.372-0.143,13.051c-1.162,5.678-3.213,9.79,0.399,17.92c3.613,8.13-1.678,18.711,0.13,22.323
			c0,0-1.421,0.259-2.322,0c-0.903-0.258-1.808-2.45-3.742-2.321c-1.936,0.129,0.258,2.164-10.711,1.922
			c-10.969-0.244-11.228-3.729-12.646-2.955c-1.42,0.775-5.807,1.679-6.71,1.679s-2.968,0-4.388-0.902
			c-1.42-0.904-3.484-1.033-4.646-0.26c-1.162,0.774-4.526,4.002-13.296,2.453c-8.77-1.55-6.319-1.162-10.19-0.388
			c-3.872,0.772-9.807-0.259-9.807-0.259s-8.001-1.318-13.421,0.244s-12.904,1.82-12.904,1.82l1.678-17.033
			c0,0,2.323-12.26,1.161-17.938c-1.161-5.678,0.258-8,1.162-10.968c0.904-2.968-1.549-15.873,1.936-22.841
			c3.485-6.968-4.904-16.13-5.42-20.002C123.312,133.619,123.312,121.101,123.312,121.101z"/>
		<path fill="#DED6E5" d="M134.425,131.486c0,0,15.828-0.205,22.164,0.621c7.474,0.975,11.885-0.973,19.029-3.211
			c7.144-2.239,17.935,0.431,22.282,1.925c4.348,1.493,6.613,4.077,11.063,3.01c4.451-1.066,8.593,1.173,12.629-0.959
			c0,0,1.45-0.106-0.724,7.891c-2.174,7.999-2.898,7.359-2.796,12.265c0.104,4.906,3.52,2.666,1.45,10.664
			c-2.07,7.998-1.656,3.733-1.346,9.812c0.312,6.078,2.928,7.006,1.996,11.7c-0.933,4.692-4.689,7.176-1.789,13.896
			c2.896,6.717-1.346,15.463,0.104,18.448c0,0-1.139,0.213-1.864,0c-0.724-0.214-1.449-2.026-3.002-1.919
			c-1.554,0.105,0.208,1.789-8.593,1.588c-8.799-0.201-9.006-3.082-10.146-2.441c-1.139,0.64-4.657,1.388-5.383,1.388
			s-2.382,0-3.521-0.747c-1.14-0.745-2.795-0.854-3.728-0.213c-0.933,0.64-3.631,3.306-10.667,2.025
			c-7.036-1.278-5.069-0.959-8.174-0.318c-3.106,0.64-7.868-0.215-7.868-0.215s-6.419-1.09-10.767,0.203
			c-4.348,1.289-10.353,1.504-10.353,1.504l1.346-14.077c0,0-1.757-6.522-2.689-11.216c-0.932-4.692-0.065-8.902,0.659-11.355
			c0.724-2.453-2.112-14.544,0.683-20.302c2.796-5.759,0.829-13.22,0.414-16.419C134.426,141.831,134.425,131.486,134.425,131.486z"
			/>
		<path fill="#F48C20" stroke="#0C1724" stroke-width="3" stroke-miterlimit="10" d="M152.604,135.554
			c0,0-11.227,20.487-2.71,36.569c8.517,16.081,35.487,25.857,37.938,1.161c0,0,8.518,9.112,8.518,20.854
			c0,0-0.646,23.615-20.775,24.002c-20.131,0.389-39.756-4.705-42.197-32.775C130.28,149.749,152.604,135.554,152.604,135.554z"/>
		<path fill="#4C439B" stroke="#0C1724" stroke-width="3" stroke-miterlimit="10" d="M197.124,210.915c0,0,8.39-16.13,4.001-26.065
			c-4.389-9.937-9.809-18.196-18.324-20.906c-8.517-2.71-17.55,1.548-21.55,14.324c0,0-16.13-10.323-8.001-33.938
			c8.13-23.615,75.018-22.625,65.21,38.628C218.46,182.957,214.502,209.969,197.124,210.915z"/>
		<path fill="#473D96" d="M156.544,159.984c0,0-2.839-21.25,22.281-23.486c25.12-2.237,33.638,21.507,34.928,34.325
			c1.29,12.819-4.13,25.381-4.13,25.381s-5.246,8.346-2.924-2.149c2.322-10.496-7.141-28.648-19.443-33.294
			c-12.302-4.646-17.157-2.581-22.084,0.946c-4.929,3.527-6.907,10.325-7.768,4.301
			C156.544,159.984,156.544,159.984,156.544,159.984z"/>
		<path fill="#6A60AA" d="M187.316,154.824c0,0-9.292-5.248-14.796-1.893s-5.678-1.463-4.904-2.667
			c0.774-1.204,11.442-8.775,20.131-0.946C196.438,157.146,192.995,159.985,187.316,154.824z"/>
		
			<ellipse transform="matrix(-0.9435 -0.3314 0.3314 -0.9435 268.9526 354.9882)" fill="#6A60AA" cx="164.738" cy="154.567" rx="2.366" ry="1.42"/>
		<path fill="#E28425" d="M139.313,160.847c0,0,5.42-12.13,3.871-0.258c-1.548,11.872,11.485,37.035,27.616,36.392
			c16.132-0.646,19.873-13.293,20.132-6.84c0,0-5.162,24.26-20.261,21.938C155.573,209.756,129.893,202.141,139.313,160.847z"/>
		<path fill="#F6A337" d="M163.397,201.068c0,0-5.42-3.483-5.678,0c-0.258,3.483,7.614,6.58,11.227,6.451
			c3.613-0.129,8.259-1.936,9.291-4c1.032-2.063,0.387-3.871-4.774-1.42C168.3,204.553,163.397,201.068,163.397,201.068z"/>
		
			<ellipse transform="matrix(-0.9861 0.1659 -0.1659 -0.9861 398.4296 371.0903)" fill="#F6A337" cx="183.715" cy="202.187" rx="1.937" ry="1.29"/>
	</g>
</g>
</svg>
