<?xml version="1.0" encoding="utf-8"?>
<!-- Generator: Adobe Illustrator 16.0.0, SVG Export Plug-In . SVG Version: 6.00 Build 0)  -->
<!DOCTYPE svg PUBLIC "-//W3C//DTD SVG 1.1//EN" "http://www.w3.org/Graphics/SVG/1.1/DTD/svg11.dtd">
<svg version="1.1" id="Layer_1" xmlns="http://www.w3.org/2000/svg" xmlns:xlink="http://www.w3.org/1999/xlink" x="0px" y="0px"
	 width="360px" height="360px" viewBox="0 0 360 360" enable-background="new 0 0 360 360" xml:space="preserve">
<ellipse opacity="0.7" fill="#31333E" cx="168.451" cy="216.774" rx="109.883" ry="11.56"/>
<g id="Layer_3">
	<g>
		<g>
			<g>
				<g>
					<path fill="#F0E162" d="M226.982,133.431c0,0,0.025,1.449-0.659,3.021"/>
				</g>
				<path fill="#F0E162" d="M152.585,109.854c0,0,20.295-26.298,46.889-36.84c0,0,5.376-2.894,8.433,2.391
					c3.057,5.283,14.877,22.991,18.961,57.278c0,0,47.185,32.704,49.92,50.32c0,0,1.904,12.271-43.221,15.629
					c0,0,2.475,23.892-8.883,27.437c-11.357,3.542-21.679-3.386-11.44-55.561c0,0-6.468-5.425-12.95-8.365
					c0,0-10.566,7.082-24.749,3.061c-14.182-4.021-19.178-12.202-21.631-16.21c0,0-9.466,0.768-12.146,1.94
					c0,0-9.174,27.489-13.104,32.588c-3.931,5.099-11.839,17.901-21.758,11.5s-7.605-17.479,1.09-28.679
					c0,0-19.329-14.592-30.842-33.868c0,0-3.421-4.973,2.753-9.711C86.081,118.027,110.767,105.451,152.585,109.854z"/>
			</g>
		</g>
		<path fill="#BB9732" d="M232.603,215.363c0,0-9.999,3.238-11.587,2.513c-1.586-0.728-4.636,0.758-5.71-6.183
			c-1.074-6.941-3.005-31.823-3.005-31.823s-7.79,35.124,0.917,43.745C221.926,232.237,231.5,223.323,232.603,215.363z"/>
		<path fill="#BB9732" d="M230.364,184.902c0,0,36.888,7.202,45.062,1.652c0,0-8.409,10.788-41.859,12.077L230.364,184.902z"/>
		<path fill="#BB9732" d="M79.419,134.553c0,0,27.813,22.928,35.898,23.87l-7.321,7.919
			C107.996,166.342,81.149,143.072,79.419,134.553z"/>
		<path fill="#BB9732" d="M118.698,194.503c0,0,1.216-4.377-2.937-6.799s-11.922-4.763-8.978-12.224s7.285-15.939,7.285-15.939
			s-19.862,16.981-10.599,32.79C103.47,192.331,110.36,200.593,118.698,194.503z"/>
		<path fill="#F2EBC6" d="M78.222,134.213c0,0,15.562-11.313,53.699-9.764c0,0-13.494-6.05-23.778-3.913
			c-10.285,2.136-23.798,2.447-25.323,0.29C82.819,120.827,73.563,125.528,78.222,134.213z"/>
		<path fill="none" stroke="#31333E" stroke-width="2" stroke-miterlimit="10" d="M229.641,182.758c0,0,3.32,8.892,4.107,18.735"/>
		<path fill="none" stroke="#31333E" stroke-width="2" stroke-miterlimit="10" d="M123.188,151.839c0,0-8.471,5.286-17.974,18.429"
			/>
		<path fill="#F2EBC6" d="M196.053,74.256c0,0,4.657,1.219,1.226,11.859l1.48,0.42c0,0,5.963-13.687,10.98-8.398
			C209.739,78.137,206.527,67.831,196.053,74.256z"/>
		<g>
			<path fill="none" stroke="#31333E" stroke-width="2" stroke-miterlimit="10" d="M226.982,133.431c0,0,0.025,1.449-0.659,3.021"/>
			<path fill="none" stroke="#31333E" stroke-width="2" stroke-miterlimit="10" d="M152.585,109.854c0,0,20.295-26.298,46.889-36.84
				c0,0,5.376-2.894,8.433,2.391c3.057,5.283,14.877,22.991,18.961,57.278c0,0,47.185,32.704,49.92,50.32
				c0,0,1.904,12.271-43.221,15.629c0,0,2.475,23.892-8.883,27.437c-11.357,3.542-21.679-3.386-11.44-55.561
				c0,0-6.468-5.425-12.95-8.365c0,0-10.566,7.082-24.749,3.061c-14.182-4.021-19.178-12.202-21.631-16.21
				c0,0-9.466,0.768-12.146,1.94c0,0-9.174,27.489-13.104,32.588c-3.931,5.099-11.839,17.901-21.758,11.5s-7.605-17.479,1.091-28.68
				c0,0-19.329-14.591-30.842-33.867c0,0-3.421-4.973,2.753-9.711C86.081,118.027,110.767,105.451,152.585,109.854z"/>
		</g>
		<path fill="#80CAA8" stroke="#31333E" stroke-width="2" stroke-miterlimit="10" d="M192.504,81.437l14.77,2.528
			c0,0-14.782,45.308-15.53,54.774l-15.579-5.523C176.165,133.215,181.592,106.272,192.504,81.437z"/>
		<path fill="#80CAA8" stroke="#31333E" stroke-width="2" stroke-miterlimit="10" d="M69.395,133.822l15.136,3.185
			c0,0-12.952,46.655-15.103,49.365c0,0,3.254,1.197-15.789-0.883L69.395,133.822z"/>
		<path fill="#80CAA8" stroke="#31333E" stroke-width="2" stroke-miterlimit="10" d="M266.214,185.754l15.063,3.44
			c0,0-11.905,44.921-6.969,53.836c0,0-16.394,0.281-24.059-6.821L266.214,185.754z"/>
	</g>
	<path fill="#010101" d="M-29.446,63.935"/>
</g>
</svg>
